<svg xmlns="http://www.w3.org/2000/svg" width="20" height="20" viewBox="0 0 20 20">
  <path id="Path_6300" data-name="Path 6300" d="M3305.17,13089a3.273,3.273,0,0,1,1.1-1.5,3.243,3.243,0,0,1,3.46,0,3.273,3.273,0,0,1,1.1,1.5H3321v2h-10.17a3.273,3.273,0,0,1-1.1,1.5,3.243,3.243,0,0,1-3.46,0,3.273,3.273,0,0,1-1.1-1.5H3301v-2Zm6-7a3.273,3.273,0,0,1,1.1-1.5,3.243,3.243,0,0,1,3.46,0,3.273,3.273,0,0,1,1.1,1.5H3321v2h-4.17a3.273,3.273,0,0,1-1.1,1.5,3.243,3.243,0,0,1-3.46,0,3.273,3.273,0,0,1-1.1-1.5H3301v-2Zm-6-7a3.273,3.273,0,0,1,1.1-1.5,3.243,3.243,0,0,1,3.46,0,3.273,3.273,0,0,1,1.1,1.5H3321v2h-10.17a3.273,3.273,0,0,1-1.1,1.5,3.243,3.243,0,0,1-3.46,0,3.273,3.273,0,0,1-1.1-1.5H3301v-2Z" transform="translate(-3301 -13073)" fill="#fff"/>
</svg>
