<svg xmlns="http://www.w3.org/2000/svg" width="25.035" height="24.604" viewBox="0 0 25.035 24.604">
  <g id="Auto_Reply" data-name="Auto Reply" transform="translate(-359 -612.97)">
    <path id="Path_221075" data-name="Path 221075" d="M384.035,617.937c-.125.49-.255.978-.375,1.469-.217.891-.426,1.784-.64,2.677a.771.771,0,0,1-1.175.561q-1.824-.874-3.645-1.754c-.049-.024-.1-.053-.164-.09l.643-1.34,2.163,1.036a10.75,10.75,0,1,0-14.453,14.418,10.724,10.724,0,0,0,14.042-4.017l1.289.782c-.263.376-.5.751-.772,1.1a12.012,12.012,0,0,1-9.89,4.8,12.23,12.23,0,0,1-11.806-9.813c-.1-.5-.143-1-.215-1.505-.009-.061-.025-.122-.038-.182v-1.544c.013-.074.032-.147.038-.222a12.229,12.229,0,0,1,22.913-4.989c.035.061.072.121.134.224.093-.387.171-.716.251-1.046s.16-.659.243-1l.258.056,1.2.263Z" transform="translate(0 0)"/>
    <path id="Path_221076" data-name="Path 221076" d="M502.517,812.378c-.235-.1-.444-.166-.64-.264a4.406,4.406,0,0,1-2.246-2.744.262.262,0,0,0-.3-.222c-1.606.007-3.212,0-4.818,0a1.425,1.425,0,0,1-1.559-1.553q0-2.774,0-5.547a1.392,1.392,0,0,1,1.421-1.453q4.609-.01,9.218,0a1.393,1.393,0,0,1,1.415,1.439q0,2.826,0,5.652a1.411,1.411,0,0,1-1.44,1.462c-.222.005-.445.009-.667,0a.2.2,0,0,0-.234.173,6.243,6.243,0,0,0-.218,2.27C502.463,811.84,502.491,812.086,502.517,812.378Zm.032-6.669h-7.138v1.47h7.138Zm-7.139-1.636h7.132V802.6H495.41Z" transform="translate(-128.363 -179.794)"/>
  </g>
</svg>
