<svg xmlns="http://www.w3.org/2000/svg" width="134.27" height="103.982" viewBox="0 0 134.27 103.982">
  <g id="Business_Rules" data-name="Business Rules" transform="translate(-2408.995 265.237)">
    <path id="Path_264170" data-name="Path 264170" d="M2543.261-239.244c.2-5.9-3.892-9.164-9.135-9.077-9.97.164-19.945.048-29.92.048h-2.66a4.485,4.485,0,0,1-.246-.84c-.024-3.133-.029-6.272-.048-9.405-.034-4.736-2.018-6.7-6.8-6.7q-15.687-.007-31.368,0c-2.25,0-4.5-.053-6.754.024a5.358,5.358,0,0,0-5.36,5.137c-.077.961-.033,1.931-.033,2.9-.005,2.873,0,5.745,0,8.889h-2.849q-15.085,0-30.161,0c-5.813.01-8.884,3.109-8.917,8.966q-.022,4.461,0,8.927c0,.869.072,1.738.111,2.622,17.058,11.718,35.149,20.761,55.862,25.266,0-2.453.111-4.514-.024-6.566-.3-4.669,2.965-6.61,6.479-6.615,3.138,0,6.272-.01,9.41.014a9.1,9.1,0,0,1,1.907.251,5.269,5.269,0,0,1,4.417,5.258c.068,1.926.005,3.858.044,5.789a17.716,17.716,0,0,0,.28,2.018c20.442-4.514,38.654-13.335,55.736-25.019C2543.237-231.379,2543.131-235.314,2543.261-239.244Zm-51.275-9.4h-31.673V-257.4h31.673Z" transform="translate(-0.004 0)" fill="#326cc2"/>
    <path id="Path_264171" data-name="Path 264171" d="M2543.013-163.043c.107.993.214,1.528.214,2.063q.013,21.834,0,43.669a8.136,8.136,0,0,1-2.824,6.639,8.975,8.975,0,0,1-5.332,1.95c-.72.054-1.447.015-2.171.015H2419.266c-.563,0-1.126.011-1.688,0-5.348-.138-8.531-3.289-8.555-8.667-.049-11.018-.016-22.036-.016-33.054,0-3.7-.005-7.4.01-11.1,0-.54.112-1.08.223-2.078a194.235,194.235,0,0,0,26.8,14,164.329,164.329,0,0,0,28.95,8.9c0,2.021-.029,3.848.006,5.675.075,3.874,2.009,6.048,5.84,6.216,3.531.155,7.082.162,10.611-.016,3.683-.185,5.656-2.418,5.729-6.1.035-1.752.006-3.5.006-5.375A168.252,168.252,0,0,0,2543.013-163.043Z" transform="translate(0 -52.562)" fill="#326cc2"/>
    <path id="Path_264172" data-name="Path 264172" d="M2515-249" transform="translate(-54.824 -8.398)" fill="#326cc2"/>
    <rect id="Rectangle_6406" data-name="Rectangle 6406" width="10.622" height="21.727" transform="translate(2470.797 -209.599)" fill="#1297fc"/>
  </g>
</svg>
