<svg xmlns="http://www.w3.org/2000/svg" width="888.325" height="666.661" viewBox="0 0 888.325 666.661">
  <g id="Group_7159" data-name="Group 7159" transform="translate(-843.147 -280.743)">
    <g id="Group_7036" data-name="Group 7036" transform="translate(-5271 -1233.271)" opacity="0.5">
      <g id="Group_4331" data-name="Group 4331" transform="translate(6546.138 2046.772) rotate(26)">
        <path id="Rectangle_3222" data-name="Rectangle 3222" d="M0,0H125.372V82.738H0ZM119.375,6H6V76.741H119.375Z" transform="translate(0 24.315) rotate(-11.183)" fill="#266cd5"/>
        <path id="Path_215606" data-name="Path 215606" d="M64.131,55.881,0,21.842l65.782,42.4L110.481,0Z" transform="translate(7.542 7.752)" fill="#266cd5"/>
        <g id="Group_4319" data-name="Group 4319" transform="translate(21.333 43.083)">
          <path id="Path_215607" data-name="Path 215607" d="M23.86,0,0,46,26.707,3.228Z" transform="translate(0 9.217)" fill="#266cd5"/>
          <path id="Path_215608" data-name="Path 215608" d="M1.4,0,40.975,33.462,0,4.07Z" transform="translate(69.115 0)" fill="#266cd5"/>
        </g>
      </g>
      <g id="Group_4331-2" data-name="Group 4331" transform="translate(6888.929 1972.141) rotate(30)">
        <path id="Rectangle_3222-2" data-name="Rectangle 3222" d="M0,0H42.879V28.3H0ZM40.827,2.051H2.051V26.246H40.827Z" transform="translate(0 8.316) rotate(-11.183)" fill="#266cd5"/>
        <path id="Path_215606-2" data-name="Path 215606" d="M21.933,19.112,0,7.47l22.5,14.5L37.786,0Z" transform="translate(2.58 2.651)" fill="#266cd5"/>
        <g id="Group_4319-2" data-name="Group 4319" transform="translate(7.296 14.735)">
          <path id="Path_215607-2" data-name="Path 215607" d="M8.16,0,0,15.733,9.134,1.1Z" transform="translate(0 3.152)" fill="#266cd5"/>
          <path id="Path_215608-2" data-name="Path 215608" d="M.48,0,14.014,11.444,0,1.392Z" transform="translate(23.638 0)" fill="#266cd5"/>
        </g>
      </g>
      <g id="Group_4331-3" data-name="Group 4331" transform="matrix(0.934, 0.358, -0.358, 0.934, 6957.768, 1896.29)">
        <path id="Rectangle_3222-3" data-name="Rectangle 3222" d="M0,0H48.811V32.212H0ZM46.476,2.335H2.335V29.877H46.476Z" transform="translate(0 9.466) rotate(-11.183)" fill="#266cd5"/>
        <path id="Path_215606-3" data-name="Path 215606" d="M24.968,21.756,0,8.5,25.611,25.013,43.013,0Z" transform="translate(2.936 3.018)" fill="#266cd5"/>
        <g id="Group_4319-3" data-name="Group 4319" transform="translate(8.305 16.773)">
          <path id="Path_215607-3" data-name="Path 215607" d="M9.289,0,0,17.91,10.4,1.257Z" transform="translate(0 3.588)" fill="#266cd5"/>
          <path id="Path_215608-3" data-name="Path 215608" d="M.546,0,15.953,13.028,0,1.585Z" transform="translate(26.908 0)" fill="#266cd5"/>
        </g>
      </g>
      <g id="Group_4331-4" data-name="Group 4331" transform="translate(6953.026 1735.838) rotate(11)">
        <path id="Rectangle_3222-4" data-name="Rectangle 3222" d="M0,0H48.811V32.212H0ZM46.476,2.335H2.335V29.877H46.476Z" transform="translate(0 9.466) rotate(-11.183)" fill="#266cd5"/>
        <path id="Path_215606-4" data-name="Path 215606" d="M24.968,21.756,0,8.5,25.611,25.013,43.013,0Z" transform="translate(2.936 3.018)" fill="#266cd5"/>
        <g id="Group_4319-4" data-name="Group 4319" transform="translate(8.305 16.773)">
          <path id="Path_215607-4" data-name="Path 215607" d="M9.289,0,0,17.91,10.4,1.257Z" transform="translate(0 3.588)" fill="#266cd5"/>
          <path id="Path_215608-4" data-name="Path 215608" d="M.546,0,15.953,13.028,0,1.585Z" transform="translate(26.908 0)" fill="#266cd5"/>
        </g>
      </g>
      <g id="Group_4331-5" data-name="Group 4331" transform="translate(6850.155 1656.499) rotate(30)">
        <path id="Rectangle_3222-5" data-name="Rectangle 3222" d="M0,0H28.093V18.539H0ZM26.749,1.344H1.344V17.2h25.4Z" transform="translate(0 5.448) rotate(-11.183)" fill="#266cd5"/>
        <path id="Path_215606-5" data-name="Path 215606" d="M14.37,12.522,0,4.894l14.74,9.5L24.756,0Z" transform="translate(1.69 1.737)" fill="#266cd5"/>
        <g id="Group_4319-5" data-name="Group 4319" transform="translate(4.78 9.654)">
          <path id="Path_215607-5" data-name="Path 215607" d="M5.346,0,0,10.308,5.984.723Z" transform="translate(0 2.065)" fill="#266cd5"/>
          <path id="Path_215608-5" data-name="Path 215608" d="M.315,0,9.181,7.5,0,.912Z" transform="translate(15.487 0)" fill="#266cd5"/>
        </g>
      </g>
      <g id="Group_4331-6" data-name="Group 4331" transform="translate(6581.634 1661.089) rotate(31)">
        <path id="Rectangle_3222-6" data-name="Rectangle 3222" d="M0,0H80.686V53.248H0ZM76.826,3.86H3.86V49.388H76.826Z" transform="translate(0 15.648) rotate(-11.183)" fill="#266cd5"/>
        <path id="Path_215606-6" data-name="Path 215606" d="M41.273,35.963,0,14.057,42.335,41.347,71.1,0Z" transform="translate(4.854 4.989)" fill="#266cd5"/>
        <g id="Group_4319-6" data-name="Group 4319" transform="translate(13.729 27.727)">
          <path id="Path_215607-6" data-name="Path 215607" d="M15.356,0,0,29.606,17.188,2.078Z" transform="translate(0 5.932)" fill="#266cd5"/>
          <path id="Path_215608-6" data-name="Path 215608" d="M.9,0,26.37,21.535,0,2.62Z" transform="translate(44.48 0)" fill="#266cd5"/>
        </g>
      </g>
      <g id="Group_4331-7" data-name="Group 4331" transform="translate(6491.634 1592.089) rotate(31)">
        <path id="Rectangle_3222-7" data-name="Rectangle 3222" d="M0,0H38.954V25.707H0ZM37.091,1.863H1.863v21.98H37.091Z" transform="translate(0 7.555) rotate(-11.183)" fill="#266cd5"/>
        <path id="Path_215606-7" data-name="Path 215606" d="M19.926,17.363,0,6.786,20.439,19.962,34.327,0Z" transform="translate(2.343 2.408)" fill="#266cd5"/>
        <g id="Group_4319-7" data-name="Group 4319" transform="translate(6.628 13.386)">
          <path id="Path_215607-7" data-name="Path 215607" d="M7.414,0,0,14.293,8.3,1Z" transform="translate(0 2.864)" fill="#266cd5"/>
          <path id="Path_215608-7" data-name="Path 215608" d="M.436,0l12.3,10.4L0,1.265Z" transform="translate(21.474 0)" fill="#266cd5"/>
        </g>
      </g>
      <g id="Group_4331-8" data-name="Group 4331" transform="matrix(0.927, 0.375, -0.375, 0.927, 6204.246, 1664.983)">
        <path id="Rectangle_3222-8" data-name="Rectangle 3222" d="M0,0H48.98V32.323H0ZM46.637,2.343H2.343V29.98H46.637Z" transform="translate(0 9.499) rotate(-11.183)" fill="#266cd5"/>
        <path id="Path_215606-8" data-name="Path 215606" d="M25.054,21.831,0,8.533,25.7,25.1,43.162,0Z" transform="translate(2.947 3.028)" fill="#266cd5"/>
        <g id="Group_4319-8" data-name="Group 4319" transform="translate(8.334 16.831)">
          <path id="Path_215607-8" data-name="Path 215607" d="M9.322,0,0,17.972,10.434,1.261Z" transform="translate(0 3.601)" fill="#266cd5"/>
          <path id="Path_215608-8" data-name="Path 215608" d="M.548,0,16.008,13.073,0,1.59Z" transform="translate(27.001 0)" fill="#266cd5"/>
        </g>
      </g>
      <g id="Group_4331-9" data-name="Group 4331" transform="translate(6112.143 1794.809) rotate(-15)">
        <path id="Rectangle_3222-9" data-name="Rectangle 3222" d="M0,0H39.925V26.348H0ZM38.015,1.91H1.91V24.438h36.1Z" transform="translate(0 7.743) rotate(-11.183)" fill="#266cd5"/>
        <path id="Path_215606-9" data-name="Path 215606" d="M20.422,17.8,0,6.955l20.948,13.5L35.183,0Z" transform="translate(2.402 2.468)" fill="#266cd5"/>
        <g id="Group_4319-9" data-name="Group 4319" transform="translate(6.793 13.72)">
          <path id="Path_215607-9" data-name="Path 215607" d="M7.6,0,0,14.65,8.5,1.028Z" transform="translate(0 2.935)" fill="#266cd5"/>
          <path id="Path_215608-9" data-name="Path 215608" d="M.447,0l12.6,10.656L0,1.3Z" transform="translate(22.009 0)" fill="#266cd5"/>
        </g>
      </g>
      <g id="Group_4331-10" data-name="Group 4331" transform="translate(6140.306 1895.211) rotate(-5)">
        <path id="Rectangle_3222-10" data-name="Rectangle 3222" d="M0,0H43.4V28.644H0ZM41.328,2.076H2.076V26.568H41.328Z" transform="translate(0 8.418) rotate(-11.183)" fill="#266cd5"/>
        <path id="Path_215606-10" data-name="Path 215606" d="M22.2,19.346,0,7.562,22.774,22.242,38.249,0Z" transform="translate(2.611 2.684)" fill="#266cd5"/>
        <g id="Group_4319-10" data-name="Group 4319" transform="translate(7.385 14.915)">
          <path id="Path_215607-10" data-name="Path 215607" d="M8.26,0,0,15.926,9.246,1.118Z" transform="translate(0 3.191)" fill="#266cd5"/>
          <path id="Path_215608-10" data-name="Path 215608" d="M.486,0l13.7,11.585L0,1.409Z" transform="translate(23.928 0)" fill="#266cd5"/>
        </g>
      </g>
      <g id="Group_4331-11" data-name="Group 4331" transform="translate(6259.252 1870.652) rotate(7)">
        <path id="Rectangle_3222-11" data-name="Rectangle 3222" d="M0,0H69.367V45.778H0ZM66.049,3.318H3.318V42.46h62.73Z" transform="translate(0 13.453) rotate(-11.183)" fill="#266cd5"/>
        <path id="Path_215606-11" data-name="Path 215606" d="M35.483,30.918,0,12.085,36.4,35.547,61.128,0Z" transform="translate(4.173 4.289)" fill="#266cd5"/>
        <g id="Group_4319-11" data-name="Group 4319" transform="translate(11.803 23.837)">
          <path id="Path_215607-11" data-name="Path 215607" d="M13.2,0,0,25.453,14.777,1.786Z" transform="translate(0 5.099)" fill="#266cd5"/>
          <path id="Path_215608-11" data-name="Path 215608" d="M.777,0,22.671,18.514,0,2.252Z" transform="translate(38.24 0)" fill="#266cd5"/>
        </g>
      </g>
      <g id="Group_4327" data-name="Group 4327" transform="translate(6439.422 2102.781) rotate(-8)">
        <rect id="Rectangle_3222-12" data-name="Rectangle 3222" width="68.519" height="44.048" transform="translate(0 13.288) rotate(-11.183)" fill="#266cd5"/>
        <path id="Path_215606-12" data-name="Path 215606" d="M36.811,32.082,0,12.538,37.76,36.876,63.417,0Z" transform="translate(2.306 2.42)" fill="#266cd5"/>
        <g id="Group_4319-12" data-name="Group 4319" transform="translate(10.22 22.709)">
          <path id="Path_215607-12" data-name="Path 215607" d="M13.7,0,0,26.4,15.33,1.854Z" transform="translate(0 5.288)" fill="#266cd5"/>
          <path id="Path_215608-12" data-name="Path 215608" d="M.81,0,23.518,19.207,0,2.336Z" transform="translate(39.666 0)" fill="#266cd5"/>
        </g>
      </g>
      <g id="Group_4327-2" data-name="Group 4327" transform="translate(6163.719 2012.777) rotate(-19)">
        <rect id="Rectangle_3222-13" data-name="Rectangle 3222" width="51.852" height="33.334" transform="translate(0 10.056) rotate(-11.183)" fill="#266cd5"/>
        <path id="Path_215606-13" data-name="Path 215606" d="M27.857,24.278,0,9.488,28.575,27.906,47.991,0Z" transform="translate(1.745 1.832)" fill="#266cd5"/>
        <g id="Group_4319-13" data-name="Group 4319" transform="translate(7.734 17.185)">
          <path id="Path_215607-13" data-name="Path 215607" d="M10.364,0,0,19.982,11.6,1.4Z" transform="translate(0 4.002)" fill="#266cd5"/>
          <path id="Path_215608-13" data-name="Path 215608" d="M.613,0,17.8,14.535,0,1.768Z" transform="translate(30.018 0)" fill="#266cd5"/>
        </g>
      </g>
      <g id="Group_4327-3" data-name="Group 4327" transform="translate(6246.88 1778.404) rotate(19)">
        <rect id="Rectangle_3222-14" data-name="Rectangle 3222" width="28.519" height="18.334" transform="translate(0 5.531) rotate(-11.183)" fill="#266cd5"/>
        <path id="Path_215606-14" data-name="Path 215606" d="M15.322,13.353,0,5.218l15.717,10.13L26.4,0Z" transform="translate(0.96 1.007)" fill="#266cd5"/>
        <g id="Group_4319-14" data-name="Group 4319" transform="translate(4.254 9.452)">
          <path id="Path_215607-14" data-name="Path 215607" d="M5.7,0,0,10.99,6.381.772Z" transform="translate(0 2.201)" fill="#266cd5"/>
          <path id="Path_215608-14" data-name="Path 215608" d="M.337,0,9.789,7.994,0,.972Z" transform="translate(16.51 0)" fill="#266cd5"/>
        </g>
      </g>
      <g id="Group_4327-4" data-name="Group 4327" transform="translate(6395.318 1749.587) rotate(19)">
        <rect id="Rectangle_3222-15" data-name="Rectangle 3222" width="50.546" height="32.494" transform="translate(0 9.803) rotate(-11.183)" fill="#266cd5"/>
        <path id="Path_215606-15" data-name="Path 215606" d="M27.156,23.667,0,9.249,27.856,27.2,46.782,0Z" transform="translate(1.701 1.785)" fill="#266cd5"/>
        <g id="Group_4319-15" data-name="Group 4319" transform="translate(7.54 16.752)">
          <path id="Path_215607-15" data-name="Path 215607" d="M10.1,0,0,19.479,11.309,1.368Z" transform="translate(0 3.901)" fill="#266cd5"/>
          <path id="Path_215608-15" data-name="Path 215608" d="M.6,0,17.349,14.169,0,1.723Z" transform="translate(29.262 0)" fill="#266cd5"/>
        </g>
      </g>
      <g id="Group_4354" data-name="Group 4354" transform="translate(6276.523 2016.605) rotate(-22)">
        <rect id="Rectangle_3233" data-name="Rectangle 3233" width="21.159" height="21.159" transform="translate(0 32.161)" fill="#266cd5"/>
        <path id="Rectangle_3234" data-name="Rectangle 3234" d="M3.412,3.412V17.747H17.747V3.412H3.412M0,0H21.159V21.159H0Z" transform="translate(47.395 64.323)" fill="#266cd5"/>
        <path id="Rectangle_3235" data-name="Rectangle 3235" d="M3.412,3.412V17.747H17.747V3.412H3.412M0,0H21.159V21.159H0Z" transform="translate(47.395 32.161)" fill="#266cd5"/>
        <path id="Rectangle_3236" data-name="Rectangle 3236" d="M3.412,3.412V17.747H17.747V3.412H3.412M0,0H21.159V21.159H0Z" transform="translate(47.395 0)" fill="#266cd5"/>
        <rect id="Rectangle_3237" data-name="Rectangle 3237" width="1.692" height="66.016" transform="translate(34.7 8.464)" fill="#266cd5"/>
        <rect id="Rectangle_3238" data-name="Rectangle 3238" width="1.692" height="20.499" transform="translate(45.897 41.895) rotate(90)" fill="#266cd5"/>
        <rect id="Rectangle_3239" data-name="Rectangle 3239" width="1.692" height="11.196" transform="translate(45.897 73.633) rotate(90)" fill="#266cd5"/>
        <rect id="Rectangle_3240" data-name="Rectangle 3240" width="1.692" height="11.196" transform="translate(45.897 8.464) rotate(90)" fill="#266cd5"/>
      </g>
      <g id="Group_4354-2" data-name="Group 4354" transform="translate(6865.985 1954.028) rotate(-168)">
        <rect id="Rectangle_3233-2" data-name="Rectangle 3233" width="21.159" height="21.159" transform="translate(0 32.161)" fill="#266cd5"/>
        <path id="Rectangle_3234-2" data-name="Rectangle 3234" d="M3.412,3.412V17.747H17.747V3.412H3.412M0,0H21.159V21.159H0Z" transform="translate(47.395 64.323)" fill="#266cd5"/>
        <path id="Rectangle_3235-2" data-name="Rectangle 3235" d="M3.412,3.412V17.747H17.747V3.412H3.412M0,0H21.159V21.159H0Z" transform="translate(47.395 32.161)" fill="#266cd5"/>
        <path id="Rectangle_3236-2" data-name="Rectangle 3236" d="M3.412,3.412V17.747H17.747V3.412H3.412M0,0H21.159V21.159H0Z" transform="translate(47.395 0)" fill="#266cd5"/>
        <rect id="Rectangle_3237-2" data-name="Rectangle 3237" width="1.692" height="66.016" transform="translate(34.7 8.464)" fill="#266cd5"/>
        <rect id="Rectangle_3238-2" data-name="Rectangle 3238" width="1.692" height="20.499" transform="translate(45.897 41.895) rotate(90)" fill="#266cd5"/>
        <rect id="Rectangle_3239-2" data-name="Rectangle 3239" width="1.692" height="11.196" transform="translate(45.897 73.633) rotate(90)" fill="#266cd5"/>
        <rect id="Rectangle_3240-2" data-name="Rectangle 3240" width="1.692" height="11.196" transform="translate(45.897 8.464) rotate(90)" fill="#266cd5"/>
      </g>
      <g id="Group_4354-3" data-name="Group 4354" transform="translate(6841.344 1768.676) rotate(-15)">
        <rect id="Rectangle_3233-3" data-name="Rectangle 3233" width="8.964" height="8.964" transform="translate(0 13.625)" fill="#266cd5"/>
        <path id="Rectangle_3234-3" data-name="Rectangle 3234" d="M1.446,1.446V7.518H7.518V1.446H1.446M0,0H8.964V8.964H0Z" transform="translate(20.079 27.251)" fill="#266cd5"/>
        <path id="Rectangle_3235-3" data-name="Rectangle 3235" d="M1.446,1.446V7.518H7.518V1.446H1.446M0,0H8.964V8.964H0Z" transform="translate(20.079 13.625)" fill="#266cd5"/>
        <path id="Rectangle_3236-3" data-name="Rectangle 3236" d="M1.446,1.446V7.518H7.518V1.446H1.446M0,0H8.964V8.964H0Z" transform="translate(20.079 0)" fill="#266cd5"/>
        <rect id="Rectangle_3237-3" data-name="Rectangle 3237" width="0.717" height="27.968" transform="translate(14.701 3.586)" fill="#266cd5"/>
        <rect id="Rectangle_3238-3" data-name="Rectangle 3238" width="0.717" height="8.684" transform="translate(19.444 17.749) rotate(90)" fill="#266cd5"/>
        <rect id="Rectangle_3239-3" data-name="Rectangle 3239" width="0.717" height="4.743" transform="translate(19.444 31.195) rotate(90)" fill="#266cd5"/>
        <rect id="Rectangle_3240-3" data-name="Rectangle 3240" width="0.717" height="4.743" transform="translate(19.444 3.586) rotate(90)" fill="#266cd5"/>
      </g>
      <g id="Group_4354-4" data-name="Group 4354" transform="translate(6597.615 1549.414) rotate(-23)">
        <rect id="Rectangle_3233-4" data-name="Rectangle 3233" width="11.692" height="11.692" transform="translate(0 17.772)" fill="#266cd5"/>
        <path id="Rectangle_3234-4" data-name="Rectangle 3234" d="M1.886,1.886V9.807H9.807V1.886H1.886M0,0H11.692V11.692H0Z" transform="translate(26.19 35.544)" fill="#266cd5"/>
        <path id="Rectangle_3235-4" data-name="Rectangle 3235" d="M1.886,1.886V9.807H9.807V1.886H1.886M0,0H11.692V11.692H0Z" transform="translate(26.19 17.772)" fill="#266cd5"/>
        <path id="Rectangle_3236-4" data-name="Rectangle 3236" d="M1.886,1.886V9.807H9.807V1.886H1.886M0,0H11.692V11.692H0Z" transform="translate(26.19 0)" fill="#266cd5"/>
        <rect id="Rectangle_3237-4" data-name="Rectangle 3237" width="0.935" height="36.479" transform="translate(19.175 4.677)" fill="#266cd5"/>
        <rect id="Rectangle_3238-4" data-name="Rectangle 3238" width="0.935" height="11.327" transform="translate(25.362 23.151) rotate(90)" fill="#266cd5"/>
        <rect id="Rectangle_3239-4" data-name="Rectangle 3239" width="0.935" height="6.187" transform="translate(25.362 40.688) rotate(90)" fill="#266cd5"/>
        <rect id="Rectangle_3240-4" data-name="Rectangle 3240" width="0.935" height="6.187" transform="translate(25.362 4.677) rotate(90)" fill="#266cd5"/>
      </g>
      <g id="Group_4354-5" data-name="Group 4354" transform="translate(6400.78 1549.832) rotate(-71)">
        <rect id="Rectangle_3233-5" data-name="Rectangle 3233" width="11.692" height="11.692" transform="translate(0 17.772)" fill="#266cd5"/>
        <path id="Rectangle_3234-5" data-name="Rectangle 3234" d="M1.886,1.886V9.807H9.807V1.886H1.886M0,0H11.692V11.692H0Z" transform="translate(26.19 35.544)" fill="#266cd5"/>
        <path id="Rectangle_3235-5" data-name="Rectangle 3235" d="M1.886,1.886V9.807H9.807V1.886H1.886M0,0H11.692V11.692H0Z" transform="translate(26.19 17.772)" fill="#266cd5"/>
        <path id="Rectangle_3236-5" data-name="Rectangle 3236" d="M1.886,1.886V9.807H9.807V1.886H1.886M0,0H11.692V11.692H0Z" transform="translate(26.19 0)" fill="#266cd5"/>
        <rect id="Rectangle_3237-5" data-name="Rectangle 3237" width="0.935" height="36.479" transform="translate(19.175 4.677)" fill="#266cd5"/>
        <rect id="Rectangle_3238-5" data-name="Rectangle 3238" width="0.935" height="11.327" transform="translate(25.362 23.151) rotate(90)" fill="#266cd5"/>
        <rect id="Rectangle_3239-5" data-name="Rectangle 3239" width="0.935" height="6.187" transform="translate(25.362 40.688) rotate(90)" fill="#266cd5"/>
        <rect id="Rectangle_3240-5" data-name="Rectangle 3240" width="0.935" height="6.187" transform="translate(25.362 4.677) rotate(90)" fill="#266cd5"/>
      </g>
      <g id="Group_4354-6" data-name="Group 4354" transform="translate(6397.132 1719.709) rotate(-165)">
        <rect id="Rectangle_3233-6" data-name="Rectangle 3233" width="21.61" height="21.61" transform="translate(0 32.846)" fill="#266cd5"/>
        <path id="Rectangle_3234-6" data-name="Rectangle 3234" d="M3.485,3.485V18.125H18.125V3.485H3.485M0,0H21.61V21.61H0Z" transform="translate(48.404 65.692)" fill="#266cd5"/>
        <path id="Rectangle_3235-6" data-name="Rectangle 3235" d="M3.485,3.485V18.125H18.125V3.485H3.485M0,0H21.61V21.61H0Z" transform="translate(48.404 32.846)" fill="#266cd5"/>
        <path id="Rectangle_3236-6" data-name="Rectangle 3236" d="M3.485,3.485V18.125H18.125V3.485H3.485M0,0H21.61V21.61H0Z" transform="translate(48.404 0)" fill="#266cd5"/>
        <rect id="Rectangle_3237-6" data-name="Rectangle 3237" width="1.728" height="67.421" transform="translate(35.439 8.644)" fill="#266cd5"/>
        <rect id="Rectangle_3238-6" data-name="Rectangle 3238" width="1.728" height="20.935" transform="translate(46.874 42.787) rotate(90)" fill="#266cd5"/>
        <rect id="Rectangle_3239-6" data-name="Rectangle 3239" width="1.728" height="11.434" transform="translate(46.874 75.2) rotate(90)" fill="#266cd5"/>
        <rect id="Rectangle_3240-6" data-name="Rectangle 3240" width="1.728" height="11.434" transform="translate(46.874 8.644) rotate(90)" fill="#266cd5"/>
      </g>
      <g id="Group_4354-7" data-name="Group 4354" transform="matrix(0.94, -0.342, 0.342, 0.94, 6703.278, 1667.55)">
        <rect id="Rectangle_3233-7" data-name="Rectangle 3233" width="21.61" height="21.61" transform="translate(0 32.846)" fill="#266cd5"/>
        <path id="Rectangle_3234-7" data-name="Rectangle 3234" d="M3.485,3.485V18.125H18.125V3.485H3.485M0,0H21.61V21.61H0Z" transform="translate(48.404 65.692)" fill="#266cd5"/>
        <path id="Rectangle_3235-7" data-name="Rectangle 3235" d="M3.485,3.485V18.125H18.125V3.485H3.485M0,0H21.61V21.61H0Z" transform="translate(48.404 32.846)" fill="#266cd5"/>
        <path id="Rectangle_3236-7" data-name="Rectangle 3236" d="M3.485,3.485V18.125H18.125V3.485H3.485M0,0H21.61V21.61H0Z" transform="translate(48.404 0)" fill="#266cd5"/>
        <rect id="Rectangle_3237-7" data-name="Rectangle 3237" width="1.728" height="67.421" transform="translate(35.439 8.644)" fill="#266cd5"/>
        <rect id="Rectangle_3238-7" data-name="Rectangle 3238" width="1.728" height="20.935" transform="translate(46.874 42.787) rotate(90)" fill="#266cd5"/>
        <rect id="Rectangle_3239-7" data-name="Rectangle 3239" width="1.728" height="11.434" transform="translate(46.874 75.2) rotate(90)" fill="#266cd5"/>
        <rect id="Rectangle_3240-7" data-name="Rectangle 3240" width="1.728" height="11.434" transform="translate(46.874 8.644) rotate(90)" fill="#266cd5"/>
      </g>
    </g>
    <g id="Group_4353" data-name="Group 4353" transform="matrix(0.921, 0.391, -0.391, 0.921, 1485.024, 782.03)" opacity="0.5">
      <rect id="Rectangle_3233-8" data-name="Rectangle 3233" width="32.622" height="32.622" transform="translate(0 49.585)" fill="#266cd5"/>
      <rect id="Rectangle_3234-8" data-name="Rectangle 3234" width="32.622" height="32.622" transform="translate(73.072 0)" fill="#266cd5"/>
      <rect id="Rectangle_3235-8" data-name="Rectangle 3235" width="32.622" height="32.622" transform="translate(73.072 49.585)" fill="#266cd5"/>
      <rect id="Rectangle_3236-8" data-name="Rectangle 3236" width="32.622" height="32.622" transform="translate(73.072 99.169)" fill="#266cd5"/>
      <rect id="Rectangle_3237-8" data-name="Rectangle 3237" width="2.61" height="101.779" transform="translate(53.499 16.963)" fill="#266cd5"/>
      <rect id="Rectangle_3238-8" data-name="Rectangle 3238" width="2.61" height="31.605" transform="translate(39.156 67.2) rotate(-90)" fill="#266cd5"/>
      <rect id="Rectangle_3239-8" data-name="Rectangle 3239" width="2.61" height="17.262" transform="translate(53.499 18.268) rotate(-90)" fill="#266cd5"/>
      <rect id="Rectangle_3240-8" data-name="Rectangle 3240" width="2.61" height="17.262" transform="translate(53.499 118.742) rotate(-90)" fill="#266cd5"/>
    </g>
  </g>
</svg>
