<svg xmlns="http://www.w3.org/2000/svg" width="710.916" height="530.873" viewBox="0 0 710.916 530.873">
  <g id="BG-graphics" transform="translate(-927.953 -254.177)" opacity="0.09">
    <g id="Group_4320" data-name="Group 4320" transform="translate(980.98 643.44) rotate(-9)">
      <rect id="Rectangle_3222" data-name="Rectangle 3222" width="57.712" height="37.101" transform="translate(155.852 132.803) rotate(-11.183)" fill="#174180"/>
      <path id="Path_215606" data-name="Path 215606" d="M189.578,151.489l-31-16.456,31.8,20.5,21.61-31.061Z" transform="translate(-0.779 -0.819)" fill="#266cd5"/>
      <g id="Group_4319" data-name="Group 4319" transform="translate(164.461 140.731)">
        <path id="Path_215607" data-name="Path 215607" d="M179.447,154.644l-11.536,22.241,12.912-20.679Z" transform="translate(-167.911 -150.184)" fill="#266cd5"/>
        <path id="Path_215608" data-name="Path 215608" d="M215.4,148.4l19.131,16.178-19.809-14.21Z" transform="translate(-181.305 -148.396)" fill="#266cd5"/>
      </g>
    </g>
    <g id="Group_4389" data-name="Group 4389" transform="matrix(0.899, 0.438, -0.438, 0.899, 1226.764, 537.407)">
      <rect id="Rectangle_3222-2" data-name="Rectangle 3222" width="48.38" height="31.102" transform="translate(155.852 130.993) rotate(-11.183)" fill="#174180"/>
      <path id="Path_215606-2" data-name="Path 215606" d="M184.564,147.121l-25.992-13.8,26.662,17.186,18.116-26.038Z" transform="translate(-1.093 -1.15)" fill="#202641"/>
      <g id="Group_4319-2" data-name="Group 4319" transform="translate(163.069 137.64)">
        <path id="Path_215607-2" data-name="Path 215607" d="M177.582,154.644l-9.671,18.644,10.824-17.335Z" transform="translate(-167.911 -150.905)" fill="#202641"/>
        <path id="Path_215608-2" data-name="Path 215608" d="M215.289,148.4l16.038,13.562-16.606-11.912Z" transform="translate(-186.708 -148.396)" fill="#202641"/>
      </g>
    </g>
    <g id="Group_4329" data-name="Group 4329" transform="matrix(0.934, 0.358, -0.358, 0.934, 895.826, 209.52)">
      <rect id="Rectangle_3222-3" data-name="Rectangle 3222" width="36.832" height="23.678" transform="translate(155.852 128.754) rotate(-11.183)" fill="none" stroke="#174180" stroke-width="2"/>
      <path id="Path_215606-3" data-name="Path 215606" d="M178.36,141.715l-19.787-10.5,20.3,13.084,13.792-19.823Z" transform="translate(-1.481 -1.559)" fill="#174180"/>
      <g id="Group_4319-3" data-name="Group 4319" transform="translate(161.346 133.813)">
        <path id="Path_215607-3" data-name="Path 215607" d="M175.273,154.644l-7.362,14.194,8.24-13.2Z" transform="translate(-167.911 -151.797)" fill="#174180"/>
        <path id="Path_215608-3" data-name="Path 215608" d="M215.153,148.4l12.21,10.325-12.642-9.069Z" transform="translate(-193.395 -148.396)" fill="#174180"/>
      </g>
    </g>
    <g id="Group_4384" data-name="Group 4384" transform="matrix(0.934, 0.358, -0.358, 0.934, 1502.061, 393.045)">
      <rect id="Rectangle_3222-4" data-name="Rectangle 3222" width="36.832" height="23.678" transform="translate(155.852 128.754) rotate(-11.183)" fill="none" stroke="#174180" stroke-width="2"/>
      <path id="Path_215606-4" data-name="Path 215606" d="M178.36,141.715l-19.787-10.5,20.3,13.084,13.792-19.823Z" transform="translate(-1.481 -1.559)" fill="#174180"/>
      <g id="Group_4319-4" data-name="Group 4319" transform="translate(161.346 133.813)">
        <path id="Path_215607-4" data-name="Path 215607" d="M175.273,154.644l-7.362,14.194,8.24-13.2Z" transform="translate(-167.911 -151.797)" fill="#174180"/>
        <path id="Path_215608-4" data-name="Path 215608" d="M215.153,148.4l12.21,10.325-12.642-9.069Z" transform="translate(-193.395 -148.396)" fill="#174180"/>
      </g>
    </g>
    <g id="Group_4330" data-name="Group 4330" transform="translate(747.249 402.384) rotate(-14)">
      <rect id="Rectangle_3222-5" data-name="Rectangle 3222" width="29.623" height="19.043" transform="translate(155.852 127.355) rotate(-11.183)" fill="none" stroke="#174180" stroke-width="2"/>
      <path id="Path_215606-5" data-name="Path 215606" d="M174.487,138.34l-15.914-8.447L174.9,140.416l11.092-15.943Z" transform="translate(-1.724 -1.814)" fill="#174180"/>
      <g id="Group_4319-5" data-name="Group 4319" transform="translate(160.271 131.425)">
        <path id="Path_215607-5" data-name="Path 215607" d="M173.832,154.644l-5.921,11.416,6.627-10.614Z" transform="translate(-167.911 -152.354)" fill="#174180"/>
        <path id="Path_215608-5" data-name="Path 215608" d="M215.069,148.4l9.82,8.3-10.168-7.294Z" transform="translate(-197.569 -148.396)" fill="#174180"/>
      </g>
    </g>
    <g id="Group_4359" data-name="Group 4359" transform="matrix(0.848, 0.53, -0.53, 0.848, 1480.457, 440.587)">
      <rect id="Rectangle_3222-6" data-name="Rectangle 3222" width="29.623" height="19.043" transform="translate(155.852 127.355) rotate(-11.183)" fill="none" stroke="#174180" stroke-width="2"/>
      <path id="Path_215606-6" data-name="Path 215606" d="M174.487,138.34l-15.914-8.447L174.9,140.416l11.092-15.943Z" transform="translate(-1.724 -1.814)" fill="#174180"/>
      <g id="Group_4319-6" data-name="Group 4319" transform="translate(160.271 131.425)">
        <path id="Path_215607-6" data-name="Path 215607" d="M173.832,154.644l-5.921,11.416,6.627-10.614Z" transform="translate(-167.911 -152.354)" fill="#174180"/>
        <path id="Path_215608-6" data-name="Path 215608" d="M215.069,148.4l9.82,8.3-10.168-7.294Z" transform="translate(-197.569 -148.396)" fill="#174180"/>
      </g>
    </g>
    <g id="Group_4360" data-name="Group 4360" transform="matrix(0.848, 0.53, -0.53, 0.848, 1447.729, 183.836)">
      <rect id="Rectangle_3222-7" data-name="Rectangle 3222" width="23.982" height="15.417" transform="translate(155.852 126.261) rotate(-11.183)" fill="none" stroke="#174180" stroke-width="1"/>
      <path id="Path_215606-7" data-name="Path 215606" d="M171.457,135.7l-12.884-6.838,13.216,8.519,8.98-12.907Z" transform="translate(-1.914 -2.014)" fill="#174180"/>
      <g id="Group_4319-7" data-name="Group 4319" transform="translate(159.429 129.556)">
        <path id="Path_215607-7" data-name="Path 215607" d="M172.7,154.644l-4.794,9.242,5.365-8.593Z" transform="translate(-167.911 -152.79)" fill="#174180"/>
        <path id="Path_215608-7" data-name="Path 215608" d="M215,148.4l7.95,6.723-8.232-5.9Z" transform="translate(-200.835 -148.396)" fill="#174180"/>
      </g>
    </g>
    <g id="Group_4331" data-name="Group 4331" transform="translate(901.279 402.829) rotate(7)">
      <rect id="Rectangle_3222-8" data-name="Rectangle 3222" width="53.583" height="34.446" transform="translate(155.852 132.002) rotate(-11.183)" fill="none" stroke="#174180" stroke-width="2"/>
      <path id="Path_215606-8" data-name="Path 215606" d="M187.359,149.556l-28.786-15.279L188.1,153.311l20.064-28.838Z" transform="translate(-0.917 -0.965)" fill="#174180"/>
      <g id="Group_4319-8" data-name="Group 4319" transform="translate(163.845 139.363)">
        <path id="Path_215607-8" data-name="Path 215607" d="M178.622,154.644l-10.71,20.649,11.988-19.2Z" transform="translate(-167.911 -150.503)" fill="#174180"/>
        <path id="Path_215608-8" data-name="Path 215608" d="M215.35,148.4l17.762,15.02-18.392-13.193Z" transform="translate(-183.696 -148.396)" fill="#174180"/>
      </g>
    </g>
    <g id="Group_4388" data-name="Group 4388" transform="translate(1135.645 145.073) rotate(24)">
      <rect id="Rectangle_3222-9" data-name="Rectangle 3222" width="29.834" height="19.179" transform="translate(155.852 127.396) rotate(-11.183)" fill="none" stroke="#174180" stroke-width="2"/>
      <path id="Path_215606-9" data-name="Path 215606" d="M174.6,138.439l-16.028-8.507,16.441,10.6,11.171-16.057Z" transform="translate(-1.717 -1.806)" fill="#174180"/>
      <g id="Group_4319-9" data-name="Group 4319" transform="translate(160.302 131.495)">
        <path id="Path_215607-9" data-name="Path 215607" d="M173.875,154.644l-5.963,11.5,6.675-10.69Z" transform="translate(-167.911 -152.338)" fill="#174180"/>
        <path id="Path_215608-9" data-name="Path 215608" d="M215.071,148.4l9.89,8.363-10.24-7.346Z" transform="translate(-197.447 -148.396)" fill="#174180"/>
      </g>
    </g>
    <g id="Group_4327" data-name="Group 4327" transform="matrix(0.995, -0.105, 0.105, 0.995, 779.027, 456.427)">
      <rect id="Rectangle_3222-10" data-name="Rectangle 3222" width="36.812" height="23.665" transform="translate(155.852 128.75) rotate(-11.183)" fill="#174180"/>
      <path id="Path_215606-10" data-name="Path 215606" d="M178.35,141.706l-19.777-10.5,20.287,13.076,13.784-19.812Z" transform="translate(-1.482 -1.559)" fill="#266cd5"/>
      <g id="Group_4319-10" data-name="Group 4319" transform="translate(161.343 133.807)">
        <path id="Path_215607-10" data-name="Path 215607" d="M175.269,154.644l-7.358,14.186,8.236-13.19Z" transform="translate(-167.911 -151.799)" fill="#266cd5"/>
        <path id="Path_215608-10" data-name="Path 215608" d="M215.153,148.4l12.2,10.319-12.635-9.064Z" transform="translate(-193.407 -148.396)" fill="#266cd5"/>
      </g>
    </g>
    <g id="Group_4383" data-name="Group 4383" transform="translate(1469.103 284.022) rotate(11)">
      <rect id="Rectangle_3222-11" data-name="Rectangle 3222" width="36.812" height="23.665" transform="translate(155.852 128.75) rotate(-11.183)" fill="#174180"/>
      <path id="Path_215606-11" data-name="Path 215606" d="M178.35,141.706l-19.777-10.5,20.287,13.076,13.784-19.812Z" transform="translate(-1.482 -1.559)" fill="#266cd5"/>
      <g id="Group_4319-11" data-name="Group 4319" transform="translate(161.343 133.807)">
        <path id="Path_215607-11" data-name="Path 215607" d="M175.269,154.644l-7.358,14.186,8.236-13.19Z" transform="translate(-167.911 -151.799)" fill="#266cd5"/>
        <path id="Path_215608-11" data-name="Path 215608" d="M215.153,148.4l12.2,10.319-12.635-9.064Z" transform="translate(-193.407 -148.396)" fill="#266cd5"/>
      </g>
    </g>
    <g id="Group_4361" data-name="Group 4361" transform="translate(1215.842 198.383) rotate(27)">
      <rect id="Rectangle_3222-12" data-name="Rectangle 3222" width="63.049" height="40.532" transform="translate(155.852 133.838) rotate(-11.183)" fill="#174180"/>
      <path id="Path_215606-12" data-name="Path 215606" d="M192.445,153.988,158.573,136.01l34.746,22.4,23.609-33.933Z" transform="translate(-0.599 -0.63)" fill="#266cd5"/>
      <g id="Group_4319-12" data-name="Group 4319" transform="translate(165.257 142.5)">
        <path id="Path_215607-12" data-name="Path 215607" d="M180.514,154.644l-12.6,24.3,14.106-22.591Z" transform="translate(-167.911 -149.771)" fill="#266cd5"/>
        <path id="Path_215608-12" data-name="Path 215608" d="M215.461,148.4l20.9,17.674-21.641-15.524Z" transform="translate(-178.215 -148.396)" fill="#266cd5"/>
      </g>
    </g>
    <g id="Group_4322" data-name="Group 4322" transform="matrix(0.927, -0.375, 0.375, 0.927, 777.908, 603.258)">
      <rect id="Rectangle_3222-13" data-name="Rectangle 3222" width="38.534" height="24.772" transform="translate(155.852 129.084) rotate(-11.183)" fill="#266cd5"/>
      <path id="Path_215606-13" data-name="Path 215606" d="M179.275,142.512l-20.7-10.988,21.236,13.688,14.429-20.739Z" transform="translate(-1.424 -1.498)" fill="#174180"/>
      <g id="Group_4319-13" data-name="Group 4319" transform="translate(161.6 134.377)">
        <path id="Path_215607-13" data-name="Path 215607" d="M175.614,154.644l-7.7,14.85,8.621-13.807Z" transform="translate(-167.911 -151.666)" fill="#174180"/>
        <path id="Path_215608-13" data-name="Path 215608" d="M215.173,148.4l12.774,10.8-13.227-9.488Z" transform="translate(-192.409 -148.396)" fill="#174180"/>
      </g>
    </g>
    <g id="Group_4326" data-name="Group 4326" transform="translate(890.336 329.477) rotate(7)">
      <rect id="Rectangle_3222-14" data-name="Rectangle 3222" width="22.443" height="14.428" transform="translate(155.852 125.963) rotate(-11.183)" fill="#266cd5"/>
      <path id="Path_215606-14" data-name="Path 215606" d="M170.63,134.979l-12.057-6.4,12.368,7.972,8.4-12.079Z" transform="translate(-1.965 -2.068)" fill="#174180"/>
      <g id="Group_4319-14" data-name="Group 4319" transform="translate(159.2 129.046)">
        <path id="Path_215607-14" data-name="Path 215607" d="M172.4,154.644l-4.486,8.649,5.021-8.042Z" transform="translate(-167.911 -152.909)" fill="#174180"/>
        <path id="Path_215608-14" data-name="Path 215608" d="M214.984,148.4l7.44,6.291-7.7-5.526Z" transform="translate(-201.726 -148.396)" fill="#174180"/>
      </g>
    </g>
    <g id="Group_4323" data-name="Group 4323" transform="translate(1029.652 288.219) rotate(15)">
      <rect id="Rectangle_3222-15" data-name="Rectangle 3222" width="45.588" height="29.306" transform="translate(155.852 130.452) rotate(-11.183)" fill="#266cd5"/>
      <path id="Path_215606-15" data-name="Path 215606" d="M183.064,145.814l-24.491-13L183.7,149.008l17.07-24.535Z" transform="translate(-1.187 -1.248)" fill="#174180"/>
      <g id="Group_4319-15" data-name="Group 4319" transform="translate(162.652 136.714)">
        <path id="Path_215607-15" data-name="Path 215607" d="M177.023,154.644l-9.112,17.568,10.2-16.334Z" transform="translate(-167.911 -151.121)" fill="#174180"/>
        <path id="Path_215608-15" data-name="Path 215608" d="M215.256,148.4l15.112,12.779-15.648-11.224Z" transform="translate(-188.325 -148.396)" fill="#174180"/>
      </g>
    </g>
    <g id="Group_4353" data-name="Group 4353" transform="translate(710.078 187.643)">
      <rect id="Rectangle_3233" data-name="Rectangle 3233" width="20.06" height="20.06" transform="translate(715 506.491)" fill="#266cd5"/>
      <rect id="Rectangle_3234" data-name="Rectangle 3234" width="20.06" height="20.06" transform="translate(759.934 476)" fill="#266cd5"/>
      <rect id="Rectangle_3235" data-name="Rectangle 3235" width="20.06" height="20.06" transform="translate(759.934 506.491)" fill="#266cd5"/>
      <rect id="Rectangle_3236" data-name="Rectangle 3236" width="20.06" height="20.06" transform="translate(759.934 536.982)" fill="#266cd5"/>
      <rect id="Rectangle_3237" data-name="Rectangle 3237" width="1.605" height="62.586" transform="translate(747.898 486.431)" fill="#174180"/>
      <rect id="Rectangle_3238" data-name="Rectangle 3238" width="1.605" height="19.434" transform="translate(739.078 517.323) rotate(-90)" fill="#174180"/>
      <rect id="Rectangle_3239" data-name="Rectangle 3239" width="1.605" height="10.614" transform="translate(747.898 487.233) rotate(-90)" fill="#174180"/>
      <rect id="Rectangle_3240" data-name="Rectangle 3240" width="1.605" height="10.614" transform="translate(747.898 549.018) rotate(-90)" fill="#174180"/>
    </g>
    <g id="Group_4354" data-name="Group 4354" transform="translate(1153.027 415.378) rotate(-167)">
      <rect id="Rectangle_3233-2" data-name="Rectangle 3233" width="16.692" height="16.692" transform="translate(0 25.371)" fill="#174180"/>
      <g id="Rectangle_3234-2" data-name="Rectangle 3234" transform="translate(37.389 50.743)" fill="none" stroke="#174180" stroke-width="2">
        <rect width="16.692" height="16.692" stroke="none"/>
        <rect x="1" y="1" width="14.692" height="14.692" fill="none"/>
      </g>
      <g id="Rectangle_3235-2" data-name="Rectangle 3235" transform="translate(37.389 25.371)" fill="none" stroke="#174180" stroke-width="2">
        <rect width="16.692" height="16.692" stroke="none"/>
        <rect x="1" y="1" width="14.692" height="14.692" fill="none"/>
      </g>
      <g id="Rectangle_3236-2" data-name="Rectangle 3236" transform="translate(37.389 0)" fill="none" stroke="#174180" stroke-width="2">
        <rect width="16.692" height="16.692" stroke="none"/>
        <rect x="1" y="1" width="14.692" height="14.692" fill="none"/>
      </g>
      <rect id="Rectangle_3237-2" data-name="Rectangle 3237" width="1.335" height="52.078" transform="translate(27.374 6.677)" fill="#174180"/>
      <rect id="Rectangle_3238-2" data-name="Rectangle 3238" width="1.335" height="16.171" transform="translate(36.207 33.05) rotate(90)" fill="#174180"/>
      <rect id="Rectangle_3239-2" data-name="Rectangle 3239" width="1.335" height="8.832" transform="translate(36.207 58.087) rotate(90)" fill="#174180"/>
      <rect id="Rectangle_3240-2" data-name="Rectangle 3240" width="1.335" height="8.832" transform="translate(36.207 6.677) rotate(90)" fill="#174180"/>
    </g>
    <g id="Group_4387" data-name="Group 4387" transform="matrix(0.375, -0.927, 0.927, 0.375, 1153, 284.985)">
      <rect id="Rectangle_3233-3" data-name="Rectangle 3233" width="10.255" height="10.255" transform="translate(0 15.588)" fill="#174180"/>
      <g id="Rectangle_3234-3" data-name="Rectangle 3234" transform="translate(22.972 31.177)" fill="none" stroke="#174180" stroke-width="2">
        <rect width="10.255" height="10.255" stroke="none"/>
        <rect x="1" y="1" width="8.255" height="8.255" fill="none"/>
      </g>
      <g id="Rectangle_3235-3" data-name="Rectangle 3235" transform="translate(22.972 15.588)" fill="none" stroke="#174180" stroke-width="2">
        <rect width="10.255" height="10.255" stroke="none"/>
        <rect x="1" y="1" width="8.255" height="8.255" fill="none"/>
      </g>
      <g id="Rectangle_3236-3" data-name="Rectangle 3236" transform="translate(22.972 0)" fill="none" stroke="#174180" stroke-width="2">
        <rect width="10.255" height="10.255" stroke="none"/>
        <rect x="1" y="1" width="8.255" height="8.255" fill="none"/>
      </g>
      <rect id="Rectangle_3237-3" data-name="Rectangle 3237" width="0.82" height="31.997" transform="translate(16.819 4.102)" fill="#174180"/>
      <rect id="Rectangle_3238-3" data-name="Rectangle 3238" width="0.82" height="9.936" transform="translate(22.246 20.306) rotate(90)" fill="#174180"/>
      <rect id="Rectangle_3239-3" data-name="Rectangle 3239" width="0.82" height="5.427" transform="translate(22.246 35.689) rotate(90)" fill="#174180"/>
      <rect id="Rectangle_3240-3" data-name="Rectangle 3240" width="0.82" height="5.427" transform="translate(22.246 4.102) rotate(90)" fill="#174180"/>
    </g>
    <g id="Group_4356" data-name="Group 4356" transform="translate(1525.705 607) rotate(-167)">
      <rect id="Rectangle_3233-4" data-name="Rectangle 3233" width="16.692" height="16.692" transform="translate(0 25.371)" fill="#174180"/>
      <g id="Rectangle_3234-4" data-name="Rectangle 3234" transform="translate(37.389 50.743)" fill="none" stroke="#174180" stroke-width="2">
        <rect width="16.692" height="16.692" stroke="none"/>
        <rect x="1" y="1" width="14.692" height="14.692" fill="none"/>
      </g>
      <g id="Rectangle_3235-4" data-name="Rectangle 3235" transform="translate(37.389 25.371)" fill="none" stroke="#174180" stroke-width="2">
        <rect width="16.692" height="16.692" stroke="none"/>
        <rect x="1" y="1" width="14.692" height="14.692" fill="none"/>
      </g>
      <g id="Rectangle_3236-4" data-name="Rectangle 3236" transform="translate(37.389 0)" fill="none" stroke="#174180" stroke-width="2">
        <rect width="16.692" height="16.692" stroke="none"/>
        <rect x="1" y="1" width="14.692" height="14.692" fill="none"/>
      </g>
      <rect id="Rectangle_3237-4" data-name="Rectangle 3237" width="1.335" height="52.078" transform="translate(27.374 6.677)" fill="#174180"/>
      <rect id="Rectangle_3238-4" data-name="Rectangle 3238" width="1.335" height="16.171" transform="translate(36.207 33.05) rotate(90)" fill="#174180"/>
      <rect id="Rectangle_3239-4" data-name="Rectangle 3239" width="1.335" height="8.832" transform="translate(36.207 58.087) rotate(90)" fill="#174180"/>
      <rect id="Rectangle_3240-4" data-name="Rectangle 3240" width="1.335" height="8.832" transform="translate(36.207 6.677) rotate(90)" fill="#174180"/>
    </g>
    <g id="Group_4358" data-name="Group 4358" transform="translate(1506.941 458.727) rotate(-13)">
      <rect id="Rectangle_3233-5" data-name="Rectangle 3233" width="7.874" height="7.874" transform="translate(0 11.968)" fill="#174180"/>
      <g id="Rectangle_3234-5" data-name="Rectangle 3234" transform="translate(17.637 0)" fill="none" stroke="#174180" stroke-width="1">
        <rect width="7.874" height="7.874" stroke="none"/>
        <rect x="0.5" y="0.5" width="6.874" height="6.874" fill="none"/>
      </g>
      <g id="Rectangle_3235-5" data-name="Rectangle 3235" transform="translate(17.637 11.968)" fill="none" stroke="#174180" stroke-width="1">
        <rect width="7.874" height="7.874" stroke="none"/>
        <rect x="0.5" y="0.5" width="6.874" height="6.874" fill="none"/>
      </g>
      <g id="Rectangle_3236-5" data-name="Rectangle 3236" transform="translate(17.637 23.936)" fill="none" stroke="#174180" stroke-width="1">
        <rect width="7.874" height="7.874" stroke="none"/>
        <rect x="0.5" y="0.5" width="6.874" height="6.874" fill="none"/>
      </g>
      <rect id="Rectangle_3237-5" data-name="Rectangle 3237" width="0.63" height="24.566" transform="translate(12.913 4.095)" fill="#174180"/>
      <rect id="Rectangle_3238-5" data-name="Rectangle 3238" width="0.63" height="7.628" transform="translate(9.451 16.22) rotate(-90)" fill="#174180"/>
      <rect id="Rectangle_3239-5" data-name="Rectangle 3239" width="0.63" height="4.166" transform="translate(12.913 4.41) rotate(-90)" fill="#174180"/>
      <rect id="Rectangle_3240-5" data-name="Rectangle 3240" width="0.63" height="4.166" transform="translate(12.913 28.661) rotate(-90)" fill="#174180"/>
    </g>
    <g id="Group_4362" data-name="Group 4362" transform="translate(1313.295 285.638) rotate(-23)">
      <rect id="Rectangle_3233-6" data-name="Rectangle 3233" width="9.122" height="9.122" transform="translate(0 13.865)" fill="#266cd5"/>
      <g id="Rectangle_3234-6" data-name="Rectangle 3234" transform="translate(20.433 0)" fill="none" stroke="#266cd5" stroke-width="1">
        <rect width="9.122" height="9.122" stroke="none"/>
        <rect x="0.5" y="0.5" width="8.122" height="8.122" fill="none"/>
      </g>
      <g id="Rectangle_3235-6" data-name="Rectangle 3235" transform="translate(20.433 13.865)" fill="none" stroke="#266cd5" stroke-width="1">
        <rect width="9.122" height="9.122" stroke="none"/>
        <rect x="0.5" y="0.5" width="8.122" height="8.122" fill="none"/>
      </g>
      <g id="Rectangle_3236-6" data-name="Rectangle 3236" transform="translate(20.433 27.731)" fill="none" stroke="#266cd5" stroke-width="1">
        <rect width="9.122" height="9.122" stroke="none"/>
        <rect x="0.5" y="0.5" width="8.122" height="8.122" fill="none"/>
      </g>
      <rect id="Rectangle_3237-6" data-name="Rectangle 3237" width="0.73" height="28.46" transform="translate(14.96 4.744)" fill="#266cd5"/>
      <rect id="Rectangle_3238-6" data-name="Rectangle 3238" width="0.73" height="8.838" transform="translate(10.949 18.791) rotate(-90)" fill="#266cd5"/>
      <rect id="Rectangle_3239-6" data-name="Rectangle 3239" width="0.73" height="4.827" transform="translate(14.96 5.109) rotate(-90)" fill="#266cd5"/>
      <rect id="Rectangle_3240-6" data-name="Rectangle 3240" width="0.73" height="4.827" transform="translate(14.96 33.204) rotate(-90)" fill="#266cd5"/>
    </g>
    <g id="Group_4355" data-name="Group 4355" transform="matrix(0.921, -0.391, 0.391, 0.921, 550.207, 223.287)">
      <rect id="Rectangle_3233-7" data-name="Rectangle 3233" width="18" height="17" transform="translate(714.116 502.095)" fill="#266cd5"/>
      <rect id="Rectangle_3234-7" data-name="Rectangle 3234" width="18" height="17" transform="translate(753.116 476.095)" fill="#174180"/>
      <rect id="Rectangle_3235-7" data-name="Rectangle 3235" width="18" height="17" transform="translate(753.116 502.095)" fill="#174180"/>
      <rect id="Rectangle_3236-7" data-name="Rectangle 3236" width="18" height="17" transform="translate(753.116 528.095)" fill="#174180"/>
      <rect id="Rectangle_3237-7" data-name="Rectangle 3237" width="1" height="54" transform="translate(743.116 485.095)" fill="#174180"/>
      <rect id="Rectangle_3238-7" data-name="Rectangle 3238" width="1.369" height="16.574" transform="translate(735.436 511.279) rotate(-90)" fill="#174180"/>
      <rect id="Rectangle_3239-7" data-name="Rectangle 3239" width="1.369" height="8.894" transform="translate(743.117 485.618) rotate(-90)" fill="#174180"/>
      <rect id="Rectangle_3240-7" data-name="Rectangle 3240" width="1.369" height="8.894" transform="translate(743.117 539.309) rotate(-90)" fill="#174180"/>
    </g>
    <g id="Group_4357" data-name="Group 4357" transform="matrix(0.921, -0.391, 0.391, 0.921, 211.463, 501.221)">
      <rect id="Rectangle_3233-8" data-name="Rectangle 3233" width="18" height="17" transform="translate(714.116 502.095)" fill="#266cd5"/>
      <rect id="Rectangle_3234-8" data-name="Rectangle 3234" width="18" height="17" transform="translate(753.116 476.095)" fill="#174180"/>
      <rect id="Rectangle_3235-8" data-name="Rectangle 3235" width="18" height="17" transform="translate(753.116 502.095)" fill="#174180"/>
      <rect id="Rectangle_3236-8" data-name="Rectangle 3236" width="18" height="17" transform="translate(753.116 528.095)" fill="#174180"/>
      <rect id="Rectangle_3237-8" data-name="Rectangle 3237" width="1" height="54" transform="translate(743.116 485.095)" fill="#174180"/>
      <rect id="Rectangle_3238-8" data-name="Rectangle 3238" width="1.369" height="16.574" transform="translate(735.436 511.279) rotate(-90)" fill="#174180"/>
      <rect id="Rectangle_3239-8" data-name="Rectangle 3239" width="1.369" height="8.894" transform="translate(743.117 485.618) rotate(-90)" fill="#174180"/>
      <rect id="Rectangle_3240-8" data-name="Rectangle 3240" width="1.369" height="8.894" transform="translate(743.117 539.309) rotate(-90)" fill="#174180"/>
    </g>
  </g>
</svg>
