<svg id="Group_48" data-name="Group 48" xmlns="http://www.w3.org/2000/svg" width="64.862" height="82.35" viewBox="0 0 64.862 82.35">
  <path id="Path_36" data-name="Path 36" d="M206.923,259.7a19.3,19.3,0,1,0,19.3,19.3A19.3,19.3,0,0,0,206.923,259.7Zm-.946,15.88,4.359,2.243a6.578,6.578,0,0,1,3.516,7,6.4,6.4,0,0,1-3.772,4.921v.581a2.68,2.68,0,0,1-5.36,0v-.405a7.925,7.925,0,0,1-4.777-4.363,2.68,2.68,0,0,1,4.917-2.136,2.586,2.586,0,0,0,2.59,1.539,1.135,1.135,0,0,0,1.109-.986,1.282,1.282,0,0,0-.675-1.387l-4.359-2.243a6.609,6.609,0,0,1-3.482-7.144,6.426,6.426,0,0,1,4.679-5.133v-.4a2.68,2.68,0,0,1,5.36,0v.991A7.865,7.865,0,0,1,213.9,272.6a2.682,2.682,0,0,1-4.919,2.14A2.579,2.579,0,0,0,206.4,273.2a1.146,1.146,0,0,0-1.087.989A1.236,1.236,0,0,0,205.977,275.583Z" transform="translate(-161.359 -215.948)" fill="#266cd5"/>
  <path id="Path_37" data-name="Path 37" d="M225.809,240.727l-4.749,2.59a2.15,2.15,0,0,1-2.052,0l-6.894-3.759a2.143,2.143,0,0,0-2.054,0l-6.879,3.757a2.144,2.144,0,0,1-2.054,0l-6.876-3.755a2.132,2.132,0,0,0-2.054,0l-6.874,3.755a2.142,2.142,0,0,1-2.056,0l-4.717-2.579a2.145,2.145,0,0,0-3.173,1.88v68.713a2.144,2.144,0,0,0,3.171,1.883l4.749-2.588a2.139,2.139,0,0,1,2.052,0l6.894,3.757a2.143,2.143,0,0,0,2.054,0l4.04-2.206a24.605,24.605,0,0,1,30.645-33.106V242.61A2.145,2.145,0,0,0,225.809,240.727Zm-36.5,52.074H186.1a2.68,2.68,0,1,1,0-5.36h3.216a2.68,2.68,0,1,1,0,5.36Zm6.278-10.721H186.1a2.68,2.68,0,1,1,0-5.36h9.494a2.68,2.68,0,0,1,0,5.36Zm22.145-10.721H186.1a2.68,2.68,0,1,1,0-5.361h31.64a2.68,2.68,0,0,1,0,5.361Zm0-10.721H186.1a2.68,2.68,0,1,1,0-5.36h31.64a2.68,2.68,0,1,1,0,5.36Z" transform="translate(-175.375 -239.297)" fill="#266cd5"/>
</svg>
