<svg xmlns="http://www.w3.org/2000/svg" width="85.667" height="74.652" viewBox="0 0 85.667 74.652">
  <g id="Group_45" data-name="Group 45" transform="translate(-105 -379.25)">
    <g id="Group_47" data-name="Group 47" transform="translate(105 379.25)">
      <g id="Group_46" data-name="Group 46">
        <g id="Group_45-2" data-name="Group 45">
          <path id="Path_34" data-name="Path 34" d="M180.315,379.25H110.386a3.671,3.671,0,1,0,0,7.343h69.928a3.671,3.671,0,1,0,0-7.343Z" transform="translate(-102.517 -379.25)" fill="#266cd5"/>
          <path id="Path_35" data-name="Path 35" d="M185.771,384.75H109.9a4.894,4.894,0,0,0-4.9,4.9v51.4a4.894,4.894,0,0,0,4.9,4.9h75.876a4.894,4.894,0,0,0,4.9-4.9v-51.4A4.894,4.894,0,0,0,185.771,384.75Zm-61.19,9.79a7.343,7.343,0,1,1-7.343,7.343A7.342,7.342,0,0,1,124.581,394.54Zm6.119,41h-9.79a3.06,3.06,0,0,1,0-6.119h9.79a3.06,3.06,0,0,1,0,6.119Zm22.029,0h-9.79a3.06,3.06,0,0,1,0-6.119h9.79a3.06,3.06,0,0,1,0,6.119Zm22.029,0h-9.79a3.06,3.06,0,0,1,0-6.119h9.79a3.06,3.06,0,0,1,0,6.119Zm0-29.371H142.938a3.06,3.06,0,0,1,0-6.119h31.819a3.06,3.06,0,0,1,0,6.119Z" transform="translate(-105 -371.288)" fill="#266cd5"/>
        </g>
      </g>
    </g>
  </g>
</svg>
