<svg xmlns="http://www.w3.org/2000/svg" width="80" height="78.837" viewBox="0 0 80 78.837">
  <g id="Group_42" data-name="Group 42" transform="translate(-1501.753 -401.503)">
    <path id="Path_31" data-name="Path 31" d="M1756.452,548.244c-2.457.771-4.836,1.757-7.246,2.658q-14.613,5.462-29.216,10.952c-1.056.4-1.062.388-1.062-.742q0-21.5-.016-43a1.2,1.2,0,0,1,.92-1.359c3.593-1.3,7.162-2.67,10.743-4.008.931-.348.95-.331.951.658,0,3.564.011,7.128-.009,10.692,0,.594.074.8.724.545q4.22-1.629,8.472-3.177a.929.929,0,0,0,.707-1.03c-.022-3.616.006-7.232-.026-10.848a1.111,1.111,0,0,1,.866-1.237c4.416-1.626,8.816-3.3,13.224-4.946a2.555,2.555,0,0,1,.968-.275Z" transform="translate(-174.698 -81.751)" fill="#266cd5"/>
    <path id="Path_32" data-name="Path 32" d="M1582.673,416.534c-2.458.77-4.83,1.772-7.246,2.656-2.319.849-4.635,1.71-6.936,2.608a2.03,2.03,0,0,1-1.708-.07c-4.263-1.932-8.547-3.818-12.8-5.778a2.813,2.813,0,0,0-2.567-.011c-2.748,1.233-5.534,2.38-8.306,3.56.063.308.317.288.486.358q6.522,2.7,13.051,5.384a4.922,4.922,0,0,1,.5.214c.147.081.411.1.354.337-.026.106-.226.192-.363.244-1.385.527-2.774,1.044-4.161,1.565-3.091,1.16-6.188,2.306-9.268,3.495a2.634,2.634,0,0,1-2.016,0q-18.285-6.885-36.583-13.735c-.609-.228-1.22-.449-1.823-.692-.152-.061-.411-.057-.4-.3.015-.225.261-.229.418-.289q3.574-1.354,7.154-2.692,15.483-5.8,30.96-11.624a3.3,3.3,0,0,1,2.529-.013q18.935,7.151,37.894,14.235c.266.1.547.16.821.239Z" transform="translate(-0.92)" fill="#266cd5"/>
    <path id="Path_33" data-name="Path 33" d="M1501.765,525.806q0-10.731,0-21.462c0-1.129.006-1.136,1.065-.739q17.821,6.685,35.646,13.357a1.161,1.161,0,0,1,.882,1.306q-.029,21.54-.015,43.08c0,1.08-.011,1.092-1.027.711q-17.895-6.709-35.792-13.411a1.027,1.027,0,0,1-.77-1.146Q1501.781,536.655,1501.765,525.806Zm19.981,19.931c0-.675-.01-1.35,0-2.025a.65.65,0,0,0-.476-.7q-4.376-1.63-8.745-3.281c-.471-.178-.676-.084-.667.447.017.96-.005,1.921.006,2.881.022,1.918-.248,1.457,1.46,2.115,2.542.979,5.1,1.913,7.646,2.887.571.219.82.131.781-.529C1521.72,546.933,1521.748,546.335,1521.746,545.738Z" transform="translate(0 -81.946)" fill="#266cd5"/>
  </g>
</svg>
