<svg xmlns="http://www.w3.org/2000/svg" width="494" height="533" viewBox="0 0 494 533">
  <g id="Calender-Drive" transform="translate(-934 -1546)">
    <text id="New_email_client_experience" data-name="New email client experience" transform="translate(971 1727)" fill="#fff" font-size="36" font-family="Rubik-Medium, Rubik" font-weight="500"><tspan x="0" y="34">New email client </tspan><tspan x="0" y="77">experience</tspan></text>
    <text id="DeepBlueWork_Mail_is_an_email_provider_service_that_respects_privacy_and_puts_people_not_advertisers_first._Your_data_belongs_to_you_and_our_encryption_ensures_that._We_also_provide_an_anonymous_email_gateway." data-name="DeepBlueWork Mail is an email provider/service that respects privacy and puts people (not advertisers) first. Your data belongs to you, and our encryption ensures that. We also provide an anonymous email gateway." transform="translate(971 1887)" fill="#fff" font-size="18" font-family="Rubik-Regular, Rubik"><tspan x="0" y="17">DeepBlueWork Mail is an email provider/service that </tspan><tspan x="0" y="45">respects privacy and puts people (not advertisers) </tspan><tspan x="0" y="73">first. Your data belongs to you, and our encryption </tspan><tspan x="0" y="101">ensures that. We also provide an anonymous email </tspan><tspan x="0" y="129">gateway.</tspan></text>
    <text id="Security_with_Productivity" data-name="Security with Productivity" transform="translate(971 1845)" fill="#fff" font-size="24" font-family="Rubik-Regular, Rubik"><tspan x="0" y="0">Security with Productivity</tspan></text>
    <g id="Rectangle_3225" data-name="Rectangle 3225" transform="translate(934 1546)" fill="none" stroke="#9aabc9" stroke-width="1">
      <rect width="494" height="533" rx="8" stroke="none"/>
      <rect x="0.5" y="0.5" width="493" height="532" rx="7.5" fill="none"/>
    </g>
    <path id="calendar" d="M65.29,6.677H55.644V2.226a2.226,2.226,0,1,0-4.451,0V6.677H37.838V2.226a2.226,2.226,0,0,0-4.451,0V6.677H20.032V2.226a2.226,2.226,0,1,0-4.451,0V6.677H5.936A5.934,5.934,0,0,0,0,12.611V65.288a5.936,5.936,0,0,0,5.936,5.936H65.29a5.934,5.934,0,0,0,5.934-5.936V12.611A5.932,5.932,0,0,0,65.29,6.677Zm1.482,58.611a1.485,1.485,0,0,1-1.482,1.485H5.936a1.486,1.486,0,0,1-1.485-1.485V12.611a1.485,1.485,0,0,1,1.485-1.482H15.58V15.58a2.226,2.226,0,0,0,4.451,0V11.129H33.386V15.58a2.226,2.226,0,0,0,4.451,0V11.129H51.192V15.58a2.226,2.226,0,0,0,4.451,0V11.129H65.29a1.485,1.485,0,0,1,1.482,1.482ZM15.58,26.709h8.9v6.677h-8.9Zm0,11.129h8.9v6.677h-8.9Zm0,11.129h8.9v6.677h-8.9Zm15.58,0h8.9v6.677h-8.9Zm0-11.129h8.9v6.677h-8.9Zm0-11.129h8.9v6.677h-8.9Zm15.58,22.257h8.9v6.677h-8.9Zm0-11.129h8.9v6.677h-8.9Zm0-11.129h8.9v6.677h-8.9Z" transform="translate(980 1597)" fill="#266cd5"/>
    <path id="stack" d="M51.936,28.77,45.425,4.357A3.261,3.261,0,0,0,42.3,2H9.761A3.26,3.26,0,0,0,6.634,4.357L.124,28.77A3.284,3.284,0,0,0,0,29.657V41.045a6.508,6.508,0,0,0,6.507,6.507H45.552a6.508,6.508,0,0,0,6.507-6.507V29.657A3.284,3.284,0,0,0,51.936,28.77Zm-3.13,12.275A3.259,3.259,0,0,1,45.552,44.3H6.507a3.258,3.258,0,0,1-3.254-3.254V29.657l6.509-24.4H42.3l6.511,24.4ZM38.625,8.507H13.435a1.629,1.629,0,0,0-1.573,1.209l-5.6,19.522a1.627,1.627,0,0,0,1.572,2.045H15.26l2.354,4.71a3.259,3.259,0,0,0,2.912,1.8H31.534a3.256,3.256,0,0,0,2.91-1.8l2.354-4.71H44.23A1.629,1.629,0,0,0,45.8,29.237L40.2,9.715a1.628,1.628,0,0,0-1.573-1.207ZM39.5,28.03H36.8a3.235,3.235,0,0,0-2.91,1.8l-2.354,4.71H20.526l-2.354-4.71a3.235,3.235,0,0,0-2.91-1.8H8.678l4.757-17.9h25.19l4.757,17.9Z" transform="translate(1054 1643.448)" fill="#266cd5"/>
    <path id="loop" d="M20,16v4h4.738l-5.371,5.371a9.19,9.19,0,0,1-12.7,0l-2.83,2.824a12.975,12.975,0,0,0,18.359,0L28,22.4V28h4V16Zm-8-4H7.262l5.371-5.371a9.19,9.19,0,0,1,12.7,0l2.83-2.824a12.976,12.976,0,0,0-18.36,0L4,9.605V4H0V16H12Z" transform="translate(1025 1657)" fill="#fff"/>
  </g>
</svg>
