<svg xmlns="http://www.w3.org/2000/svg" width="115.124" height="112" viewBox="0 0 115.124 112">
  <g id="Calendar" transform="translate(-3914.979 -94.225)">
    <path id="Path_264184" data-name="Path 264184" d="M4030.087,183.919q0-8.236,0-16.473a16.18,16.18,0,0,0-.153-2.358,14.288,14.288,0,0,0-7.017-10.248,13.422,13.422,0,0,0-6.675-1.962c-4.531-.065-9.063-.022-13.594-.019-.205,0-.411.037-.641.059v7.152a9.742,9.742,0,0,1-13.1,14.4,9.343,9.343,0,0,1-3.4-6.363,9.659,9.659,0,0,1,2.838-7.985,66.884,66.884,0,0,0-.065-7.164c-.607-.145-31.5-.144-32.145.013V160.1a9.741,9.741,0,1,1-13.588-.116,51.56,51.56,0,0,0-.1-7.079c-.227-.016-.482-.046-.737-.046q-6.258,0-12.515,0a7.246,7.246,0,0,0-1.076.036,17.126,17.126,0,0,0-4.677,1.308,14.072,14.072,0,0,0-5.042,3.843,14.755,14.755,0,0,0-3.424,9.673c.017,4.841,0,9.68,0,14.52q0,.841,0,1.681,0,1.87,0,3.738h0v10.207h0q0,22.072.007,44.142a12.612,12.612,0,0,0,.164,2,14.825,14.825,0,0,0,1.814,5.178,14.305,14.305,0,0,0,4.655,4.9,14.6,14.6,0,0,0,8.087,2.332q42.9-.028,85.8-.009a14.311,14.311,0,0,0,11.8-5.913,14.156,14.156,0,0,0,2.79-8.647Q4030.078,212.881,4030.087,183.919Zm-4.66,42.646c0,2.008-.076,4.018-.113,6.027a8.168,8.168,0,0,1-.591,2.647,10.5,10.5,0,0,1-2.579,3.84c-3.748,3.711-7.467,7.447-11.2,11.172-.184.183-.39.342-.585.51,0,0,0,.007,0,.01l-.144.144-.03.049c.008-.019.017-.036.024-.055l.146-.142s0,0,.005-.006a3.1,3.1,0,0,1,.1-.476,8.8,8.8,0,0,0,.5-3.17c-.014-3.761-.006-7.523,0-11.284,0-.277.017-.554.028-.871h.879c2.541,0,5.082-.009,7.623.006a1.663,1.663,0,0,0,1.551-.854,3.3,3.3,0,0,0,.241-.772c-.3-1.17-.722-1.568-1.687-1.57q-5.61-.009-11.22,0a5.479,5.479,0,0,0-.61.079v.894q0,7.369,0,14.736a3.758,3.758,0,0,1-3.125,3.981,9.334,9.334,0,0,1-2.065.173q-20.929.015-41.857.007-15.715,0-31.431.006a9.08,9.08,0,0,1-6.371-2.556,9.642,9.642,0,0,1-3.165-7.355q.009-22.714,0-45.428c0-.216.008-.431,0-.647a.842.842,0,0,0-.01-.092v-6.182h95.164c1.75,0,3.5-.007,5.25,0s3.481-.039,5.288.035v.989Q4025.432,208.488,4025.427,226.566Z" transform="translate(0 -50.186)" fill="#326cc2"/>
    <path id="Path_264185" data-name="Path 264185" d="M4053.7,408.011v-.99c-1.807-.073-3.547-.026-5.288-.035s-3.5,0-5.25,0H3948v6.186a.737.737,0,0,1,.01.092c.013.216,0,.432,0,.647q0,22.728,0,45.455a9.654,9.654,0,0,0,3.165,7.359,9.079,9.079,0,0,0,6.372,2.558q15.716-.019,31.431-.006,20.927,0,41.857-.007a9.333,9.333,0,0,0,2.066-.173,3.759,3.759,0,0,0,3.125-3.983q.011-7.373,0-14.745v-.895a5.483,5.483,0,0,1,.61-.079q5.61,0,11.22,0c.965,0,1.387.4,1.687,1.571a3.349,3.349,0,0,1-.241.772,1.663,1.663,0,0,1-1.551.854c-2.54-.014-5.083-.006-7.623-.006h-.879c-.012.318-.029.594-.029.872,0,3.763-.01,7.528,0,11.291a8.805,8.805,0,0,1-.5,3.172,3.047,3.047,0,0,0-.1.476c.2-.168.4-.328.585-.511,3.731-3.727,7.452-7.466,11.2-11.179a10.51,10.51,0,0,0,2.579-3.842,8.178,8.178,0,0,0,.591-2.648c.038-2.01.111-4.021.114-6.03Q4053.713,426.1,4053.7,408.011ZM3956.519,431.6h12.5c.16.585.171,9.616.021,10.261-.56.129-11.8.142-12.526,0Zm12.561,27.2a.633.633,0,0,1-.049.053c-.017.016-.038.036-.058.037-.333.017-.667.045-1,.043q-5.643-.009-11.285-.029c-.04,0-.081-.045-.168-.1V448.675c.029-.03.045-.049.063-.065s.037-.039.056-.039q5.858-.024,11.715-.043c.191,0,.382.013.573.029.042,0,.081.045.121.069C3969.169,449.155,3969.2,458.008,3969.08,458.8Zm6.491-44.183H3988c.166.534.2,9.444.055,10.262-.5.144-11.574.188-12.46.05C3975.444,424.427,3975.406,415.51,3975.571,414.615Zm-.026,17.032c.7-.137,11.937-.124,12.5.006.121.531.151,9.344.036,10.17a.567.567,0,0,1-.049.053c-.018.014-.036.037-.056.039-.285.017-.571.045-.856.045q-5.714-.009-11.424-.029c-.04,0-.081-.045-.121-.069C3975.451,441.332,3975.421,432.507,3975.545,431.647Zm12.539,27.143a.57.57,0,0,1-.049.053c-.017.016-.035.04-.055.042a4.442,4.442,0,0,1-.5.047q-5.859,0-11.715-.011a.587.587,0,0,1-.188-.066c-.149-.617-.148-9.652.01-10.281h12.436C3988.163,449.138,3988.2,457.868,3988.084,458.79Zm6.571-44.18c1-.063,2.018-.019,3.037-.026,1.054-.009,2.107,0,3.16,0h6.143c.177.557.226,9.35.066,10.377h-12.353C3994.547,424.439,3994.5,415.667,3994.655,414.61Zm12.443,44.175c-.039.04-.055.058-.073.073a.133.133,0,0,1-.059.035,4.854,4.854,0,0,1-.5.042q-5.79,0-11.579-.012a.739.739,0,0,1-.194-.055c-.154-.545-.175-9.534-.029-10.239.524-.122,11.337-.165,12.433-.039Zm-.01-16.961c-.016.016-.033.033-.052.049s-.034.039-.055.043a1.591,1.591,0,0,1-.282.043q-5.861,0-11.723,0a2.739,2.739,0,0,1-.364-.059V431.679c.579-.158,11.735-.178,12.427-.033C4007.165,432.164,4007.207,440.879,4007.088,441.823Zm6.519-27.117c.551-.152,11.607-.187,12.421-.049.143.515.177,9.408.04,10.226-.515.14-11.577.174-12.461.024Zm12.5,44.1c-.518.16-11.417.213-12.413.068-.013-.014-.031-.03-.046-.049a.152.152,0,0,1-.036-.059,1.6,1.6,0,0,1-.039-.282q0-4.814.007-9.626a.832.832,0,0,1,.047-.2c.5-.154,11.345-.207,12.479-.052Zm-.036-16.957c-.5.144-11.512.184-12.464.032V431.682c.539-.154,11.526-.2,12.417-.058C4026.171,432.122,4026.211,440.983,4026.07,441.845Zm6.558-27.215h12.492c.16.606.167,9.647.019,10.268-.569.132-11.818.141-12.463.01C4032.546,424.393,4032.5,415.852,4032.628,414.63Zm12.522,27.222c-.522.137-11.683.167-12.46.035-.151-.514-.18-9.473-.019-10.3h12.437C4045.274,432.145,4045.3,441.12,4045.15,441.852Z" transform="translate(-28.271 -267.826)" fill="#1297fc"/>
    <path id="Path_264186" data-name="Path 264186" d="M4576.986,833.94s0,.007,0,.01l-.145.144c-.009.017-.02.033-.03.049.009-.019.018-.036.025-.055l.145-.142S4576.985,833.943,4576.986,833.94Z" transform="translate(-566.627 -633.368)"/>
    <path id="Path_264187" data-name="Path 264187" d="M4450.807,107.119c0-3.234.009-6.467,0-9.7a3.051,3.051,0,0,1,3.018-3.186,2.973,2.973,0,0,1,2.79,1.591,2.851,2.851,0,0,1,.418,1.5q-.007,9.881,0,19.761a3.117,3.117,0,0,1-6.232-.05C4450.826,113.73,4450.807,110.424,4450.807,107.119Z" transform="translate(-458.742 0)" fill="#1297fc"/>
    <path id="Path_264188" data-name="Path 264188" d="M4138.04,107.326c0,3.257-.025,6.514.011,9.77a3.215,3.215,0,0,1-2.231,3.006,3.12,3.12,0,0,1-4-2.927c.018-2.323,0-4.645,0-6.968,0-4.19.007-8.381-.006-12.572a3.539,3.539,0,0,1,.622-2.02,3.076,3.076,0,0,1,4.537-.469,3.244,3.244,0,0,1,1.074,2.482C4138.028,100.86,4138.04,104.093,4138.04,107.326Z" transform="translate(-185.642 -0.109)" fill="#1297fc"/>
    <path id="Path_264189" data-name="Path 264189" d="M4576.988,834.132l.142-.144,0,0-.145.143Z" transform="translate(-566.774 -633.406)" fill="#fff"/>
    <path id="Path_264190" data-name="Path 264190" d="M4576.835,834.974l-.024.054.03-.048Z" transform="translate(-566.628 -634.253)" fill="#fff"/>
  </g>
</svg>
