<svg xmlns="http://www.w3.org/2000/svg" xmlns:xlink="http://www.w3.org/1999/xlink" width="98.25" height="95.636" viewBox="0 0 98.25 95.636">
  <defs>
    <linearGradient id="linear-gradient" y1="0.5" x2="1" y2="0.5" gradientUnits="objectBoundingBox">
      <stop offset="0" stop-color="#004dcc"/>
      <stop offset="1" stop-color="#004fce"/>
    </linearGradient>
    <linearGradient id="linear-gradient-2" y1="0.5" x2="1" y2="0.5" gradientUnits="objectBoundingBox">
      <stop offset="0" stop-color="#004dcc"/>
      <stop offset="1" stop-color="#0084f9"/>
    </linearGradient>
    <linearGradient id="linear-gradient-3" y1="0.5" x2="1" y2="0.5" gradientUnits="objectBoundingBox">
      <stop offset="0" stop-color="#0084f9"/>
      <stop offset="1" stop-color="#0084f9"/>
    </linearGradient>
  </defs>
  <g id="Calendar" transform="translate(-3914.979 -94.225)">
    <path id="Path_264184" data-name="Path 264184" d="M4013.215,179.38q0-7.033,0-14.066a13.794,13.794,0,0,0-.13-2.013,12.2,12.2,0,0,0-5.988-8.751,11.448,11.448,0,0,0-5.7-1.676c-3.867-.055-7.734-.018-11.6-.016-.175,0-.351.032-.547.05v6.108a8.316,8.316,0,0,1-11.182,12.3,7.979,7.979,0,0,1-2.9-5.434,8.252,8.252,0,0,1,2.422-6.818,57.106,57.106,0,0,0-.055-6.117c-.518-.124-26.886-.123-27.433.011v6.087a8.316,8.316,0,1,1-11.6-.1,44.01,44.01,0,0,0-.083-6.045c-.194-.014-.412-.039-.629-.039q-5.34,0-10.68,0a6.18,6.18,0,0,0-.918.031A14.611,14.611,0,0,0,3922.2,154a12.01,12.01,0,0,0-4.3,3.281,12.605,12.605,0,0,0-2.922,8.26c.015,4.133,0,8.266,0,12.4q0,.718,0,1.435,0,1.6,0,3.192h0v8.716h0q0,18.847.006,37.694a10.73,10.73,0,0,0,.14,1.706,12.66,12.66,0,0,0,1.548,4.422,12.215,12.215,0,0,0,3.973,4.181,12.456,12.456,0,0,0,6.9,1.991q36.614-.024,73.227-.007a12.21,12.21,0,0,0,10.069-5.049,12.092,12.092,0,0,0,2.381-7.384Q4013.208,204.111,4013.215,179.38Zm-3.977,36.417c0,1.715-.065,3.431-.1,5.146a6.989,6.989,0,0,1-.5,2.26,8.968,8.968,0,0,1-2.2,3.279c-3.2,3.169-6.373,6.359-9.557,9.54-.157.156-.333.292-.5.436,0,0,0,.006,0,.009-.041.042-.082.082-.123.123l-.026.042c.007-.016.015-.031.021-.047l.124-.122,0,0a2.58,2.58,0,0,1,.086-.406,7.52,7.52,0,0,0,.425-2.707c-.012-3.212,0-6.424,0-9.636,0-.237.015-.473.024-.744h.75c2.168,0,4.337-.007,6.505,0a1.419,1.419,0,0,0,1.323-.729,2.832,2.832,0,0,0,.206-.659c-.256-1-.616-1.339-1.44-1.341q-4.788-.007-9.576,0a4.661,4.661,0,0,0-.521.068v.764q0,6.292,0,12.583a3.208,3.208,0,0,1-2.667,3.4,7.96,7.96,0,0,1-1.763.147q-17.861.013-35.722.006-13.411,0-26.824,0a7.746,7.746,0,0,1-5.437-2.183,8.237,8.237,0,0,1-2.7-6.281q.007-19.4,0-38.793c0-.184.007-.368,0-.552a.614.614,0,0,0-.009-.079v-5.279h81.215c1.494,0,2.988-.006,4.481,0s2.971-.033,4.513.029v.845Q4009.242,200.36,4009.238,215.8Z" transform="translate(0 -51.422)" fill="url(#linear-gradient)"/>
    <path id="Path_264185" data-name="Path 264185" d="M4038.209,407.86v-.845c-1.542-.063-3.027-.022-4.513-.029s-2.987,0-4.481,0H3948v5.279a.613.613,0,0,1,.009.079c.011.184,0,.368,0,.552q0,19.4,0,38.793a8.238,8.238,0,0,0,2.7,6.281,7.747,7.747,0,0,0,5.438,2.183q13.413-.017,26.824,0,17.86,0,35.722-.006a7.964,7.964,0,0,0,1.763-.147,3.208,3.208,0,0,0,2.667-3.4q.009-6.292,0-12.583v-.764a4.675,4.675,0,0,1,.521-.068q4.788,0,9.576,0c.824,0,1.184.341,1.44,1.341a2.844,2.844,0,0,1-.206.659,1.42,1.42,0,0,1-1.323.729c-2.168-.012-4.337,0-6.505,0h-.75c-.01.271-.025.507-.025.744,0,3.212-.009,6.424,0,9.636a7.509,7.509,0,0,1-.425,2.707,2.609,2.609,0,0,0-.086.406c.167-.144.343-.28.5-.436,3.184-3.181,6.359-6.371,9.557-9.54a8.974,8.974,0,0,0,2.2-3.279,6.982,6.982,0,0,0,.5-2.26c.032-1.715.094-3.431.1-5.146Q4038.218,423.3,4038.209,407.86Zm-82.939,20.133h10.672c.136.5.146,8.207.019,8.757-.478.111-10.067.122-10.69,0Zm10.72,23.21a.489.489,0,0,1-.042.045c-.015.013-.032.031-.049.032-.285.015-.57.038-.854.037q-4.816-.007-9.631-.025c-.034,0-.069-.038-.144-.082v-8.648c.025-.026.038-.042.054-.055s.032-.033.048-.033q5-.02,10-.037c.163,0,.326.011.489.025.036,0,.069.038.1.059C3966.066,442.973,3966.091,450.528,3965.99,451.2Zm5.539-37.707h10.612c.141.455.174,8.06.047,8.758-.425.123-9.878.161-10.634.043C3971.421,421.87,3971.389,414.26,3971.529,413.5Zm-.022,14.535c.594-.117,10.187-.106,10.666,0,.1.453.129,7.975.031,8.68a.492.492,0,0,1-.042.045c-.015.012-.031.032-.048.033-.243.015-.487.038-.73.038q-4.876-.007-9.75-.025c-.034,0-.069-.038-.1-.059C3971.427,436.3,3971.4,428.766,3971.507,428.031Zm10.7,23.164a.494.494,0,0,1-.042.045c-.015.013-.029.034-.047.036a3.8,3.8,0,0,1-.423.041q-5,0-10-.01a.5.5,0,0,1-.161-.056c-.128-.527-.126-8.238.009-8.774h10.613C3982.276,442.958,3982.309,450.409,3982.208,451.2Zm5.608-37.7c.852-.054,1.722-.016,2.591-.022.9-.007,1.8,0,2.7,0h5.242c.151.475.193,7.98.057,8.856h-10.542C3987.724,421.88,3987.681,414.394,3987.817,413.491Zm10.619,37.7a.869.869,0,0,1-.062.063.113.113,0,0,1-.05.029,4.142,4.142,0,0,1-.426.036q-4.941,0-9.881-.01a.63.63,0,0,1-.166-.047c-.131-.465-.15-8.137-.025-8.738.447-.1,9.675-.141,10.611-.033Zm-.008-14.475c-.014.013-.028.028-.044.042s-.029.033-.047.037a1.362,1.362,0,0,1-.24.037q-5,0-10,0a2.33,2.33,0,0,1-.31-.05v-8.721c.493-.135,10.015-.152,10.605-.028C3998.493,428.472,3998.529,435.911,3998.427,436.716Zm5.563-23.142c.47-.13,9.906-.16,10.6-.042.122.44.151,8.029.034,8.727-.439.119-9.88.149-10.635.021Zm10.667,37.632c-.442.136-9.744.182-10.594.058-.011-.012-.027-.026-.039-.042a.125.125,0,0,1-.031-.05,1.358,1.358,0,0,1-.033-.241q0-4.108.006-8.215a.714.714,0,0,1,.041-.171c.43-.131,9.682-.177,10.65-.044Zm-.031-14.472c-.428.123-9.825.157-10.638.027v-8.7c.46-.131,9.837-.167,10.6-.049C4014.713,428.437,4014.748,436,4014.627,436.734Zm5.6-23.226h10.661c.136.517.143,8.233.016,8.763-.486.113-10.086.12-10.636.009C4020.154,421.84,4020.112,414.552,4020.224,413.508Zm10.687,23.232c-.446.117-9.971.142-10.634.03-.129-.438-.154-8.084-.016-8.786h10.613C4031.016,428.456,4031.04,436.116,4030.911,436.74Z" transform="translate(-28.967 -274.359)" fill="url(#linear-gradient-2)"/>
    <path id="Path_264186" data-name="Path 264186" d="M4576.96,833.94s0,.006,0,.009l-.123.123c-.008.015-.017.028-.026.042.007-.016.015-.031.021-.047l.124-.122S4576.959,833.943,4576.96,833.94Z" transform="translate(-580.581 -648.904)"/>
    <path id="Path_264187" data-name="Path 264187" d="M4450.806,105.229c0-2.76.008-5.519,0-8.279a2.6,2.6,0,0,1,2.575-2.719,2.537,2.537,0,0,1,2.381,1.358,2.435,2.435,0,0,1,.357,1.282q-.007,8.432,0,16.864a2.66,2.66,0,0,1-5.319-.043C4450.822,110.871,4450.806,108.05,4450.806,105.229Z" transform="translate(-470.039 0)" fill="url(#linear-gradient-3)"/>
    <path id="Path_264188" data-name="Path 264188" d="M4137.127,105.424c0,2.779-.021,5.559.01,8.338a2.744,2.744,0,0,1-1.9,2.565,2.662,2.662,0,0,1-3.417-2.5c.015-1.982,0-3.965,0-5.947,0-3.576.006-7.153-.005-10.729a3.023,3.023,0,0,1,.531-1.724,2.625,2.625,0,0,1,3.872-.4,2.769,2.769,0,0,1,.917,2.119C4137.117,99.906,4137.127,102.665,4137.127,105.424Z" transform="translate(-190.214 -0.112)" fill="url(#linear-gradient-3)"/>
    <path id="Path_264189" data-name="Path 264189" d="M4576.987,834.111l.122-.123,0,0-.124.122Z" transform="translate(-580.732 -648.942)" fill="#fff"/>
    <path id="Path_264190" data-name="Path 264190" d="M4576.832,834.974l-.021.046.026-.041Z" transform="translate(-580.582 -649.811)" fill="#fff"/>
  </g>
</svg>
