<svg id="Group_5396" data-name="Group 5396" xmlns="http://www.w3.org/2000/svg" xmlns:xlink="http://www.w3.org/1999/xlink" width="86.036" height="86.036" viewBox="0 0 86.036 86.036">
  <defs>
    <linearGradient id="linear-gradient" x1="0.5" x2="0.5" y2="1" gradientUnits="objectBoundingBox">
      <stop offset="0" stop-color="#ff8e63"/>
      <stop offset="1" stop-color="red"/>
    </linearGradient>
  </defs>
  <path id="Path_216040" data-name="Path 216040" d="M-1400.279,498.968c-.059-.139-.117-.276-.179-.411-.031-.078-.062-.155-.1-.232-.089-.2-.179-.408-.271-.6-.144-.326-.295-.651-.453-.968a40.677,40.677,0,0,0-19.41-19.649,50.841,50.841,0,0,0-12.027-3.945,42.81,42.81,0,0,0-7.261-.616A43.017,43.017,0,0,0-1483,515.562a43.016,43.016,0,0,0,43.016,43.016,43.017,43.017,0,0,0,43.019-43.016A42.88,42.88,0,0,0-1400.279,498.968Zm-39.745,57.009a40.171,40.171,0,0,1-39.985-40.07,40.1,40.1,0,0,1,40.066-39.964,40.119,40.119,0,0,1,39.993,40.231C-1399.958,537.945-1418.071,555.935-1440.023,555.977Z" transform="translate(1482.997 -472.543)" fill="url(#linear-gradient)"/>
  <path id="Path_216048" data-name="Path 216048" d="M.124-.877A4.9,4.9,0,0,1-2.66-1.691,3.655,3.655,0,0,1-4.289-4.95a3.687,3.687,0,0,1,.883-2.376A4.3,4.3,0,0,1,.124-8.82q3.87,0,3.87,4.141Q3.994-.877.124-.877Zm-.2-48.272q3.8,0,3.53,4.074l-.339,4.141L1.346-23.553q-.339,4.82-.407,7.061a.42.42,0,0,1-.475.475H-.827q-.475,0-.475-.679-.068-2.24-.407-6.857l-.272-4.277q-.2-1.9-.407-4.549l-.747-7.943q-.272-3.87-.272-4.752Q-3.406-49.148-.08-49.148Z" transform="translate(43.568 68.896)" fill="url(#linear-gradient)"/>
</svg>
