<svg xmlns="http://www.w3.org/2000/svg" width="21.135" height="21.85" viewBox="0 0 21.135 21.85">
  <g id="Group_7058" data-name="Group 7058" transform="translate(-26.662 -285.505)">
    <path id="Path_220966" data-name="Path 220966" d="M-1172.458-2344.129v-.01c0-.412,0-.837.006-1.255a.706.706,0,0,0-.562-.713l-.027,0a1.09,1.09,0,0,0-.133-.009h-3.449a1.074,1.074,0,0,0-.133.009l-.027,0a.707.707,0,0,0-.562.713c.009.417.008.843.006,1.255v.02c0,.187,0,.381,0,.571a1,1,0,0,0,.01.13c0,.015,0,.029.005.043l.023.236h4.8l.024-.236c0-.015,0-.029,0-.043a.967.967,0,0,0,.01-.129c0-.191,0-.384,0-.572Zm-.631-1.279c-.009.425-.007.855-.006,1.271v.013q0,.174,0,.348h-3.609c0-.116,0-.232,0-.348v-.014c0-.416,0-.845-.006-1.271a.069.069,0,0,1,.05-.074h3.518A.069.069,0,0,1-1173.089-2345.407Z" transform="translate(1212.128 2633.748)" fill="#fff"/>
    <path id="Path_220967" data-name="Path 220967" d="M-1156.733-2150.292a1.907,1.907,0,0,0-1.36-.579h-.006a1.894,1.894,0,0,0-1.9,1.848,1.9,1.9,0,0,0,.526,1.373,1.89,1.89,0,0,0,1.343.585h.034a1.9,1.9,0,0,0,1.893-1.852A1.9,1.9,0,0,0-1156.733-2150.292Zm-1.36,2.437h-.02a1.107,1.107,0,0,1-.787-.341,1.115,1.115,0,0,1-.307-.806,1.108,1.108,0,0,1,1.109-1.078,1.122,1.122,0,0,1,.8.338,1.117,1.117,0,0,1,.311.809A1.109,1.109,0,0,1-1158.093-2147.854Z" transform="translate(1195.331 2448.039)" fill="#fff"/>
    <path id="Path_220968" data-name="Path 220968" d="M-1307.081-2372.57v-.007a1.923,1.923,0,0,0-.073-.472,2.568,2.568,0,0,0-2.387-1.938l-.128,0c-.258,0-.532,0-.865,0h-.793a1.647,1.647,0,0,0-1.411-.895h-.04v-.088c0-.547,0-1.11,0-1.661a2.53,2.53,0,0,0-.637-1.729,2.479,2.479,0,0,0-.975-.685,2.573,2.573,0,0,0-.958-.185h-.034c-.29,0-.527.006-.746.007l-1.013,0h-1.01l-1.011,0c-.218,0-.455,0-.747-.007h-.035a2.554,2.554,0,0,0-.954.184,2.464,2.464,0,0,0-.975.682,2.533,2.533,0,0,0-.642,1.734c0,.553,0,1.117,0,1.664,0,.029,0,.057,0,.086h-.039a1.647,1.647,0,0,0-1.411.895h-.793c-.332,0-.608,0-.866,0-.046,0-.088,0-.125,0a2.571,2.571,0,0,0-2.39,1.938,1.957,1.957,0,0,0-.073.478c0,.193,0,.383,0,.608,0,.063,0,.125,0,.186v.481l0,.192.008,4.822v3.92h.006v.456c0,.111,0,.23,0,.344a8.441,8.441,0,0,0,.016.924,2.354,2.354,0,0,0,.74,1.488,2.611,2.611,0,0,0,.6.444,3.417,3.417,0,0,0,1.273.313l.072,0,7.665,0h.366l7.665,0h.066l.094,0h.048l.048,0,.044,0a4.62,4.62,0,0,0,1.043-.3h0a2.61,2.61,0,0,0,.6-.443,2.355,2.355,0,0,0,.74-1.488,8.181,8.181,0,0,0,.016-.926c0-.114,0-.231,0-.342v-.457h.006v-3.92l.007-4.435h0v-1.056c0-.064,0-.127,0-.19C-1307.078-2372.188-1307.078-2372.377-1307.081-2372.57Zm-1.366.606c0,.061,0,.122,0,.185v.345s0,.008,0,.012l0,.02-.008,5.119v2.553h0l0,1.824c0,.125,0,.249.005.374a7.169,7.169,0,0,1-.011.773,1.026,1.026,0,0,1-.335.634,1.215,1.215,0,0,1-.624.331l-.06.011-.036.005-.055.008-.07.007h-.009l-.038,0h-15.835l-.059,0h-.041l-.074-.007-.057-.008-.033,0-.062-.011a1.209,1.209,0,0,1-.623-.331,1.028,1.028,0,0,1-.336-.634,7.049,7.049,0,0,1-.011-.773c0-.121,0-.246,0-.374l0-1.628,0-.184v-2.565l-.008-5.1v-.04a.149.149,0,0,1,0-.016l0-.345c0-.06,0-.12,0-.182,0-.219,0-.4,0-.584a.634.634,0,0,1,.026-.145,1.224,1.224,0,0,1,1.139-.927h.008l.065,0c.278,0,.559,0,.843,0h1.266c.068,0,.132-.005.188-.01l.065-.005.433-.03.025-.493c0-.03,0-.054,0-.079a.282.282,0,0,1,.293-.278c.056,0,.113,0,.167,0h1.174v-.753c0-.232,0-.463,0-.7,0-.55,0-1.118,0-1.679a1.193,1.193,0,0,1,.3-.819,1.139,1.139,0,0,1,.451-.313,1.229,1.229,0,0,1,.458-.087h.011l.76.007.959,0h1.123l.962,0,.758-.007h.01a1.234,1.234,0,0,1,.46.089,1.141,1.141,0,0,1,.452.317,1.185,1.185,0,0,1,.3.814c0,.56,0,1.127,0,1.677v.037q0,.331,0,.66v.754h1.177c.05,0,.108,0,.166,0a.281.281,0,0,1,.291.278c0,.025,0,.05,0,.08l.026.494.432.029.065.005c.055,0,.118.01.186.01h1.268c.283,0,.563,0,.841,0l.069,0h.008a1.224,1.224,0,0,1,1.137.927.64.64,0,0,1,.026.145C-1308.446-2372.366-1308.446-2372.183-1308.447-2371.964Z" transform="translate(1354.875 2665.745)" fill="#fff"/>
    <path id="Path_220969" data-name="Path 220969" d="M-1222.715-2219.815h0l-.278-.217-.019-.015-.364-.284c0-.114,0-.228,0-.343l.662-.519a.761.761,0,0,0,.2-1.018q-.413-.717-.828-1.434a.759.759,0,0,0-.981-.338l-.164.066-.615.248-.29-.169c-.032-.229-.065-.458-.1-.681l-.021-.149a.745.745,0,0,0-.786-.683h-1.624a.748.748,0,0,0-.812.711l0,.022c-.036.255-.072.519-.11.78l-.076.043-.013.008-.2.116-.791-.319a.744.744,0,0,0-.961.328q-.421.728-.84,1.458a.752.752,0,0,0,.2,1.008l.3.231.369.29c0,.114,0,.227,0,.337l-.275.216-.009.007-.385.3a.786.786,0,0,0-.316.575l-.01.127.048.118.01.025v0a1.174,1.174,0,0,0,.08.178q.258.45.518.9l0,.006.294.509a.752.752,0,0,0,.992.345l.772-.311c.1.058.195.115.293.17.025.184.051.368.077.552l.038.266a.746.746,0,0,0,.8.693h1.632a.745.745,0,0,0,.794-.693l.045-.317q.036-.248.07-.5c.1-.055.2-.113.3-.172.225.092.451.182.67.27l.117.047a.744.744,0,0,0,.962-.326q.419-.725.836-1.45A.751.751,0,0,0-1222.715-2219.815Zm-1.732-1.021c.008.222.008.445,0,.663a.653.653,0,0,0,.257.558l.5.393.127.1-.587,1.018c-.229-.091-.478-.192-.717-.29a.682.682,0,0,0-.65.057c-.181.113-.366.221-.551.32a.668.668,0,0,0-.363.516q-.046.341-.1.682l-.013.094h-1.173l-.006-.045c-.034-.243-.069-.486-.1-.726a.667.667,0,0,0-.359-.519c-.192-.1-.383-.216-.568-.331a.667.667,0,0,0-.359-.107.687.687,0,0,0-.256.051l-.737.3-.18-.311-.409-.708.168-.132.05-.039.42-.328a.64.64,0,0,0,.25-.539c-.006-.218-.006-.451,0-.693a.633.633,0,0,0-.247-.529c-.178-.138-.356-.278-.534-.417l-.108-.084.587-1.019c.236.095.484.195.729.3a.672.672,0,0,0,.626-.055c.107-.066.222-.131.333-.195l0,0c.088-.05.179-.1.27-.157a.67.67,0,0,0,.312-.464c.04-.264.078-.53.116-.8h1.172c.038.264.076.534.113.8a.628.628,0,0,0,.333.481c.223.124.417.237.593.345a.649.649,0,0,0,.61.053c.246-.1.495-.2.739-.3q.295.508.588,1.019c-.222.174-.428.336-.629.492A.652.652,0,0,0-1224.447-2220.835Z" transform="translate(1264.354 2519.577)" fill="#fff"/>
  </g>
</svg>
