<svg xmlns="http://www.w3.org/2000/svg" width="20.825" height="17.525" viewBox="0 0 20.825 17.525">
  <g id="Group_7001" data-name="Group 7001" transform="translate(-184.995 -796.872)">
    <path id="Path_220899" data-name="Path 220899" d="M205.435,808.869c-.282-.223-.565-.445-.857-.656-.082-.059-.1-.119-.119-.275a.725.725,0,0,1,.428-.785,4.232,4.232,0,0,0,.515-.408l.054-.047a.845.845,0,0,0,.2-1.127c-.384-.672-.791-1.358-1.208-2.04a.861.861,0,0,0-1.117-.349c-.137.054-.272.11-.408.167-.2.084-.4.168-.607.24a.455.455,0,0,1-.265-.027.67.67,0,0,1-.488-.747,1.923,1.923,0,0,0-.035-.294c-.012-.064-.023-.127-.029-.191a1.022,1.022,0,0,0-.733-.972l-.024-.008-.794.009v-.218a1.557,1.557,0,0,0-1.735-1.742h-2.475a2.749,2.749,0,0,0-2.112-2.442,3.031,3.031,0,0,0-.638-.078l-.4-.006-.683.01a2.727,2.727,0,0,0-1.746.669,2.827,2.827,0,0,0-.95,1.847h-2.478A1.557,1.557,0,0,0,185,801.121l0,2.016c0,1.405,0,3-.009,4.558a3.082,3.082,0,0,0,.28,1.408c.022.046.046.092.065.124a1.905,1.905,0,0,0,.826.881,3,3,0,0,0,1.15.342,4.544,4.544,0,0,0,.471.024,3.884,3.884,0,0,0,.424-.021l5.227.017c.349.6.7,1.193,1.037,1.747a.858.858,0,0,0,1.119.347c.334-.132.667-.266.995-.414.09-.04.15-.021.3.034.32.116.455.334.468.753a1.773,1.773,0,0,0,.034.259,1.752,1.752,0,0,1,.027.193,1.029,1.029,0,0,0,.736,1l.024.008,2.681-.03.047-.009a1.006,1.006,0,0,0,.706-.958c.006-.071.016-.142.026-.211a2.424,2.424,0,0,0,.033-.331.683.683,0,0,1,.442-.741c.155-.063.223-.078.326-.034.31.131.629.256.978.382a.869.869,0,0,0,1.126-.392c.423-.732.8-1.4,1.148-2.043A.853.853,0,0,0,205.435,808.869Zm-14.957-9.454a1.494,1.494,0,0,1,1.446-1.271l.661-.01.38.006a1.516,1.516,0,0,1,1.5,1.275Zm10.04,13.236c-.034.533-.034.533-.586.54l-.363,0c-.3,0-.607,0-.911.013a.293.293,0,0,1-.071,0h0a.148.148,0,0,1-.014-.058c-.022-.192-.05-.382-.079-.573-.017-.108-.033-.217-.049-.325a1.12,1.12,0,0,0-.621-.883c-.15-.079-.271-.15-.374-.209-.643-.368-.708-.342-1.81.13l-.267.109-.009,0-.951-1.594.138-.115c.171-.142.34-.283.519-.411a1.206,1.206,0,0,0,.556-1.232,1.618,1.618,0,0,1,0-.336,1.134,1.134,0,0,0-.5-1.053c-.2-.144-.391-.294-.588-.448l-.167-.131.908-1.615.207.078c.239.091.473.179.7.275a1.081,1.081,0,0,0,1.1-.114l.046-.034a.5.5,0,0,1,.109-.069,1.509,1.509,0,0,0,.955-1.485c.041-.55.041-.55.6-.557l.368,0c.3,0,.6,0,.906-.014h.014c.035,0,.049,0,.048,0a.176.176,0,0,1,.015.068c.021.2.051.4.082.594.016.1.031.2.046.3a1.1,1.1,0,0,0,.6.867c.166.086.3.163.408.225.613.349.677.346,1.747-.114l.324-.135.947,1.594-.139.115c-.172.143-.343.284-.521.412a1.208,1.208,0,0,0-.556,1.2,1.258,1.258,0,0,1,0,.4.908.908,0,0,0,.472,1c.206.135.4.289.6.453l.179.141-.907,1.616-.215-.083c-.245-.094-.48-.184-.714-.279a1.076,1.076,0,0,0-1.127.151.481.481,0,0,1-.1.067A1.509,1.509,0,0,0,200.518,812.65Zm-14.252-9.518,0-2.012c0-.412.048-.46.467-.46l9.7.016.151-.017h1.628c.428,0,.476.051.476.48v.231l-.625.007-.047.008a1,1,0,0,0-.708.958c0,.066-.015.132-.026.2a1.6,1.6,0,0,0-.03.354.72.72,0,0,1-.545.777.243.243,0,0,1-.152.006c-.191-.068-.38-.143-.569-.216-.151-.059-.3-.119-.454-.175a.889.889,0,0,0-1.186.428q-.543.956-1.079,1.917a.888.888,0,0,0,.262,1.275l.139.112a3.036,3.036,0,0,0,.37.275.7.7,0,0,1,.419.757c-.022.178-.053.246-.146.318-.279.212-.549.434-.818.658a1.118,1.118,0,0,0-.153.171l-1.582-.016-3.576.006-.073.006a2.992,2.992,0,0,1-.653,0,1.763,1.763,0,0,1-.668-.187.663.663,0,0,1-.3-.315l-.033-.064c-.014-.025-.028-.05-.04-.076a1.885,1.885,0,0,1-.154-.846C186.271,806.14,186.268,804.544,186.266,803.133Z" transform="translate(0 0)" fill="#fff"/>
    <path id="Path_220900" data-name="Path 220900" d="M204.832,810.006a2.307,2.307,0,0,0-.689-1.648,2.346,2.346,0,0,0-1.661-.679h-.026a2.348,2.348,0,1,0,.018,4.7h.024A2.343,2.343,0,0,0,204.832,810.006Zm-2.355,1.2a1.166,1.166,0,0,1-1.182-1.159,1.169,1.169,0,0,1,1.18-1.2h.01a1.152,1.152,0,0,1,.818.339,1.179,1.179,0,0,1,.349.834,1.173,1.173,0,0,1-1.166,1.183Z" transform="translate(-3.014 -2.153)" fill="#fff"/>
  </g>
</svg>
