<svg xmlns="http://www.w3.org/2000/svg" width="18" height="18" viewBox="0 0 18 18">
  <path id="Contacts" d="M3246,14560a2,2,0,0,1,1.99-2H3262a2,2,0,0,1,2,2v14a2.085,2.085,0,0,1-.58,1.4,1.937,1.937,0,0,1-1.42.6h-14.01a1.931,1.931,0,0,1-1.41-.6,2.085,2.085,0,0,1-.58-1.4Zm3.36,13h11.49a7.084,7.084,0,0,0-2.51-2.2,6.962,6.962,0,0,0-6.48,0A6.967,6.967,0,0,0,3249.36,14573Zm5.64-5a3.151,3.151,0,0,0,1.34-.3,2.7,2.7,0,0,0,1.13-.7,3.6,3.6,0,0,0,.76-1.2,3.263,3.263,0,0,0,0-2.6,3.6,3.6,0,0,0-.76-1.2,2.7,2.7,0,0,0-1.13-.7,3.151,3.151,0,0,0-1.34-.3,3.5,3.5,0,1,0,0,7Z" transform="translate(-3246 -14558)" fill="#fff"/>
</svg>
