<svg xmlns="http://www.w3.org/2000/svg" width="20.037" height="14.468" viewBox="0 0 20.037 14.468">
  <g id="Email-Group-Fill" transform="translate(3533.81 -1367.826)">
    <g id="Group_9109" data-name="Group 9109" transform="translate(-3533.778 1367.826)">
      <path id="Path_264255" data-name="Path 264255" d="M-3455.978,1374.034a3.056,3.056,0,0,1-3.09-3.109,3.1,3.1,0,0,1,3.119-3.1,3.1,3.1,0,0,1,3.107,3.111A3.058,3.058,0,0,1-3455.978,1374.034Z" transform="translate(3465.958 -1367.826)" fill="#fff"/>
      <path id="Path_264256" data-name="Path 264256" d="M-3527.885,1439.893c-.271.213-.56.411-.813.645a3.589,3.589,0,0,0-1.128,2.431c-.024.308-.038.616-.045.925-.006.189-.009.377-.012.566q-1.011-.1-1.963-.222l-.1-.013q-.78-.1-1.519-.215c0-.039,0-.078,0-.116,0-.444-.008-.887.012-1.33a2.44,2.44,0,0,1,1.353-2.263,7.349,7.349,0,0,1,1.21-.419,6.729,6.729,0,0,1,.794-.132,2.66,2.66,0,0,0,1.558.262C-3528.319,1439.99-3528.1,1439.933-3527.885,1439.893Z" transform="translate(3533.467 -1433.089)" fill="#fff"/>
      <path id="Path_264257" data-name="Path 264257" d="M-3473.185,1441.241l-.01,0,.006,0Z" transform="translate(3478.776 -1434.439)" fill="#fff"/>
      <path id="Path_264258" data-name="Path 264258" d="M-3369.183,1443.642c0,.046,0,.091,0,.137-.5.075-1.007.147-1.532.213l-.085.011q-.943.119-1.944.216c0-.192,0-.385-.006-.577,0-.039,0-.077,0-.115a7.547,7.547,0,0,0-.2-1.676,3.45,3.45,0,0,0-1.312-1.959c-.043-.032-.082-.071-.188-.164a3.081,3.081,0,0,0,1.954-.255c.48.114.984.195,1.462.356a2.514,2.514,0,0,1,1.851,2.549C-3369.177,1442.8-3369.178,1443.217-3369.183,1443.642Z" transform="translate(3389.185 -1432.837)" fill="#fff"/>
      <path id="Path_264259" data-name="Path 264259" d="M-3506.451,1384.229a3.786,3.786,0,0,0,.407,2.687,2.425,2.425,0,0,1-2.479,1.435,2.528,2.528,0,0,1-2.21-2.155,2.523,2.523,0,0,1,1.434-2.575A2.42,2.42,0,0,1-3506.451,1384.229Z" transform="translate(3512.859 -1381.956)" fill="#fff"/>
      <path id="Path_264260" data-name="Path 264260" d="M-3391.1,1386.938a3.8,3.8,0,0,0,.417-2.69,2.4,2.4,0,0,1,2.766-.652,2.5,2.5,0,0,1,1.515,2.525,2.464,2.464,0,0,1-2.13,2.226A2.437,2.437,0,0,1-3391.1,1386.938Z" transform="translate(3404.286 -1381.966)" fill="#fff"/>
      <path id="Path_264261" data-name="Path 264261" d="M-3473.123,1441.085l.015-.019-.018.016Z" transform="translate(3478.714 -1434.284)" fill="#fff"/>
      <path id="Path_264262" data-name="Path 264262" d="M-3476.9,1443.608l-.015.494c-.314.03-.623.082-.939.105l-.083.006v-.079l0-.748,0-.019v-1.911a1.031,1.031,0,0,0-1.029-1.03h-7.583a1.031,1.031,0,0,0-1.029,1.03v1.03l.015.008v.417c0,.358,0,.708,0,1.049v.18l-.03,0c-.053,0-.64-.045-.64-.054v-.015l-.369-.032v-.379c0-.084,0-.168,0-.251a6.709,6.709,0,0,1,.121-1.262,3.178,3.178,0,0,1,1.619-2.227,6.64,6.64,0,0,1,2.085-.672,1.93,1.93,0,0,1,1.05.113,2.951,2.951,0,0,0,2.093,0,1.986,1.986,0,0,1,1.12-.1,6.414,6.414,0,0,1,1.957.632,3.044,3.044,0,0,1,1.579,2.394,9.047,9.047,0,0,1,.08,1.131C-3476.9,1443.474-3476.9,1443.541-3476.9,1443.608Z" transform="translate(3492.759 -1432.601)" fill="#fff"/>
    </g>
    <path id="Path_264263" data-name="Path 264263" d="M-3533.81,1485.75h0l.013,0" transform="translate(0 -107.003)" fill="#fff"/>
    <g id="Group_9110" data-name="Group 9110" transform="translate(-3528.134 1376.113)">
      <path id="Path_264264" data-name="Path 264264" d="M-3463.679,1481.969c0,.706-.237.944-.936.945q-3.4.007-6.806,0c-.71,0-.95-.234-.955-.927,0-.646,0-1.293,0-1.964,0-.41,0-.83,0-1.263.892.448,1.734.931,2.573,1.405.594.335,1.184.667,1.792.979.546-.3,1.114-.622,1.688-.944.88-.491,1.779-.994,2.648-1.48v.458a.168.168,0,0,0,0,.037c0,.257,0,.514,0,.771v.109Q-3463.673,1481.033-3463.679,1481.969Z" transform="translate(3472.392 -1476.737)" fill="#fff"/>
      <path id="Path_264265" data-name="Path 264265" d="M-3463.8,1457.88v.776l-2.123,1.165-1.718.962-.525.295-.541-.3c-.722-.407-1.429-.8-2.128-1.2l-.008,0-1.673-.93v-.758a.566.566,0,0,1,.566-.567h7.583A.567.567,0,0,1-3463.8,1457.88Z" transform="translate(3472.52 -1457.313)" fill="#fff"/>
    </g>
  </g>
</svg>
