<svg xmlns="http://www.w3.org/2000/svg" width="15.25" height="15.249" viewBox="0 0 15.25 15.249">
  <g id="Group_7064" data-name="Group 7064" transform="translate(-211.709 -537.584)">
    <path id="Path_221034" data-name="Path 221034" d="M226.958,538.942a1.64,1.64,0,0,0-1.207-1.349l-12.708-.009-.043.008a1.778,1.778,0,0,0-1.291,1.387l0,12.5.012.051a1.614,1.614,0,0,0,1.745,1.3h11.82a1.553,1.553,0,0,0,1.616-1.1,1.63,1.63,0,0,0,.055-.336Zm-12.45,12.5c-.337,0-.7,0-1.071.012a.285.285,0,0,1-.23-.054.312.312,0,0,1-.062-.226c0-.272,0-.543,0-.815V539.441c0-.465,0-.465.489-.465h11.476c.436,0,.436,0,.436.426v11.692c0,.356,0,.356-.36.356Z" fill="#9aabc9"/>
    <path id="Path_221035" data-name="Path 221035" d="M222.936,541.514q-1.188,0-2.38,0H215.8c-.525,0-.849.247-.866.656a.635.635,0,0,0,.18.488.946.946,0,0,0,.685.23q1.785,0,3.57,0t3.57,0a.905.905,0,0,0,.653-.216.639.639,0,0,0,.187-.477C223.771,541.885,223.624,541.515,222.936,541.514Z" fill="#9aabc9"/>
    <path id="Path_221036" data-name="Path 221036" d="M222.931,547.534h-7.142c-.513,0-.85.267-.859.676a.627.627,0,0,0,.186.478.949.949,0,0,0,.685.23h7.142a.9.9,0,0,0,.647-.211.637.637,0,0,0,.185-.485C223.773,548.016,223.687,547.536,222.931,547.534Z" fill="#9aabc9"/>
    <path id="Path_221037" data-name="Path 221037" d="M218.115,544.531l-.617,0c-.57,0-1.158,0-1.741.011a.952.952,0,0,0-.651.255.658.658,0,0,0-.069.728.965.965,0,0,0,.679.358c.619.013,1.245.015,1.865.015l4.665,0c.281,0,.56,0,.84-.006a.639.639,0,0,0,.685-.671.654.654,0,0,0-.669-.681c-.081-.006-.164,0-.247-.006l-.03.125v-.125Z" fill="#9aabc9"/>
  </g>
</svg>
