<svg xmlns="http://www.w3.org/2000/svg" width="20" height="20" viewBox="0 0 20 20">
  <path id="Path_4970" data-name="Path 4970" d="M3706,1999a10,10,0,1,1,10-10A10,10,0,0,1,3706,1999Zm8-10a8.02,8.02,0,0,0-5.94-7.73,8,8,0,1,0,1.97,14.64l-1.01-1.73a6.005,6.005,0,0,1-7.25-.92A6,6,0,1,1,3712,1989v1a1,1,0,1,1-2,0v-4h-1.35a3.994,3.994,0,0,0-6.03.86,3.988,3.988,0,0,0,1.8,5.81,3.949,3.949,0,0,0,2.25.27,4.047,4.047,0,0,0,2.04-1,3.031,3.031,0,0,0,1.52.96,2.986,2.986,0,0,0,1.8-.08A3,3,0,0,0,3714,1990Zm-8-2a2.015,2.015,0,1,1-1.41.59A1.966,1.966,0,0,1,3706,1987Z" transform="translate(-3696 -1979)" fill="#fff"/>
</svg>
