<svg xmlns="http://www.w3.org/2000/svg" width="20" height="19.5" viewBox="0 0 20 19.5">
  <path id="Path_5108" data-name="Path 5108" d="M3641.76,8765H3656v-12h-16v13.39Zm.69,2-4.45,3.5V8752a.99.99,0,0,1,1-1h18a.99.99,0,0,1,1,1v14a.99.99,0,0,1-1,1Zm4.55-5h2v2h-2Zm-2.43-5.19a3.5,3.5,0,0,1,6.9.261,3.38,3.38,0,0,1-.31,1.93,3.506,3.506,0,0,1-1.29,1.46,3.542,3.542,0,0,1-1.87.54h-1v-2h1a1.514,1.514,0,0,0,.8-.23,1.488,1.488,0,0,0,.69-1.449,1.526,1.526,0,0,0-.33-.771,1.5,1.5,0,0,0-.69-.47,1.487,1.487,0,0,0-1.56.38,1.534,1.534,0,0,0-.38.75Z" transform="translate(-3638 -8751)" fill="#fff"/>
</svg>
