<svg xmlns="http://www.w3.org/2000/svg" width="22" height="22" viewBox="0 0 22 22">
  <path id="Path_6187" data-name="Path 6187" d="M3756.664,5632.9a8.8,8.8,0,0,0,9.691,14.245,3.838,3.838,0,0,0-.264-1.9,13.728,13.728,0,0,0-2.475-3.124c-.374-.385-.352-.693-.22-1.584l.022-.1c.088-.6.242-.968,2.288-1.3a1.41,1.41,0,0,1,1.694.836l.132.187a2.044,2.044,0,0,0,1.034.836c.176.077.407.187.7.352.715.407.715.88.715,1.892v.11a5.886,5.886,0,0,1-.1,1.144,8.93,8.93,0,0,0,1.716-3.63,8.8,8.8,0,0,0-.066-4,8.7,8.7,0,0,0-1.837-3.563,8.891,8.891,0,0,0-3.234-2.387,9.385,9.385,0,0,0-1.738,1.4c-.143.2-.352,1.243-1.045,1.331a3.505,3.505,0,0,1-.671-.011c-.682-.044-1.617-.1-1.914.715a3.163,3.163,0,0,0,.385,2.629.646.646,0,0,1,.055.572,1.078,1.078,0,0,1-.319.55,2.736,2.736,0,0,1-.462-.473,3.072,3.072,0,0,0-1.331-1.057c-.209-.055-.429-.1-.649-.143-.594-.132-1.287-.275-1.441-.616a2.247,2.247,0,0,1-.121-.946,3.6,3.6,0,0,0-.22-1.485A1.414,1.414,0,0,0,3756.664,5632.9ZM3763,5650a11,11,0,1,1,11-11A11,11,0,0,1,3763,5650Z" transform="translate(-3752 -5628)" fill="#d1d8e3"/>
</svg>
