<svg xmlns="http://www.w3.org/2000/svg" width="20" height="20" viewBox="0 0 20 20">
  <path id="Help" d="M3762,5404a10,10,0,1,1-10,10A10,10,0,0,1,3762,5404Zm0,15a5.172,5.172,0,0,1-1.83-.34l-2.23,2.23a7.981,7.981,0,0,0,8.12,0l-2.23-2.23A5.172,5.172,0,0,1,3762,5419Zm-8-5a7.9,7.9,0,0,0,1.11,4.06l2.23-2.23a5.167,5.167,0,0,1-.34-1.83,5.046,5.046,0,0,1,.34-1.83l-2.23-2.23A7.941,7.941,0,0,0,3754,5414Zm14.89-4.06-2.23,2.23a5.094,5.094,0,0,1,0,3.66l2.23,2.23a7.98,7.98,0,0,0,0-8.12ZM3762,5411a3,3,0,1,0,2.12.88A3,3,0,0,0,3762,5411Zm0-5a7.944,7.944,0,0,0-4.06,1.11l2.23,2.23a5.172,5.172,0,0,1,1.83-.34,5.05,5.05,0,0,1,1.83.34l2.23-2.23A7.944,7.944,0,0,0,3762,5406Z" transform="translate(-3752 -5404)" fill="#fff"/>
</svg>
