<svg xmlns="http://www.w3.org/2000/svg" width="183.298" height="112" viewBox="0 0 183.298 112">
  <g id="Holistic_Email" data-name="Holistic Email" transform="translate(-2918 -765.173)">
    <g id="Group_9095" data-name="Group 9095" transform="translate(2929.439 765.173)">
      <path id="Path_264174" data-name="Path 264174" d="M3091.3,786.261l-11.457,1.6v-7.348c-1.981-.58-123.523-.7-126.438-.164V855.74h126.264V841.612l11.534-1.519a16.6,16.6,0,0,1,.253,2.018c-.025,5.976-.041,11.953-.132,17.928-.061,3.931-2.25,6.147-6.144,6.356-.887.048-1.779.019-2.669.019H2950c-.809,0-1.621.039-2.426-.024-3.631-.284-5.762-2.489-5.892-6.124q-.12-3.39-.121-6.784c.031-26.909.133-53.818.06-80.727-.013-5.019,2.4-7.586,7.472-7.581q67.468.064,134.936.032a13,13,0,0,1,2.411.193c2.83.537,4.739,2.44,4.819,5.284C3091.4,775.765,3091.3,780.855,3091.3,786.261Zm-71.432-13.03a3.363,3.363,0,1,0-3.372,3.4A3.423,3.423,0,0,0,3019.867,773.231Z" transform="translate(-2941.562 -765.173)" fill="#326cc2"/>
      <path id="Path_264175" data-name="Path 264175" d="M3188.58,844.551l-34.065-19.073c-.52-4.311.759-6.022,4.855-6.6q25.668-3.628,51.34-7.225c2.479-.348,4.957-.7,7.437-1.04,3.424-.47,4.639.532,4.786,3.944.014.319-.038.641-.077,1.233Z" transform="translate(-3051.076 -788.516)" fill="#1297fc"/>
      <path id="Path_264176" data-name="Path 264176" d="M3158.25,900.7l25.76-19.57c1.049.575,2.1,1.132,3.137,1.725a5.129,5.129,0,0,0,6.292-.555c1.184-.967,2.349-1.957,3.633-3.029l25.745,12.448,0,.494a18.766,18.766,0,0,1-2.371.664c-6.4.939-12.8,1.824-19.2,2.758-4.862.71-9.711,1.5-14.577,2.191-4.234.6-8.485,1.077-12.723,1.649-4.551.614-9.094,1.288-13.645,1.9a10.485,10.485,0,0,1-1.852-.072C3158.382,901.105,3158.315,900.9,3158.25,900.7Z" transform="translate(-3053.054 -823.923)" fill="#1297fc"/>
      <path id="Path_264177" data-name="Path 264177" d="M3154.3,883.131V851.089l24.161,13.53Z" transform="translate(-3051.022 -809.415)" fill="#1297fc"/>
      <path id="Path_264178" data-name="Path 264178" d="M3269.6,863.359l-24.01-11.6c7.977-6.88,15.894-13.394,24.01-20.259Z" transform="translate(-3097.994 -799.328)" fill="#1297fc"/>
      <path id="Path_264179" data-name="Path 264179" d="M3051.446,883.374c-.794-1.331-.677-2.694.122-4.431l45.464-6.393a4.233,4.233,0,0,1,.388,4.268C3095.72,877.677,3054.155,883.6,3051.446,883.374Z" transform="translate(-2997.823 -820.456)" fill="#1297fc"/>
      <path id="Path_264180" data-name="Path 264180" d="M3080.369,907.5a5.342,5.342,0,0,1,.215-4.9l28.886-4.043c.836,2.228.838,2.4.045,4.747Z" transform="translate(-3012.731 -833.849)" fill="#326cc2"/>
      <path id="Path_264181" data-name="Path 264181" d="M3125.265,913.223a3.443,3.443,0,0,1-.05,4.513l-21.716,3.134c-1.5-1.354-.92-2.95-.52-4.483C3104.367,915.726,3122.9,913.113,3125.265,913.223Z" transform="translate(-3024.384 -841.393)" fill="#1297fc"/>
      <path id="Path_264182" data-name="Path 264182" d="M3075.32,837.91l20.019-2.821a4.714,4.714,0,0,1,.04,4.772l-19.734,2.794C3074.429,841.137,3074.868,839.693,3075.32,837.91Z" transform="translate(-3010.146 -801.169)" fill="#1297fc"/>
      <path id="Path_264183" data-name="Path 264183" d="M3102.433,855.355a4.5,4.5,0,0,1,.089-4.8l19.471-2.734c1.067,1.641.9,3.065.074,4.782Z" transform="translate(-3024.001 -807.725)" fill="#326cc2"/>
    </g>
    <rect id="Rectangle_6407" data-name="Rectangle 6407" width="172.342" height="10.68" transform="translate(2918 866.493)" fill="#326cc2"/>
  </g>
</svg>
