<svg xmlns="http://www.w3.org/2000/svg" width="112.077" height="111.998" viewBox="0 0 112.077 111.998">
  <path id="Workflow" d="M2566.893,77.581c-2.921-6.782-8.287-10.843-15.264-13V35.825c1.159-1.043,2.634-2.293,4.007-3.641,3.769-3.708,7.532-7.422,11.2-11.215,2.263-2.336,2.445-4.623.384-6.739Q2558.715,5.5,2549.976-3c-1.872-1.83-3.964-1.756-6.056-.116A28.724,28.724,0,0,0,2541.5-.809c-4.513,4.525-9.026,9.056-13.393,13.441h-28.5c-1.585-5.367-4.36-9.88-8.977-13.087a21.071,21.071,0,0,0-15.637-3.653,21.961,21.961,0,0,0-18.156,18.161,20.933,20.933,0,0,0,2,12.752c3.1,6.147,8.233,9.9,14.789,11.88V63.957c-1.232.073-2.22.177-3.208.183-2.848.024-5.7-.061-8.538.037-3.348.122-5.172,1.842-5.2,5.1q-.092,16.768.006,33.53a4.439,4.439,0,0,0,4.806,4.775q16.759.091,33.53,0c3.067-.018,4.616-1.573,5.007-4.641a21.57,21.57,0,0,0,.086-2.738q.008-14.024.006-28.047c0-6.794-1.208-8-7.965-8.007h-9.135V38.575c8.587-2.354,14.142-7.916,16.5-16.411h28.2c5.02,4.983,9.624,9.563,14.314,14.222V64.6c-5.677,1.872-10.435,4.812-13.527,9.959a21.187,21.187,0,0,0-2.7,16.381,21.683,21.683,0,0,0,42.178.055A20.2,20.2,0,0,0,2566.893,77.581ZM2490.7,73.63V98.505h-24.888V73.63ZM2478.3,29.9a12.289,12.289,0,0,1-12.587-12.8c.049-6.757,4.745-12.24,12.423-12.313a12.2,12.2,0,0,1,12.74,12.618A12.479,12.479,0,0,1,2478.3,29.9Zm58.991-12.533c3.08-3.074,6.544-6.544,9.807-9.806,3.086,3.08,6.428,6.422,9.989,9.971-.945,1.884-3.129,3.275-4.787,5.123-1.616,1.8-3.318,3.519-4.732,5.007C2543.871,23.951,2540.42,20.493,2537.291,17.364ZM2546.8,98.53A12.564,12.564,0,1,1,2559.5,86.04,12.4,12.4,0,0,1,2546.8,98.53Z" transform="translate(-2456.588 4.372)" fill="#326cc2"/>
</svg>
