<svg xmlns="http://www.w3.org/2000/svg" width="51.5" height="54.833" viewBox="0 0 51.5 54.833">
  <g id="icon-privacy" transform="translate(-0.25 0.75)">
    <path id="Path_215613" data-name="Path 215613" d="M24.488,4.488,12.338,16.655l-5.483-5.5a1.673,1.673,0,0,0-2.367,2.367l6.667,6.667a1.667,1.667,0,0,0,2.367,0L26.855,6.855a1.673,1.673,0,0,0-2.367-2.367Z" transform="translate(6.995 9.329)" fill="#266cd5" stroke="#266cd5" stroke-width="1.5"/>
    <path id="Path_215614" data-name="Path 215614" d="M22.667,46.667C20.5,46.567,4.333,37.1,4.333,25V5A1.667,1.667,0,0,1,6,3.333H39.333A1.666,1.666,0,0,1,41,5V21.567a1.667,1.667,0,1,0,3.333,0V5a5,5,0,0,0-5-5H6A5,5,0,0,0,1,5V25C1,38.767,18.417,50,22.667,50a1.667,1.667,0,1,0,0-3.333Z" transform="translate(0 0)" fill="#266cd5" stroke="#266cd5" stroke-width="1.5"/>
    <path id="Path_215615" data-name="Path 215615" d="M29,18V16.333a8.333,8.333,0,1,0-16.667,0V18A3.333,3.333,0,0,0,9,21.333v10a3.333,3.333,0,0,0,3.333,3.333H29a3.333,3.333,0,0,0,3.333-3.333v-10A3.333,3.333,0,0,0,29,18ZM15.667,16.333a5,5,0,1,1,10,0V18h-10ZM29,31.333H12.333v-10H29Z" transform="translate(18.667 18.667)" fill="#266cd5" stroke="#266cd5" stroke-width="1.5"/>
  </g>
</svg>
