<svg xmlns="http://www.w3.org/2000/svg" width="20" height="19.501" viewBox="0 0 20 19.501">
  <path id="Path_5108" data-name="Path 5108" d="M3641.76,8765H3656v-12h-16v13.39Zm.69,2-4.45,3.5V8752a.99.99,0,0,1,1-1h18a.989.989,0,0,1,1,1v14a.99.99,0,0,1-1,1Zm4.55-5h2v2h-2Zm-2.43-5.19a3.5,3.5,0,0,1,6.9.262,3.38,3.38,0,0,1-.31,1.928,3.489,3.489,0,0,1-3.16,2h-1v-2h1a1.515,1.515,0,0,0,.8-.229,1.49,1.49,0,0,0,.69-1.45,1.523,1.523,0,0,0-.33-.771,1.5,1.5,0,0,0-.69-.469,1.486,1.486,0,0,0-1.56.378,1.532,1.532,0,0,0-.38.75Z" transform="translate(-3638 -8750.999)" fill="#fff"/>
</svg>
