<svg xmlns="http://www.w3.org/2000/svg" width="94.344" height="94.332" viewBox="0 0 94.344 94.332">
  <path id="key" d="M64.865,0A29.48,29.48,0,0,0,35.386,29.479a29.1,29.1,0,0,0,2.1,10.7L1.674,75.988A4.728,4.728,0,0,0,0,79.593v8.844a6.029,6.029,0,0,0,5.9,5.9h8.844a4.755,4.755,0,0,0,3.614-1.663l4.23-4.233h6.907a5.9,5.9,0,0,0,5.9-5.9v-5.9h5.9a5.9,5.9,0,0,0,5.9-5.9v-6.91l6.984-6.989a29.061,29.061,0,0,0,10.7,2.108A29.479,29.479,0,0,0,64.865,0Zm0,53.062a23.348,23.348,0,0,1-11.912-3.337l-1.014,1.011-8.932,8.935a5.893,5.893,0,0,0-1.727,4.168v6.91h-5.9a5.9,5.9,0,0,0-5.9,5.9v5.9h-6.9a5.9,5.9,0,0,0-4.168,1.727l-4.18,4.18L5.9,88.437l-.009-8.4L40.283,45.71a.009.009,0,0,0,0,.006l4.33-4.33a23.337,23.337,0,0,1-3.337-11.909A23.583,23.583,0,1,1,64.865,53.062ZM82.01,24.288A52.2,52.2,0,0,0,70.056,12.337a2.833,2.833,0,0,0-2.6-.374A13.024,13.024,0,0,0,59.126,20.3a2.805,2.805,0,0,0-.162.94A2.842,2.842,0,0,0,59.5,22.9,52.283,52.283,0,0,0,71.448,34.847a2.847,2.847,0,0,0,2.6.377,13.016,13.016,0,0,0,8.343-8.337,2.805,2.805,0,0,0,.162-.94,2.887,2.887,0,0,0-.539-1.66Zm-8.844,8.169A50.473,50.473,0,0,1,61.906,21.275a10.217,10.217,0,0,1,6.432-6.547A49.374,49.374,0,0,1,79.587,25.962,10.2,10.2,0,0,1,73.166,32.456Z" fill="#266cd5"/>
</svg>
