<svg xmlns="http://www.w3.org/2000/svg" width="286.656" height="442.947" viewBox="0 0 286.656 442.947">
  <g id="Left-email-flowchart-graphics" transform="translate(-736.8 -186.675)">
    <g id="Group_4320" data-name="Group 4320" transform="translate(714.1 497.855) rotate(-20)">
      <rect id="Rectangle_3222" data-name="Rectangle 3222" width="96.684" height="62.154" transform="translate(155.852 140.362) rotate(-11.183)" fill="#174180"/>
      <path id="Path_215606" data-name="Path 215606" d="M210.515,169.733l-51.942-27.569,53.281,34.344,36.2-52.036Z" transform="translate(0.533 0.561)" fill="#266cd5"/>
      <g id="Group_4319" data-name="Group 4319" transform="translate(170.274 153.644)">
        <path id="Path_215607" data-name="Path 215607" d="M187.237,154.644,167.911,191.9l21.631-34.643Z" transform="translate(-167.911 -147.172)" fill="#266cd5"/>
        <path id="Path_215608" data-name="Path 215608" d="M215.856,148.4l32.05,27.1-33.186-23.805Z" transform="translate(-158.74 -148.396)" fill="#266cd5"/>
      </g>
    </g>
    <g id="Group_4329" data-name="Group 4329" transform="matrix(0.934, 0.358, -0.358, 0.934, 732.512, 38.926)">
      <rect id="Rectangle_3222-2" data-name="Rectangle 3222" width="36.832" height="23.678" transform="translate(155.852 128.754) rotate(-11.183)" fill="none" stroke="#174180" stroke-width="2"/>
      <path id="Path_215606-2" data-name="Path 215606" d="M178.36,141.715l-19.787-10.5,20.3,13.084,13.792-19.823Z" transform="translate(-1.481 -1.559)" fill="#174180"/>
      <g id="Group_4319-2" data-name="Group 4319" transform="translate(161.346 133.813)">
        <path id="Path_215607-2" data-name="Path 215607" d="M175.273,154.644l-7.362,14.194,8.24-13.2Z" transform="translate(-167.911 -151.797)" fill="#174180"/>
        <path id="Path_215608-2" data-name="Path 215608" d="M215.153,148.4l12.21,10.325-12.642-9.069Z" transform="translate(-193.395 -148.396)" fill="#174180"/>
      </g>
    </g>
    <g id="Group_4330" data-name="Group 4330" transform="translate(556.098 287.256) rotate(-14)">
      <rect id="Rectangle_3222-3" data-name="Rectangle 3222" width="29.623" height="19.043" transform="translate(155.852 127.355) rotate(-11.183)" fill="none" stroke="#174180" stroke-width="2"/>
      <path id="Path_215606-3" data-name="Path 215606" d="M174.487,138.34l-15.914-8.447L174.9,140.416l11.092-15.943Z" transform="translate(-1.724 -1.814)" fill="#174180"/>
      <g id="Group_4319-3" data-name="Group 4319" transform="translate(160.271 131.425)">
        <path id="Path_215607-3" data-name="Path 215607" d="M173.832,154.644l-5.921,11.416,6.627-10.614Z" transform="translate(-167.911 -152.354)" fill="#174180"/>
        <path id="Path_215608-3" data-name="Path 215608" d="M215.069,148.4l9.82,8.3-10.168-7.294Z" transform="translate(-197.569 -148.396)" fill="#174180"/>
      </g>
    </g>
    <g id="Group_4331" data-name="Group 4331" transform="translate(761.326 214.354) rotate(7)">
      <rect id="Rectangle_3222-4" data-name="Rectangle 3222" width="53.583" height="34.446" transform="translate(155.852 132.002) rotate(-11.183)" fill="none" stroke="#174180" stroke-width="2"/>
      <path id="Path_215606-4" data-name="Path 215606" d="M187.359,149.556l-28.786-15.279L188.1,153.311l20.064-28.838Z" transform="translate(-0.917 -0.965)" fill="#174180"/>
      <g id="Group_4319-4" data-name="Group 4319" transform="translate(163.845 139.363)">
        <path id="Path_215607-4" data-name="Path 215607" d="M178.622,154.644l-10.71,20.649,11.988-19.2Z" transform="translate(-167.911 -150.503)" fill="#174180"/>
        <path id="Path_215608-4" data-name="Path 215608" d="M215.35,148.4l17.762,15.02-18.392-13.193Z" transform="translate(-183.696 -148.396)" fill="#174180"/>
      </g>
    </g>
    <g id="Group_4327" data-name="Group 4327" transform="matrix(0.995, -0.105, 0.105, 0.995, 652.096, 275.258)">
      <rect id="Rectangle_3222-5" data-name="Rectangle 3222" width="36.812" height="23.665" transform="translate(155.852 128.75) rotate(-11.183)" fill="#174180"/>
      <path id="Path_215606-5" data-name="Path 215606" d="M178.35,141.706l-19.777-10.5,20.287,13.076,13.784-19.812Z" transform="translate(-1.482 -1.559)" fill="#266cd5"/>
      <g id="Group_4319-5" data-name="Group 4319" transform="translate(161.343 133.807)">
        <path id="Path_215607-5" data-name="Path 215607" d="M175.269,154.644l-7.358,14.186,8.236-13.19Z" transform="translate(-167.911 -151.799)" fill="#266cd5"/>
        <path id="Path_215608-5" data-name="Path 215608" d="M215.153,148.4l12.2,10.319-12.635-9.064Z" transform="translate(-193.407 -148.396)" fill="#266cd5"/>
      </g>
    </g>
    <g id="Group_4322" data-name="Group 4322" transform="matrix(0.927, -0.375, 0.375, 0.927, 629.746, 418.59)">
      <rect id="Rectangle_3222-6" data-name="Rectangle 3222" width="38.534" height="24.772" transform="translate(155.852 129.084) rotate(-11.183)" fill="#266cd5"/>
      <path id="Path_215606-6" data-name="Path 215606" d="M179.275,142.512l-20.7-10.988,21.236,13.688,14.429-20.739Z" transform="translate(-1.424 -1.498)" fill="#174180"/>
      <g id="Group_4319-6" data-name="Group 4319" transform="translate(161.6 134.377)">
        <path id="Path_215607-6" data-name="Path 215607" d="M175.614,154.644l-7.7,14.85,8.621-13.807Z" transform="translate(-167.911 -151.666)" fill="#174180"/>
        <path id="Path_215608-6" data-name="Path 215608" d="M215.173,148.4l12.774,10.8-13.227-9.488Z" transform="translate(-192.409 -148.396)" fill="#174180"/>
      </g>
    </g>
    <g id="Group_4326" data-name="Group 4326" transform="translate(751.09 145.691) rotate(7)">
      <rect id="Rectangle_3222-7" data-name="Rectangle 3222" width="22.443" height="14.428" transform="translate(155.852 125.963) rotate(-11.183)" fill="#266cd5"/>
      <path id="Path_215606-7" data-name="Path 215606" d="M170.63,134.979l-12.057-6.4,12.368,7.972,8.4-12.079Z" transform="translate(-1.965 -2.068)" fill="#174180"/>
      <g id="Group_4319-7" data-name="Group 4319" transform="translate(159.2 129.046)">
        <path id="Path_215607-7" data-name="Path 215607" d="M172.4,154.644l-4.486,8.649,5.021-8.042Z" transform="translate(-167.911 -152.909)" fill="#174180"/>
        <path id="Path_215608-7" data-name="Path 215608" d="M214.984,148.4l7.44,6.291-7.7-5.526Z" transform="translate(-201.726 -148.396)" fill="#174180"/>
      </g>
    </g>
    <g id="Group_4323" data-name="Group 4323" transform="translate(847.449 146.697) rotate(15)">
      <rect id="Rectangle_3222-8" data-name="Rectangle 3222" width="45.588" height="29.306" transform="translate(155.852 130.452) rotate(-11.183)" fill="#266cd5"/>
      <path id="Path_215606-8" data-name="Path 215606" d="M183.064,145.814l-24.491-13L183.7,149.008l17.07-24.535Z" transform="translate(-1.187 -1.248)" fill="#174180"/>
      <g id="Group_4319-8" data-name="Group 4319" transform="translate(162.652 136.714)">
        <path id="Path_215607-8" data-name="Path 215607" d="M177.023,154.644l-9.112,17.568,10.2-16.334Z" transform="translate(-167.911 -151.121)" fill="#174180"/>
        <path id="Path_215608-8" data-name="Path 215608" d="M215.256,148.4l15.112,12.779-15.648-11.224Z" transform="translate(-188.325 -148.396)" fill="#174180"/>
      </g>
    </g>
    <g id="Group_4354" data-name="Group 4354" transform="translate(972.762 264.547) rotate(-167)">
      <rect id="Rectangle_3233" data-name="Rectangle 3233" width="16.692" height="16.692" transform="translate(0 25.371)" fill="#174180"/>
      <g id="Rectangle_3234" data-name="Rectangle 3234" transform="translate(37.389 50.743)" fill="none" stroke="#174180" stroke-width="2">
        <rect width="16.692" height="16.692" stroke="none"/>
        <rect x="1" y="1" width="14.692" height="14.692" fill="none"/>
      </g>
      <g id="Rectangle_3235" data-name="Rectangle 3235" transform="translate(37.389 25.371)" fill="none" stroke="#174180" stroke-width="2">
        <rect width="16.692" height="16.692" stroke="none"/>
        <rect x="1" y="1" width="14.692" height="14.692" fill="none"/>
      </g>
      <g id="Rectangle_3236" data-name="Rectangle 3236" transform="translate(37.389 0)" fill="none" stroke="#174180" stroke-width="2">
        <rect width="16.692" height="16.692" stroke="none"/>
        <rect x="1" y="1" width="14.692" height="14.692" fill="none"/>
      </g>
      <rect id="Rectangle_3237" data-name="Rectangle 3237" width="1.335" height="52.078" transform="translate(27.374 6.677)" fill="#174180"/>
      <rect id="Rectangle_3238" data-name="Rectangle 3238" width="1.335" height="16.171" transform="translate(36.207 33.05) rotate(90)" fill="#174180"/>
      <rect id="Rectangle_3239" data-name="Rectangle 3239" width="1.335" height="8.832" transform="translate(36.207 58.087) rotate(90)" fill="#174180"/>
      <rect id="Rectangle_3240" data-name="Rectangle 3240" width="1.335" height="8.832" transform="translate(36.207 6.677) rotate(90)" fill="#174180"/>
    </g>
    <g id="Group_4357" data-name="Group 4357" transform="matrix(0.921, -0.391, 0.391, 0.921, 52.438, 294.529)">
      <rect id="Rectangle_3233-2" data-name="Rectangle 3233" width="18" height="17" transform="translate(714.116 502.095)" fill="#266cd5"/>
      <rect id="Rectangle_3234-2" data-name="Rectangle 3234" width="18" height="17" transform="translate(753.116 476.095)" fill="#174180"/>
      <rect id="Rectangle_3235-2" data-name="Rectangle 3235" width="18" height="17" transform="translate(753.116 502.095)" fill="#174180"/>
      <rect id="Rectangle_3236-2" data-name="Rectangle 3236" width="18" height="17" transform="translate(753.116 528.095)" fill="#174180"/>
      <rect id="Rectangle_3237-2" data-name="Rectangle 3237" width="1" height="54" transform="translate(743.116 485.095)" fill="#174180"/>
      <rect id="Rectangle_3238-2" data-name="Rectangle 3238" width="1.369" height="16.574" transform="translate(735.436 511.279) rotate(-90)" fill="#174180"/>
      <rect id="Rectangle_3239-2" data-name="Rectangle 3239" width="1.369" height="8.894" transform="translate(743.117 485.618) rotate(-90)" fill="#174180"/>
      <rect id="Rectangle_3240-2" data-name="Rectangle 3240" width="1.369" height="8.894" transform="translate(743.117 539.309) rotate(-90)" fill="#174180"/>
    </g>
  </g>
</svg>
