<svg xmlns="http://www.w3.org/2000/svg" width="53.671" height="53.661" viewBox="0 0 53.671 53.661">
  <g id="Legal" transform="translate(0.75 0.75)">
    <path id="Path_215609" data-name="Path 215609" d="M43.467,24.293a1.737,1.737,0,0,0-1.739,1.735c0,12.6-16.831,22.454-19.126,22.558S3.477,38.626,3.477,26.028V5.206A1.737,1.737,0,0,1,5.216,3.47H39.99a1.737,1.737,0,0,1,1.739,1.735,1.739,1.739,0,0,0,3.477,0A5.211,5.211,0,0,0,39.99,0H5.216A5.211,5.211,0,0,0,0,5.206V26.133C0,40.465,18.169,52.161,22.6,52.161s22.6-11.7,22.6-26.133a1.737,1.737,0,0,0-1.739-1.735Z" transform="translate(0)" fill="#266cd5" stroke="#266cd5" stroke-width="1.5"/>
    <path id="Path_215610" data-name="Path 215610" d="M36.874,2.506a1.741,1.741,0,0,0-2.469,0L8.847,28.032c-.678.677-3.477,4.529-2.765,5.206s4.538-2.082,5.216-2.759L36.874,4.97a1.732,1.732,0,0,0,0-2.464Z" transform="translate(14.782 4.938)" fill="#266cd5" stroke="#266cd5" stroke-width="1.5"/>
    <path id="Path_215611" data-name="Path 215611" d="M23.864,4.729a1.737,1.737,0,0,0-1.739-1.735H4.739a1.735,1.735,0,1,0,0,3.47H22.126a1.737,1.737,0,0,0,1.739-1.735Z" transform="translate(7.432 7.417)" fill="#266cd5" stroke="#266cd5" stroke-width="1.5"/>
    <path id="Path_215612" data-name="Path 215612" d="M4.739,5.988a1.735,1.735,0,1,0,0,3.47H15.171a1.735,1.735,0,1,0,0-3.47Z" transform="translate(7.432 14.835)" fill="#266cd5" stroke="#266cd5" stroke-width="1.5"/>
  </g>
</svg>
