<svg xmlns="http://www.w3.org/2000/svg" width="85.42" height="112" viewBox="0 0 85.42 112">
  <g id="Email_Data_Security" data-name="Email Data Security" transform="translate(-2957.835 584.997)">
    <path id="Path_264168" data-name="Path 264168" d="M3000.529-169.013q-18.282,0-36.564,0a5.854,5.854,0,0,1-5-2.35,6.19,6.19,0,0,1-1.13-3.869q0-11.861,0-23.722,0-16.068,0-32.136a6,6,0,0,1,2.225-5,5.788,5.788,0,0,1,3.645-1.21c.19,0,.379,0,.569,0q36.279,0,72.558,0a6.4,6.4,0,0,1,4.11,1.153,5.89,5.89,0,0,1,2.3,4.9c.017,2.319,0,4.639,0,6.958q0,24.513,0,49.026a5.949,5.949,0,0,1-2.3,5.089,6.14,6.14,0,0,1-3.854,1.17q-13.854-.015-27.708-.005Zm7.554-45.369q6.543,0,13.087,0c.864,0,1.73.024,2.591-.035a4.25,4.25,0,0,0,3.635-5.366,4.294,4.294,0,0,0-4.384-3.129q-14.889-.014-29.777,0a6.283,6.283,0,0,0-1.438.18,4.22,4.22,0,0,0-2.95,5.332,4.205,4.205,0,0,0,4.317,3.012Q3000.623-214.372,3008.083-214.382Zm.069,6.973q-7.307,0-14.614,0c-.358,0-.717,0-1.075.028a4.24,4.24,0,0,0-3.633,5.416,4.312,4.312,0,0,0,4.546,3.084q14.709,0,29.417-.006a7.526,7.526,0,0,0,1.567-.17,4.228,4.228,0,0,0,3.016-5.3,4.209,4.209,0,0,0-4.294-3.05C3018.105-207.416,3013.129-207.408,3008.152-207.409Zm-.035,23.971q5.63,0,11.26,0c1.434,0,2.87.036,4.3-.04a4.209,4.209,0,0,0,3.48-5.989,4.335,4.335,0,0,0-4.267-2.492q-14.8,0-29.606,0c-.084,0-.169,0-.253,0a4.267,4.267,0,0,0-3.71,6.56,4.308,4.308,0,0,0,3.929,1.967C2998.206-183.451,3003.161-183.439,3008.117-183.438ZM2978.381-214.4c.168,0,.422.015.674,0a4.036,4.036,0,0,0,3.667-2.577,4.038,4.038,0,0,0-.69-4.432c-1.362-1.572-3.169-1.72-5.047-1.383a4.215,4.215,0,0,0-2.727,6.531A4.292,4.292,0,0,0,2978.381-214.4Zm-.207,7c-.128,0-.36-.009-.591,0a4.23,4.23,0,0,0-3.442,6.412c1.184,1.953,3.062,2.311,5.123,2.035a4.219,4.219,0,0,0,3.232-6.343A4.3,4.3,0,0,0,2978.174-207.4Zm.1,23.935c.274,0,.549.014.821,0a4.212,4.212,0,0,0,3.86-3.188,4.268,4.268,0,0,0-1.851-4.616,5.687,5.687,0,0,0-3.972-.6,4.213,4.213,0,0,0-3.136,6.1A4.183,4.183,0,0,0,2978.272-183.461Z" transform="translate(0 -303.989)" fill="#326cc2"/>
    <path id="Path_264169" data-name="Path 264169" d="M3113.963-550.732c0,2.066-.014,4.132.01,6.2.006.515-.146.7-.678.7q-5.028-.028-10.056,0c-.528,0-.685-.182-.681-.7q.028-4.712.007-9.424a19.075,19.075,0,0,0-8.378-16.216,18.2,18.2,0,0,0-8.276-3.216,18.86,18.86,0,0,0-12.882,2.756,18.936,18.936,0,0,0-7.961,9.9,19.334,19.334,0,0,0-1.127,6.755c.018,3.12-.011,6.241.017,9.361.005.614-.19.792-.792.788q-4.934-.036-9.866,0c-.63.005-.771-.213-.766-.8.025-3.141,0-6.282.014-9.424a30.379,30.379,0,0,1,5.241-17.331,30.25,30.25,0,0,1,15.325-11.842,29.693,29.693,0,0,1,13.816-1.524,30.481,30.481,0,0,1,16.8,7.648,30.468,30.468,0,0,1,7.9,11.137,31,31,0,0,1,2.334,12.076Q3113.962-552.313,3113.963-550.732Z" transform="translate(-82.716)" fill="#1297fc"/>
  </g>
</svg>
