<svg id="Group_6423" data-name="Group 6423" xmlns="http://www.w3.org/2000/svg" xmlns:xlink="http://www.w3.org/1999/xlink" width="378.188" height="73.558" viewBox="0 0 378.188 73.558">
  <defs>
    <clipPath id="clip-path">
      <rect id="Rectangle_5996" data-name="Rectangle 5996" width="378.188" height="73.558" fill="none"/>
    </clipPath>
  </defs>
  <g id="Group_6422" data-name="Group 6422" clip-path="url(#clip-path)">
    <path id="Path_219462" data-name="Path 219462" d="M58.724,61.373a11.312,11.312,0,0,1-9.446-4.416Q45.84,52.541,45.84,45.163q0-7.155,3.424-11.5A11.345,11.345,0,0,1,58.7,29.316q6.54,0,9.251,4.64a52.19,52.19,0,0,1-.28-5.283V18.751l7.323-.475v42.51H68.646l-.811-4.193q-.476.755-.88,1.3a9.353,9.353,0,0,1-1.188,1.258A6.949,6.949,0,0,1,64.076,60.3a11.347,11.347,0,0,1-2.291.755,13.56,13.56,0,0,1-3.061.322m1.734-5.562q7.377,0,7.489-10.033,0-5.673-1.9-8.274a6.574,6.574,0,0,0-5.673-2.6,6.243,6.243,0,0,0-5.268,2.64q-1.969,2.641-1.971,7.785,0,5.114,1.971,7.8a6.291,6.291,0,0,0,5.353,2.684" fill="#fff"/>
    <path id="Path_219463" data-name="Path 219463" d="M90.651,61.373q-7.407,0-11.53-4.262T75,45.331q0-7.323,3.885-11.655t10.594-4.36q6.341,0,9.851,3.969t3.507,10.536q0,.476-.013,1.537t-.014,1.565H82.377a9.668,9.668,0,0,0,2.364,6.666,8.135,8.135,0,0,0,6.189,2.362,19.366,19.366,0,0,0,9.671-2.627l1.033,5.2a20.472,20.472,0,0,1-10.983,2.851M82.518,42.312H95.934a8.671,8.671,0,0,0-1.705-5.758A5.861,5.861,0,0,0,89.5,34.542,6.451,6.451,0,0,0,84.741,36.5a8.87,8.87,0,0,0-2.223,5.813" fill="#fff"/>
    <path id="Path_219464" data-name="Path 219464" d="M117.987,61.373q-7.407,0-11.53-4.262t-4.122-11.78q0-7.323,3.885-11.655t10.593-4.36q6.342,0,9.852,3.969t3.506,10.536q0,.476-.013,1.537c-.01.709-.013,1.23-.013,1.565H109.713a9.668,9.668,0,0,0,2.363,6.666,8.138,8.138,0,0,0,6.19,2.362,19.368,19.368,0,0,0,9.671-2.627l1.033,5.2a20.475,20.475,0,0,1-10.983,2.851m-8.133-19.061H123.27a8.666,8.666,0,0,0-1.706-5.758,5.859,5.859,0,0,0-4.724-2.012,6.453,6.453,0,0,0-4.764,1.957,8.875,8.875,0,0,0-2.222,5.813" fill="#fff"/>
    <path id="Path_219465" data-name="Path 219465" d="M131.125,73.558V30.071h6.288l.783,4.3a10.363,10.363,0,0,1,4.011-3.759,11.7,11.7,0,0,1,5.575-1.328,10.939,10.939,0,0,1,6.638,2.1,13,13,0,0,1,4.347,5.714,21.43,21.43,0,0,1,1.48,8.175q0,7.128-3.451,11.613a11.174,11.174,0,0,1-9.349,4.486,11.789,11.789,0,0,1-5.268-1.16,11.489,11.489,0,0,1-3.955-3.144q.224,4.024.223,4.527v11.6Zm14.757-17.775a5.937,5.937,0,0,0,5.156-2.738q1.887-2.739,1.887-7.826,0-5.171-1.9-7.77a6.18,6.18,0,0,0-5.283-2.6q-7.266,0-7.35,9.894,0,5.7,1.886,8.37a6.417,6.417,0,0,0,5.6,2.669" fill="#fff"/>
    <path id="Path_219466" data-name="Path 219466" d="M176.551,61.373a11.752,11.752,0,0,1-5.688-1.384,9.9,9.9,0,0,1-3.7-3.144l-.726,3.912h-6.345V18.751l7.323-.475v9.5q0,2.768-.168,6.288a11.381,11.381,0,0,1,9.475-4.751,10.959,10.959,0,0,1,9.209,4.36q3.338,4.359,3.34,11.4,0,7.322-3.453,11.808a11.089,11.089,0,0,1-9.264,4.486m-1.761-5.562a6.1,6.1,0,0,0,5.227-2.767q1.955-2.766,1.956-7.853,0-5.115-1.914-7.742a6.086,6.086,0,0,0-5.185-2.627q-7.435,0-7.519,10.033,0,5.646,1.873,8.3a6.364,6.364,0,0,0,5.562,2.655" fill="#fff"/>
    <path id="Path_219467" data-name="Path 219467" d="M201.008,61.2a15.838,15.838,0,0,1-5.24-.74,6.792,6.792,0,0,1-3.284-2.362,9.783,9.783,0,0,1-1.677-3.857,27.244,27.244,0,0,1-.476-5.562V18.751l7.323-.476V48.544q0,4.137.978,5.6t3.8,1.467a26.021,26.021,0,0,0,3.55-.306l.195,5.225q-.028,0-.685.141c-.437.093-.857.172-1.257.237s-.909.13-1.524.195a16.019,16.019,0,0,1-1.7.1" fill="#fff"/>
    <path id="Path_219468" data-name="Path 219468" d="M226.975,58.368q-3.66,3.006-9.642,3.005t-9.629-2.99q-3.645-2.991-3.646-8.777V30.071h7.35V49.327q0,3.438,1.439,4.975a6,6,0,0,0,4.57,1.537,5.856,5.856,0,0,0,4.486-1.523q1.41-1.523,1.411-4.989V30.071h7.322V49.606q0,5.759-3.661,8.762" fill="#fff"/>
    <path id="Path_219469" data-name="Path 219469" d="M246.514,61.373q-7.407,0-11.529-4.262t-4.123-11.78q0-7.323,3.885-11.655t10.593-4.36q6.344,0,9.852,3.969T258.7,43.821q0,.476-.014,1.537t-.014,1.565h-20.43a9.667,9.667,0,0,0,2.362,6.666,8.138,8.138,0,0,0,6.19,2.362,19.362,19.362,0,0,0,9.67-2.627l1.034,5.2a20.475,20.475,0,0,1-10.983,2.851m-8.133-19.061H251.8a8.666,8.666,0,0,0-1.705-5.758,5.86,5.86,0,0,0-4.724-2.012A6.454,6.454,0,0,0,240.6,36.5a8.88,8.88,0,0,0-2.222,5.813" fill="#fff"/>
    <path id="Path_219470" data-name="Path 219470" d="M265.6,60.785,256.3,30.07h7.462l5.9,22.527q.195-.644,3.186-10.985t3.381-11.542h7.519q.363,1.175,3.214,11.431t3.074,11.012L296.1,30.07h7.35l-9.614,30.715h-7.294q-.364-1.2-3.4-12.157t-3.284-11.822q-.56,2.042-3.564,12.3t-3.479,11.683Z" fill="#fff"/>
    <path id="Path_219471" data-name="Path 219471" d="M315.579,61.373q-6.82,0-10.733-4.416t-3.913-11.626q0-7.436,3.913-11.725t11.039-4.29q6.876,0,10.775,4.374t3.9,11.641q0,7.35-3.94,11.7t-11.039,4.346m.195-5.562a6.346,6.346,0,0,0,5.59-2.711q1.872-2.712,1.872-7.769,0-5.117-1.872-7.8a7.226,7.226,0,0,0-11.249.013q-1.887,2.7-1.887,7.812,0,5.031,1.9,7.742a6.445,6.445,0,0,0,5.646,2.711" fill="#fff"/>
    <path id="Path_219472" data-name="Path 219472" d="M331.568,60.785V30.07h6.148l.951,4.695a9.7,9.7,0,0,1,8.748-4.834,14.1,14.1,0,0,1,1.956.111l-.112,6.122a15.6,15.6,0,0,0-2.32-.169q-4.051,0-6.051,2.152a8.457,8.457,0,0,0-2,5.981V60.785Z" fill="#fff"/>
    <path id="Path_219473" data-name="Path 219473" d="M348.843,60.785V18.751l7.323-.475V37.14L356,43.347c.019-.02.209-.207.574-.561s.562-.549.6-.587q1.537-1.817,3.34-3.744t4.556-4.724q2.753-2.794,3.59-3.661h8.72L364.746,43.149l13.443,17.636h-8.86L359.212,46.839l-3.046,2.4V60.785Z" fill="#fff"/>
    <path id="Path_219474" data-name="Path 219474" d="M26.489,29.74a56.1,56.1,0,0,0-2.361-5.173c-.935-1.817-1.971-3.586-3-5.355a86.679,86.679,0,0,0-5.412-7.978C13.6,8.391,11.328,5.667,8.97,3.008,8.074,2,7.161,1,6.255,0L6.169.057c.359,1.035.746,2.062,1.07,3.107a75.861,75.861,0,0,1,2.093,8.171,66.707,66.707,0,0,1,1.19,11.117A66.66,66.66,0,0,1,9.65,34.585a72.673,72.673,0,0,1-1.958,8.6c-.5,1.737-1.1,3.453-1.729,5.151-.7,1.871-1.422,3.738-2.252,5.557C2.7,56.1,1.579,58.258.5,60.433c-.154.311-.327.624-.5.94H16.14Q25.881,46.351,26.588,30.1a2.4,2.4,0,0,0-.1-.361" fill="#028cbc"/>
    <path id="Path_219475" data-name="Path 219475" d="M36.671,61.372c.334-1.126.69-2.247.939-3.391a40.881,40.881,0,0,0,.842-9.253A68.358,68.358,0,0,0,36.27,32.807c-.273-1.077-.565-2.15-.848-3.224l0,0c-.12-.356-.245-.71-.359-1.068q-.441-1.38-.875-2.763l-.145-.291-.018-.034c-2.208-6.21-7.638-16.191-9.571-17.548a65.166,65.166,0,0,1,3.186,18.783c.02,1.151-.006,2.294-.054,3.435Q26.9,46.367,17.14,61.373H36.671Z" fill="#06b3f7"/>
  </g>
</svg>
