<svg xmlns="http://www.w3.org/2000/svg" width="21" height="16.169" viewBox="0 0 21 16.169">
  <g id="Group_90" data-name="Group 90" transform="translate(270.821 224.21)">
    <path id="Path_46" data-name="Path 46" d="M-251.811-224a.965.965,0,0,0-.195.15l-7.185,8.145a2.178,2.178,0,0,1-3.06.225,2.889,2.889,0,0,1-.21-.225l-7.3-8.28c-.015-.015-.03-.03-.045-.03a2.339,2.339,0,0,1,.96-.2H-252.8A2.441,2.441,0,0,1-251.811-224Z" transform="translate(0.505 0)" fill="#fff"/>
    <path id="Path_47" data-name="Path 47" d="M-249.821-222.12V-210.9a2.468,2.468,0,0,1-2.475,2.475h-16.049a2.465,2.465,0,0,1-2.475-2.46V-222.12a2.4,2.4,0,0,1,.345-1.275.207.207,0,0,0,.045.06l7.29,8.28a3.747,3.747,0,0,0,5.28.345,3.744,3.744,0,0,0,.345-.345l7.17-8.145a.5.5,0,0,0,.15-.24A2.585,2.585,0,0,1-249.821-222.12Z" transform="translate(0 0.385)" fill="#fff"/>
  </g>
</svg>
