<svg xmlns="http://www.w3.org/2000/svg" width="602.068" height="477.558" viewBox="0 0 602.068 477.558">
  <g id="Group_7319" data-name="Group 7319" transform="translate(-1499.068 11419.341)" opacity="0.21">
    <g id="Group_4359" data-name="Group 4359" transform="matrix(0.848, 0.53, -0.53, 0.848, 2069.973, -11126.377)" opacity="0.5">
      <rect id="Rectangle_3222" data-name="Rectangle 3222" width="23.887" height="15.356" transform="translate(0 4.633) rotate(-11.183)" fill="none" stroke="#174180" stroke-width="2"/>
      <path id="Path_215606" data-name="Path 215606" d="M12.833,11.182,0,4.371l13.166,8.486L22.11,0Z" transform="translate(0.804 0.846)" fill="#174180"/>
      <g id="Group_4319" data-name="Group 4319" transform="translate(3.563 7.918)">
        <path id="Path_215607" data-name="Path 215607" d="M4.775,0,0,9.206,5.344.647Z" transform="translate(0 1.843)" fill="#174180"/>
        <path id="Path_215608" data-name="Path 215608" d="M.281,0,8.2,6.693,0,.811Z" transform="translate(13.831 0)" fill="#174180"/>
      </g>
    </g>
    <g id="Group_4360" data-name="Group 4360" transform="matrix(0.848, 0.53, -0.53, 0.848, 2084.404, -11393.546)" opacity="0.5">
      <rect id="Rectangle_3222-2" data-name="Rectangle 3222" width="19.339" height="12.432" transform="translate(0 3.751) rotate(-11.183)" fill="none" stroke="#174180" stroke-width="1"/>
      <path id="Path_215606-2" data-name="Path 215606" d="M10.389,9.052,0,3.538l10.657,6.87L17.9,0Z" transform="translate(0.651 0.685)" fill="#174180"/>
      <g id="Group_4319-2" data-name="Group 4319" transform="translate(2.88 6.411)">
        <path id="Path_215607-2" data-name="Path 215607" d="M3.866,0,0,7.453,4.326.523Z" transform="translate(0 1.492)" fill="#174180"/>
        <path id="Path_215608-2" data-name="Path 215608" d="M.227,0,6.638,5.421,0,.664Z" transform="translate(11.199 0)" fill="#174180"/>
      </g>
    </g>
    <g id="Group_4361" data-name="Group 4361" transform="translate(2012.258 -11046.281) rotate(27)" opacity="0.5">
      <rect id="Rectangle_3222-3" data-name="Rectangle 3222" width="50.842" height="32.684" transform="translate(0 9.86) rotate(-11.183)" fill="#174180"/>
      <path id="Path_215606-3" data-name="Path 215606" d="M27.314,23.8,0,9.3,28.019,27.363,47.056,0Z" transform="translate(1.711 1.804)" fill="#266cd5"/>
      <g id="Group_4319-3" data-name="Group 4319" transform="translate(7.586 16.848)">
        <path id="Path_215607-3" data-name="Path 215607" d="M10.16,0,0,19.6,11.375,1.378Z" transform="translate(0 3.926)" fill="#266cd5"/>
        <path id="Path_215608-3" data-name="Path 215608" d="M.6,0,17.451,14.252,0,1.734Z" transform="translate(29.435 0)" fill="#266cd5"/>
      </g>
    </g>
    <g id="Group_4356" data-name="Group 4356" transform="translate(2091.082 -11247.717) rotate(-167)" opacity="0.5">
      <rect id="Rectangle_3233" data-name="Rectangle 3233" width="13.46" height="13.46" transform="translate(0 20.459)" fill="#174180"/>
      <g id="Rectangle_3234" data-name="Rectangle 3234" transform="translate(30.15 40.918)" fill="none" stroke="#174180" stroke-width="2">
        <rect width="13.46" height="13.46" stroke="none"/>
        <rect x="1" y="1" width="11.46" height="11.46" fill="none"/>
      </g>
      <g id="Rectangle_3235" data-name="Rectangle 3235" transform="translate(30.15 20.459)" fill="none" stroke="#174180" stroke-width="2">
        <rect width="13.46" height="13.46" stroke="none"/>
        <rect x="1" y="1" width="11.46" height="11.46" fill="none"/>
      </g>
      <g id="Rectangle_3236" data-name="Rectangle 3236" transform="translate(30.15 0)" fill="none" stroke="#174180" stroke-width="2">
        <rect width="13.46" height="13.46" stroke="none"/>
        <rect x="1" y="1" width="11.46" height="11.46" fill="none"/>
      </g>
      <rect id="Rectangle_3237" data-name="Rectangle 3237" width="1.077" height="41.995" transform="translate(22.074 5.384)" fill="#174180"/>
      <rect id="Rectangle_3238" data-name="Rectangle 3238" width="1.077" height="13.04" transform="translate(29.197 26.651) rotate(90)" fill="#174180"/>
      <rect id="Rectangle_3239" data-name="Rectangle 3239" width="1.077" height="7.122" transform="translate(29.197 46.84) rotate(90)" fill="#174180"/>
      <rect id="Rectangle_3240" data-name="Rectangle 3240" width="1.077" height="7.122" transform="translate(29.197 5.384) rotate(90)" fill="#174180"/>
    </g>
    <g id="Group_4320" data-name="Group 4320" transform="matrix(0.94, -0.342, 0.342, 0.94, 1635.357, -10998.869)" opacity="0.5">
      <rect id="Rectangle_3222-4" data-name="Rectangle 3222" width="77.964" height="50.12" transform="translate(0 15.12) rotate(-11.183)" fill="#174180"/>
      <path id="Path_215606-4" data-name="Path 215606" d="M41.885,36.5,0,14.267,42.965,41.961,72.156,0Z" transform="translate(2.624 2.759)" fill="#266cd5"/>
      <g id="Group_4319-4" data-name="Group 4319" transform="translate(11.63 25.834)">
        <path id="Path_215607-4" data-name="Path 215607" d="M15.584,0,0,30.043,17.443,2.107Z" transform="translate(0 6.022)" fill="#266cd5"/>
        <path id="Path_215608-4" data-name="Path 215608" d="M.916,0,26.761,21.853,0,2.657Z" transform="translate(45.141 0)" fill="#266cd5"/>
      </g>
    </g>
    <g id="Group_4329" data-name="Group 4329" transform="translate(1550.03 -11028.353) rotate(20.972)" opacity="0.5">
      <rect id="Rectangle_3222-5" data-name="Rectangle 3222" width="29.701" height="19.094" transform="translate(0 5.76) rotate(-11.183)" fill="none" stroke="#174180" stroke-width="2"/>
      <path id="Path_215606-5" data-name="Path 215606" d="M15.956,13.9,0,5.434,16.37,15.985,27.491,0Z" transform="translate(1 1.053)" fill="#174180"/>
      <g id="Group_4319-5" data-name="Group 4319" transform="translate(4.43 9.843)">
        <path id="Path_215607-5" data-name="Path 215607" d="M5.937,0,0,11.446,6.645.8Z" transform="translate(0 2.293)" fill="#174180"/>
        <path id="Path_215608-5" data-name="Path 215608" d="M.348,0l9.846,8.326L0,1.013Z" transform="translate(17.197 0)" fill="#174180"/>
      </g>
    </g>
    <g id="Group_4327" data-name="Group 4327" transform="translate(1922.397 -11042.835) rotate(-6.024)" opacity="0.5">
      <rect id="Rectangle_3222-6" data-name="Rectangle 3222" width="29.685" height="19.083" transform="translate(0 5.757) rotate(-11.183)" fill="#174180"/>
      <path id="Path_215606-6" data-name="Path 215606" d="M15.948,13.9,0,5.432,16.359,15.976,27.474,0Z" transform="translate(0.999 1.049)" fill="#266cd5"/>
      <g id="Group_4319-6" data-name="Group 4319" transform="translate(4.428 9.838)">
        <path id="Path_215607-6" data-name="Path 215607" d="M5.933,0,0,11.439,6.641.8Z" transform="translate(0 2.291)" fill="#266cd5"/>
        <path id="Path_215608-6" data-name="Path 215608" d="M.351,0l9.838,8.321L0,1.012Z" transform="translate(17.185 0)" fill="#266cd5"/>
      </g>
    </g>
    <g id="Group_4322" data-name="Group 4322" transform="matrix(0.927, -0.375, 0.375, 0.927, 1765.381, -11357.17)" opacity="0.5">
      <rect id="Rectangle_3222-7" data-name="Rectangle 3222" width="31.073" height="19.976" transform="translate(0 6.026) rotate(-11.183)" fill="#266cd5"/>
      <path id="Path_215606-7" data-name="Path 215606" d="M16.692,14.546,0,5.686,17.124,16.724,28.76,0Z" transform="translate(1.047 1.1)" fill="#174180"/>
      <g id="Group_4319-7" data-name="Group 4319" transform="translate(4.638 10.298)">
        <path id="Path_215607-7" data-name="Path 215607" d="M6.209,0,0,11.975,6.952.841Z" transform="translate(0 2.398)" fill="#174180"/>
        <path id="Path_215608-7" data-name="Path 215608" d="M.365,0l10.3,8.709L0,1.058Z" transform="translate(17.989 0)" fill="#174180"/>
      </g>
    </g>
    <g id="Group_4323" data-name="Group 4323" transform="matrix(0.966, 0.259, -0.259, 0.966, 1506.914, -11330.412)" opacity="0.49">
      <rect id="Rectangle_3222-8" data-name="Rectangle 3222" width="36.761" height="23.632" transform="translate(0 7.13) rotate(-11.183)" fill="#266cd5"/>
      <path id="Path_215606-8" data-name="Path 215606" d="M19.749,17.209,0,6.726,20.262,19.785,34.027,0Z" transform="translate(1.237 1.302)" fill="#174180"/>
      <g id="Group_4319-8" data-name="Group 4319" transform="translate(5.483 12.182)">
        <path id="Path_215607-8" data-name="Path 215607" d="M7.348,0,0,14.167,8.225,1Z" transform="translate(0 2.838)" fill="#174180"/>
        <path id="Path_215608-8" data-name="Path 215608" d="M.432,0,12.618,10.3,0,1.254Z" transform="translate(21.284 0)" fill="#174180"/>
      </g>
    </g>
    <g id="Group_4323-2" data-name="Group 4323" transform="matrix(0.966, 0.259, -0.259, 0.966, 1575.332, -11420.918)" opacity="0.49">
      <rect id="Rectangle_3222-9" data-name="Rectangle 3222" width="36.761" height="23.632" transform="translate(0 7.13) rotate(-11.183)" fill="#266cd5"/>
      <path id="Path_215606-9" data-name="Path 215606" d="M19.749,17.209,0,6.726,20.262,19.785,34.027,0Z" transform="translate(1.237 1.302)" fill="#174180"/>
      <g id="Group_4319-9" data-name="Group 4319" transform="translate(5.483 12.182)">
        <path id="Path_215607-9" data-name="Path 215607" d="M7.348,0,0,14.167,8.225,1Z" transform="translate(0 2.838)" fill="#174180"/>
        <path id="Path_215608-9" data-name="Path 215608" d="M.432,0,12.618,10.3,0,1.254Z" transform="translate(21.284 0)" fill="#174180"/>
      </g>
    </g>
    <g id="Group_5315" data-name="Group 5315" transform="translate(1513.334 -11216.91) rotate(19)">
      <rect id="Rectangle_3652" data-name="Rectangle 3652" width="62.957" height="39.204" transform="translate(0 4.612)" fill="#1b3254"/>
      <rect id="Rectangle_3653" data-name="Rectangle 3653" width="11.531" height="7.495" transform="translate(4.223 12.165)" fill="#174180"/>
      <rect id="Rectangle_3654" data-name="Rectangle 3654" width="11.531" height="7.495" transform="translate(18.549 12.165)" fill="#174180"/>
      <rect id="Rectangle_3655" data-name="Rectangle 3655" width="11.531" height="7.495" transform="translate(32.878 12.165)" fill="#174180"/>
      <rect id="Rectangle_3656" data-name="Rectangle 3656" width="11.531" height="7.495" transform="translate(47.205 12.165)" fill="#174180"/>
      <rect id="Rectangle_3657" data-name="Rectangle 3657" width="11.531" height="7.495" transform="translate(4.223 22.773)" fill="#174180"/>
      <rect id="Rectangle_3658" data-name="Rectangle 3658" width="11.531" height="7.495" transform="translate(18.549 22.773)" fill="#174180"/>
      <rect id="Rectangle_3659" data-name="Rectangle 3659" width="11.531" height="7.495" transform="translate(32.878 22.773)" fill="#174180"/>
      <rect id="Rectangle_3660" data-name="Rectangle 3660" width="11.531" height="7.495" transform="translate(47.205 22.773)" fill="#174180"/>
      <rect id="Rectangle_3661" data-name="Rectangle 3661" width="11.531" height="7.495" transform="translate(4.223 33.381)" fill="#174180"/>
      <rect id="Rectangle_3662" data-name="Rectangle 3662" width="11.531" height="7.495" transform="translate(18.549 33.381)" fill="#174180"/>
      <rect id="Rectangle_3663" data-name="Rectangle 3663" width="11.531" height="7.495" transform="translate(32.878 33.381)" fill="#174180"/>
      <rect id="Rectangle_3664" data-name="Rectangle 3664" width="11.531" height="7.495" transform="translate(47.205 33.381)" fill="#174180"/>
      <circle id="Ellipse_102" data-name="Ellipse 102" cx="1.73" cy="1.73" r="1.73" transform="translate(14.758 5.765)" fill="#266cd5"/>
      <circle id="Ellipse_103" data-name="Ellipse 103" cx="1.73" cy="1.73" r="1.73" transform="translate(43.354 5.765)" fill="#266cd5"/>
      <rect id="Rectangle_3665" data-name="Rectangle 3665" width="1.384" height="7.956" transform="translate(15.796 0)" fill="#174180"/>
      <rect id="Rectangle_3666" data-name="Rectangle 3666" width="1.384" height="7.956" transform="translate(44.393 0)" fill="#174180"/>
      <path id="Path_216029" data-name="Path 216029" d="M5.2,2.6A2.6,2.6,0,1,1,4.8,1.21,2.6,2.6,0,0,1,5.2,2.6Z" transform="translate(50.378 13.309)" fill="#266cd5"/>
      <path id="Path_216030" data-name="Path 216030" d="M3.627.388,1.06,2.954C.9,2.7,0,1.544,0,1.544a3.64,3.64,0,0,1,.368-.325l.745.994L3.326,0A2.6,2.6,0,0,1,3.627.388Z" transform="translate(51.548 14.131)" fill="#5b697f"/>
      <path id="Path_216031" data-name="Path 216031" d="M5.2,2.6A2.6,2.6,0,1,1,4.8,1.21,2.6,2.6,0,0,1,5.2,2.6Z" transform="translate(21.723 23.918)" fill="#266cd5"/>
      <path id="Path_216032" data-name="Path 216032" d="M3.627.388,1.06,2.954C.9,2.7,0,1.544,0,1.544a3.641,3.641,0,0,1,.368-.325l.745.994L3.326,0A2.6,2.6,0,0,1,3.627.388Z" transform="translate(22.893 24.739)" fill="#5b697f"/>
      <path id="Path_216033" data-name="Path 216033" d="M5.2,2.6A2.6,2.6,0,1,1,4.8,1.21,2.6,2.6,0,0,1,5.2,2.6Z" transform="translate(7.394 23.918)" fill="#266cd5"/>
      <path id="Path_216034" data-name="Path 216034" d="M3.627.388,1.06,2.954C.9,2.7,0,1.544,0,1.544a3.641,3.641,0,0,1,.368-.325l.745.994L3.326,0A2.593,2.593,0,0,1,3.627.388Z" transform="translate(8.565 24.739)" fill="#5b697f"/>
    </g>
    <g id="Group_5328" data-name="Group 5328" transform="matrix(-0.974, -0.225, 0.225, -0.974, 2018.969, -11351.736)" opacity="0.5">
      <rect id="Rectangle_3652-2" data-name="Rectangle 3652" width="62.957" height="39.204" transform="translate(0 4.612)" fill="#1b3254"/>
      <rect id="Rectangle_3653-2" data-name="Rectangle 3653" width="11.531" height="7.495" transform="translate(4.223 12.165)" fill="#174180"/>
      <rect id="Rectangle_3654-2" data-name="Rectangle 3654" width="11.531" height="7.495" transform="translate(18.549 12.165)" fill="#174180"/>
      <rect id="Rectangle_3655-2" data-name="Rectangle 3655" width="11.531" height="7.495" transform="translate(32.878 12.165)" fill="#174180"/>
      <rect id="Rectangle_3656-2" data-name="Rectangle 3656" width="11.531" height="7.495" transform="translate(47.205 12.165)" fill="#174180"/>
      <rect id="Rectangle_3657-2" data-name="Rectangle 3657" width="11.531" height="7.495" transform="translate(4.223 22.773)" fill="#174180"/>
      <rect id="Rectangle_3658-2" data-name="Rectangle 3658" width="11.531" height="7.495" transform="translate(18.549 22.773)" fill="#174180"/>
      <rect id="Rectangle_3659-2" data-name="Rectangle 3659" width="11.531" height="7.495" transform="translate(32.878 22.773)" fill="#174180"/>
      <rect id="Rectangle_3660-2" data-name="Rectangle 3660" width="11.531" height="7.495" transform="translate(47.205 22.773)" fill="#174180"/>
      <rect id="Rectangle_3661-2" data-name="Rectangle 3661" width="11.531" height="7.495" transform="translate(4.223 33.381)" fill="#174180"/>
      <rect id="Rectangle_3662-2" data-name="Rectangle 3662" width="11.531" height="7.495" transform="translate(18.549 33.381)" fill="#174180"/>
      <rect id="Rectangle_3663-2" data-name="Rectangle 3663" width="11.531" height="7.495" transform="translate(32.878 33.381)" fill="#174180"/>
      <rect id="Rectangle_3664-2" data-name="Rectangle 3664" width="11.531" height="7.495" transform="translate(47.205 33.381)" fill="#174180"/>
      <circle id="Ellipse_102-2" data-name="Ellipse 102" cx="1.73" cy="1.73" r="1.73" transform="translate(14.758 5.765)" fill="#266cd5"/>
      <circle id="Ellipse_103-2" data-name="Ellipse 103" cx="1.73" cy="1.73" r="1.73" transform="translate(43.354 5.765)" fill="#266cd5"/>
      <rect id="Rectangle_3665-2" data-name="Rectangle 3665" width="1.384" height="7.956" transform="translate(15.796)" fill="#174180"/>
      <rect id="Rectangle_3666-2" data-name="Rectangle 3666" width="1.384" height="7.956" transform="translate(44.393)" fill="#174180"/>
      <path id="Path_216029-2" data-name="Path 216029" d="M5.2,2.6A2.6,2.6,0,1,1,4.8,1.21,2.6,2.6,0,0,1,5.2,2.6Z" transform="translate(50.378 13.309)" fill="#266cd5"/>
      <path id="Path_216030-2" data-name="Path 216030" d="M3.627.388,1.06,2.954C.9,2.7,0,1.544,0,1.544a3.64,3.64,0,0,1,.368-.325l.745.994L3.326,0A2.6,2.6,0,0,1,3.627.388Z" transform="translate(51.548 14.131)" fill="#9aabc9"/>
      <path id="Path_216031-2" data-name="Path 216031" d="M5.2,2.6A2.6,2.6,0,1,1,4.8,1.21,2.6,2.6,0,0,1,5.2,2.6Z" transform="translate(21.723 23.918)" fill="#266cd5"/>
      <path id="Path_216032-2" data-name="Path 216032" d="M3.627.388,1.06,2.954C.9,2.7,0,1.544,0,1.544a3.641,3.641,0,0,1,.368-.325l.745.994L3.326,0A2.6,2.6,0,0,1,3.627.388Z" transform="translate(22.893 24.739)" fill="#9aabc9"/>
      <path id="Path_216033-2" data-name="Path 216033" d="M5.2,2.6A2.6,2.6,0,1,1,4.8,1.21,2.6,2.6,0,0,1,5.2,2.6Z" transform="translate(7.394 23.918)" fill="#266cd5"/>
      <path id="Path_216034-2" data-name="Path 216034" d="M3.627.388,1.06,2.954C.9,2.7,0,1.544,0,1.544a3.641,3.641,0,0,1,.368-.325l.745.994L3.326,0A2.593,2.593,0,0,1,3.627.388Z" transform="translate(8.565 24.739)" fill="#9aabc9"/>
    </g>
    <g id="Group_5317" data-name="Group 5317" transform="translate(1825.912 -11036.282) rotate(-16)" opacity="0.5">
      <rect id="Rectangle_3652-3" data-name="Rectangle 3652" width="36.277" height="22.59" transform="translate(0 2.658)" fill="#1b3254"/>
      <rect id="Rectangle_3653-3" data-name="Rectangle 3653" width="6.644" height="4.319" transform="translate(2.434 7.01)" fill="#174180"/>
      <rect id="Rectangle_3654-3" data-name="Rectangle 3654" width="6.644" height="4.319" transform="translate(10.688 7.01)" fill="#174180"/>
      <rect id="Rectangle_3655-3" data-name="Rectangle 3655" width="6.644" height="4.319" transform="translate(18.945 7.01)" fill="#174180"/>
      <rect id="Rectangle_3656-3" data-name="Rectangle 3656" width="6.644" height="4.319" transform="translate(27.199 7.01)" fill="#174180"/>
      <rect id="Rectangle_3657-3" data-name="Rectangle 3657" width="6.644" height="4.319" transform="translate(2.434 13.122)" fill="#174180"/>
      <rect id="Rectangle_3658-3" data-name="Rectangle 3658" width="6.644" height="4.319" transform="translate(10.688 13.122)" fill="#174180"/>
      <rect id="Rectangle_3659-3" data-name="Rectangle 3659" width="6.644" height="4.319" transform="translate(18.945 13.122)" fill="#174180"/>
      <rect id="Rectangle_3660-3" data-name="Rectangle 3660" width="6.644" height="4.319" transform="translate(27.199 13.122)" fill="#174180"/>
      <rect id="Rectangle_3661-3" data-name="Rectangle 3661" width="6.644" height="4.319" transform="translate(2.434 19.235)" fill="#174180"/>
      <rect id="Rectangle_3662-3" data-name="Rectangle 3662" width="6.644" height="4.319" transform="translate(10.688 19.235)" fill="#174180"/>
      <rect id="Rectangle_3663-3" data-name="Rectangle 3663" width="6.644" height="4.319" transform="translate(18.945 19.235)" fill="#174180"/>
      <rect id="Rectangle_3664-3" data-name="Rectangle 3664" width="6.644" height="4.319" transform="translate(27.199 19.235)" fill="#174180"/>
      <circle id="Ellipse_102-3" data-name="Ellipse 102" cx="0.997" cy="0.997" r="0.997" transform="translate(8.503 3.322)" fill="#266cd5"/>
      <circle id="Ellipse_103-3" data-name="Ellipse 103" cx="0.997" cy="0.997" r="0.997" transform="translate(24.98 3.322)" fill="#266cd5"/>
      <rect id="Rectangle_3665-3" data-name="Rectangle 3665" width="0.797" height="4.584" transform="translate(9.102)" fill="#174180"/>
      <rect id="Rectangle_3666-3" data-name="Rectangle 3666" width="0.797" height="4.584" transform="translate(25.579)" fill="#174180"/>
      <path id="Path_216029-3" data-name="Path 216029" d="M3,1.5A1.5,1.5,0,1,1,2.765.7,1.5,1.5,0,0,1,3,1.5Z" transform="translate(29.028 7.669)" fill="#266cd5"/>
      <path id="Path_216030-3" data-name="Path 216030" d="M2.09.224.611,1.7C.518,1.558,0,.89,0,.89A2.1,2.1,0,0,1,.212.7l.429.573L1.917,0A1.492,1.492,0,0,1,2.09.224Z" transform="translate(29.703 8.143)" fill="#9aabc9"/>
      <path id="Path_216031-3" data-name="Path 216031" d="M3,1.5A1.5,1.5,0,1,1,2.764.7,1.5,1.5,0,0,1,3,1.5Z" transform="translate(12.517 13.782)" fill="#266cd5"/>
      <path id="Path_216032-3" data-name="Path 216032" d="M2.09.224.611,1.7C.518,1.559,0,.89,0,.89A2.1,2.1,0,0,1,.212.7l.429.573L1.917,0A1.5,1.5,0,0,1,2.09.224Z" transform="translate(13.192 14.255)" fill="#9aabc9"/>
      <path id="Path_216033-3" data-name="Path 216033" d="M3,1.5A1.5,1.5,0,1,1,2.765.7,1.5,1.5,0,0,1,3,1.5Z" transform="translate(4.261 13.782)" fill="#266cd5"/>
      <path id="Path_216034-3" data-name="Path 216034" d="M2.09.224.611,1.7C.518,1.559,0,.89,0,.89A2.1,2.1,0,0,1,.212.7l.429.573L1.917,0A1.494,1.494,0,0,1,2.09.224Z" transform="translate(4.935 14.255)" fill="#9aabc9"/>
    </g>
  </g>
</svg>
