<svg id="MeetBlue" xmlns="http://www.w3.org/2000/svg" width="291.614" height="366.096" viewBox="0 0 291.614 366.096">
  <g id="Group_8202" data-name="Group 8202" transform="translate(0)">
    <path id="Path_231349" data-name="Path 231349" d="M373.626,763.1q-72.54-41.58-145.572-83.427a1.148,1.148,0,0,1-.705-1.26q-.177-99.086-.4-197.887c0-.7.127-.78.7-.446Q373.2,564.544,516.8,647.827a1.145,1.145,0,0,1,.693,1.246q.511,97.972,1.069,196.271c.005.695-.121.78-.684.457Q445.995,804.569,373.626,763.1Z" transform="translate(-226.948 -479.887)" fill="#202641"/>
    <path id="Path_231350" data-name="Path 231350" d="M371.718,755.243,232.442,675.39c-1.651-.948-1.919-1.423-1.925-3.408q-.193-92.59-.386-184.908c0-1.925.273-2.1,1.862-1.178L508.666,646.347c1.591.923,1.85,1.394,1.86,3.388q.493,91.545.989,183.358c.011,1.966-.268,2.148-1.867,1.232Z" transform="translate(-224.448 -475.591)" fill="#14192e"/>
    <path id="Path_231351" data-name="Path 231351" d="M434.173,611.471q.268,59.174.532,118.461.035,7.228.064,14.459c-.216.178-.5.094-.814-.084-.352-.2-.7-.4-1.057-.6Q334.273,687.023,234.731,629.8c-.637-.368-1.339-.5-1.9-1.476q-.142-66.565-.286-132.992c0-.248,0-.493.007-.737.205-.146.462-.089.757.077.357.2.712.4,1.069.609q99.432,57.616,197.949,114.7c.377.218.753.432,1.128.669A1.6,1.6,0,0,1,434.173,611.471Z" transform="translate(-222.554 -468.405)" fill="#202640"/>
    <path id="Path_231352" data-name="Path 231352" d="M369.508,676.89,234.691,599.569c-1.548-.887-1.928-1.566-1.932-3.462q-.016-7.838-.034-15.675c0-1.682.35-1.921,1.7-1.148L503.339,733.7a2.96,2.96,0,0,1,1.675,3q.046,7.919.084,15.834c.009,1.689-.352,1.921-1.73,1.13Z" transform="translate(-222.411 -402.162)" fill="#272d47"/>
    <path id="Path_231353" data-name="Path 231353" d="M434.18,615.268c-.375-.228-.752-.466-1.128-.684Q333.839,557.094,233.7,499.072c-.38-.221-.762-.455-1.144-.684-.009-2.482-.023-4.965-.023-7.441,0-1.328.421-1.573,1.535-.944.2.114.407.236.611.353q134.593,78.03,267.511,155.092c.2.116.4.229.6.348a2.76,2.76,0,0,1,1.523,2.7c.02,2.464.021,4.917.032,7.375-.171.17-.418.068-.669-.055a6.3,6.3,0,0,1-1.194-.612q-32.556-18.861-65.209-37.784a8.032,8.032,0,0,1-1.2-.769,1.823,1.823,0,0,1-.7-.691Z" transform="translate(-222.561 -472.202)" fill="#266cd4"/>
    <path id="Path_231354" data-name="Path 231354" d="M434.653,686.844q.016,4.081.036,8.162c-.216.177-.5.093-.814-.084-.4-.227-.805-.453-1.207-.685q-91.433-52.517-183.649-105.493a7.528,7.528,0,0,1-1.891-1.234,4.962,4.962,0,0,1-.637-3.649c-.364.1-.436.445-.725.359a.749.749,0,0,1-.214-.084c-.241-.123-.414-.445-.744-.734.209.428.357.894.073.846-.741-.123-.709.555-.641,1.314-.193.157-.393.009-.595-.329a4.291,4.291,0,0,1-.207-1.719c-.018-.589-.161-1.084-.7-1.269-.343-.118-.473-.539-.707-.789-.841.6-.9.707-1.139,2.2-.264.186-.544.029-.837-.427a1.376,1.376,0,0,0-.589-.905,1,1,0,0,1-.395-.814c.018-.288.212-.257.421-.2s.571.446.6,0a1.124,1.124,0,0,0-.43-.814c-.33-.277-.6-.264-.728.054-.112.271-.166.636-.557.437-.323-.479-.636-.964-.984-1.423-.586-.771-.532-1.2.111-1.253-.5-.241-.584-.248-.643.036a1.2,1.2,0,0,0,.355,1.112,3.637,3.637,0,0,1,.505.7,1.173,1.173,0,0,1,.191.868.291.291,0,0,1-.512.157c-.478-.386-.594-.02-.793.2a8.31,8.31,0,0,1-3.878-2.392l-.018-8.023c.348-.287.834.052,1.282.311,7.973,4.617,15.941,9.175,23.9,13.752q11.863,6.818,23.714,13.613,13.443,7.712,26.87,15.441,11.52,6.62,23.025,13.234,11.274,6.491,22.534,12.961,9.322,5.361,18.637,10.7,10.107,5.808,20.2,11.617c4.586,2.64,9.171,5.258,13.754,7.9,6.318,3.64,12.633,7.25,18.946,10.9q3.846,2.225,7.691,4.413A3.3,3.3,0,0,1,434.653,686.844Z" transform="translate(-222.425 -408.445)" fill="#1b2037"/>
    <path id="Path_231355" data-name="Path 231355" d="M245.563,580.371c.037.02.075.039.112.062a1.215,1.215,0,0,1,.609,1.116,2.847,2.847,0,0,0,.666,1.873,2.643,2.643,0,0,0,1.114.8q65.358,37.553,130.317,74.862l56.308,32.344c-.075.88.184,1.978-.136,2.7a4.67,4.67,0,0,1-1.637-.736L349.3,645.37q-57.265-32.888-114.835-65.954a5.076,5.076,0,0,1-1.582-1.112,11.581,11.581,0,0,1-.155-2.887c1.059.609,2.117,1.221,3.176,1.821.271.155.559.4.8.3.087-.162.252-.184.423-.041a.791.791,0,0,0,1.225-.027c.073.021.184.029.218.093a11.274,11.274,0,0,0,1.5,1.894c.248.4.5.525.764.468a2.972,2.972,0,0,0,.17-1.075c.027-.355.089-.743.471-.57.418.189.477.627.505,1.036a.686.686,0,0,0,.079.287c.137-.084.048-.336.08-.489.084-.4.289-.564.682-.323a1.456,1.456,0,0,1,.571,1.075c.1.546-.127,1.014.332,1.644.137.313.295.428.473.341a2.709,2.709,0,0,0,1.18-1.305A.278.278,0,0,1,245.563,580.371Z" transform="translate(-222.426 -404.868)" fill="#1d233c"/>
    <path id="Path_231356" data-name="Path 231356" d="M434.656,687.943c-1.543-.7-3.089-1.728-4.633-2.587-2.189-1.218-4.379-2.508-6.57-3.767q-3.366-1.936-6.734-3.87c-2.167-1.25-4.335-2.507-6.5-3.751-2.246-1.291-4.492-2.567-6.738-3.856q-3.329-1.907-6.659-3.826l-6.672-3.835q-3.331-1.915-6.664-3.829c-2.25-1.3-4.5-2.6-6.752-3.9-2.173-1.25-4.345-2.489-6.52-3.735q-3.38-1.939-6.759-3.883l-6.6-3.792q-3.385-1.947-6.766-3.892c-2.178-1.253-4.354-2.515-6.532-3.765-2.257-1.3-4.515-2.582-6.772-3.876q-3.345-1.917-6.69-3.844l-6.7-3.853q-3.347-1.923-6.695-3.847c-2.262-1.3-4.522-2.616-6.784-3.915-2.183-1.255-4.367-2.5-6.55-3.753q-3.4-1.947-6.791-3.9-3.315-1.9-6.632-3.81l-6.8-3.911q-3.281-1.888-6.563-3.781-3.4-1.952-6.8-3.894-3.361-1.928-6.722-3.862-3.4-1.963-6.809-3.928c-2.191-1.262-4.383-2.514-6.575-3.772l-6.816-3.912c-2.219-1.275-4.438-2.56-6.657-3.824a30,30,0,0,0-3.485-1.9l-.005-2.61L434.643,685.532Z" transform="translate(-222.428 -409.545)" fill="#1d233c"/>
    <path id="Path_231357" data-name="Path 231357" d="M414.53,600.029l.594.293c.005.432.014.868.016,1.3q.383,71.391.766,142.943c0,.279.011.561,0,.832-.045,1.31-.5,1.589-1.585.984-.15-.084-.3-.173-.45-.259l-65.017-37.338c-1.673-.961-2.03-1.6-2.039-3.665q-.324-71.739-.65-143.316c0-.463-.007-.927-.012-1.391l.614.355a2.108,2.108,0,0,1,.312,1.178c.009.559.011,1.112.014,1.667q.319,70.432.641,141.022c.011,2.38.011,2.38,1.953,3.5l63.6,36.523c1.707.982,1.709.98,1.7-1.112q-.378-70.872-.746-141.581C414.233,601.25,414.028,600.349,414.53,600.029Z" transform="translate(-133.338 -416.653)" fill="#272d47"/>
    <path id="Path_231358" data-name="Path 231358" d="M232.8,577.048c.312-.138.686.211,1.032.409Q259.6,592.244,285.3,607.008q74.3,42.671,148.086,85.055a2.355,2.355,0,0,1,1.093.809c-.211.593-.65.6-1.241.211-.125-.08-.252-.145-.379-.218L234.434,578.912A2.571,2.571,0,0,1,232.8,577.048Z" transform="translate(-222.349 -403.612)" fill="#1f2540"/>
    <path id="Path_231359" data-name="Path 231359" d="M278.154,571.609c-.052-20.3,13.4-28.979,29.979-19.362s30.073,33.878,30.107,54.1-13.325,28.927-29.879,19.4C291.76,616.206,278.206,591.917,278.154,571.609Z" transform="translate(-186.737 -426.143)" fill="#e7a900"/>
    <path id="Path_231360" data-name="Path 231360" d="M341.562,561.024c.212-.3.5-.4.923.034a1.644,1.644,0,0,1,.459,1.385c-.062.684.307,1.823-.586,1.66a1.173,1.173,0,0,1-.9-1.232C341.544,562.282,341.437,561.577,341.562,561.024Z" transform="translate(-137.029 -416.374)" fill="#fcfcfd"/>
    <path id="Path_231361" data-name="Path 231361" d="M342.746,563.848c.75.277.578-.718.818-1.2.4,1.235.195,1.643-.846,1.821-.052.389.616.45.409.735-.171.238-.6-.239-.907-.391-.132-.064-.341-.107-.386-.364-.082-.486.418.148.425-.262a3.594,3.594,0,0,1-1.078-2.442c.007-.171-.016-.437.195-.284.188.138.114.368.17.559C341.792,562.786,342.044,563.549,342.746,563.848Z" transform="translate(-137.245 -415.86)" fill="#f2f3f4"/>
    <path id="Path_231362" data-name="Path 231362" d="M342.584,564.248c-.752-.246-1.041-.684-1.2-1.825.262-.357-.068-1.187.234-1.514,0,.491.03.994.007,1.468a1.694,1.694,0,0,0,.789,1.612Z" transform="translate(-137.083 -416.26)" fill="#2e334c"/>
    <path id="Path_231363" data-name="Path 231363" d="M342.451,564.424c-.055.03-.1.075-.159.077-.023,0-.077-.1-.118-.148.043-.037.08-.091.134-.1C342.326,564.245,342.386,564.344,342.451,564.424Z" transform="translate(-136.462 -413.638)" fill="#213e74"/>
    <path id="Path_231364" data-name="Path 231364" d="M343.723,562.8l-.063.105a1.949,1.949,0,0,1-.15-.255c-.013-.027.032-.109.064-.1C343.663,562.581,343.711,562.679,343.723,562.8Z" transform="translate(-135.414 -414.97)" fill="#213d72"/>
    <path id="Path_231365" data-name="Path 231365" d="M325.862,645.711a11.82,11.82,0,0,1-5.12-9.214c.016-3.4,2.1-5.1,5.113-3.365s5.117,5.838,5.16,9.266C331.056,645.854,328.685,647.341,325.862,645.711Z" transform="translate(-153.293 -360.085)" fill="#073376"/>
    <path id="Path_231366" data-name="Path 231366" d="M332.919,649.761c-2.753-1.593-5.065-5.811-5.058-9.23.007-3.458,2.294-4.976,5.06-3.358s5.058,5.783,5.058,9.232C337.98,649.836,335.684,651.359,332.919,649.761Z" transform="translate(-147.702 -356.881)" fill="#be3030"/>
    <path id="Path_231367" data-name="Path 231367" d="M290.307,625.315c-2.828-1.625-5.181-5.852-5.183-9.314,0-3.4,2.319-4.968,5.113-3.342a11.685,11.685,0,0,1,5.213,9.276C295.511,625.415,293.129,626.935,290.307,625.315Z" transform="translate(-181.263 -376.128)" fill="#073376"/>
    <path id="Path_231368" data-name="Path 231368" d="M311.6,637.537a11.838,11.838,0,0,1-5.122-9.228c.021-3.406,2.112-5.093,5.129-3.356s5.122,5.852,5.161,9.28C316.812,637.69,314.434,639.17,311.6,637.537Z" transform="translate(-164.491 -366.512)" fill="#073376"/>
    <path id="Path_231369" data-name="Path 231369" d="M297.348,629.362c-2.731-1.584-5.049-5.77-5.068-9.166-.023-3.515,2.3-5.079,5.1-3.435s5.061,5.791,5.067,9.262C302.449,629.442,300.121,630.968,297.348,629.362Z" transform="translate(-175.644 -372.915)" fill="#266cd4"/>
    <path id="Path_231370" data-name="Path 231370" d="M304.511,633.47c-2.76-1.585-5.076-5.784-5.088-9.225s2.266-5,5.038-3.421c2.8,1.589,5.129,5.82,5.126,9.3C309.583,633.544,307.282,635.062,304.511,633.47Z" transform="translate(-170.034 -369.695)" fill="#073376"/>
    <path id="Path_231371" data-name="Path 231371" d="M318.739,641.627a11.829,11.829,0,0,1-5.124-9.219c.016-3.4,2.1-5.1,5.118-3.365s5.12,5.84,5.163,9.269C323.939,641.771,321.565,643.259,318.739,641.627Z" transform="translate(-158.889 -363.297)" fill="#073376"/>
    <path id="Path_231372" data-name="Path 231372" d="M240.747,589.48c-.346.236-.284.884-.644.723-.487-.218-.334-.932-.75-1.435,0,.341.009.636,0,.919-.007.191.071.518-.2.38s-.227-.4-.23-.6c-.009-.686-.009-1.369,0-2.049,0-.17-.048-.418.168-.345a.746.746,0,0,1,.416.543c.168.544.343,1.091.557,1.766.2-.409.371-.75.539-1.089.079-.157.162-.3.389-.132.282.205.195.425.2.618.012.657.012,1.309.005,1.955,0,.193.073.523-.2.387s-.23-.391-.236-.6C240.744,590.222,240.749,589.924,240.747,589.48Z" transform="translate(-217.555 -395.722)" fill="#ccd2dd"/>
    <path id="Path_231373" data-name="Path 231373" d="M243.977,591.316c0-.248-.02-.511,0-.741s-.13-.685.211-.566c.309.109.282.418.316.671a.562.562,0,0,0,.27.391,2.613,2.613,0,0,1,.771,2.489c-.054.095-.129.1-.237.041a.535.535,0,0,1-.259-.507c0-.343,0-.682-.011-1.028-.007-.182,0-.412-.212-.528-.161-.086-.284,0-.3.189-.027.355-.029.725-.039,1.089-.005.227-.1.273-.289.148a.491.491,0,0,1-.216-.436c0-.4,0-.805,0-1.209Z" transform="translate(-213.584 -393.425)" fill="#c1c7d4"/>
    <path id="Path_231374" data-name="Path 231374" d="M249.278,594.169c.287-.155.3-.757.871-.475a1.567,1.567,0,0,1,.977,1.355c.093.709.059,1.276-.605,1.066a1.667,1.667,0,0,1-.3-.168c-.286-.172-.212.857-.648.025a2.963,2.963,0,0,1-.075-1.117.587.587,0,0,0-.216-.446A.235.235,0,0,1,249.278,594.169Z" transform="translate(-209.437 -390.573)" fill="#c6ccd8"/>
    <path id="Path_231375" data-name="Path 231375" d="M237.9,587.833a2.478,2.478,0,0,1,0-.462c.075-.33-.27-1.176.427-.761.505.3,1.087.5,1.2,1.443.082.7-.136,1.035-.734.691-.434-.25-.323.179-.332.455s-.03.489-.327.282c-.264-.184-.227-.411-.23-.621C237.9,588.515,237.9,588.176,237.9,587.833Z" transform="translate(-218.361 -396.166)" fill="#c9cfdb"/>
    <path id="Path_231376" data-name="Path 231376" d="M243.5,592.491c-.684.03-.553-.577-.555-1.1,0-.559-.005-1.119,0-1.673,0-.173-.027-.412.191-.311.277.127.254.366.257.582a.427.427,0,0,0,.284.487,1.676,1.676,0,0,1,.921,1.707C244.531,592.862,244.261,593.161,243.5,592.491Z" transform="translate(-214.395 -393.899)" fill="#ccd2de"/>
    <path id="Path_231377" data-name="Path 231377" d="M249.388,594.221a1.538,1.538,0,0,1-.005.457c-.109.257.332,1.119-.343.761a1.872,1.872,0,0,1-1.28-1.685c-.037-.644.086-1.164.725-.841.287.145.493.264.461-.2-.012-.187.095-.22.243-.129a.45.45,0,0,1,.191.43c.007.405.005.805.005,1.207Z" transform="translate(-210.61 -391.427)" fill="#ccd2dd"/>
    <path id="Path_231378" data-name="Path 231378" d="M236.868,587.237c.214-.145.669.246.605-.3-.059-.493-.355-.53-.605-.625a.364.364,0,0,1-.246-.379c.009-.089.114-.111.18-.155.014-.011.046.007.071.018.359.159.855.35.943.873a5.442,5.442,0,0,1,.1,2.3c-.143.441-.632.041-1.012-.225a.665.665,0,0,1-.273-.43c-.023-.162.075-.2.177-.148.248.125.593.641.684.15S237.05,587.687,236.868,587.237Z" transform="translate(-219.353 -396.731)" fill="#c8ceda"/>
    <path id="Path_231379" data-name="Path 231379" d="M251.292,595c-.236-.527-.539-.152-.714-.614-.027-.075-.005-.229.03-.23a1.306,1.306,0,0,1,.886.453,2.946,2.946,0,0,1,.318,2.13c-.275.289-.748-.168-1.1-.475-.386-.332-.362-1.114,0-1.216C250.885,595,251.156,595.227,251.292,595Z" transform="translate(-208.507 -390.15)" fill="#c7cdd9"/>
    <path id="Path_231380" data-name="Path 231380" d="M237.053,585.978c-.107.2-.241.1-.362.055-.193-.068-.478-.434-.516.013-.034.4.193.487.418.693a1.414,1.414,0,0,1,.45,1.6c-.186.537-.653.191-1.091-.209a.485.485,0,0,1-.191-.446c.05-.173.191-.041.312.064.309.27.587.423.569-.1-.016-.455-.2-.673-.566-.727-.284-.043-.38-.443-.3-.62.134-.307-.245-1.151.311-.977A1.9,1.9,0,0,1,237.053,585.978Z" transform="translate(-220.038 -397.106)" fill="#cbd1dc"/>
    <path id="Path_231381" data-name="Path 231381" d="M235.6,586.454c0,.4,0,.8,0,1.2,0,.223-.095.28-.282.161a.556.556,0,0,1-.234-.425c-.121-.8.232-1.409-.343-2.408-.123-.216.234-.273.45-.213a.54.54,0,0,1,.407.578c0,.368,0,.739,0,1.109Z" transform="translate(-220.85 -397.542)" fill="#bbc1ce"/>
    <path id="Path_231382" data-name="Path 231382" d="M246.327,593.278c-.216.123-.321.584-.787-.014.439-.336.546-.9.039-1.907.514.507,1,1.121,1.507.816-.419.5-.457,1.119.062,2C246.665,594.267,246.579,593.617,246.327,593.278Z" transform="translate(-212.348 -392.351)" fill="#cbd1dd"/>
    <path id="Path_231383" data-name="Path 231383" d="M251.8,595.237c-.02.277.184.411.3.536a1.278,1.278,0,0,1,.416,1.2c-.127.455-.509.112-.83-.087-.15-.093-.346-.239-.321-.468.043-.357.254.005.407.114a3.06,3.06,0,0,0,.286.168c.057-.471-.307-.639-.477-.914-.275-.452-.362-.828-.123-1.034s.595.088.914.395a.449.449,0,0,1,.068.27.115.115,0,0,1-.164.043C252.111,595.339,251.939,595.1,251.8,595.237Z" transform="translate(-207.809 -389.745)" fill="#c9cfda"/>
    <path id="Path_231384" data-name="Path 231384" d="M243.433,590.156l-.653,1.052c.125.423.525.284.63.812-.312-.014-.637-.3-.946-.454-.405-.2-.425-.439-.252-.7a1.733,1.733,0,0,1,.193-.289c.295-.266.368-.571-.22-1.139Z" transform="translate(-215.043 -393.856)" fill="#cbd0dc"/>
    <path id="Path_231385" data-name="Path 231385" d="M247.42,594.4a1.821,1.821,0,0,1-.925-1.727c.052-.625.3-.939.921-.516.146.1.33.2.337.457.009.314-.154.093-.3-.005-.446-.3-.453.1-.455.482a.881.881,0,0,0,.457.914c.127.061.312-.011.314.325C247.768,594.684,247.511,594.38,247.42,594.4Z" transform="translate(-211.602 -391.873)" fill="#c5cbd7"/>
    <path id="Path_231386" data-name="Path 231386" d="M241.473,590.107c0,.432.005.866,0,1.294,0,.148-.007.32-.18.23a.447.447,0,0,1-.218-.425q-.008-1.344-.005-2.683c0-.173.066-.262.225-.155a.462.462,0,0,1,.171.441C241.477,589.245,241.473,589.675,241.473,590.107Z" transform="translate(-215.858 -394.734)" fill="#d3d9e4"/>
    <path id="Path_231387" data-name="Path 231387" d="M247.166,594.6c.623-.223.318-1.085.4-1.635.03-.2-.105-.62.2-.475.4.189.232.507.246.739.027.443.018.87.005,1.291C248,595.118,247.748,595.166,247.166,594.6Z" transform="translate(-211.071 -391.486)" fill="#cbd1dd"/>
    <path id="Path_231388" data-name="Path 231388" d="M245,591.582c.277-.121.553.041.955.512C245.567,592.159,245.283,591.889,245,591.582Z" transform="translate(-212.771 -392.204)" fill="#cbd1dd"/>
    <path id="Path_231389" data-name="Path 231389" d="M249.632,594.1l0,.239a1.312,1.312,0,0,1-.839-.578C249.072,593.584,249.359,593.893,249.632,594.1Z" transform="translate(-209.792 -390.504)" fill="#d3d9e4"/>
    <path id="Path_231390" data-name="Path 231390" d="M235.553,586.939a.414.414,0,0,1-.232-.4c.007-.179.095-.211.243-.12a.4.4,0,0,1,.184.334C235.766,586.946,235.714,587.029,235.553,586.939Z" transform="translate(-220.373 -396.265)" fill="#d3d9e4"/>
    <path id="Path_231391" data-name="Path 231391" d="M235.747,585.845c-.009.173-.075.236-.234.121a.457.457,0,0,1-.193-.429c.005-.161.1-.128.2-.084A.382.382,0,0,1,235.747,585.845Z" transform="translate(-220.374 -397.015)" fill="#d3d9e4"/>
    <path id="Path_231392" data-name="Path 231392" d="M247.838,592.3c-.007.172-.08.232-.225.138a.46.46,0,0,1-.223-.405c0-.15.093-.134.193-.087A.384.384,0,0,1,247.838,592.3Z" transform="translate(-210.895 -391.911)" fill="#afb5c3"/>
    <path id="Path_231393" data-name="Path 231393" d="M414.26,599.873q.177,32.9.357,65.829.209,39.328.419,78.7c.009,1.612-.023,1.634-1.346.873q-32.537-18.684-65.172-37.429c-1.328-.762-1.36-.821-1.368-2.435q-.329-72.023-.655-143.882c0-.307,0-.614,0-.921.25.136.5.262.752.407q33.182,19.225,66.263,38.395C413.76,599.555,414.01,599.719,414.26,599.873Z" transform="translate(-133.068 -416.497)" fill="#14192e"/>
    <path id="Path_231394" data-name="Path 231394" d="M237.353,495.968c.248-.512.436-.9.619-1.285.1-.2.187-.395.489-.162.325.25.216.491.22.705.014.844.009,1.676.011,2.512,0,.221,0,.441-.266.28s-.259-.368-.279-.6a3.5,3.5,0,0,0-.082-1.13c-.719.848-.719.848-1.532-1.144,0,.559,0,.977,0,1.4,0,.266-.08.361-.316.2a.565.565,0,0,1-.243-.521c0-.9-.007-1.8-.005-2.7,0-.175-.025-.4.186-.329a.829.829,0,0,1,.505.58C236.879,494.446,237.087,495.121,237.353,495.968Z" transform="translate(-219.861 -469.448)" fill="#f7f9fd"/>
    <path id="Path_231395" data-name="Path 231395" d="M241.486,496.244c1.112.661,1.221.877,1.06,2.071a.926.926,0,0,0,.1.464c.243.657.223,1.169-.148,1.327-.471.2-1.066-.377-1.609-.723-.161-.1-.12-.375-.121-.553-.005-.68.045-1.334-.018-2.037C240.668,495.919,240.9,495.737,241.486,496.244Z" transform="translate(-216.124 -467.261)" fill="#f8fafd"/>
    <path id="Path_231396" data-name="Path 231396" d="M293.441,527.973c.148-.323.286-.635.432-.937.066-.134.157-.221.343-.087.229.166.188.357.189.528.009.62.014,1.239.005,1.848,0,.184.084.535-.205.357-.268-.166-.2-.409-.214-.614-.011-.187,0-.368,0-.6-.373-.132-.237.682-.65.334-.341-.289-.264-.775-.516-1.162-.152.161-.043.5-.073.73-.025.184.048.518-.223.339s-.2-.42-.2-.62c-.011-.591-.011-1.177-.005-1.757,0-.2-.059-.487.214-.361.225.1.291.336.378.582A4.972,4.972,0,0,0,293.441,527.973Z" transform="translate(-175.617 -443.721)" fill="#f3f7fc"/>
    <path id="Path_231397" data-name="Path 231397" d="M234.979,496.2a2.443,2.443,0,0,1-.873-.562,6.164,6.164,0,0,0,.491-4.051,10.383,10.383,0,0,1,1,2.194,1.253,1.253,0,0,1,.32.762,5.218,5.218,0,0,0-.1,1.071C235.8,496.261,235.424,496.3,234.979,496.2Z" transform="translate(-221.327 -470.696)" fill="#fafbfd"/>
    <path id="Path_231398" data-name="Path 231398" d="M308.136,536.642c-.177.843-.536,1.032-1.346.294-.939-.853-.22-1.471-.407-2.251-.086-.364-.1-.778.4-.518a2.21,2.21,0,0,1,1.355,1.907C308.24,536.325,308.272,536.532,308.136,536.642Z" transform="translate(-164.638 -437.325)" fill="#f0f4fb"/>
    <path id="Path_231399" data-name="Path 231399" d="M239.037,497.305c.034.02.261-.03.293.341.025.3-.193.212-.368.137a1.874,1.874,0,0,1-1.173-1.257c-.2-.67-.205-1.269.132-1.584.255-.236.619-.077.971.259a2.112,2.112,0,0,1,.58,1.341c.066.63-.334.166-.568.107-.207-.052-.595-.58-.593-.082C238.316,496.971,238.657,497.125,239.037,497.305Z" transform="translate(-218.542 -468.151)" fill="#f5f8fc"/>
    <path id="Path_231400" data-name="Path 231400" d="M238.781,496.369c-.009-.621.17-1,.7-.85a1.569,1.569,0,0,1,.969,1.069c.295.809.155.985-.453.7-.2-.1-.6-.6-.58-.071.014.409.352.555.609.668.162.07.389.052.409.412.016.289-.207.184-.38.121A2.041,2.041,0,0,1,238.781,496.369Z" transform="translate(-217.656 -467.636)" fill="#f5f8fc"/>
    <path id="Path_231401" data-name="Path 231401" d="M245.05,500.8c.157.075.386,0,.434.369s-.2.252-.405.161a1.881,1.881,0,0,1-1.132-1.171c-.25-.734-.232-1.339.121-1.664.275-.254.668-.046,1.043.348a1.951,1.951,0,0,1,.489,1.353c.005.52-.37.032-.577,0s-.591-.577-.609-.154A.827.827,0,0,0,245.05,500.8Z" transform="translate(-213.731 -465.361)" fill="#f5f8fc"/>
    <path id="Path_231402" data-name="Path 231402" d="M244.465,499.644c0,1.148-.2,1.309-.966.832a1.554,1.554,0,0,1-.775-1.034,3.988,3.988,0,0,1-.005-1.721c.034-.139.212,0,.336.1a.5.5,0,0,1,.175.446c.007.343.005.68.009,1.019a.722.722,0,0,0,.336.684c.286.179.325-.029.33-.287s0-.552,0-.827-.021-.6.329-.366c.332.223.2.466.223.693A3.653,3.653,0,0,1,244.465,499.644Z" transform="translate(-214.635 -465.927)" fill="#f3f7fc"/>
    <path id="Path_231403" data-name="Path 231403" d="M318.408,542.344c0,.182.009.311,0,.427-.016.186.066.511-.2.382s-.227-.386-.236-.591,0-.428-.009-.65c-.011-.205.041-.482-.207-.609-.184-.093-.237.145-.243.37a.5.5,0,0,1,0,.091c-.105.259.241,1.109-.239.8-.38-.246-.121-.739-.2-1.139-.039-.209.08-.455-.171-.618s-.275.129-.3.362c0,.029,0,.066,0,.089-.073.278.18.871-.189.848-.177-.011-.282-.33-.234-.479.136-.409-.37-1.358.307-1.316a4.118,4.118,0,0,1,1.512.759C318.52,541.367,318.366,541.949,318.408,542.344Z" transform="translate(-156.917 -432.439)" fill="#f4f7fc"/>
    <path id="Path_231404" data-name="Path 231404" d="M305.832,533.859c-.407.13-.148.8-.195,1.223-.071.63-.123,1.233-.882.75a1.709,1.709,0,0,1-.741-1.723c.005-.364,0-.735,0-1.1,0-.182,0-.384.221-.248a.537.537,0,0,1,.225.518q.011.742.011,1.476a.76.76,0,0,0,.35.687c.207.114.273-.071.275-.3a9.1,9.1,0,0,0,0-1.011c-.079-.777.134-.953.739-.4l.046.095Z" transform="translate(-166.429 -438.401)" fill="#f2f6fc"/>
    <path id="Path_231405" data-name="Path 231405" d="M303.457,533.543c-.029.316.077.787-.089,1.064s-.457.164-.778-.039a1.458,1.458,0,0,1-.657-1,8.675,8.675,0,0,1-.089-1.785c-.007-.236.029-.421.282-.257s.236.393.243.607a2.386,2.386,0,0,0,.009.464c.114.539-.293,1.178.33,1.546.546.323.211-.727.293-1.144a3.95,3.95,0,0,0,.005-.546c0-.178-.009-.393.2-.291.286.136.237.373.245.58C303.461,532.993,303.455,533.236,303.457,533.543Z" transform="translate(-168.136 -439.383)" fill="#f2f6fc"/>
    <path id="Path_231406" data-name="Path 231406" d="M321.749,543.861c-.039.277-.08.553-.12.83-.068.482-.293.643-.748.377a1.6,1.6,0,0,1-.709-1.2,3.823,3.823,0,0,1-.023-1.1c.061-.432.225-.748.7-.5a1.55,1.55,0,0,1,.78,1.232,2.493,2.493,0,0,0,.132.382Z" transform="translate(-153.781 -430.965)" fill="#f1f5fb"/>
    <path id="Path_231407" data-name="Path 231407" d="M321.39,543.672c.225-.038.123-.432.261-.58.229-.25.541-.171.857.17a2.291,2.291,0,0,1,.536,1.789c-.013.528-.079,1.023-.6.878a1.216,1.216,0,0,1-.812-.918,3.276,3.276,0,0,1-.234-1.351Z" transform="translate(-152.793 -430.368)" fill="#f1f5fb"/>
    <path id="Path_231408" data-name="Path 231408" d="M325.862,546.986c-.334-.023-.061.705-.393.648-.411-.071-.318-.493-.389-.791a.567.567,0,0,0-.109-.175c-.2-.25-.677-.178-.6-.7a1.719,1.719,0,0,1,.671-1.221c.168-.109.537.041.591.632A3.249,3.249,0,0,0,325.862,546.986Z" transform="translate(-150.449 -428.98)" fill="#f1f5fc"/>
    <path id="Path_231409" data-name="Path 231409" d="M320.706,543.543c-.025.644.016,1.407-.746.984a1.763,1.763,0,0,1-.775-1.737c-.021-1.053.218-1.38.777-1.014A1.9,1.9,0,0,1,320.706,543.543Z" transform="translate(-154.517 -431.4)" fill="#f5f8fc"/>
    <path id="Path_231410" data-name="Path 231410" d="M297.186,529.728c.034-.569.321-.639.762-.266a1.513,1.513,0,0,1,.727,1.38c-.063,1.475-.146,1.626-1.134.841-.009-.441.38.1.48-.12a1.531,1.531,0,0,1-.836-1.275C297.059,530.028,297.058,529.84,297.186,529.728Z" transform="translate(-171.866 -441.138)" fill="#eef3fb"/>
    <path id="Path_231411" data-name="Path 231411" d="M309.395,536.765c.091-.548.371-.575.862-.166a1.548,1.548,0,0,1,.634,1.4c-.039,1.4-.145,1.521-1.123.757-.009-.45.375.08.5-.139a1.509,1.509,0,0,1-.869-1.25C309.256,537.088,309.256,536.886,309.395,536.765Z" transform="translate(-162.285 -435.571)" fill="#eef3fb"/>
    <path id="Path_231412" data-name="Path 231412" d="M240.353,495.567a.449.449,0,0,1,.225.323c.068.423-.1.834.418,1.273.073.063-.023.166-.118.18-.525.086-.262.8-.152,1.344.034.173.411.421.277.668-.039.073-.273-.059-.42-.141a.977.977,0,0,1-.5-.746,4.215,4.215,0,0,0-.066-1.219c-.33-.777.093-.964.064-1.485C240.07,495.558,240.155,495.449,240.353,495.567Z" transform="translate(-216.784 -467.611)" fill="#f1f5fb"/>
    <path id="Path_231413" data-name="Path 231413" d="M305.1,533.415q0-.064,0-.134c.521.057.486.755.8,1.152.3.055.246-.793.875-.134-.6.507-.75,1.307.084,2.589-.659-.016-.678-.718-.925-1.13-.393-.193-.337.8-1,.036C305.632,535.429,305.605,534.572,305.1,533.415Z" transform="translate(-165.701 -437.957)" fill="#f5f8fc"/>
    <path id="Path_231414" data-name="Path 231414" d="M298.966,531.027c.218-.125.1-.736.466-.514.395.239.271.737.495,1.135a1.815,1.815,0,0,1,.091-.291c.091-.17.088-.6.412-.254.307.325-.007.4-.009.614a.694.694,0,0,1-.107.277c-.109.248-.039.828-.437.566-.378-.25-.246-.739-.4-1.123-.034.012-.07.021-.1.038-.214.105-.009.9-.546.471a6.807,6.807,0,0,1-.466-1.957c.114-.118.282,0,.373.221A7.253,7.253,0,0,1,298.966,531.027Z" transform="translate(-170.877 -440.578)" fill="#f2f6fc"/>
    <path id="Path_231415" data-name="Path 231415" d="M312.573,538.448c.127-.536.453-.316.875.029a1.182,1.182,0,0,1,.493,1.169c-.02.2,0,.43,0,.645-.013.946-.177.985-1.043.235.064-.311.353.068.527-.027-.337-.336-.793-.495-.848-1.13C312.307,538.906,312.368,538.635,312.573,538.448Z" transform="translate(-159.847 -434.153)" fill="#f4f7fc"/>
    <path id="Path_231416" data-name="Path 231416" d="M300.631,532.024c0-.246-.016-.5,0-.737.016-.211-.1-.611.2-.479.257.116.221.389.248.607a.39.39,0,0,0,.187.334c1.148.639.591,1.393.721,2.094.029.15.011.327-.166.237a.5.5,0,0,1-.261-.5c0-.25.009-.489-.011-.746-.018-.2.084-.454-.175-.614s-.3.091-.3.357c0,.246,0,.493,0,.737,0,.157-.021.3-.189.22a.48.48,0,0,1-.248-.493C300.633,532.7,300.633,532.365,300.631,532.024Z" transform="translate(-169.093 -439.919)" fill="#f1f5fc"/>
    <path id="Path_231417" data-name="Path 231417" d="M234.595,495.388c.214-.221.6-.2.6-.721.116-.309.091-.741.227-1.032a3.683,3.683,0,0,1,0-.687c.03-.137-.064-.448.205-.255a9.617,9.617,0,0,1,.495,2.59c.057.816-.157,1.076-.846.539A7.913,7.913,0,0,0,234.595,495.388Z" transform="translate(-220.943 -469.879)" fill="#f9fbfd"/>
    <path id="Path_231418" data-name="Path 231418" d="M313.237,538.815l0,.921c-.434.45-.632.378-.7-.257a5.206,5.206,0,0,0-.107-1.282c-.546-.1-.348.575-.391.987-.018.166.018.4-.205.279s-.214-.312-.241-.516c-.153-1.159.141-1.48.836-1.189C312.9,537.957,312.826,538.7,313.237,538.815Z" transform="translate(-160.51 -434.52)" fill="#e7eefa"/>
    <path id="Path_231419" data-name="Path 231419" d="M297.874,530.091v.561c-.17-.062-.161.109-.162.255-.005.2-.032.357-.237.239-.232-.13-.177-.325-.214-.512-.091-.455.228-1-.259-1.3-.382-.236-.184.609-.232.982-.027.211-.03.428-.286.253-.207-.141-.2-.336-.225-.534-.145-1.146.052-1.409.709-1.212C297.537,529,297.555,529.7,297.874,530.091Z" transform="translate(-172.554 -441.501)" fill="#e7eefa"/>
    <path id="Path_231420" data-name="Path 231420" d="M307.327,535.768l0-.568c.116.178.175.3.348.2.527-.3.864-.011,1.248.986l.218-.307c.179.346.18.589,0,.728-.352.054-.761-.277-1.152-.437.046.43.209.687.516.771.116.03.255.012.3.253.045.269-.116.234-.271.164a1.551,1.551,0,0,1-.971-1.153C307.507,536.207,307.578,535.959,307.327,535.768Z" transform="translate(-163.829 -436.45)" fill="#eaf1fa"/>
    <path id="Path_231421" data-name="Path 231421" d="M242.062,497.965c.161-.234-.361-1.43.309-1.03.541.325.152.944.254,1.46.116.578-.225,1.025.35,1.75.137.171.068.38-.139.293a1.2,1.2,0,0,1-.764-1.071C242.037,498.922,242.062,498.5,242.062,497.965Z" transform="translate(-215.113 -466.563)" fill="#eef3fb"/>
    <path id="Path_231422" data-name="Path 231422" d="M323.6,544.066c-.13.187-.261.093-.382.032-.168-.084-.361-.243-.378.071a.686.686,0,0,0,.321.652,1.32,1.32,0,0,1,.461,1.4c-.118.489-.477.266-.837.018-.15-.1-.35-.255-.348-.462,0-.38.22-.066.375.07.277.245.366.087.368-.186,0-.239,0-.557-.318-.612-.566-.1-.441-.532-.42-.844.025-.352-.2-1.055.409-.693A2.089,2.089,0,0,1,323.6,544.066Z" transform="translate(-151.978 -430.002)" fill="#e8effa"/>
    <path id="Path_231423" data-name="Path 231423" d="M323.643,546.246c.234.08.573.661.693.22s-.325-.7-.534-1.021c.043-.341.595.12.439-.473-.107-.416-.305-.377-.5-.427a.343.343,0,0,1-.214-.307c-.018-.161.066-.211.155-.182a1.443,1.443,0,0,1,.805.532,5.557,5.557,0,0,1,.284,2.374c-.278.464-.718.105-1.164-.35C323.537,546.43,323.553,546.312,323.643,546.246Z" transform="translate(-151.105 -429.502)" fill="#ecf2fb"/>
    <path id="Path_231424" data-name="Path 231424" d="M299.929,531.059c.239.1.441.148.453-.216.005-.187-.054-.518.221-.337.2.13.157.348.2.541.089.448.3.9.03,1.216-.161.193-.043.732.42,1.241-.843-.345-.843-.345-1.046-1.866-.33.205.091,1.048-.268,1.2A2.4,2.4,0,0,1,299.929,531.059Z" transform="translate(-169.767 -440.177)" fill="#e4ecf9"/>
    <path id="Path_231425" data-name="Path 231425" d="M310.311,537.574c-.186-.941.355-.73.848-.477.566.291.5.823.511,1.284a2.6,2.6,0,0,1,0,.457c-.029.187.121.637-.214.421-.3-.191-.175-.464-.221-.705-.077-.387.209-.853-.216-1.1-.368-.216-.227.509-.264.864-.02.2.091.618-.232.405-.305-.2-.177-.468-.205-.7A3.9,3.9,0,0,1,310.311,537.574Z" transform="translate(-161.513 -435.129)" fill="#f1f5fc"/>
    <path id="Path_231426" data-name="Path 231426" d="M315.909,541.49c-.259.432-.686.086-1.037-.339a1.636,1.636,0,0,1-.3-1.489c.084-.389.371-.443.746-.154a1.685,1.685,0,0,1,.586,1.453c-.02.02-.041.041-.059.061-.223,0-.021.205.029.339C315.886,541.407,315.9,541.448,315.909,541.49Z" transform="translate(-158.184 -433.211)" fill="#eff4fb"/>
    <path id="Path_231427" data-name="Path 231427" d="M294.312,529.365a1.582,1.582,0,0,1-.728-1.434c0-.541.143-.891.653-.652a1.263,1.263,0,0,1,.689,1.05c.088.643-.273.273-.521.162-.134-.059-.352-.275-.345,0a.744.744,0,0,0,.373.569c.15.1.455-.073.425.4C294.843,529.727,294.536,529.468,294.312,529.365Z" transform="translate(-174.619 -442.73)" fill="#eef3fb"/>
    <path id="Path_231428" data-name="Path 231428" d="M295.653,529.17a2.334,2.334,0,0,0-.3-.136c-.152-.045-.409-.368-.43-.073a.593.593,0,0,0,.42.589c.136.048.328.009.345.32.02.327-.227.12-.387.05a1.394,1.394,0,0,1-.825-1.068c-.093-.528-.137-1.1.286-1.153.325-.041.675.134.886.773A.719.719,0,0,1,295.653,529.17Z" transform="translate(-173.969 -442.345)" fill="#eff4fb"/>
    <path id="Path_231429" data-name="Path 231429" d="M308.4,536.446l0-.728c.079-.016.157-.086.234-.037.221.136.584.139.611.577.025.412-.411-.33-.521,0,.134.4.573.609.636,1.125.289-.182.014-.775.255-.907a1.643,1.643,0,0,1,.005,1.732c-.13-.075-.084-.477-.312-.373-.073.034-.143.114-.227.086a1.03,1.03,0,0,1-.718-.493c-.232-.534.037-.323.259-.13a1.718,1.718,0,0,0,.3.179C308.93,536.985,308.468,536.823,308.4,536.446Z" transform="translate(-163.087 -436.086)" fill="#eff4fb"/>
    <path id="Path_231430" data-name="Path 231430" d="M313.636,538.268l1.528.885c-.875-.132-.455,1-.543,1.628-.032.243.177.821-.2.63-.4-.205-.211-.568-.239-.844a3.361,3.361,0,0,1,0-.825A1.682,1.682,0,0,0,313.636,538.268Z" transform="translate(-158.873 -434.041)" fill="#f6f9fd"/>
    <path id="Path_231431" data-name="Path 231431" d="M295.11,529.159l-.007-.7c.45.1.316-.636.643-.753-.055.523.6,1.278.152,1.689-.218.2.062.807.47,1.382-1.123-.439-.852-1.237-.971-1.876C295.148,528.764,295.349,529.3,295.11,529.159Z" transform="translate(-173.427 -442.334)" fill="#edf2fb"/>
    <path id="Path_231432" data-name="Path 231432" d="M303.363,533.587c0,.307.009.62,0,.921-.005.195.057.5-.207.373-.287-.137-.232-.387-.234-.584q-.016-.932-.007-1.848c0-.2-.054-.509.232-.312.264.182.2.414.211.616C303.368,533.037,303.361,533.309,303.363,533.587Z" transform="translate(-167.295 -438.904)" fill="#f6f9fd"/>
    <path id="Path_231433" data-name="Path 231433" d="M315.816,540.658c.086,0,.239.041.241-.014.011-.26-.166-.33-.312-.418-.129-.077-.334-.023-.346-.332-.016-.346.239-.093.391-.021a1.033,1.033,0,0,1,.707.853c.02.527.345,1.355-.232,1.414-.141-.162-.341-.243-.393-.527-.029-.171.007-.311-.03-.485S315.739,540.771,315.816,540.658Z" transform="translate(-157.489 -432.903)" fill="#edf2fb"/>
    <path id="Path_231434" data-name="Path 231434" d="M303.585,535.072c-.186-.146-.309-.237-.262-.377q.348-1.036.72-2.046c.014-.037.132.007.2.055a.255.255,0,0,1,.1.321c-.229.634-.452,1.273-.68,1.908A.668.668,0,0,1,303.585,535.072Z" transform="translate(-166.98 -438.464)" fill="#e2ebf9"/>
    <path id="Path_231435" data-name="Path 231435" d="M311.165,538.254c0-.25-.007-.435,0-.616s.057-.325.254-.218a.551.551,0,0,1,.27.5,2.265,2.265,0,0,1,.005.548c-.07.291.237,1.087-.287.762C310.974,538.965,311.251,538.547,311.165,538.254Z" transform="translate(-160.821 -434.736)" fill="#d2e0f6"/>
    <path id="Path_231436" data-name="Path 231436" d="M295.873,529.409a3.314,3.314,0,0,1,0-.429c.034-.184-.116-.634.221-.409.3.2.191.47.216.7a.949.949,0,0,1,0,.275c-.068.282.182,1.009-.207.8C295.651,530.106,296,529.7,295.873,529.409Z" transform="translate(-172.83 -441.703)" fill="#edf2fb"/>
    <path id="Path_231437" data-name="Path 231437" d="M315.939,540.29l.291.523c-.139.068-.191.221-.141.471l.3.487c-.38-.2-.8-.25-1.05-.957v.027c-.12-.262-.137-.462,0-.577l0,.021C315.548,540.33,315.657,540.035,315.939,540.29Z" transform="translate(-157.613 -432.535)" fill="#e4ecf9"/>
    <path id="Path_231438" data-name="Path 231438" d="M300,530.793l.007,1.775C299.572,531.987,299.568,530.875,300,530.793Z" transform="translate(-169.835 -439.911)" fill="#fefefe"/>
    <path id="Path_231439" data-name="Path 231439" d="M309.026,537.848l-.005-1.732.282.127a2.89,2.89,0,0,1,.007,1.807Z" transform="translate(-162.497 -435.731)" fill="#fefefe"/>
    <path id="Path_231440" data-name="Path 231440" d="M309.186,537.994l-.007-1.807c.246.182.1.489.3.682l0,.607C309.233,537.462,309.484,538.067,309.186,537.994Z" transform="translate(-162.373 -435.675)" fill="#98b9eb"/>
    <path id="Path_231441" data-name="Path 231441" d="M323.484,544.869a.539.539,0,0,1-.295-.457c0-.248.152-.2.309-.084a.426.426,0,0,1,.193.423C323.664,544.916,323.56,544.912,323.484,544.869Z" transform="translate(-151.371 -429.356)" fill="#bfd4f2"/>
    <path id="Path_231442" data-name="Path 231442" d="M321.349,544.469a.483.483,0,0,1-.273-.427c.005-.166.087-.229.234-.148a.5.5,0,0,1,.271.484C321.571,544.569,321.442,544.516,321.349,544.469Z" transform="translate(-153.03 -429.65)" fill="#bfd4f2"/>
    <path id="Path_231443" data-name="Path 231443" d="M323.9,545.427l-.032.366a1.584,1.584,0,0,1-.277-.052c-.164-.061-.37-.116-.391-.436-.021-.289.145-.248.341-.107C323.661,545.284,323.781,545.352,323.9,545.427Z" transform="translate(-151.363 -428.683)" fill="#ceddf5"/>
    <path id="Path_231444" data-name="Path 231444" d="M321.673,543.6c-.218.1-.43-.043-.641-.393l.012.025c.216-.362.423-.289.618.38Z" transform="translate(-153.065 -430.311)" fill="#f1f5fb"/>
    <path id="Path_231445" data-name="Path 231445" d="M318.335,542.194a.458.458,0,0,1,.273.412c.011.195-.088.216-.229.125a.389.389,0,0,1-.2-.318C318.174,542.242,318.218,542.148,318.335,542.194Z" transform="translate(-155.306 -430.967)" fill="#dbe7f7"/>
    <path id="Path_231446" data-name="Path 231446" d="M318.4,541.9a.455.455,0,0,1-.227-.407c0-.193.1-.2.237-.1a.392.392,0,0,1,.191.323C318.609,541.89,318.55,541.967,318.4,541.9Z" transform="translate(-155.309 -431.636)" fill="#dbe7f7"/>
    <path id="Path_231447" data-name="Path 231447" d="M311.425,536.9c.048.061.18.18.2.266.043.225-.091.2-.225.118a.379.379,0,0,1-.218-.307C311.168,536.809,311.278,536.855,311.425,536.9Z" transform="translate(-160.803 -435.147)" fill="#cdddf5"/>
    <path id="Path_231448" data-name="Path 231448" d="M309.427,535.945c-.013.152-.112.12-.212.064a.359.359,0,0,1-.23-.375c.013-.061.152-.037.239,0A.344.344,0,0,1,309.427,535.945Z" transform="translate(-162.531 -436.138)" fill="#cdddf5"/>
    <path id="Path_231449" data-name="Path 231449" d="M300.085,530.554c-.037.127-.134.078-.236.018a.3.3,0,0,1-.145-.328c.014-.048.12-.039.184,0A.341.341,0,0,1,300.085,530.554Z" transform="translate(-169.82 -440.368)" fill="#ecf1fa"/>
    <path id="Path_231450" data-name="Path 231450" d="M296.267,528.309c.007.18-.109.128-.2.079a.492.492,0,0,1-.182-.216c-.03-.141.011-.236.146-.159A.409.409,0,0,1,296.267,528.309Z" transform="translate(-172.82 -442.116)" fill="#ecf1fa"/>
    <path id="Path_231451" data-name="Path 231451" d="M235.216,492.878l-.011.709c-.032.086-.066.063-.1-.057l-.159-.664.161-.082C235.155,492.738,235.195,492.767,235.216,492.878Z" transform="translate(-220.67 -469.776)" fill="#92b5e9"/>
    <path id="Path_231452" data-name="Path 231452" d="M235.167,493.135c-.038-.034-.075-.066-.112-.095.011-.211-.145-.577.052-.605.1-.014.168.252.2.411Z" transform="translate(-220.62 -470.033)" fill="#cedef5"/>
    <path id="Path_231453" data-name="Path 231453" d="M236.75,578.181c-.068.6-.411.607-.889.328-.273-.159-.545-.3-.818-.452a.555.555,0,0,1-.146-.693c.129-.236.295.127.45.241.289.216.673.63.791.227s-.279-.723-.557-1.009c-.564-.578-.943-1.2-.675-1.85.171-.421.971-.216,1.473.35.134.15.27.293.2.518s-.171.134-.332-.039a1.072,1.072,0,0,0-.295-.229c-.186-.093-.441-.366-.493-.032a.881.881,0,0,0,.33.719c.409.441.918.825.95,1.575C236.814,577.99,236.818,578.1,236.75,578.181Z" transform="translate(-220.768 -405.391)" fill="#f8f8f9"/>
    <path id="Path_231454" data-name="Path 231454" d="M239.731,580.755a.713.713,0,0,1-.6-.884,7.309,7.309,0,0,0,0-.928c-.005-.245.029-.523-.271-.7-.262-.154-.445-.059-.475.223a7.077,7.077,0,0,0-.014,1.105c.021.482-.157.437-.464.12a12.294,12.294,0,0,1-.013-3.317c.445.164.445.164.509,1.166,1.027.307,1.3.719,1.312,2.017C239.726,579.957,239.727,580.355,239.731,580.755Z" transform="translate(-218.434 -404.117)" fill="#f3f3f4"/>
    <path id="Path_231455" data-name="Path 231455" d="M240.647,578.682c0,.154,0,.305,0,.459,0,1.712,0,1.712-1.366,1.018-.511-1.078-.393-1.569.341-1.457.146.021.425.321.407-.016s-.271-.323-.427-.432c-.177-.121-.453-.073-.457-.491,0-.353.271-.13.462-.048A1.992,1.992,0,0,1,240.647,578.682Z" transform="translate(-217.509 -403.178)" fill="#f4f4f5"/>
    <path id="Path_231456" data-name="Path 231456" d="M235.9,577.228l-.009-.345c.25-.043.18-.445.3-.641.261-.443.841-.355,1.278.236a1.744,1.744,0,0,1,.384,1.346c-.08.409-.416-.064-.636-.137a3.71,3.71,0,0,1-.553-.311.967.967,0,0,0,.762,1.012c.157.046.291.048.359.343s-.146.2-.221.293C236.843,578.823,236.366,578.041,235.9,577.228Z" transform="translate(-219.922 -404.439)" fill="#f3f3f4"/>
    <path id="Path_231457" data-name="Path 231457" d="M241.246,581.645a1.525,1.525,0,0,1-.928-1.734,1.484,1.484,0,0,0-.346-1.255c.32.012.384-.275.377-.662,0-.23.045-.414.295-.254.154.1.286.338.214.409-.33.329.578,1.009.207,1.348-.312.286-.373.827.055,1.505C241.315,581.311,241.414,581.479,241.246,581.645Z" transform="translate(-216.721 -403.091)" fill="#f0f0f2"/>
    <path id="Path_231458" data-name="Path 231458" d="M238.4,576.374l.013,3.317c-.2-.477-.039-.793-.1-1.207-.041-.275.155-.605-.284-.828-.378-.191-.27.275-.287.543a6.637,6.637,0,0,0,0,.821c.02.395-.218.207-.4.15a7,7,0,0,1-.155-2.312c-.018-.214.129-.211.25-.082C238.244,577.643,238.294,576.96,238.4,576.374Z" transform="translate(-218.931 -404.117)" fill="#f1f1f3"/>
    <path id="Path_231459" data-name="Path 231459" d="M299.189,597.683a30.865,30.865,0,0,1-9.1-7.525c-.55-.669-.793-1.13-.5-1.762a23.089,23.089,0,0,0,.975-2.733c.168-.532.295-.671.911.062,3.08,3.671,6.35,6.292,9.762,7.581,2.746,1.037,3.817-1.671,2.1-5.142a13.193,13.193,0,0,0-2.437-3.224c-2.116-2.223-4.329-4.169-6.409-6.488a17.849,17.849,0,0,1-4.7-8.709c-.955-5.283.544-8.8,4.456-8.255,4.4.612,8.816,3.476,13.1,8.291,1.076,1.209,1.044,1.275.634,2.335-.3.773-.618,1.526-.889,2.328-.136.407-.257.471-.686-.043a22.657,22.657,0,0,0-8.528-6.568c-1.45-.625-2.508-.079-2.669,1.26a6.691,6.691,0,0,0,1.953,5.361c1.787,1.871,3.628,3.6,5.431,5.425a30.263,30.263,0,0,1,5.136,6.413,14.889,14.889,0,0,1,2.007,8.343c-.234,4.663-3.035,5.977-6.945,4.747A16.4,16.4,0,0,1,299.189,597.683Z" transform="translate(-177.852 -415.85)" fill="#fefefe"/>
    <path id="Path_231460" data-name="Path 231460" d="M323.913,637.144a1.106,1.106,0,0,1,.512.939c0,.395-.164.552-.5.366a1.064,1.064,0,0,1-.557-1C323.381,637.043,323.59,636.984,323.913,637.144Z" transform="translate(-151.229 -356.459)" fill="#eceff4"/>
    <path id="Path_231461" data-name="Path 231461" d="M323.9,634.958a1.1,1.1,0,0,1,.512.939c0,.394-.164.553-.5.368a1.064,1.064,0,0,1-.555-1C323.371,634.858,323.58,634.8,323.9,634.958Z" transform="translate(-151.235 -358.175)" fill="#eceff4"/>
    <path id="Path_231462" data-name="Path 231462" d="M324.427,637.076c-.029.375-.195.52-.525.327a1.064,1.064,0,0,1-.536-.925c-.011-.461.2-.571.557-.353A1.108,1.108,0,0,1,324.427,637.076Z" transform="translate(-151.232 -357.28)" fill="#eceff4"/>
    <path id="Path_231463" data-name="Path 231463" d="M331.939,639.978a7.3,7.3,0,0,1,2.446,2.442c.166.261.453.587.273.805s-.421.641-.764.327a2.141,2.141,0,0,1-.859-1.489,1.179,1.179,0,0,0-.734-1.251c-.614-.3-1.48-1.33-1.491.171,0,.418-.5.459-.837.32s-.568-.78-.769-1.232c-.17-.378.095-.386.234-.45A2.707,2.707,0,0,1,331.939,639.978Z" transform="translate(-146.691 -354.585)" fill="#fdfbfb"/>
    <path id="Path_231464" data-name="Path 231464" d="M287.656,614.921c.157-.43.437-.609.914-.191a1.868,1.868,0,0,1,.611,1.571c-.016.482,0,.985,0,1.478-.011.438-.166.655-.539.543a1.87,1.87,0,0,1-1.1-2.2A11.236,11.236,0,0,1,287.656,614.921Z" transform="translate(-179.416 -374.182)" fill="#fbfcfc"/>
    <path id="Path_231465" data-name="Path 231465" d="M289.515,617.523a.419.419,0,0,1,.048-.147c.157-.184-.123-1.019.3-.677.312.255.152.775.064,1.091-.161.584-.623.632-1.118.582.062.47.628.454.525.784-.128.416-.566-.127-.864-.266-.2-.091-.516-.134-.577-.548-.064-.439.407.132.484-.2a3.794,3.794,0,0,1-1.144-2.574c.011-.27.023-.489.323-.257a1.008,1.008,0,0,1,.17.58c.13,1.062.384,1.43,1.23,1.8A1.278,1.278,0,0,0,289.515,617.523Z" transform="translate(-179.608 -373.617)" fill="#edf0f5"/>
    <path id="Path_231466" data-name="Path 231466" d="M288.949,618.209c-.982-.155-1.4-.846-1.535-2.521.287-.134.034-.791.291-.955,0,.455,0,.907.009,1.364a1.686,1.686,0,0,0,1.073,1.848C288.953,617.939,288.967,618.061,288.949,618.209Z" transform="translate(-179.465 -373.994)" fill="#18407f"/>
    <path id="Path_231467" data-name="Path 231467" d="M288.345,616.952l-.162-.264.439-.353.146.309C288.706,616.882,288.569,616.989,288.345,616.952Z" transform="translate(-178.861 -372.736)" fill="#2e538b"/>
    <path id="Path_231468" data-name="Path 231468" d="M309.98,626.786a.5.5,0,0,1,.3.332,4.4,4.4,0,0,1,.025,1.421c.186-.325-.212-1.169.28-1.221.4.286.273.595.284.877.018.468.007.921.011,1.562.257-.328.141-.753.166-1.069.014-.18,0-.411.195-.311a.533.533,0,0,1,.216.52c0,.894.018,1.8,0,2.681-.009.37-.125.682-.464.6a2.115,2.115,0,0,1-1.432-1.059c-.332-.566-.623-1.164-.919-1.755-.109-.216-.314-.516-.187-.653.164-.178.357.159.525.38.086.111.17.223.362.478,0-.784-.014-1.485,0-2.169.005-.234-.13-.778.337-.259a.987.987,0,0,1,.13.4c.029-.068.009-.175.043-.236C309.921,627.159,309.809,626.841,309.98,626.786Z" transform="translate(-162.98 -364.529)" fill="#fbfbfc"/>
    <path id="Path_231469" data-name="Path 231469" d="M309.425,626.789l-.1,2.066-.2-.105-.007-1.609C309.259,627.082,309.194,626.725,309.425,626.789Z" transform="translate(-162.424 -364.532)" fill="#466798"/>
    <path id="Path_231470" data-name="Path 231470" d="M309.759,627.172c-.282.362-.016,1.143-.3,1.532l-.007-1.732Z" transform="translate(-162.157 -364.382)" fill="#466798"/>
    <path id="Path_231471" data-name="Path 231471" d="M297.33,622.76c-.025-.862.145-1.418.818-1.428.452-.007.616.227.621.784.005.805,0,1.6-.025,2.394,0,.166-.15.255,0,.5.187.3.371.621.1.721-.218.08-.37-.294-.518-.518q-2.2-3.323-4.394-6.663c-.15-.225-.405-.486-.248-.711.186-.262.4.084.562.362.525.891,1.157.978,1.742,1.334,1.13.691,1.125.659,1.143,2.053A1.865,1.865,0,0,0,297.33,622.76Z" transform="translate(-174.577 -371.625)" fill="#fdfdfe"/>
    <path id="Path_231472" data-name="Path 231472" d="M296.707,623.328c-.823-.471-1.646-.939-2.469-1.418a.983.983,0,0,1-.461-.867c-.016-.739-.009-1.468-.012-2.426l3,4.536Z" transform="translate(-174.477 -370.944)" fill="#f8fafd"/>
    <path id="Path_231473" data-name="Path 231473" d="M303.492,628.362c-.732-.42-1.464-.846-2.2-1.257a1.1,1.1,0,0,1-.591-1.069c.007-1.168.007-2.341-.014-3.526-.011-.569.2-.661.636-.405q2.2,1.275,4.39,2.521a1.115,1.115,0,0,1,.594,1.073c0,1.173,0,2.346.014,3.526.007.555-.191.67-.637.4C304.956,629.188,304.224,628.781,303.492,628.362Z" transform="translate(-169.039 -368.311)" fill="#fefefe"/>
    <path id="Path_231474" data-name="Path 231474" d="M315.3,634.566a22.516,22.516,0,0,1-.12-4.245c.007-.345.212-.464.491-.307q2.266,1.272,4.529,2.592a1.059,1.059,0,0,1,.518.855,22.742,22.742,0,0,1-.075,4.176c.007.005.082.059.155.116.212.17.55.152.521.684-.025.436-.307.143-.509.032-.753-.421-1.509-.861-2.264-1.294-1.057-.607-2.114-1.191-3.171-1.835-.261-.161-.744-.112-.752-.8C314.622,633.884,315.127,634.682,315.3,634.566Z" transform="translate(-158.093 -362.047)" fill="#fefefe"/>
    <path id="Path_231475" data-name="Path 231475" d="M250.342,594.872c-.005.3,0,.678-.343.466s-.318-.577-.318-.88,0-.68.341-.468S250.327,594.565,250.342,594.872Z" transform="translate(-209.096 -390.332)" fill="#2a304a"/>
    <path id="Path_231476" data-name="Path 231476" d="M238.194,587.378c.057-.209-.095-.654.232-.461a.922.922,0,0,1,.414.787c0,.275-.15.384-.368.3C238.117,587.868,238.262,587.58,238.194,587.378Z" transform="translate(-218.117 -395.874)" fill="#323851"/>
    <path id="Path_231477" data-name="Path 231477" d="M243.547,591.671a1.228,1.228,0,0,1-.35-1.027c.037-.287.114-.6.434-.334a1.119,1.119,0,0,1,.32.93C243.929,591.535,243.854,591.787,243.547,591.671Z" transform="translate(-214.197 -393.251)" fill="#343a53"/>
    <path id="Path_231478" data-name="Path 231478" d="M248.721,593.956c.018.348-.052.657-.362.461a.986.986,0,0,1-.328-.912c.007-.291.014-.693.362-.459A.992.992,0,0,1,248.721,593.956Z" transform="translate(-210.394 -391.079)" fill="#2b314b"/>
    <path id="Path_231479" data-name="Path 231479" d="M251.156,595.412c-.025.118-.048.3-.243.2a.447.447,0,0,1-.227-.491c.03-.179.139-.261.3-.175S251.172,595.21,251.156,595.412Z" transform="translate(-208.313 -389.56)" fill="#4f566c"/>
    <path id="Path_231480" data-name="Path 231480" d="M381.8,626.283q-7.019-4.054-14.043-8.109a3.019,3.019,0,0,1-1.668-3.023q-.064-11.879-.118-23.746c-.007-1.442.387-1.692,1.578-1l28.363,16.4a2.925,2.925,0,0,1,1.589,2.864q.067,11.815.127,23.632c.009,1.685-.352,1.916-1.725,1.123Q388.852,630.357,381.8,626.283Z" transform="translate(-117.775 -393.389)" fill="#272d47"/>
    <path id="Path_231481" data-name="Path 231481" d="M381.8,615.153l14.1,8.143a2.966,2.966,0,0,1,1.687,2.985q.064,11.778.125,23.557c.009,1.7-.35,1.946-1.7,1.166q-14.032-8.084-28.081-16.184a3.06,3.06,0,0,1-1.767-3.146q-.062-11.836-.116-23.667c-.007-1.464.38-1.725,1.559-1.044Q374.708,611.054,381.8,615.153Z" transform="translate(-117.71 -380.377)" fill="#272d47"/>
    <path id="Path_231482" data-name="Path 231482" d="M381.787,609.76,367.674,601.6a3.02,3.02,0,0,1-1.668-3.023q-.064-11.868-.118-23.728c-.007-1.444.386-1.693,1.576-1q14.188,8.216,28.354,16.425a2.929,2.929,0,0,1,1.589,2.864q.067,11.807.127,23.614c.009,1.687-.352,1.917-1.723,1.125Z" transform="translate(-117.839 -406.392)" fill="#272d47"/>
    <path id="Path_231483" data-name="Path 231483" d="M372.385,626.244l14.125,8.139a2.966,2.966,0,0,1,1.689,2.989q.061,11.791.121,23.584c.007,1.705-.352,1.948-1.707,1.168q-14.054-8.082-28.125-16.178a3.059,3.059,0,0,1-1.768-3.147q-.059-11.853-.112-23.7c-.007-1.464.38-1.724,1.56-1.046Q365.278,622.148,372.385,626.244Z" transform="translate(-125.128 -371.665)" fill="#272d47"/>
    <path id="Path_231484" data-name="Path 231484" d="M363.389,615.667q-7-4.038-14-8.084a2.969,2.969,0,0,1-1.6-2.885q-.062-11.981-.111-23.951c-.005-1.332.411-1.6,1.5-.966q14.072,8.133,28.127,16.266a2.9,2.9,0,0,1,1.523,2.726q.062,11.919.118,23.839c.007,1.571-.38,1.817-1.648,1.087Z" transform="translate(-132.14 -401.697)" fill="#272d47"/>
    <path id="Path_231485" data-name="Path 231485" d="M363.32,604.484q6.995,4.038,13.986,8.075a2.933,2.933,0,0,1,1.61,2.855q.062,11.882.118,23.762c.007,1.58-.38,1.835-1.637,1.112L349.477,624.2a2.973,2.973,0,0,1-1.612-2.88q-.062-11.989-.111-23.969c-.005-1.341.405-1.612,1.491-.987Q356.285,600.418,363.32,604.484Z" transform="translate(-132.08 -388.672)" fill="#272d47"/>
    <path id="Path_231486" data-name="Path 231486" d="M363.3,599.084q-6.995-4.046-13.995-8.1a2.975,2.975,0,0,1-1.6-2.889q-.062-11.973-.111-23.935c-.005-1.321.416-1.585,1.507-.955q14.067,8.146,28.117,16.291a2.893,2.893,0,0,1,1.517,2.728q.064,11.911.118,23.823c.007,1.568-.38,1.81-1.651,1.076Z" transform="translate(-132.2 -414.711)" fill="#272d47"/>
    <path id="Path_231487" data-name="Path 231487" d="M241.087,497.6c.023-.143-.111-.58.27-.357a1.016,1.016,0,0,1,.557.9c.014.382-.116.495-.432.341C241.112,498.306,241.055,498.021,241.087,497.6Z" transform="translate(-215.851 -466.306)" fill="#276dd4"/>
    <path id="Path_231488" data-name="Path 231488" d="M241.081,496.75c-.023-.321.077-.425.343-.232a.841.841,0,0,1,.414.666c.005.314-.186.295-.4.195A.584.584,0,0,1,241.081,496.75Z" transform="translate(-215.852 -466.903)" fill="#266cd4"/>
    <path id="Path_231489" data-name="Path 231489" d="M235.114,493.192c.036.021.07.041.1.057-.07.348-.052.778-.28.977A1.578,1.578,0,0,1,235.114,493.192Z" transform="translate(-220.681 -469.438)" fill="#b5cdf0"/>
    <path id="Path_231490" data-name="Path 231490" d="M307.439,535.831c.025.371-.02.678-.289.714s-.487-.068-.5-.573a3.381,3.381,0,0,1,.005-.727c.062-.262-.243-.994.239-.723A1.32,1.32,0,0,1,307.439,535.831Z" transform="translate(-164.384 -437.029)" fill="#266cd4"/>
    <path id="Path_231491" data-name="Path 231491" d="M238.623,495.707c.029.3-.139.2-.287.107-.132-.08-.33-.121-.325-.4,0-.2.123-.252.289-.179A.581.581,0,0,1,238.623,495.707Z" transform="translate(-218.26 -467.858)" fill="#3173d6"/>
    <path id="Path_231492" data-name="Path 231492" d="M239.474,495.91a.577.577,0,0,1,.259.514c-.025.254-.212.073-.348,0-.112-.062-.275-.134-.262-.35C239.135,495.831,239.274,495.8,239.474,495.91Z" transform="translate(-217.388 -467.352)" fill="#3173d6"/>
    <path id="Path_231493" data-name="Path 231493" d="M244.081,499.189c.145-.418.27-.586.584-.246.12.129.223.352.157.446C244.654,499.627,244.385,499.193,244.081,499.189Z" transform="translate(-213.494 -465.065)" fill="#2a6ed5"/>
    <path id="Path_231494" data-name="Path 231494" d="M321,543.661c-.016.336.032.9-.25.727-.37-.232-.384-.782-.375-1.178.007-.357,0-.9.37-.634S320.963,543.306,321,543.661Z" transform="translate(-153.583 -430.713)" fill="#2d70d6"/>
    <path id="Path_231495" data-name="Path 231495" d="M322.346,544.429c-.023.35-.018.914-.389.671-.332-.218-.245-.739-.227-1.071.014-.307-.173-.971.266-.709C322.319,543.515,322.332,544.031,322.346,544.429Z" transform="translate(-152.538 -430.12)" fill="#2b6fd5"/>
    <path id="Path_231496" data-name="Path 231496" d="M320.062,543.068c-.023.35.07.969-.35.707-.334-.209-.279-.725-.275-1.077s-.079-.918.3-.7S320.043,542.7,320.062,543.068Z" transform="translate(-154.322 -431.148)" fill="#2e71d6"/>
    <path id="Path_231497" data-name="Path 231497" d="M297.612,529.526a.88.88,0,0,1,.343.737c.013.291.034.7-.307.507-.246-.136-.268-.466-.277-.714C297.36,529.774,297.383,529.521,297.612,529.526Z" transform="translate(-171.647 -440.906)" fill="#3475d7"/>
    <path id="Path_231498" data-name="Path 231498" d="M310.2,537.468c-.08.191-.036.619-.353.37a.926.926,0,0,1-.255-.821c.011-.23.027-.53.289-.359C310.169,536.848,310.131,537.187,310.2,537.468Z" transform="translate(-162.056 -435.345)" fill="#3475d7"/>
    <path id="Path_231499" data-name="Path 231499" d="M313.3,539.326c-.034.216-.023.552-.309.323a.986.986,0,0,1-.32-.83c.02-.273.114-.548.384-.33A.993.993,0,0,1,313.3,539.326Z" transform="translate(-159.633 -433.929)" fill="#2d70d6"/>
    <path id="Path_231500" data-name="Path 231500" d="M307.959,535.951a.364.364,0,0,1-.227-.3c-.011-.136.057-.193.171-.145a.437.437,0,0,1,.214.325C308.172,536.055,308.032,535.953,307.959,535.951Z" transform="translate(-163.51 -436.22)" fill="#3173d6"/>
    <path id="Path_231501" data-name="Path 231501" d="M315.669,540.406l0,.577c-.025-.018-.059-.027-.073-.052-.236-.4-.8-.182-.78-.748C314.835,539.694,315.38,540.368,315.669,540.406Z" transform="translate(-157.946 -432.676)" fill="#296ed5"/>
    <path id="Path_231502" data-name="Path 231502" d="M315.194,539.949c-.034.139-.125.105-.221.037s-.207-.175-.152-.291a.163.163,0,0,1,.209-.055A.368.368,0,0,1,315.194,539.949Z" transform="translate(-157.954 -432.976)" fill="#3173d6"/>
    <path id="Path_231503" data-name="Path 231503" d="M294.249,527.767c.014.166-.079.152-.177.1s-.218-.114-.2-.259a.168.168,0,0,1,.184-.125C294.153,527.492,294.237,527.612,294.249,527.767Z" transform="translate(-174.394 -442.509)" fill="#266cd4"/>
    <path id="Path_231504" data-name="Path 231504" d="M294.7,528.021c.057-.016.125-.078.2-.048a.359.359,0,0,1,.187.313c.007.166-.095.13-.187.078A.368.368,0,0,1,294.7,528.021Z" transform="translate(-173.742 -442.132)" fill="#3173d6"/>
    <path id="Path_231505" data-name="Path 231505" d="M315.844,541.073c-.145-.089-.316-.191-.287-.423.036-.273.212-.232.429-.048A.478.478,0,0,1,315.844,541.073Z" transform="translate(-157.367 -432.324)" fill="#3173d6"/>
    <path id="Path_231506" data-name="Path 231506" d="M239.809,578.854c.041.366-.075.487-.295.412s-.225-.3-.23-.482c-.011-.312.171-.325.37-.264C239.87,578.587,239.766,578.778,239.809,578.854Z" transform="translate(-217.261 -402.453)" fill="#20253c"/>
    <path id="Path_231507" data-name="Path 231507" d="M236.3,576.756c.127-.475.287-.594.593-.221a.893.893,0,0,1,.159.468C236.856,577.19,236.6,576.783,236.3,576.756Z" transform="translate(-219.606 -404.163)" fill="#252a3f"/>
    <path id="Path_231508" data-name="Path 231508" d="M301.734,624.266c0,.259,0,.443,0,.63a.892.892,0,0,0,.271.743c.277.239.427.177.484-.125.029-.152.048-.387.262-.195.261.232.143.43.118.607-.057.437-.361.35-.677.182a1.422,1.422,0,0,1-.857-1.041,4.352,4.352,0,0,1,0-1.928c.132-.486.545-.269.934-.007a1.393,1.393,0,0,1,.634,1.127c.005.125.041.286-.075.275a.293.293,0,0,1-.27-.218c-.118-.38-.12-.9-.559-.961S301.807,623.993,301.734,624.266Z" transform="translate(-168.616 -367.62)" fill="#18417f"/>
    <path id="Path_231509" data-name="Path 231509" d="M302.847,625.052c0,.155,0,.309,0,.462a.846.846,0,0,0,.307.8c.27.2.427.139.453-.191.014-.18.046-.366.264-.169.271.243.148.409.116.589-.091.5-.441.35-.807.139a1.41,1.41,0,0,1-.766-1.128,10.072,10.072,0,0,1,0-1.657c.052-.55.43-.441.839-.205a1.5,1.5,0,0,1,.762,1.146c.023.154.08.362-.086.336a.336.336,0,0,1-.3-.307c-.043-.407-.137-.779-.509-.873-.423-.107-.225.473-.27.78A2,2,0,0,0,302.847,625.052Z" transform="translate(-167.711 -367.107)" fill="#17407e"/>
    <path id="Path_231510" data-name="Path 231510" d="M318.44,633.2l-.971.573c-.511-1.637-1.123-.634-1.671-1.086.077-1.186,1.293-.405,1.657-1.18Z" transform="translate(-157.175 -360.824)" fill="#0d3779"/>
    <path id="Path_231511" data-name="Path 231511" d="M386.079,611.826c.014,5.249-3.478,7.518-7.761,5.042-4.319-2.5-7.836-8.843-7.852-14.17-.018-5.281,3.513-7.53,7.839-5C382.566,600.2,386.065,606.556,386.079,611.826Z" transform="translate(-114.244 -388.186)" fill="#4aab32"/>
    <path id="Path_231512" data-name="Path 231512" d="M384.147,603.768l-2.7-4.11c.289-.168.377.141.475.284.248.354.443.832.678.328.116-.244.57.068.586.391.032.578.532,1.127.475,1.658S384.234,603.175,384.147,603.768Z" transform="translate(-105.619 -385.87)" fill="#ecedef"/>
    <path id="Path_231513" data-name="Path 231513" d="M368.058,606.164c-.248-.127-.5-.236-.745-.382a1.361,1.361,0,0,1-.582-1.041c-.061-.43.068-.741.373-.687a.812.812,0,0,1,.787.76.927.927,0,0,0-.043.086c-.339.091-.254.357.078.725A.707.707,0,0,1,368.058,606.164Z" transform="translate(-117.189 -382.385)" fill="#dedfe3"/>
    <path id="Path_231514" data-name="Path 231514" d="M367.584,605.827l-.154-.425c-.034-.066-.038-.148-.062-.187-.212-.327.364.061.077-.343-.116-.162-.109-.314-.005-.384l-.021-.011c.252.245.559.145.773.623.25.518.262.893-.011,1.1Z" transform="translate(-116.715 -382.048)" fill="#e7e8eb"/>
    <path id="Path_231515" data-name="Path 231515" d="M368.048,604.844c.243.2.532.1.734.584-.021.339.114.8-.136.957-.209-.355.046-.637-.214-.991-.354-.021.143.925-.378.687A1.218,1.218,0,0,1,368.048,604.844Z" transform="translate(-116.272 -381.759)" fill="#fcfcfc"/>
    <path id="Path_231516" data-name="Path 231516" d="M382.829,602.125c-.248-.236-.636,0-.687-.573-.014-.166-.275-.643-.036-.578C382.513,601.082,382.663,601.629,382.829,602.125Z" transform="translate(-105.183 -384.803)" fill="#cfd1d6"/>
    <path id="Path_231517" data-name="Path 231517" d="M368.312,606.128c.034-.328-.086-.775.136-.957C368.567,605.619,368.866,606.206,368.312,606.128Z" transform="translate(-115.938 -381.503)" fill="#fefefe"/>
    <path id="Path_231518" data-name="Path 231518" d="M368.083,604.865l.005,1.237-.152-.088a1.815,1.815,0,0,1-.02-1.1C367.94,604.818,367.985,604.781,368.083,604.865Z" transform="translate(-116.307 -381.78)" fill="#c5c6cd"/>
    <path id="Path_231519" data-name="Path 231519" d="M367.947,604.9l.02,1.1-.164-.086.011-1.1A.2.2,0,0,0,367.947,604.9Z" transform="translate(-116.337 -381.773)" fill="#a2a5b0"/>
    <path id="Path_231520" data-name="Path 231520" d="M370.55,619.291c-.016-5.258,3.476-7.541,7.757-5.074,4.31,2.485,7.848,8.859,7.861,14.163.014,5.26-3.471,7.541-7.754,5.074C374.1,630.967,370.568,624.611,370.55,619.291Z" transform="translate(-114.179 -375.179)" fill="#99aac8"/>
    <path id="Path_231521" data-name="Path 231521" d="M384.339,620.528l-2.773-4.226c.1-.239.187-.154.314.027.277.395.539,1.073.848.478.1-.193.534.155.536.425,0,.573.528,1.128.466,1.659S384.328,619.736,384.339,620.528Z" transform="translate(-105.528 -372.876)" fill="#ecedef"/>
    <path id="Path_231522" data-name="Path 231522" d="M367.97,622.744c-.4-.1-.423-.668-.657-.961-.211.007.054.673-.311.393-.289-.223-.13-.468-.171-.7a.878.878,0,0,1,0-.273c.039-.227-.13-.682.134-.653s.35.446.486.721c.046.095.093.187.139.286.228-.018-.116-.825.373-.452C368.143,621.754,368.38,622.436,367.97,622.744Z" transform="translate(-117.115 -369.428)" fill="#eaebed"/>
    <path id="Path_231523" data-name="Path 231523" d="M367.588,621.149c.257.114.528.087.752.545.25.518.262.893-.011,1.1l-.707-.43C367.4,621.842,367.581,621.544,367.588,621.149Z" transform="translate(-116.566 -368.955)" fill="#e6e7ea"/>
    <path id="Path_231524" data-name="Path 231524" d="M369.092,623.158c-.22-.355.068-.635-.229-.991-.341-.02.157.927-.364.689-.3-.586-.305-1-.007-1.239.245.2.534.1.736.584C369.206,622.54,369.34,623,369.092,623.158Z" transform="translate(-115.968 -368.588)" fill="#fcfcfc"/>
    <path id="Path_231525" data-name="Path 231525" d="M382.907,618.7c-.237-.248-.625-.011-.677-.586-.016-.166-.275-.648-.036-.577C382.584,617.65,382.775,618.163,382.907,618.7Z" transform="translate(-105.114 -371.8)" fill="#cfd1d6"/>
    <path id="Path_231526" data-name="Path 231526" d="M368.073,621.522c.046-.141.1-.293.27-.193s.105.277.146.419a2.464,2.464,0,0,1,.014,1.273l-.171-.095a1.652,1.652,0,0,1-.186-1.141A1.093,1.093,0,0,0,368.073,621.522Z" transform="translate(-116.124 -368.839)" fill="#9da0ac"/>
    <path id="Path_231527" data-name="Path 231527" d="M368.732,622.9c.034-.327-.086-.775.136-.957C368.987,622.392,369.286,622.979,368.732,622.9Z" transform="translate(-115.609 -368.331)" fill="#fefefe"/>
    <path id="Path_231528" data-name="Path 231528" d="M367.632,621.377c.25.534-.095.744.034,1.212l-.2-.089-.009-1.641A.8.8,0,0,1,367.632,621.377Z" transform="translate(-116.609 -369.183)" fill="#666a7d"/>
    <path id="Path_231529" data-name="Path 231529" d="M368.125,621.423c.046.03.091.063.137.095a2.7,2.7,0,0,1-.007,1.23l-.152-.087a1.808,1.808,0,0,1-.02-1.107A.222.222,0,0,1,368.125,621.423Z" transform="translate(-116.176 -368.74)" fill="#c5c6cd"/>
    <path id="Path_231530" data-name="Path 231530" d="M368.146,622.706l.007-1.23c.27.537.095.88.121,1.31l-.064-.021Z" transform="translate(-116.067 -368.699)" fill="#fefefe"/>
    <path id="Path_231531" data-name="Path 231531" d="M368.32,622.823l-.014-1.273.159.12.007,1.239Z" transform="translate(-115.941 -368.64)" fill="#c5c6cd"/>
    <path id="Path_231532" data-name="Path 231532" d="M368.114,621.529l.02,1.107-.164-.084.011-1.1A.192.192,0,0,0,368.114,621.529Z" transform="translate(-116.206 -368.716)" fill="#a2a5b0"/>
    <path id="Path_231533" data-name="Path 231533" d="M378.208,600.288c-4.308-2.5-7.811-8.85-7.825-14.186-.016-5.22,3.5-7.471,7.787-4.983s7.809,8.871,7.821,14.186C386,600.527,382.493,602.777,378.208,600.288Z" transform="translate(-114.31 -401.187)" fill="#5b697f"/>
    <path id="Path_231534" data-name="Path 231534" d="M384.169,587.416l-2.789-4.253c.227-.289.348.093.455.252.259.378.453.821.68.309.109-.245.571.093.582.412.018.578.525,1.125.464,1.657C383.5,586.3,384.163,586.632,384.169,587.416Z" transform="translate(-105.674 -398.867)" fill="#ecedef"/>
    <path id="Path_231535" data-name="Path 231535" d="M367.8,589.6c-.405-.1-.414-.68-.669-.962-.2.005.066.671-.3.391-.289-.223-.13-.468-.17-.7a.826.826,0,0,1,0-.273c.038-.227-.132-.68.132-.652s.35.448.486.721l.141.286c.227-.02-.116-.823.371-.452C367.994,588.616,368.208,589.286,367.8,589.6Z" transform="translate(-117.245 -395.459)" fill="#eaebed"/>
    <path id="Path_231536" data-name="Path 231536" d="M367.6,588.037a1.472,1.472,0,0,1,.868.811c.195.378.195.644.007.8a1.6,1.6,0,0,1-.868-.373C367.229,588.646,367.229,588.233,367.6,588.037Z" transform="translate(-116.712 -394.958)" fill="#e7e8eb"/>
    <path id="Path_231537" data-name="Path 231537" d="M368.933,589.547c.162-.029.171-.12.064-.4-.052-.132-.093-.3.05-.252a.7.7,0,0,1,.578.518,1.538,1.538,0,0,1,0,.955c-.132.173-.466-.061-.7-.425C368.84,589.76,368.838,589.624,368.933,589.547Z" transform="translate(-115.505 -394.287)" fill="#e8e9ec"/>
    <path id="Path_231538" data-name="Path 231538" d="M370.01,589.8c-.452-.262-.205.311-.264.512-.03.1-.043.212-.166.145a.352.352,0,0,1-.163-.334c.011-.323-.068-.868.07-.909.237-.07.612.173.848.695a1.58,1.58,0,0,1-.03.944l-.07,0-.071-.07C369.976,590.408,370.182,590.166,370.01,589.8Z" transform="translate(-115.078 -394.042)" fill="#ededf0"/>
    <path id="Path_231539" data-name="Path 231539" d="M369.306,589.791l-.011.4c-.232.011-.453.043-.455-.509,0-.205.141-.52-.271-.655a.434.434,0,0,1-.168-.446C368.974,588.6,369.1,589.254,369.306,589.791Z" transform="translate(-115.879 -394.53)" fill="#e8e8eb"/>
    <path id="Path_231540" data-name="Path 231540" d="M382.9,585.835c-.414-.471-.805-.266-.843-.834-.011-.171-.289-.657-.034-.573C382.413,584.553,382.595,585.076,382.9,585.835Z" transform="translate(-105.252 -397.799)" fill="#cfd1d6"/>
    <path id="Path_231541" data-name="Path 231541" d="M367.974,589.408l-.007-.8c-.013-.489.264-.154.464-.034.12.143.239.286.145.434-.387-.277-.275.15-.293.377C368.26,589.638,368.256,589.9,367.974,589.408Z" transform="translate(-116.208 -394.715)" fill="#f0f0f2"/>
    <path id="Path_231542" data-name="Path 231542" d="M368.372,588.906l-.145-.434.3.195.168.446c-.055.259.057.666-.173.882A2.613,2.613,0,0,1,368.372,588.906Z" transform="translate(-116.003 -394.616)" fill="#f7f7f8"/>
    <path id="Path_231543" data-name="Path 231543" d="M367.631,588.293c-.245.273-.246.684.007,1.241l-.339-.18-.009-1.642Z" transform="translate(-116.739 -395.214)" fill="#63677a"/>
    <path id="Path_231544" data-name="Path 231544" d="M369.748,589.537a1.916,1.916,0,0,1,.154.982C369.6,590.108,369.825,589.873,369.748,589.537Z" transform="translate(-114.816 -393.78)" fill="#d4d5da"/>
    <path id="Path_231545" data-name="Path 231545" d="M369.909,590.542l.03-.944C370.05,589.991,370.134,590.364,369.909,590.542Z" transform="translate(-114.682 -393.732)" fill="#d4d5da"/>
    <path id="Path_231546" data-name="Path 231546" d="M361.111,630.348c-.009-5.238,3.517-7.5,7.809-5.017,4.31,2.494,7.827,8.871,7.834,14.2.007,5.24-3.512,7.5-7.805,5.019C364.628,642.047,361.12,635.691,361.111,630.348Z" transform="translate(-121.591 -366.464)" fill="#9d0c68"/>
    <path id="Path_231547" data-name="Path 231547" d="M372.149,627.1c.3.411.432.573.541.753.221.368.375.646.578.264.154-.291.521-.052.659.4a10.028,10.028,0,0,0,1.066,2.988A19.306,19.306,0,0,1,372.149,627.1Z" transform="translate(-112.923 -364.285)" fill="#f1f2f3"/>
    <path id="Path_231548" data-name="Path 231548" d="M358.571,633.489c-.289.4-.8.1-1.071-.387-.237-.432-.239-1.212-.007-1.375.268-.187.775.12,1.073.843C358.716,632.96,358.844,633.34,358.571,633.489Z" transform="translate(-124.568 -360.691)" fill="#e6e7ea"/>
    <path id="Path_231549" data-name="Path 231549" d="M358.023,633.094l-.005-.919c.323.546.712.111,1.032.7.23.316.352.575.029.611l-.452-.166c.054.345.53.268.414.609-.071.214-.345-.079-.532-.2C358.3,633.6,358.255,633.205,358.023,633.094Z" transform="translate(-124.02 -360.297)" fill="#dddee2"/>
    <path id="Path_231550" data-name="Path 231550" d="M358.625,633.192c.105-.145.046-.373-.029-.611l.052-.028c.4.611.784.359,1.176.646a1.265,1.265,0,0,1,.007,1.244c-.277-.236-.032-.48-.259-.746C359.3,634.952,358.953,633.533,358.625,633.192Z" transform="translate(-123.566 -360)" fill="#dcdde1"/>
    <path id="Path_231551" data-name="Path 231551" d="M359.6,633.07c.262.155.544.1.78.555.38.537.432.935.118,1.18a1.99,1.99,0,0,1-.3-.137c-.213-.137-.487-.166-.575-.589s.22-.293.389-.364a1.261,1.261,0,0,0-.564-.428C359.419,633.1,359.49,633.057,359.6,633.07Z" transform="translate(-122.899 -359.596)" fill="#dedfe3"/>
    <path id="Path_231552" data-name="Path 231552" d="M360.179,633.4c.952.514,1.057.746.755,1.723-.337-.416-.021-.716-.268-1.1-.5-.264.114,1.032-.482.634A1.931,1.931,0,0,1,360.179,633.4Z" transform="translate(-122.403 -359.334)" fill="#edeef0"/>
    <path id="Path_231553" data-name="Path 231553" d="M373.654,630.031c-.9-.138-.73-1.123-1.071-1.682A4.876,4.876,0,0,1,373.654,630.031Z" transform="translate(-112.582 -363.301)" fill="#dedfe3"/>
    <path id="Path_231554" data-name="Path 231554" d="M359.732,633.19l-.148.216c-.173.171.255.98-.293.753l-.007-1.244Z" transform="translate(-123.026 -359.716)" fill="#e0e1e4"/>
    <path id="Path_231555" data-name="Path 231555" d="M360.261,633.417l.005,1.257-.177-.114a3.686,3.686,0,0,0-.118-1.18Z" transform="translate(-122.486 -359.35)" fill="#9a9ca9"/>
    <path id="Path_231556" data-name="Path 231556" d="M359.918,606.247c-4.32-2.515-7.818-8.873-7.821-14.218,0-5.222,3.537-7.461,7.832-4.958s7.818,8.893,7.818,14.216C367.747,606.517,364.221,608.752,359.918,606.247Z" transform="translate(-128.67 -396.522)" fill="#7219b2"/>
    <path id="Path_231557" data-name="Path 231557" d="M362.942,588.959c.286-.175.37.138.473.277.245.33.443.864.68.334.111-.248.568.062.587.387.034.58.536,1.132.475,1.66s.6.852.614,1.657Z" transform="translate(-120.153 -394.275)" fill="#ecedef"/>
    <path id="Path_231558" data-name="Path 231558" d="M349.262,595.145c-.266.35-.771-.029-.962-.371a2.021,2.021,0,0,1-.066-1.432c.071-.3.437.07.664.225.586.4.228.8.362,1.212A.469.469,0,0,1,349.262,595.145Z" transform="translate(-131.782 -390.882)" fill="#eaebed"/>
    <path id="Path_231559" data-name="Path 231559" d="M349.733,594.821c.389-.2-.655-.485-.187-.637.109-.036.37.125.493.289.275.366.164.691.182,1.021.021.409-.223.184-.411.082a2.29,2.29,0,0,1-.22-.154A.461.461,0,0,1,349.733,594.821Z" transform="translate(-130.771 -390.134)" fill="#e9eaec"/>
    <path id="Path_231560" data-name="Path 231560" d="M350.041,594.175c.419.782.059,1.219.4,1.83.091.162-.045.114-.1.1a.606.606,0,0,1-.4-.505A3.759,3.759,0,0,1,350.041,594.175Z" transform="translate(-130.381 -390.138)" fill="#f1f1f3"/>
    <path id="Path_231561" data-name="Path 231561" d="M364.434,591.717c-.37-.514-.773-.337-.789-.871-.005-.18-.309-.675-.032-.571C363.99,590.415,364.2,590.921,364.434,591.717Z" transform="translate(-119.718 -393.212)" fill="#cfd1d6"/>
    <path id="Path_231562" data-name="Path 231562" d="M349.55,595.548c-.971-.81-.129-1.153-.378-1.775.409.541.205.894.253,1.328C349.464,595.249,349.635,595.408,349.55,595.548Z" transform="translate(-131.048 -390.453)" fill="#fdfdfd"/>
    <path id="Path_231563" data-name="Path 231563" d="M348.767,594.723l0-.366c.262,0-.075-.673.309-.586a1.86,1.86,0,0,1,.113,1.148C349.133,595.632,348.922,594.959,348.767,594.723Z" transform="translate(-131.286 -390.46)" fill="#dedfe3"/>
    <path id="Path_231564" data-name="Path 231564" d="M349.393,594.987l-.125-.446c.254.218.314-.241.586.039l-.143.6Z" transform="translate(-130.891 -389.893)" fill="#dadbe0"/>
    <path id="Path_231565" data-name="Path 231565" d="M367.828,617.768c.021,5.315-3.5,7.6-7.821,5.081-4.294-2.5-7.807-8.835-7.832-14.12-.025-5.313,3.5-7.6,7.823-5.081C364.286,606.146,367.807,612.494,367.828,617.768Z" transform="translate(-128.609 -383.504)" fill="#feb6b6"/>
    <path id="Path_231566" data-name="Path 231566" d="M362.987,605.459c.4.007.489.312.618.493.221.307.364.654.573.237.155-.309.634.029.657.495.03.571.527,1.093.445,1.657-.052.353.505.723.477,1.321Z" transform="translate(-120.118 -381.276)" fill="#ecedef"/>
    <path id="Path_231567" data-name="Path 231567" d="M352.114,613.422c-.686-.114-.571-.743-.668-1.4-.232.375-.13,1.319-.834.416-.127-.127-.252-.259-.377-.393a1.132,1.132,0,0,1-.2-.411.417.417,0,0,1,.107-.432l-.007,0c.163,0,.3.236.452.328a.2.2,0,0,0,.279-.078c.079-.146-.018-.766.382-.034.237.438.52.784.875.811.164.2.453.2.509.562C352.714,613.336,352.282,613.2,352.114,613.422Z" transform="translate(-130.302 -376.876)" fill="#dcdde1"/>
    <path id="Path_231568" data-name="Path 231568" d="M350.817,611.432l.011.564c-.039.109-.13.134-.2.186-.027.068-.045.148-.1.184-.307.032-.6-.634-.909-.55-.612-.536-.612-.56,0-1.048C350.017,610.92,350.411,610.891,350.817,611.432Z" transform="translate(-130.978 -377.107)" fill="#e5e5e8"/>
    <path id="Path_231569" data-name="Path 231569" d="M349.488,611.9c-.327.239-.732-.312-1.082-.421-.266-.7.989-.444-.014-1.544.893.245,1.016.37.919.921a1.028,1.028,0,0,0,.139.916Z" transform="translate(-131.598 -377.765)" fill="#e9e9ec"/>
    <path id="Path_231570" data-name="Path 231570" d="M349.808,610.98c-.029.232.3.762-.137.655-.086-.021-.039.136.136.393a1.093,1.093,0,0,1-.75-.578l.011.03c-.161-.339-.223-.627-.034-.784C349.237,610.381,349.487,610.416,349.808,610.98Z" transform="translate(-131.167 -377.32)" fill="#e6e7ea"/>
    <path id="Path_231571" data-name="Path 231571" d="M352.393,613.538c-.221-.359.066-.637-.229-.995-.343-.02.157.928-.366.689-.334-.6-.234-.959-.007-1.239.246.2.536.1.737.586C352.507,612.917,352.641,613.378,352.393,613.538Z" transform="translate(-129.073 -376.145)" fill="#fcfcfc"/>
    <path id="Path_231572" data-name="Path 231572" d="M351.225,612.911c-.134-.337-.093-.491.136-.512.571-.054.013-.43-.128-.686a.76.76,0,0,1,.6.473c.186.478.211.859-.013,1.093Z" transform="translate(-129.414 -376.365)" fill="#eff0f1"/>
    <path id="Path_231573" data-name="Path 231573" d="M364.542,608.3c-.387-.536-.773-.3-.828-.873-.016-.164-.271-.652-.034-.578C364.068,606.966,364.261,607.478,364.542,608.3Z" transform="translate(-119.653 -380.191)" fill="#cfd1d6"/>
    <path id="Path_231574" data-name="Path 231574" d="M349.216,610.737l.034.784c-.88-.6-.561-.843-.187-1.075Z" transform="translate(-131.35 -377.36)" fill="#64687b"/>
    <path id="Path_231575" data-name="Path 231575" d="M350.058,611.886l-.3-.47c.243-.175.578.314.841.294a.735.735,0,0,1,.225.477C350.595,612.334,350.313,612.006,350.058,611.886Z" transform="translate(-130.51 -376.628)" fill="#d7d8dd"/>
    <path id="Path_231576" data-name="Path 231576" d="M352.039,613.281c.032-.33-.087-.777.136-.959C352.294,612.77,352.592,613.357,352.039,613.281Z" transform="translate(-128.719 -375.887)" fill="#fefefe"/>
    <path id="Path_231577" data-name="Path 231577" d="M350.561,611.831l-.479-.662c.163-.2.405.087.62.193C350.865,611.721,350.719,611.781,350.561,611.831Z" transform="translate(-130.251 -376.848)" fill="#d7d8dd"/>
    <path id="Path_231578" data-name="Path 231578" d="M351.806,612.015l.007,1.239-.154-.088a1.819,1.819,0,0,1-.018-1.107C351.663,611.968,351.71,611.931,351.806,612.015Z" transform="translate(-129.088 -376.165)" fill="#c5c6cd"/>
    <path id="Path_231579" data-name="Path 231579" d="M351.673,612.051l.018,1.107-.166-.087.013-1.093A.2.2,0,0,0,351.673,612.051Z" transform="translate(-129.119 -376.157)" fill="#a2a5b0"/>
    <path id="Path_231580" data-name="Path 231580" d="M350.352,611.716c-.023-.225.262-.15.141-.47a.313.313,0,0,1,.111.057C350.491,611.4,350.944,612.221,350.352,611.716Z" transform="translate(-130.042 -376.732)" fill="#3b4057"/>
    <path id="Path_231581" data-name="Path 231581" d="M360.646,592.97c-5.308-3.08-9.614-10.89-9.639-17.483-.023-6.459,4.3-9.21,9.621-6.123s9.623,10.912,9.637,17.48C370.281,593.288,365.952,596.046,360.646,592.97Z" transform="translate(-129.526 -410.617)" fill="#545b6f"/>
    <path id="Path_231582" data-name="Path 231582" d="M363.466,574.347c-.011-.4-.023-.807-.03-1.209-.005-.261.043-.477.257-.453.252.027.432.271.546.625.016.586.448,1.508-.252,1.512A.938.938,0,0,1,363.466,574.347Z" transform="translate(-119.766 -407.015)" fill="#fcfcfc"/>
    <path id="Path_231583" data-name="Path 231583" d="M349.89,578.757c-.27.177-.586.148-.891-.4-.236-.423-.228-.836.011-.968.311-.171.625.18.884.684C350.056,578.4,350.058,578.629,349.89,578.757Z" transform="translate(-131.238 -403.35)" fill="#dadbdf"/>
    <path id="Path_231584" data-name="Path 231584" d="M349.372,577.394c-.375.259-.132,1.169-.587,1.266l-.562-1.812c-.009-.032-.013-.062-.039-.2C348.583,577.1,348.961,577.439,349.372,577.394Z" transform="translate(-131.743 -403.903)" fill="#e5e5e8"/>
    <path id="Path_231585" data-name="Path 231585" d="M349.422,578.56l0-.68c.059-.448.2-.327.352.137.079.241-.082.439.152.732.039-.014.08-.014.1-.041.139-.154-.191-.864.266-.612.237.13.157.418.161.611.009.393-.039.719-.459.489A1.116,1.116,0,0,1,349.422,578.56Z" transform="translate(-130.771 -403.154)" fill="#dfe0e3"/>
    <path id="Path_231586" data-name="Path 231586" d="M363.466,573.615l.461.277c.1.137.248.161.334.348.025.093.009.146-.046.162-.243-.052.268.834-.271.436-.282-.207-.593-.3-.387-.748C363.561,574.076,363.363,573.752,363.466,573.615Z" transform="translate(-119.765 -406.283)" fill="#dcdde1"/>
    <path id="Path_231587" data-name="Path 231587" d="M363.99,574.635c-.111-.045-.234-.057-.279-.287.536-.048.211-.873.312-1.314l.4,1.009C364.239,574.184,364.343,574.721,363.99,574.635Z" transform="translate(-119.55 -406.739)" fill="#6e7283"/>
    <path id="Path_231588" data-name="Path 231588" d="M363.867,574.2c.209-.111.087-.671.437-.593.03.478-.039.839-.428.816Z" transform="translate(-119.427 -406.299)" fill="#ccced4"/>
    <path id="Path_231589" data-name="Path 231589" d="M363.289,573.033c.295.548.143.714.2,1.1A1.312,1.312,0,0,1,363.289,573.033Z" transform="translate(-119.917 -406.74)" fill="#d7d8dd"/>
    <path id="Path_231590" data-name="Path 231590" d="M378.25,603.707a4.891,4.891,0,0,0-1.764-1.637,1.525,1.525,0,0,0-.853-.2c-1.055.136-1.418,2.091-.768,4.1.5,1.544,1.7,2.746,2.9,2.71.6-.016.682.291.843.971.136.571-.039.671-.345.641a5.191,5.191,0,0,1-3.72-2.476,7.738,7.738,0,0,1-1.492-4.954c.182-3.647,2.612-3.176,4.556-1.428C378.751,602.468,378.807,602.718,378.25,603.707Z" transform="translate(-112.224 -385.475)" fill="#fdfefd"/>
    <path id="Path_231591" data-name="Path 231591" d="M367.721,604.626c.352.518.27.775-.009.914-.312-.179-.752-.171-.75-.885C366.962,603.958,367.414,604.48,367.721,604.626Z" transform="translate(-116.997 -382.186)" fill="#2d324c"/>
    <path id="Path_231592" data-name="Path 231592" d="M374.726,620.013c.009,1.8-.012,3.29.038,4.82.025.743-.211.736-.741.439a1.238,1.238,0,0,1-.732-1.312c.02-2.323-.018-4.677-.016-7.011,0-.33-.171-.955.237-.8a1.9,1.9,0,0,1,1.344,1.212c.757,1.851,1.553,3.694,2.335,5.54a4.386,4.386,0,0,0,.605,1.069l-.016-2.96c0-.462-.005-.925-.005-1.385,0-1.019.346-1.123,1.152-.391a.844.844,0,0,1,.289.718q.021,3.88.041,7.759c0,.252-.007.537-.284.371-.45-.27-.941-.314-1.287-1.16-.8-1.951-1.634-3.9-2.458-5.841C375.121,620.824,374.99,620.574,374.726,620.013Z" transform="translate(-112.067 -372.9)" fill="#fefefe"/>
    <path id="Path_231593" data-name="Path 231593" d="M374.548,587.084c.007,1.555-.012,3.1.036,4.674.021.691-.187.7-.684.4a1.186,1.186,0,0,1-.761-1.257c.034-2.31-.018-4.67-.007-6.993,0-.346-.234-1.055.218-.889a1.982,1.982,0,0,1,1.38,1.312c.734,1.851,1.546,3.688,2.326,5.531.139.329.286.657.434.994.253-.025.146-.361.148-.575.005-1.285-.009-2.58-.014-3.871,0-.88.511-.971,1.205-.244a.738.738,0,0,1,.2.637q.027,3.875.041,7.746c0,.227.062.612-.23.428-.464-.291-.975-.3-1.344-1.212-.8-1.985-1.655-3.958-2.489-5.934-.1-.234-.207-.466-.311-.7Z" transform="translate(-112.198 -398.915)" fill="#fdfdfd"/>
    <path id="Path_231594" data-name="Path 231594" d="M367.769,588.918a.362.362,0,0,1-.207-.344c.011-.1.045-.23.109-.243.1-.02.17.127.186.27C367.874,588.763,367.856,588.886,367.769,588.918Z" transform="translate(-116.527 -394.728)" fill="#30364f"/>
    <path id="Path_231595" data-name="Path 231595" d="M363.768,631.434q-.008-1.9-.018-3.792c0-.32-.023-.643.366-.395a24.99,24.99,0,0,1,3.294,2.08,7.438,7.438,0,0,1,2.756,6.489c-.107,1.968-1.425,2.776-3.228,1.891-.9-.441-1.8-1.034-2.7-1.517a.819.819,0,0,1-.45-.873C363.788,634.03,363.775,632.73,363.768,631.434Z" transform="translate(-119.519 -364.235)" fill="#fefdfe"/>
    <path id="Path_231596" data-name="Path 231596" d="M357.59,632.389c.05-.193-.075-.569.213-.382a.694.694,0,0,1,.268.612c0,.259-.043.489-.3.323C357.481,632.757,357.7,632.554,357.59,632.389Z" transform="translate(-124.356 -360.468)" fill="#2d334c"/>
    <path id="Path_231597" data-name="Path 231597" d="M359.555,595.539a4.666,4.666,0,0,1,1.037,3.035c-.046,1.337-.793,1.825-1.987,1.236-1.046-.516-2.1-1.193-3.155-1.775a.771.771,0,0,1-.427-.8c-.005-2.581-.021-5.172-.032-7.757,0-.273-.037-.6.316-.389,1.127.677,2.257,1.284,3.378,2.046a3.7,3.7,0,0,1,1.583,2.364C360.49,594.616,360.266,595.3,359.555,595.539Z" transform="translate(-126.398 -394.183)" fill="#fefdfe"/>
    <path id="Path_231598" data-name="Path 231598" d="M357.846,615.891c-.652-.377-1.3-.737-1.955-1.134-.261-.159-.605-.186-.759-.634a1.118,1.118,0,0,1,.145-1.132q1.205-1.47,2.4-2.94c.225-.273.448-.552.68-.816.257-.293.207-.518-.271-.778-.775-.425-1.553-.907-2.328-1.332a1,1,0,0,1-.584-1.026c0-.505.207-.495.562-.287,1.353.793,2.707,1.557,4.058,2.353.253.15.593.173.734.669a.993.993,0,0,1-.145.957c-.637.766-1.264,1.55-1.892,2.33-.418.519-.821,1.062-1.255,1.56-.268.305-.132.5.257.718q1.162.661,2.328,1.344c.359.211.773.307.789,1.073.016.825-.432.416-.816.2C359.148,616.648,358.5,616.265,357.846,615.891Z" transform="translate(-126.353 -381.105)" fill="#fefefe"/>
    <path id="Path_231599" data-name="Path 231599" d="M350.595,611.763c-.237.2-.564-.227-.841-.294.1-.412.42.13.605.1Z" transform="translate(-130.51 -376.679)" fill="#343952"/>
    <path id="Path_231600" data-name="Path 231600" d="M360.233,569.928c4.783,2.781,8.721,9.937,8.732,15.866.009,5.8-3.963,8.3-8.753,5.5-4.72-2.755-8.676-9.9-8.7-15.711C351.491,569.673,355.415,567.127,360.233,569.928Z" transform="translate(-129.128 -410.073)" fill="#8c94a0"/>
    <path id="Path_231601" data-name="Path 231601" d="M364.644,631.277c0-.8,0-1.6-.016-2.407-.007-.375.068-.491.409-.332a5.16,5.16,0,0,1,2.79,6.04c-.371,1.048-1.93.995-2.962-.077a.806.806,0,0,1-.205-.725C364.646,632.938,364.648,632.109,364.644,631.277Z" transform="translate(-118.83 -363.207)" fill="#9d0c68"/>
    <path id="Path_231602" data-name="Path 231602" d="M355.884,593.469c.011-1.575-.15-1.444.857-.875,1.3.732,1.648,1.26,1.639,2.4-.007,1.066-.366,1.162-1.618.441C355.891,594.931,355.891,594.931,355.884,593.469Z" transform="translate(-125.699 -391.686)" fill="#7219b2"/>
    <path id="Path_231603" data-name="Path 231603" d="M355.9,591.3c-.046-.728-.145-1.385.725-.8,1.171.789,1.548,1.193,1.569,2.048s-.368.846-1.535.27A1.22,1.22,0,0,1,355.9,591.3Z" transform="translate(-125.715 -393.203)" fill="#7219b2"/>
    <path id="Path_231604" data-name="Path 231604" d="M352.02,575.5c-.012-5.247,3.5-7.509,7.786-5.022,4.315,2.5,7.85,8.884,7.857,14.188.009,5.252-3.488,7.512-7.78,5.026C355.555,587.187,352.033,580.829,352.02,575.5Z" transform="translate(-128.73 -409.537)" fill="#e7a900"/>
    <path id="Path_231605" data-name="Path 231605" d="M357.36,582.29a7.083,7.083,0,0,1-2.042-1.6c-.587-.621-.218-.859-.155-1.228.084-.507.339-.173.6.127a6.461,6.461,0,0,0,1.978,1.532c.487.253.928.321.991-.307a2.22,2.22,0,0,0-.744-1.657c-.514-.541-1.037-1.053-1.548-1.6a4.32,4.32,0,0,1-1.451-3.671c.137-1,.984-1.325,2.089-.75a7.5,7.5,0,0,1,2.289,1.641c.421.461.484.737.321,1.162s-.314.4-.7-.052a5.044,5.044,0,0,0-1.548-1.153c-.445-.245-.88-.395-.955.227a1.936,1.936,0,0,0,.691,1.548c.677.7,1.382,1.362,2.017,2.141,1.193,1.462,1.441,3.531.537,4.142a1.612,1.612,0,0,1-1.609-.061C357.845,582.6,357.569,582.411,357.36,582.29Z" transform="translate(-126.427 -406.887)" fill="#fefefd"/>
  </g>
  <path id="Path_231606" data-name="Path 231606" d="M255.813,509.682l-19.843-11.5a6.453,6.453,0,0,1-2.833-5.077h0c-.005-1.9,1.257-2.7,2.817-1.8l19.842,11.5a6.448,6.448,0,0,1,2.83,5.074h0C258.63,509.779,257.37,510.586,255.813,509.682Z" transform="translate(-222.089 -471.211)" fill="#471ed6"/>
  <path id="Path_231607" data-name="Path 231607" d="M256.029,591.912,236.152,580.5a6.429,6.429,0,0,1-2.839-5.077h0c0-1.907,1.26-2.723,2.824-1.825l19.874,11.421a6.421,6.421,0,0,1,2.835,5.072h0C258.852,591.991,257.589,592.808,256.029,591.912Z" transform="translate(-221.95 -406.587)" fill="#3f55a5"/>
  <path id="Path_231608" data-name="Path 231608" d="M353.049,581.764l-3.929-2.273a2.758,2.758,0,0,1-1.205-2.166h0c0-.814.53-1.162,1.191-.778l3.929,2.273a2.752,2.752,0,0,1,1.205,2.166h0C354.244,581.8,353.712,582.146,353.049,581.764Z" transform="translate(-131.954 -404.103)" fill="#3f55a5"/>
  <path id="Path_231609" data-name="Path 231609" d="M372.08,592.771l-4.67-2.7a2.755,2.755,0,0,1-1.2-2.164h0c-.005-.812.527-1.16,1.187-.778l4.672,2.7a2.757,2.757,0,0,1,1.2,2.162h0C373.272,592.8,372.74,593.153,372.08,592.771Z" transform="translate(-117.59 -395.794)" fill="#3f55a5"/>
  <path id="Path_231610" data-name="Path 231610" d="M353.126,598.241l-3.929-2.269a2.754,2.754,0,0,1-1.207-2.165h0c0-.812.53-1.162,1.193-.78l3.93,2.269a2.759,2.759,0,0,1,1.207,2.165h0C354.322,598.275,353.789,598.623,353.126,598.241Z" transform="translate(-131.895 -391.161)" fill="#3f55a5"/>
  <path id="Path_231611" data-name="Path 231611" d="M372.164,609.232l-4.674-2.7a2.752,2.752,0,0,1-1.2-2.162h0c0-.814.529-1.162,1.189-.782l4.674,2.7a2.754,2.754,0,0,1,1.2,2.162h0C373.357,609.264,372.825,609.614,372.164,609.232Z" transform="translate(-117.527 -382.865)" fill="#3f55a5"/>
  <path id="Path_231612" data-name="Path 231612" d="M354.259,615.547l-4.986-2.874a2.758,2.758,0,0,1-1.207-2.166h0c0-.814.532-1.164,1.194-.782l4.986,2.874a2.746,2.746,0,0,1,1.205,2.164h0C355.455,615.577,354.921,615.927,354.259,615.547Z" transform="translate(-131.835 -378.048)" fill="#3f55a5"/>
  <path id="Path_231613" data-name="Path 231613" d="M363.112,637.093l-4.983-2.867a2.748,2.748,0,0,1-1.207-2.164h0c0-.814.53-1.164,1.193-.784l4.983,2.867a2.751,2.751,0,0,1,1.205,2.164h0C364.306,637.124,363.772,637.474,363.112,637.093Z" transform="translate(-124.881 -361.121)" fill="#3f55a5"/>
  <path id="Path_231614" data-name="Path 231614" d="M372.249,625.913l-4.676-2.694a2.749,2.749,0,0,1-1.2-2.162h0c0-.814.528-1.164,1.189-.784l4.674,2.7a2.752,2.752,0,0,1,1.205,2.162h0C373.442,625.944,372.91,626.294,372.249,625.913Z" transform="translate(-117.461 -369.763)" fill="#3f55a5"/>
  <path id="Path_231615" data-name="Path 231615" d="M264.61,606.741l-28.436-16.316a6.43,6.43,0,0,1-2.839-5.078h0c-.005-1.907,1.259-2.724,2.822-1.828l28.434,16.323a6.425,6.425,0,0,1,2.835,5.07h0C267.432,606.818,266.17,607.637,264.61,606.741Z" transform="translate(-221.932 -398.79)" fill="#3f55a5"/>
  <path id="Path_231616" data-name="Path 231616" d="M351.808,565.3l-57.961-33.588a6.438,6.438,0,0,1-2.819-5.056h0c-.005-1.894,1.246-2.7,2.794-1.8l57.959,33.6a6.418,6.418,0,0,1,2.806,5.042h0C354.6,565.391,353.352,566.2,351.808,565.3Z" transform="translate(-176.627 -444.86)" fill="#471ed6"/>
</svg>
