<?xml version="1.0" encoding="utf-8"?>
<!-- Generator: Adobe Illustrator 24.1.0, SVG Export Plug-In . SVG Version: 6.00 Build 0)  -->
<svg version="1.1" id="Layer_1" xmlns="http://www.w3.org/2000/svg" xmlns:xlink="http://www.w3.org/1999/xlink" x="0px" y="0px"
	 viewBox="0 0 24 24" style="enable-background:new 0 0 24 24;" xml:space="preserve">
<style type="text/css">
	.st0{fill:none;}
</style>
<path class="st0" d="M0,0h24v24H0V0z"/>
<g>
	<path d="M6,4C4.9,4,4,4.9,4,6s0.9,2,2,2s2-0.9,2-2S7.1,4,6,4z M18,4c-1.1,0-2,0.9-2,2s0.9,2,2,2s2-0.9,2-2S19.1,4,18,4z M12,4
		c-1.1,0-2,0.9-2,2s0.9,2,2,2s2-0.9,2-2S13.1,4,12,4z"/>
	<path d="M6,10c-1.1,0-2,0.9-2,2s0.9,2,2,2s2-0.9,2-2S7.1,10,6,10z M18,10c-1.1,0-2,0.9-2,2s0.9,2,2,2s2-0.9,2-2S19.1,10,18,10z
		 M12,10c-1.1,0-2,0.9-2,2s0.9,2,2,2s2-0.9,2-2S13.1,10,12,10z"/>
	<path d="M6,16c-1.1,0-2,0.9-2,2s0.9,2,2,2s2-0.9,2-2S7.1,16,6,16z M18,16c-1.1,0-2,0.9-2,2s0.9,2,2,2s2-0.9,2-2S19.1,16,18,16z
		 M12,16c-1.1,0-2,0.9-2,2s0.9,2,2,2s2-0.9,2-2S13.1,16,12,16z"/>
</g>
</svg>
