<svg xmlns="http://www.w3.org/2000/svg" width="27.643" height="15.149" viewBox="0 0 27.643 15.149">
  <g id="Group" transform="translate(455.795 -311.849)">
    <g id="Group_7228" data-name="Group 7228" transform="translate(-449.765 311.849)">
      <path id="Path_264255" data-name="Path 264255" d="M-440.033,320.112a4.068,4.068,0,0,1-4.113-4.138,4.127,4.127,0,0,1,4.152-4.125,4.128,4.128,0,0,1,4.137,4.142A4.071,4.071,0,0,1-440.033,320.112Z" transform="translate(447.788 -311.849)" fill="#14192e"/>
      <path id="Path_221118" data-name="Path 221118" d="M-432.949,328.3l-.009.3q-.693.035-1.373.062c-4.991.208-9.421.139-12.816,0-.482-.02-.945-.042-1.385-.064v-.232c0-.112,0-.223,0-.335a8.82,8.82,0,0,1,.16-1.681,4.227,4.227,0,0,1,2.155-2.965,8.82,8.82,0,0,1,2.775-.9,2.572,2.572,0,0,1,1.4.15,3.929,3.929,0,0,0,2.786-.006,2.636,2.636,0,0,1,1.49-.137,8.543,8.543,0,0,1,2.605.84,4.055,4.055,0,0,1,2.1,3.188,12.178,12.178,0,0,1,.106,1.505C-432.949,328.122-432.947,328.213-432.949,328.3Z" transform="translate(448.532 -313.648)" fill="#14192e"/>
    </g>
    <g id="Group_7229" data-name="Group 7229" transform="translate(-455.795 320.717)">
      <path id="Path_221119" data-name="Path 221119" d="M-448.364,322.719c-.361.283-.746.546-1.082.858a4.774,4.774,0,0,0-1.5,3.237c-.032.409-.05.82-.06,1.231q-.008.264-.012.527c-2.508-.142-4.162-.3-4.66-.355l-.108-.017c0-.051,0-.1,0-.155-.007-.59-.012-1.181.016-1.77a3.248,3.248,0,0,1,1.8-3.013,9.848,9.848,0,0,1,1.611-.558,8.828,8.828,0,0,1,1.057-.175,3.547,3.547,0,0,0,2.075.349C-448.94,322.848-448.653,322.773-448.364,322.719Z" transform="translate(455.795 -322.529)" fill="#14192e"/>
    </g>
    <g id="Group_7230" data-name="Group 7230" transform="translate(-435.179 320.682)">
      <path id="Path_221120" data-name="Path 221120" d="M-423.941,328.038c0,.061,0,.122,0,.183-1.616.147-3.2.261-4.741.347q0-.264-.008-.53c0-.051,0-.1,0-.154a10.121,10.121,0,0,0-.272-2.231,4.6,4.6,0,0,0-1.748-2.609c-.058-.042-.109-.095-.25-.218a4.1,4.1,0,0,0,2.6-.34c.638.152,1.31.26,1.945.475a3.347,3.347,0,0,1,2.465,3.393C-423.932,326.913-423.935,327.472-423.941,328.038Z" transform="translate(430.965 -322.487)" fill="#14192e"/>
    </g>
    <circle id="Ellipse_302" data-name="Ellipse 302" cx="2.797" cy="2.797" r="2.797" transform="translate(-452.426 314.451)" fill="#14192e"/>
    <circle id="Ellipse_303" data-name="Ellipse 303" cx="2.725" cy="2.725" r="2.725" transform="translate(-437.103 314.524)" fill="#14192e"/>
  </g>
</svg>
