<svg xmlns="http://www.w3.org/2000/svg" width="18.044" height="22.531" viewBox="0 0 18.044 22.531">
  <path id="Union_5" data-name="Union 5" d="M4831.733,16245.831a2.546,2.546,0,0,1-.729-1.8h5a2.546,2.546,0,0,1-.729,1.8,2.584,2.584,0,0,1-3.54,0Zm-6.23-2.8a.283.283,0,0,1-.261-.1c-.1,0-.171-.154-.188-.2a.486.486,0,0,1-.053-.2.72.72,0,0,1,.1-.3l.4-.5v-8.7a8.111,8.111,0,0,1,2.34-5.7,7.93,7.93,0,0,1,5.659-2.3,8.325,8.325,0,0,1,2.112.273,4.451,4.451,0,0,0-.562,1.929,6.123,6.123,0,0,0-1.55-.2,5.737,5.737,0,0,0-4.24,1.8,5.819,5.819,0,0,0-1.757,4.2v8h12v-8a5.793,5.793,0,0,0-.09-1.035h.13a4.492,4.492,0,0,0,1.835-.388,8.039,8.039,0,0,1,.126,1.423v8.7l.4.5a.664.664,0,0,1,.1.3.472.472,0,0,1-.049.2c-.021.045-.09.2-.188.2a.283.283,0,0,1-.261.1Zm10.54-15.535a3.5,3.5,0,1,1,3.5,3.5A3.5,3.5,0,0,1,4836.043,16227.5Z" transform="translate(-4825 -16224.001)" fill="#fff"/>
</svg>
