<svg id="Group_2" data-name="Group 2" xmlns="http://www.w3.org/2000/svg" xmlns:xlink="http://www.w3.org/1999/xlink" width="137.361" height="143.879" viewBox="0 0 137.361 143.879">
  <defs>
    <clipPath id="clip-path">
      <rect id="Rectangle_1" data-name="Rectangle 1" width="137.361" height="143.879" fill="none"/>
    </clipPath>
  </defs>
  <g id="Group_1" data-name="Group 1" clip-path="url(#clip-path)">
    <path id="Path_1" data-name="Path 1" d="M114.235,78.646A39.324,39.324,0,1,0,74.757,39.654a39.417,39.417,0,0,0,39.478,38.993" transform="translate(-42.676 0.001)" fill="#0b7df9"/>
    <path id="Path_2" data-name="Path 2" d="M219.415,266.5q-10.457,0-20.914,0a6.35,6.35,0,0,1-6.437-4.963,6.99,6.99,0,0,1-.16-1.692c-.009-11.938.02-23.876-.024-35.814a6.467,6.467,0,0,1,4.979-6.5,15.438,15.438,0,0,1,2.444-.169c.453-.023.418.312.418.612,0,1.617,0,3.235,0,4.853a3.36,3.36,0,0,0,3.573,3.606c1.276.007,2.552.012,3.827,0a3.21,3.21,0,0,0,3.314-2.988c.121-1.746.084-3.506.057-5.259-.01-.67.222-.844.866-.842q8.065.032,16.129,0c.614,0,.779.195.766.783-.035,1.571-.018,3.144-.01,4.716a3.371,3.371,0,0,0,3.594,3.592c1.208.005,2.415.008,3.622,0a3.353,3.353,0,0,0,3.569-3.484c.04-1.525.011-3.052.014-4.579,0-1.017.006-.978,1-1.022a6.584,6.584,0,0,1,6.853,6.87c-.064,11.824-.022,23.648-.023,35.472a6.451,6.451,0,0,1-6.821,6.811h-20.64m0-30.807q-11.309,0-22.618-.007c-.553,0-.886.057-.884.756.02,7.767.006,15.535.018,23.3a2.435,2.435,0,0,0,2.7,2.721q20.705.009,41.41,0a2.459,2.459,0,0,0,2.769-2.782q.005-11.549,0-23.1c0-.887,0-.891-.914-.891H219.416" transform="translate(-109.538 -124.07)" fill="#0b7df9"/>
    <path id="Path_3" data-name="Path 3" d="M291.827,213.817c0,1.367.009,2.734,0,4.1-.009,1.043-.375,1.405-1.4,1.411q-1.742.01-3.485,0c-.935-.006-1.357-.4-1.359-1.314q-.014-4.2,0-8.405c0-.923.414-1.334,1.334-1.344q1.777-.019,3.553,0c.977.009,1.346.38,1.355,1.385.013,1.39,0,2.779,0,4.169" transform="translate(-163.026 -118.886)" fill="#0b7df9"/>
    <path id="Path_4" data-name="Path 4" d="M225.356,213.87c0,1.366.01,2.733,0,4.1-.01,1-.373,1.352-1.372,1.358-1.184.006-2.369.009-3.553,0-.887-.008-1.292-.409-1.294-1.3q-.012-4.236,0-8.472c0-.885.409-1.281,1.305-1.291q1.81-.02,3.621,0c.907.01,1.279.379,1.29,1.3.017,1.435,0,2.869,0,4.3" transform="translate(-125.093 -118.885)" fill="#0b7df9"/>
    <path id="Path_5" data-name="Path 5" d="M213.368,275.083c0-1.137-.014-2.313.021-3.489,0-.119.3-.327.46-.329,3.232-.02,6.464-.014,9.7-.019.356,0,.558.11.555.5-.009.978.021,1.958-.021,2.935-.008.173-.292.478-.45.479-3.345.023-6.691.011-10.037,0a1.032,1.032,0,0,1-.224-.085" transform="translate(-121.804 -154.846)" fill="#0b7df9"/>
    <path id="Path_6" data-name="Path 6" d="M213.364,287.1h1.181c2.913,0,5.825.021,8.738-.016.68-.009.866.219.83.859-.048.839-.026,1.683-.012,2.525.007.4-.148.569-.56.569-3.231-.009-6.462,0-9.693-.019-.161,0-.458-.207-.462-.324-.035-1.175-.021-2.352-.021-3.594" transform="translate(-121.801 -163.885)" fill="#0b7df9"/>
    <path id="Path_7" data-name="Path 7" d="M213.342,302.975c.316-.021.5-.042.675-.042,3.118,0,6.237.009,9.355-.009.521,0,.74.14.719.69-.034.887-.022,1.775,0,2.663.009.433-.148.611-.6.609q-4.78-.015-9.56,0c-.439,0-.605-.148-.6-.594.021-1.087.007-2.176.007-3.319" transform="translate(-121.786 -172.929)" fill="#0b7df9"/>
    <path id="Path_8" data-name="Path 8" d="M251.61,275.185c-1.549,0-3.1-.019-4.647.011-.548.011-.782-.132-.754-.72.042-.887.023-1.777.006-2.665-.008-.408.149-.57.559-.569q4.819.013,9.637,0c.431,0,.542.193.533.585-.018.888-.03,1.778,0,2.665.021.528-.137.717-.691.7-1.548-.036-3.1-.012-4.647-.012" transform="translate(-140.551 -154.843)" fill="#0b7df9"/>
    <path id="Path_9" data-name="Path 9" d="M251.531,291.039c-1.549,0-3.1-.015-4.647.009-.5.007-.688-.161-.67-.67.031-.887.021-1.777,0-2.665-.009-.42.111-.617.577-.614q4.783.021,9.566,0c.45,0,.6.156.587.6-.023.911-.027,1.823,0,2.733.017.489-.177.628-.639.622-1.594-.019-3.189-.007-4.783-.007Z" transform="translate(-140.555 -163.894)" fill="#0b7df9"/>
    <path id="Path_10" data-name="Path 10" d="M284.421,275.181c-1.571,0-3.142-.015-4.714.009-.5.007-.7-.147-.685-.659.028-.887.024-1.777,0-2.664-.012-.483.2-.63.657-.628q4.748.015,9.5,0c.479,0,.638.166.624.638-.028.91-.027,1.822,0,2.732.012.452-.158.588-.6.583-1.594-.02-3.188-.008-4.782-.008" transform="translate(-159.285 -154.84)" fill="#0b7df9"/>
    <path id="Path_11" data-name="Path 11" d="M284.411,287.1c1.571,0,3.142.015,4.713-.009.487-.008.7.115.68.645-.036.909-.024,1.821,0,2.732.008.4-.126.572-.546.571q-4.816-.015-9.631,0c-.447,0-.6-.185-.595-.615.016-.887.024-1.776,0-2.664-.015-.5.169-.677.675-.669,1.571.024,3.142.009,4.713.009" transform="translate(-159.285 -163.893)" fill="#0b7df9"/>
    <path id="Path_12" data-name="Path 12" d="M284.412,302.928c1.549,0,3.1.019,4.646-.011.547-.011.778.132.748.72-.044.863-.028,1.731,0,2.6.013.455-.12.654-.612.652q-4.749-.023-9.5,0c-.511,0-.681-.2-.667-.69q.037-1.3,0-2.6c-.014-.494.16-.686.671-.678,1.571.024,3.143.009,4.714.008" transform="translate(-159.287 -172.925)" fill="#0b7df9"/>
    <path id="Path_13" data-name="Path 13" d="M251.548,306.885c-1.546,0-3.092-.016-4.637.009-.536.009-.721-.183-.7-.713.033-.885.026-1.773.006-2.659-.01-.445.166-.591.6-.589q4.774.018,9.547,0c.45,0,.6.164.584.6-.024.908-.028,1.819,0,2.727.014.473-.155.639-.626.634-1.591-.019-3.182-.007-4.774-.007" transform="translate(-140.553 -172.934)" fill="#0b7df9"/>
    <path id="Path_14" data-name="Path 14" d="M83.981,264.486l-.063-.052c-4.7.239-4.542-5.43-4.542-5.43s-.087-30.775-.053-38.1c.029-6.361,3.572-7.782,4.5-8.046a94.046,94.046,0,0,0-54.513,9.775C9.908,232.727.66,247.111,0,264.6l70.649.281-.144.109,10.368-.391h.834v-.031Z" transform="translate(0 -121.115)" fill="#0b7df9"/>
  </g>
</svg>
