<svg xmlns="http://www.w3.org/2000/svg" width="28.917" height="24.48" viewBox="0 0 28.917 24.48">
  <g id="Group_7057" data-name="Group 7057" transform="translate(13778.458 4617.382)">
    <g id="Group_7047" data-name="Group 7047" transform="translate(-13767.338 -4617.382)">
      <path id="Path_221012" data-name="Path 221012" d="M-1831.722-2272.593h.022a3.139,3.139,0,0,0,3.11-3.129,3.1,3.1,0,0,0-.911-2.207,3.118,3.118,0,0,0-2.212-.911,3.116,3.116,0,0,0-2.2.9,3.094,3.094,0,0,0-.922,2.2,3.112,3.112,0,0,0,.923,2.234A3.09,3.09,0,0,0-1831.722-2272.593Zm.012-4.421a1.281,1.281,0,0,1,1.293,1.292,1.305,1.305,0,0,1-1.295,1.3h-.01a1.272,1.272,0,0,1-.9-.377,1.3,1.3,0,0,1-.386-.932A1.282,1.282,0,0,1-1831.711-2277.014Z" transform="translate(1835.004 2279.005)" fill="#fff"/>
      <path id="Path_221013" data-name="Path 221013" d="M-1833.558-2274.262a3.253,3.253,0,0,1-2.31-.959,3.273,3.273,0,0,1-.972-2.351,3.256,3.256,0,0,1,.971-2.32,3.278,3.278,0,0,1,2.32-.948,3.278,3.278,0,0,1,2.328.959,3.259,3.259,0,0,1,.96,2.323,3.3,3.3,0,0,1-3.274,3.294Zm.009-6.248a2.951,2.951,0,0,0-2.088.853,2.927,2.927,0,0,0-.873,2.086,2.946,2.946,0,0,0,.875,2.116,2.925,2.925,0,0,0,2.077.862h.023a2.973,2.973,0,0,0,2.945-2.964,2.934,2.934,0,0,0-.863-2.091A2.955,2.955,0,0,0-1833.549-2280.51Zm-.008,4.419a1.436,1.436,0,0,1-1.021-.425,1.465,1.465,0,0,1-.435-1.05,1.446,1.446,0,0,1,1.467-1.448h0a1.443,1.443,0,0,1,1.458,1.457,1.471,1.471,0,0,1-1.459,1.466Zm.011-2.593a1.12,1.12,0,0,0-1.137,1.12,1.138,1.138,0,0,0,.338.814,1.11,1.11,0,0,0,.788.33h.01a1.141,1.141,0,0,0,1.13-1.136,1.117,1.117,0,0,0-1.129-1.127Z" transform="translate(1836.839 2280.839)" fill="#fff"/>
    </g>
    <g id="Group_7048" data-name="Group 7048" transform="translate(-13769.902 -4610.83)">
      <path id="Path_221014" data-name="Path 221014" d="M-1862.092-2196.169a4.642,4.642,0,0,1,3.421-1.511,4.643,4.643,0,0,1,3.421,1.511l.09.1h2.034l-.319-.475a6.29,6.29,0,0,0-5.227-2.793,6.29,6.29,0,0,0-5.227,2.793l-.319.475h2.034Z" transform="translate(1864.526 2199.501)" fill="#fff"/>
      <path id="Path_221015" data-name="Path 221015" d="M-1856.259-2197.741h-2.416l-.139-.153a4.48,4.48,0,0,0-3.3-1.458,4.479,4.479,0,0,0-3.3,1.458h0l-.14.153h-2.416l.491-.731a6.453,6.453,0,0,1,5.364-2.866,6.453,6.453,0,0,1,5.363,2.866Zm-2.271-.33h1.652l-.146-.218a6.124,6.124,0,0,0-5.09-2.72,6.124,6.124,0,0,0-5.09,2.72l-.146.218h1.652l.042-.046a4.806,4.806,0,0,1,3.542-1.565,4.806,4.806,0,0,1,3.542,1.565Z" transform="translate(1867.968 2201.338)" fill="#fff"/>
    </g>
    <g id="Group_7051" data-name="Group 7051" transform="translate(-13761.25 -4603.05)">
      <g id="Group_7049" data-name="Group 7049" transform="translate(2.565 0)">
        <path id="Path_221016" data-name="Path 221016" d="M-1744.4-2108.521a3.09,3.09,0,0,0-.922,2.2,3.112,3.112,0,0,0,.924,2.234,3.09,3.09,0,0,0,2.194.91h.022a3.139,3.139,0,0,0,3.11-3.129,3.1,3.1,0,0,0-.911-2.207,3.115,3.115,0,0,0-2.212-.912A3.112,3.112,0,0,0-1744.4-2108.521Zm3.5,2.218a1.306,1.306,0,0,1-1.295,1.3h-.01a1.272,1.272,0,0,1-.9-.377,1.3,1.3,0,0,1-.387-.932,1.282,1.282,0,0,1,1.3-1.283A1.28,1.28,0,0,1-1740.9-2106.3Z" transform="translate(1745.485 2109.586)" fill="#fff"/>
        <path id="Path_221017" data-name="Path 221017" d="M-1744.038-2104.845a3.253,3.253,0,0,1-2.31-.958,3.275,3.275,0,0,1-.972-2.351,3.255,3.255,0,0,1,.971-2.319h0a3.28,3.28,0,0,1,2.32-.948,3.283,3.283,0,0,1,2.329.959,3.261,3.261,0,0,1,.96,2.323,3.305,3.305,0,0,1-3.274,3.294Zm-2.079-5.394a2.928,2.928,0,0,0-.873,2.086,2.946,2.946,0,0,0,.875,2.116,2.924,2.924,0,0,0,2.077.863h.023a2.973,2.973,0,0,0,2.945-2.964,2.933,2.933,0,0,0-.863-2.09,2.955,2.955,0,0,0-2.1-.863,2.951,2.951,0,0,0-2.088.853Zm2.08,3.567a1.439,1.439,0,0,1-1.021-.426,1.465,1.465,0,0,1-.435-1.049,1.446,1.446,0,0,1,1.467-1.448,1.443,1.443,0,0,1,1.458,1.456,1.471,1.471,0,0,1-1.459,1.466Zm.011-2.593a1.119,1.119,0,0,0-1.137,1.119,1.136,1.136,0,0,0,.338.815,1.11,1.11,0,0,0,.788.329h.01a1.14,1.14,0,0,0,1.13-1.136A1.117,1.117,0,0,0-1744.026-2109.265Z" transform="translate(1747.319 2111.421)" fill="#fff"/>
      </g>
      <g id="Group_7050" data-name="Group 7050" transform="translate(0 6.552)">
        <path id="Path_221018" data-name="Path 221018" d="M-1763.925-2027.125a6.288,6.288,0,0,0-5.227-2.793,6.289,6.289,0,0,0-5.227,2.793l-.319.474h2.034l.091-.1a4.644,4.644,0,0,1,3.421-1.512,4.644,4.644,0,0,1,3.421,1.512l.091.1h2.034Z" transform="translate(1775.006 2030.083)" fill="#fff"/>
        <path id="Path_221019" data-name="Path 221019" d="M-1766.74-2028.322h-2.416l-.14-.153a4.476,4.476,0,0,0-3.3-1.458,4.477,4.477,0,0,0-3.3,1.458l-.14.153h-2.416l.491-.731a6.454,6.454,0,0,1,5.364-2.866,6.454,6.454,0,0,1,5.363,2.866Zm-2.271-.329h1.652l-.146-.218a6.124,6.124,0,0,0-5.09-2.72,6.125,6.125,0,0,0-5.09,2.72l-.146.218h1.652l.042-.046a4.808,4.808,0,0,1,3.542-1.565,4.807,4.807,0,0,1,3.542,1.565Z" transform="translate(1778.449 2031.919)" fill="#fff"/>
      </g>
    </g>
    <g id="Group_7056" data-name="Group 7056" transform="translate(-13778.458 -4603.05)">
      <g id="Group_7049-2" data-name="Group 7049" transform="translate(2.565 0)">
        <path id="Path_221016-2" data-name="Path 221016" d="M-1744.4-2108.521a3.09,3.09,0,0,0-.922,2.2,3.112,3.112,0,0,0,.924,2.234,3.09,3.09,0,0,0,2.194.91h.022a3.139,3.139,0,0,0,3.11-3.129,3.1,3.1,0,0,0-.911-2.207,3.115,3.115,0,0,0-2.212-.912A3.112,3.112,0,0,0-1744.4-2108.521Zm3.5,2.218a1.306,1.306,0,0,1-1.295,1.3h-.01a1.272,1.272,0,0,1-.9-.377,1.3,1.3,0,0,1-.387-.932,1.282,1.282,0,0,1,1.3-1.283A1.28,1.28,0,0,1-1740.9-2106.3Z" transform="translate(1745.485 2109.586)" fill="#fff"/>
        <path id="Path_221017-2" data-name="Path 221017" d="M-1744.038-2104.845a3.253,3.253,0,0,1-2.31-.958,3.275,3.275,0,0,1-.972-2.351,3.255,3.255,0,0,1,.971-2.319h0a3.28,3.28,0,0,1,2.32-.948,3.283,3.283,0,0,1,2.329.959,3.261,3.261,0,0,1,.96,2.323,3.305,3.305,0,0,1-3.274,3.294Zm-2.079-5.394a2.928,2.928,0,0,0-.873,2.086,2.946,2.946,0,0,0,.875,2.116,2.924,2.924,0,0,0,2.077.863h.023a2.973,2.973,0,0,0,2.945-2.964,2.933,2.933,0,0,0-.863-2.09,2.955,2.955,0,0,0-2.1-.863,2.951,2.951,0,0,0-2.088.853Zm2.08,3.567a1.439,1.439,0,0,1-1.021-.426,1.465,1.465,0,0,1-.435-1.049,1.446,1.446,0,0,1,1.467-1.448,1.443,1.443,0,0,1,1.458,1.456,1.471,1.471,0,0,1-1.459,1.466Zm.011-2.593a1.119,1.119,0,0,0-1.137,1.119,1.136,1.136,0,0,0,.338.815,1.11,1.11,0,0,0,.788.329h.01a1.14,1.14,0,0,0,1.13-1.136A1.117,1.117,0,0,0-1744.026-2109.265Z" transform="translate(1747.319 2111.421)" fill="#fff"/>
      </g>
      <g id="Group_7050-2" data-name="Group 7050" transform="translate(0 6.552)">
        <path id="Path_221018-2" data-name="Path 221018" d="M-1763.925-2027.125a6.288,6.288,0,0,0-5.227-2.793,6.289,6.289,0,0,0-5.227,2.793l-.319.474h2.034l.091-.1a4.644,4.644,0,0,1,3.421-1.512,4.644,4.644,0,0,1,3.421,1.512l.091.1h2.034Z" transform="translate(1775.006 2030.083)" fill="#fff"/>
        <path id="Path_221019-2" data-name="Path 221019" d="M-1766.74-2028.322h-2.416l-.14-.153a4.476,4.476,0,0,0-3.3-1.458,4.477,4.477,0,0,0-3.3,1.458l-.14.153h-2.416l.491-.731a6.454,6.454,0,0,1,5.364-2.866,6.454,6.454,0,0,1,5.363,2.866Zm-2.271-.329h1.652l-.146-.218a6.124,6.124,0,0,0-5.09-2.72,6.125,6.125,0,0,0-5.09,2.72l-.146.218h1.652l.042-.046a4.808,4.808,0,0,1,3.542-1.565,4.807,4.807,0,0,1,3.542,1.565Z" transform="translate(1778.449 2031.919)" fill="#fff"/>
      </g>
    </g>
    <g id="Group_7055" data-name="Group 7055" transform="translate(-13773.519 -4606.747)">
      <path id="Path_221024" data-name="Path 221024" d="M-1905.52-2146.374a.723.723,0,0,0,.708-.735v-.4h15.753v.4a.723.723,0,0,0,.708.735.722.722,0,0,0,.707-.735v-1.872h-18.582v1.872A.722.722,0,0,0-1905.52-2146.374Z" transform="translate(1906.407 2149.162)" fill="#fff"/>
      <path id="Path_221025" data-name="Path 221025" d="M-1890.171-2148.013a.9.9,0,0,1-.888-.916v-.22h-15.391v.22a.9.9,0,0,1-.888.916.9.9,0,0,1-.888-.916v-2.053h18.943v2.053A.9.9,0,0,1-1890.171-2148.013Zm-16.641-1.5h16.114v.582a.542.542,0,0,0,.527.555.542.542,0,0,0,.526-.555v-1.691h-18.22v1.691a.542.542,0,0,0,.527.555.542.542,0,0,0,.527-.555Z" transform="translate(1908.226 2150.981)" fill="#fff"/>
    </g>
    <rect id="Rectangle_6297" data-name="Rectangle 6297" width="1.833" height="3.055" transform="translate(-13773.521 -4606.516)" fill="#fff"/>
    <rect id="Rectangle_6298" data-name="Rectangle 6298" width="1.833" height="3.055" transform="translate(-13756.313 -4606.516)" fill="#fff"/>
  </g>
</svg>
