<svg xmlns="http://www.w3.org/2000/svg" width="50" height="19.903" viewBox="0 0 50 19.903">
  <g id="Pay_service" data-name="Pay service" transform="translate(-0.152 -0.348)">
    <g id="Base" transform="translate(0.152 0.348)">
      <rect id="Shadow" width="50" height="19.903" rx="8" fill="none"/>
      <rect id="Fill" width="50" height="19.903" rx="4" fill="#f9fafb"/>
    </g>
    <g id="paypal-seeklogo.com" transform="translate(5.15 5.348)">
      <path id="Path_215661" data-name="Path 215661" d="M172.738,386.87h2.774c1.489,0,2.05.754,1.963,1.862a2.725,2.725,0,0,1-2.715,2.84h-.74c-.2,0-.337.133-.391.494l-.314,2.1c-.021.136-.092.215-.2.226h-1.743c-.164,0-.222-.125-.179-.4l1.063-6.725A.423.423,0,0,1,172.738,386.87Z" transform="translate(-169.194 -384.555)" fill="#009ee3"/>
      <path id="Path_215662" data-name="Path 215662" d="M313.608,385.13a1.521,1.521,0,0,1,1.681,1.773c-.143,1.5-.949,2.336-2.22,2.339h-1.111c-.16,0-.237.13-.279.4L311.466,391c-.032.206-.138.308-.294.308h-1.033c-.165,0-.222-.105-.185-.341l.853-5.472c.042-.269.143-.369.327-.369h2.473Zm-1.683,2.93h.841c.526-.02.876-.384.911-1.042a.635.635,0,0,0-.689-.695l-.792,0-.271,1.733Zm6.173,2.834c.095-.086.19-.13.177-.024l-.034.253c-.017.132.035.2.158.2h.918c.155,0,.23-.062.268-.3l.566-3.55c.029-.178-.015-.266-.15-.266h-1.01c-.091,0-.135.051-.159.19l-.037.218c-.019.114-.072.134-.12.019-.171-.405-.608-.587-1.217-.573a2.526,2.526,0,0,0-2.472,2.482,1.706,1.706,0,0,0,1.691,1.9,1.815,1.815,0,0,0,1.425-.551h0Zm-.769-.546a.923.923,0,0,1-.946-1.082,1.318,1.318,0,0,1,1.267-1.082.923.923,0,0,1,.946,1.082,1.317,1.317,0,0,1-1.267,1.082Zm4.618-3.15h-.931c-.192,0-.27.143-.209.319l1.156,3.384-1.133,1.61c-.1.135-.021.257.112.257h1.046a.32.32,0,0,0,.311-.152l3.554-5.1c.11-.157.058-.322-.122-.322h-.99c-.17,0-.238.067-.335.208l-1.482,2.148-.662-2.153a.284.284,0,0,0-.314-.2Z" transform="translate(-298.022 -382.94)" fill="#113984"/>
      <path id="Path_215663" data-name="Path 215663" d="M536.277,385.111a1.521,1.521,0,0,1,1.681,1.773c-.143,1.5-.949,2.336-2.22,2.339h-1.11c-.16,0-.237.13-.279.4l-.215,1.365c-.032.206-.138.308-.294.308h-1.033c-.165,0-.222-.105-.185-.341l.854-5.474c.042-.269.143-.369.327-.369h2.473Zm-1.683,2.93h.841c.526-.02.876-.384.911-1.042a.635.635,0,0,0-.689-.695l-.792,0-.271,1.733Zm6.173,2.834c.094-.086.19-.13.177-.024l-.034.253c-.017.132.035.2.158.2h.918c.155,0,.23-.062.268-.3l.566-3.55c.029-.178-.015-.266-.15-.266h-1.008c-.091,0-.135.051-.159.19l-.037.218c-.019.114-.072.134-.12.019-.171-.405-.608-.587-1.217-.573a2.526,2.526,0,0,0-2.472,2.482,1.706,1.706,0,0,0,1.691,1.9,1.815,1.815,0,0,0,1.425-.551h0Zm-.768-.546a.922.922,0,0,1-.946-1.082,1.318,1.318,0,0,1,1.267-1.082.922.922,0,0,1,.946,1.082A1.318,1.318,0,0,1,540,390.329Zm4.234.984h-1.06a.125.125,0,0,1-.13-.143l.931-5.9a.183.183,0,0,1,.176-.143h1.06a.125.125,0,0,1,.13.143l-.931,5.9a.183.183,0,0,1-.176.145Z" transform="translate(-504.749 -382.921)" fill="#009ee3"/>
      <path id="Path_215664" data-name="Path 215664" d="M145.289,354.54h2.777a3.47,3.47,0,0,1,2.33.573,1.882,1.882,0,0,1,.582,1.575c-.17,2.12-1.438,3.308-3.14,3.308h-1.369c-.233,0-.387.155-.453.573L145.633,363c-.025.158-.093.251-.215.262H143.7c-.19,0-.257-.143-.208-.46l1.232-7.8A.493.493,0,0,1,145.289,354.54Z" transform="translate(-143.48 -354.54)" fill="#113984"/>
      <path id="Path_215665" data-name="Path 215665" d="M179.43,390.328l.485-3.07a.424.424,0,0,1,.483-.4h2.774a2.705,2.705,0,0,1,1.121.2A3.086,3.086,0,0,1,181.2,390h-1.367A.4.4,0,0,0,179.43,390.328Z" transform="translate(-176.854 -384.546)" fill="#172c70"/>
    </g>
  </g>
</svg>
