<svg xmlns="http://www.w3.org/2000/svg" width="31.549" height="28.053" viewBox="0 0 31.549 28.053">
  <g id="Group_86" data-name="Group 86" transform="translate(-33.275 -171.627)">
    <g id="Group_85" data-name="Group 85" transform="translate(33.275 171.627)">
      <g id="Group_84" data-name="Group 84">
        <g id="Group_83" data-name="Group 83">
          <path id="Path_40" data-name="Path 40" d="M42.2,178.321,40.492,176.9a3.766,3.766,0,1,0-1.455,1.689l1.762,1.469A8.438,8.438,0,0,1,42.2,178.321Zm3.127,16.031.486-1.821a8.331,8.331,0,0,1-2.077-.864l-.586,2.2a2.929,2.929,0,1,0,2.177.488Zm18.161-13.935a2.992,2.992,0,0,0-4.578,1.588l-2.852.19a8.336,8.336,0,0,1,.308,2.213l2.69-.179a3,3,0,0,0,1.029,1.214,3.035,3.035,0,1,0,3.4-5.027Z" transform="translate(-33.275 -171.627)" fill="#fff"/>
          <path id="Path_41" data-name="Path 41" d="M50.78,180.034a6.544,6.544,0,1,0,6.544,6.544A6.544,6.544,0,0,0,50.78,180.034Zm-.365,5.286,1.511.777a2.279,2.279,0,0,1,1.219,2.426,2.219,2.219,0,0,1-1.307,1.707v.434a.929.929,0,1,1-1.858,0v-.375a2.741,2.741,0,0,1-1.655-1.509.929.929,0,0,1,1.7-.741.9.9,0,0,0,.9.534.4.4,0,0,0,.384-.343.446.446,0,0,0-.235-.481l-1.511-.777a2.291,2.291,0,0,1-1.206-2.476,2.227,2.227,0,0,1,1.621-1.778v-.139a.929.929,0,0,1,1.858,0v.343a2.726,2.726,0,0,1,1.325,1.367.929.929,0,0,1-1.7.742.892.892,0,0,0-.9-.534.4.4,0,0,0-.376.343A.428.428,0,0,0,50.415,185.32Z" transform="translate(-36.09 -173.786)" fill="#fff"/>
        </g>
      </g>
    </g>
  </g>
</svg>
