<svg xmlns="http://www.w3.org/2000/svg" width="16.461" height="16.28" viewBox="0 0 16.461 16.28">
  <path id="Path_219466" data-name="Path 219466" d="M55.379,137.721a.3.3,0,0,1,.016-.053,23.7,23.7,0,0,0-.052-14.541l.035.014c-.055-.271.058-.48.411-.806a2.827,2.827,0,0,1,.7.108c.7.3,1.391.629,2.082.955q3.97,1.885,7.935,3.774,2.32,1.1,4.64,2.2a1.073,1.073,0,0,1,.662,1.043,1.1,1.1,0,0,1-.651,1.147c-.664.311-1.329.62-1.991.937q-5.666,2.711-11.334,5.426c-.455.218-.915.433-1.382.62a.757.757,0,0,1-.927-.22.613.613,0,0,1-.162-.486l-.014.006C55.357,137.8,55.366,137.762,55.379,137.721Z" transform="translate(-55.343 -122.335)" fill="#fff"/>
</svg>
