<svg xmlns="http://www.w3.org/2000/svg" width="17.03" height="17.03" viewBox="0 0 17.03 17.03">
  <path id="Subtraction_71" data-name="Subtraction 71" d="M11548.08,13137.028h-15.134a.937.937,0,0,1-.947-.948v-15.134a.939.939,0,0,1,.947-.948h15.134a.94.94,0,0,1,.949.948v15.134a.939.939,0,0,1-.949.948Zm-13.243-4.258v1.891h11.354v-1.891Zm4.731-10.879-3.945,9.46h2.1l.777-1.893h4.029l.777,1.894h2.1l-3.945-9.46Zm2.184,5.677h-2.48l1.242-3.029,1.237,3.028Z" transform="translate(-11531.999 -13119.998)" fill="#8491a5"/>
</svg>
