<svg xmlns="http://www.w3.org/2000/svg" width="204.228" height="431.896" viewBox="0 0 204.228 431.896">
  <g id="Right-email-flowchat-graphics" transform="translate(-1621.285 -190.954)">
    <g id="Group_4359" data-name="Group 4359" transform="matrix(0.848, 0.53, -0.53, 0.848, 1697.996, 236.406)">
      <rect id="Rectangle_3222" data-name="Rectangle 3222" width="29.623" height="19.043" transform="translate(155.852 127.355) rotate(-11.183)" fill="none" stroke="#174180" stroke-width="2"/>
      <path id="Path_215606" data-name="Path 215606" d="M174.487,138.34l-15.914-8.447L174.9,140.416l11.092-15.943Z" transform="translate(-1.724 -1.814)" fill="#174180"/>
      <g id="Group_4319" data-name="Group 4319" transform="translate(160.271 131.425)">
        <path id="Path_215607" data-name="Path 215607" d="M173.832,154.644l-5.921,11.416,6.627-10.614Z" transform="translate(-167.911 -152.354)" fill="#174180"/>
        <path id="Path_215608" data-name="Path 215608" d="M215.069,148.4l9.82,8.3-10.168-7.294Z" transform="translate(-197.569 -148.396)" fill="#174180"/>
      </g>
    </g>
    <g id="Group_4360" data-name="Group 4360" transform="matrix(0.848, 0.53, -0.53, 0.848, 1731.584, 14.406)">
      <rect id="Rectangle_3222-2" data-name="Rectangle 3222" width="23.982" height="15.417" transform="translate(155.852 126.261) rotate(-11.183)" fill="none" stroke="#174180" stroke-width="1"/>
      <path id="Path_215606-2" data-name="Path 215606" d="M171.457,135.7l-12.884-6.838,13.216,8.519,8.98-12.907Z" transform="translate(-1.914 -2.014)" fill="#174180"/>
      <g id="Group_4319-2" data-name="Group 4319" transform="translate(159.429 129.556)">
        <path id="Path_215607-2" data-name="Path 215607" d="M172.7,154.644l-4.794,9.242,5.365-8.593Z" transform="translate(-167.911 -152.79)" fill="#174180"/>
        <path id="Path_215608-2" data-name="Path 215608" d="M215,148.4l7.95,6.723-8.232-5.9Z" transform="translate(-200.835 -148.396)" fill="#174180"/>
      </g>
    </g>
    <g id="Group_4361" data-name="Group 4361" transform="translate(1554.229 376.662) rotate(27)">
      <rect id="Rectangle_3222-3" data-name="Rectangle 3222" width="63.049" height="40.532" transform="translate(155.852 133.838) rotate(-11.183)" fill="#174180"/>
      <path id="Path_215606-3" data-name="Path 215606" d="M192.445,153.988,158.573,136.01l34.746,22.4,23.609-33.933Z" transform="translate(-0.599 -0.63)" fill="#266cd5"/>
      <g id="Group_4319-3" data-name="Group 4319" transform="translate(165.257 142.5)">
        <path id="Path_215607-3" data-name="Path 215607" d="M180.514,154.644l-12.6,24.3,14.106-22.591Z" transform="translate(-167.911 -149.771)" fill="#266cd5"/>
        <path id="Path_215608-3" data-name="Path 215608" d="M215.461,148.4l20.9,17.674-21.641-15.524Z" transform="translate(-178.215 -148.396)" fill="#266cd5"/>
      </g>
    </g>
    <g id="Group_4353" data-name="Group 4353" transform="translate(949 -9)">
      <rect id="Rectangle_3233" data-name="Rectangle 3233" width="25" height="25" transform="translate(715 514)" fill="#fff"/>
      <rect id="Rectangle_3234" data-name="Rectangle 3234" width="25" height="25" transform="translate(771 476)" fill="#266cd5"/>
      <rect id="Rectangle_3235" data-name="Rectangle 3235" width="25" height="25" transform="translate(771 514)" fill="#266cd5"/>
      <rect id="Rectangle_3236" data-name="Rectangle 3236" width="25" height="25" transform="translate(771 552)" fill="#266cd5"/>
      <rect id="Rectangle_3237" data-name="Rectangle 3237" width="2" height="78" transform="translate(756 489)" fill="#174180"/>
      <rect id="Rectangle_3238" data-name="Rectangle 3238" width="2" height="24.221" transform="translate(745.008 527.5) rotate(-90)" fill="#174180"/>
      <rect id="Rectangle_3239" data-name="Rectangle 3239" width="2" height="13.229" transform="translate(756 490) rotate(-90)" fill="#174180"/>
      <rect id="Rectangle_3240" data-name="Rectangle 3240" width="2" height="13.229" transform="translate(756 567) rotate(-90)" fill="#174180"/>
    </g>
    <g id="Group_4356" data-name="Group 4356" transform="translate(1771.195 401.127) rotate(-167)">
      <rect id="Rectangle_3233-2" data-name="Rectangle 3233" width="16.692" height="16.692" transform="translate(0 25.371)" fill="#174180"/>
      <g id="Rectangle_3234-2" data-name="Rectangle 3234" transform="translate(37.389 50.743)" fill="none" stroke="#174180" stroke-width="2">
        <rect width="16.692" height="16.692" stroke="none"/>
        <rect x="1" y="1" width="14.692" height="14.692" fill="none"/>
      </g>
      <g id="Rectangle_3235-2" data-name="Rectangle 3235" transform="translate(37.389 25.371)" fill="none" stroke="#174180" stroke-width="2">
        <rect width="16.692" height="16.692" stroke="none"/>
        <rect x="1" y="1" width="14.692" height="14.692" fill="none"/>
      </g>
      <g id="Rectangle_3236-2" data-name="Rectangle 3236" transform="translate(37.389 0)" fill="none" stroke="#174180" stroke-width="2">
        <rect width="16.692" height="16.692" stroke="none"/>
        <rect x="1" y="1" width="14.692" height="14.692" fill="none"/>
      </g>
      <rect id="Rectangle_3237-2" data-name="Rectangle 3237" width="1.335" height="52.078" transform="translate(27.374 6.677)" fill="#174180"/>
      <rect id="Rectangle_3238-2" data-name="Rectangle 3238" width="1.335" height="16.171" transform="translate(36.207 33.05) rotate(90)" fill="#174180"/>
      <rect id="Rectangle_3239-2" data-name="Rectangle 3239" width="1.335" height="8.832" transform="translate(36.207 58.087) rotate(90)" fill="#174180"/>
      <rect id="Rectangle_3240-2" data-name="Rectangle 3240" width="1.335" height="8.832" transform="translate(36.207 6.677) rotate(90)" fill="#174180"/>
    </g>
    <g id="Group_4358" data-name="Group 4358" transform="translate(1793.5 276.094) rotate(-13)">
      <rect id="Rectangle_3233-3" data-name="Rectangle 3233" width="7.874" height="7.874" transform="translate(0 11.968)" fill="#174180"/>
      <g id="Rectangle_3234-3" data-name="Rectangle 3234" transform="translate(17.637 0)" fill="none" stroke="#174180" stroke-width="1">
        <rect width="7.874" height="7.874" stroke="none"/>
        <rect x="0.5" y="0.5" width="6.874" height="6.874" fill="none"/>
      </g>
      <g id="Rectangle_3235-3" data-name="Rectangle 3235" transform="translate(17.637 11.968)" fill="none" stroke="#174180" stroke-width="1">
        <rect width="7.874" height="7.874" stroke="none"/>
        <rect x="0.5" y="0.5" width="6.874" height="6.874" fill="none"/>
      </g>
      <g id="Rectangle_3236-3" data-name="Rectangle 3236" transform="translate(17.637 23.936)" fill="none" stroke="#174180" stroke-width="1">
        <rect width="7.874" height="7.874" stroke="none"/>
        <rect x="0.5" y="0.5" width="6.874" height="6.874" fill="none"/>
      </g>
      <rect id="Rectangle_3237-3" data-name="Rectangle 3237" width="0.63" height="24.566" transform="translate(12.913 4.095)" fill="#174180"/>
      <rect id="Rectangle_3238-3" data-name="Rectangle 3238" width="0.63" height="7.628" transform="translate(9.451 16.22) rotate(-90)" fill="#174180"/>
      <rect id="Rectangle_3239-3" data-name="Rectangle 3239" width="0.63" height="4.166" transform="translate(12.913 4.41) rotate(-90)" fill="#174180"/>
      <rect id="Rectangle_3240-3" data-name="Rectangle 3240" width="0.63" height="4.166" transform="translate(12.913 28.661) rotate(-90)" fill="#174180"/>
    </g>
    <g id="Group_4355" data-name="Group 4355" transform="matrix(0.921, -0.391, 0.391, 0.921, 835.412, 54.006)">
      <rect id="Rectangle_3233-4" data-name="Rectangle 3233" width="18" height="17" transform="translate(714.116 502.095)" fill="#266cd5"/>
      <rect id="Rectangle_3234-4" data-name="Rectangle 3234" width="18" height="17" transform="translate(753.116 476.095)" fill="#174180"/>
      <rect id="Rectangle_3235-4" data-name="Rectangle 3235" width="18" height="17" transform="translate(753.116 502.095)" fill="#174180"/>
      <rect id="Rectangle_3236-4" data-name="Rectangle 3236" width="18" height="17" transform="translate(753.116 528.095)" fill="#174180"/>
      <rect id="Rectangle_3237-4" data-name="Rectangle 3237" width="1" height="54" transform="translate(743.116 485.095)" fill="#174180"/>
      <rect id="Rectangle_3238-4" data-name="Rectangle 3238" width="1.369" height="16.574" transform="translate(735.436 511.279) rotate(-90)" fill="#174180"/>
      <rect id="Rectangle_3239-4" data-name="Rectangle 3239" width="1.369" height="8.894" transform="translate(743.117 485.618) rotate(-90)" fill="#174180"/>
      <rect id="Rectangle_3240-4" data-name="Rectangle 3240" width="1.369" height="8.894" transform="translate(743.117 539.309) rotate(-90)" fill="#174180"/>
    </g>
  </g>
</svg>
