<svg xmlns="http://www.w3.org/2000/svg" width="15.266" height="28.469" viewBox="0 0 15.266 28.469">
  <g id="Group_7222" data-name="Group 7222" transform="translate(-85.043 -506.589)">
    <g id="Group_7221" data-name="Group 7221" transform="translate(85.043 506.589)">
      <path id="Path_221100" data-name="Path 221100" d="M165.074,325.481a8.2,8.2,0,0,1-1.206-.434,2.977,2.977,0,0,1-1.633-2.775q-.015-10.531,0-21.062a3.152,3.152,0,0,1,2.756-3.161c.031,0,.058-.032.088-.049h8.588a7.575,7.575,0,0,1,1.232.444,2.985,2.985,0,0,1,1.607,2.739q.014,10.558,0,21.115a3.157,3.157,0,0,1-2.754,3.138.319.319,0,0,0-.089.045Zm10.736-13.646q0-5.233,0-10.465a3.353,3.353,0,0,0-.065-.718,2.509,2.509,0,0,0-2.457-1.953c-2.621-.007-5.242-.012-7.862.01a2.633,2.633,0,0,0-1.1.268,2.455,2.455,0,0,0-1.4,2.39q0,10.291,0,20.582a8.417,8.417,0,0,0,.048.854,2.425,2.425,0,0,0,2.3,2.138q4.105.025,8.211,0a2.113,2.113,0,0,0,.867-.224,2.476,2.476,0,0,0,1.455-2.411Q175.816,317.067,175.81,311.835Z" transform="translate(-161.735 -297.506)" fill="#fff"/>
      <path id="Path_221100_-_Outline" data-name="Path 221100 - Outline" d="M173.776,325.969h-8.792l-.079-.028c-.117-.041-.238-.078-.366-.117a4.823,4.823,0,0,1-.912-.349,3.462,3.462,0,0,1-1.892-3.208c-.008-5.666-.006-11.427-.005-17V301.2a3.638,3.638,0,0,1,3.088-3.636h0l.115-.067h8.8l.079.028c.119.042.242.079.373.118a4.483,4.483,0,0,1,.938.362,3.469,3.469,0,0,1,1.858,3.168c.008,6.078.006,12.258,0,18.235v2.881a3.65,3.65,0,0,1-3.1,3.615l-.013.007Zm-4.144-26.788c-1.607,0-2.945.005-4.211.016a2.133,2.133,0,0,0-.885.217,1.965,1.965,0,0,0-1.121,1.946c0,6.152,0,12.885,0,20.581a7.9,7.9,0,0,0,.046.8,1.926,1.926,0,0,0,1.811,1.694c1.144.007,2.344.01,3.567.01,1.472,0,2.989,0,4.638-.015a1.637,1.637,0,0,0,.656-.175,1.99,1.99,0,0,0,1.175-1.967c0-2.519,0-5.081,0-7.558q0-1.453,0-2.906V309.8c0-2.764,0-5.623,0-8.434a2.847,2.847,0,0,0-.054-.612,2.006,2.006,0,0,0-1.976-1.565C171.978,299.183,170.806,299.181,169.632,299.181Z" transform="translate(-161.729 -297.5)" fill="#fff"/>
      <path id="Path_221101" data-name="Path 221101" d="M185.823,310.6a3.718,3.718,0,1,1-3.561-3.736A3.705,3.705,0,0,1,185.823,310.6Zm-6.736-.016a3.025,3.025,0,1,0,2.832-3.019A3.007,3.007,0,0,0,179.087,310.583Z" transform="translate(-174.477 -304.494)" fill="#fff"/>
      <path id="Path_221101_-_Outline" data-name="Path 221101 - Outline" d="M182.072,314.805a4.222,4.222,0,1,1,3.072-7.139,4.08,4.08,0,0,1,1.166,2.93,4.166,4.166,0,0,1-1.191,2.939A4.227,4.227,0,0,1,182.1,314.8Zm.029-6.759c-.053,0-.106,0-.159,0a2.539,2.539,0,1,0,.159,0Z" transform="translate(-174.471 -304.488)" fill="#fff"/>
      <path id="Path_221102" data-name="Path 221102" d="M185.838,387.613a3.724,3.724,0,1,1-3.749-3.721A3.726,3.726,0,0,1,185.838,387.613Zm-.7.008a3.025,3.025,0,1,0-3.209,3.02A3.026,3.026,0,0,0,185.138,387.621Z" transform="translate(-174.48 -365.242)" fill="#fff"/>
      <path id="Path_221102_-_Outline" data-name="Path 221102 - Outline" d="M182.108,383.393a4.2,4.2,0,0,1,4.218,4.209v.009a4.232,4.232,0,0,1-3.995,4.213c-.075,0-.15.006-.224.006a4.153,4.153,0,0,1-3.033-1.3,4.255,4.255,0,0,1-1.183-2.9,4.314,4.314,0,0,1,1.168-2.928,4.15,4.15,0,0,1,3.022-1.305Zm0,6.754a2.53,2.53,0,0,0,2.531-2.529v-.008a2.532,2.532,0,0,0-2.515-2.539H182.1a2.538,2.538,0,0,0-.144,5.071C182,390.145,182.055,390.147,182.107,390.147Z" transform="translate(-174.474 -365.236)" fill="#fff"/>
      <path id="Path_221103" data-name="Path 221103" d="M185.866,349.11a3.716,3.716,0,1,1-3.719-3.738A3.7,3.7,0,0,1,185.866,349.11Zm-3.693-3.036a3.027,3.027,0,1,0,3,3.1A3.033,3.033,0,0,0,182.174,346.075Z" transform="translate(-174.515 -334.864)" fill="#fff"/>
      <path id="Path_221103_-_Outline" data-name="Path 221103 - Outline" d="M182.2,353.3h-.065a4.174,4.174,0,0,1-4.2-4.341,4.226,4.226,0,0,1,4.212-4.09,4.247,4.247,0,0,1,3.016,1.285A4.207,4.207,0,0,1,182.2,353.3Zm-.1-6.742a2.536,2.536,0,0,0-2.494,2.46,2.494,2.494,0,0,0,.7,1.8,2.548,2.548,0,0,0,1.8.805h.051a2.565,2.565,0,0,0,2.508-2.484,2.522,2.522,0,0,0-2.5-2.584H182.1Z" transform="translate(-174.509 -334.858)" fill="#fff"/>
    </g>
  </g>
</svg>
