<svg xmlns="http://www.w3.org/2000/svg" width="81.992" height="20.85" viewBox="0 0 81.992 20.85">
  <g id="american-express-safekey-seeklogo.com" transform="translate(127 -203.2)" opacity="0.7">
    <path id="Path_215666" data-name="Path 215666" d="M74.7,248.948l1.366-.724a2.988,2.988,0,0,0,2.828,1.79c1.243,0,2.09-.4,2.09-1.339,0-.888-.642-1.3-2.323-1.8-1.981-.588-3.58-1.12-3.58-3.074,0-1.749,1.421-2.9,3.511-2.9a4.038,4.038,0,0,1,3.839,2.213l-1.257.874a2.844,2.844,0,0,0-2.6-1.5c-1.134,0-1.79.41-1.79,1.161,0,.956.738,1.271,2.4,1.776,1.94.574,3.484,1.2,3.484,3.143,0,1.681-1.421,2.992-3.867,2.992a4.226,4.226,0,0,1-4.113-2.61" transform="translate(-174.142 -32.549)" fill="#474c55"/>
    <path id="Path_215667" data-name="Path 215667" d="M138.9,268.325c0-1.6,1.353-2.664,4.8-3.047v-.219c0-.738-.383-1.052-1.2-1.052a3.992,3.992,0,0,0-2.473,1l-.833-1.066a5.263,5.263,0,0,1,3.552-1.339c1.967,0,2.651.943,2.651,2.664V268.3a5.1,5.1,0,0,0,.2,1.8h-1.722a2.71,2.71,0,0,1-.164-.943,3.542,3.542,0,0,1-2.719,1.052,1.866,1.866,0,0,1-2.09-1.885m4.8-.287v-1.626c-2.036.273-3.115.779-3.115,1.585,0,.587.4.888,1.025.888a2.893,2.893,0,0,0,2.09-.847" transform="translate(-229.57 -51.284)" fill="#474c55"/>
    <path id="Path_215668" data-name="Path 215668" d="M195.571,252.316V246.3H194.3v-1.366h1.271v-.751c0-1.23.519-2.186,2.377-2.186.314,0,.888.055,1.011.068v1.325a3.178,3.178,0,0,0-.588-.055c-.615,0-1.107.164-1.107.956v.656h1.612v1.366h-1.612v6.012h-1.694Z" transform="translate(-277.401 -33.499)" fill="#474c55"/>
    <path id="Path_215669" data-name="Path 215669" d="M232.3,266.326a3.5,3.5,0,0,1,3.5-3.826c1.653,0,3.224.984,3.224,3.99v.4h-5.028a1.817,1.817,0,0,0,1.967,1.913,2.632,2.632,0,0,0,2.063-.861l.9.888a3.978,3.978,0,0,1-3.088,1.339c-1.831,0-3.539-1.12-3.539-3.839m5.165-.71c-.1-1.12-.656-1.722-1.681-1.722a1.73,1.73,0,0,0-1.763,1.722Z" transform="translate(-310.209 -51.198)" fill="#474c55"/>
    <path id="Path_215670" data-name="Path 215670" d="M292.7,252.575V242.3h1.23v5.3l4.632-5.3h1.476l-3.525,3.908,4,6.367h-1.394l-3.416-5.438L293.93,249.1v3.47Z" transform="translate(-362.356 -33.758)" fill="#878a8f"/>
    <path id="Path_215671" data-name="Path 215671" d="M352.5,266.512c0-2.664,1.776-3.812,3.306-3.812,1.735,0,3.047,1.216,3.047,3.867v.246h-5.165c.041,1.653,1,2.541,2.2,2.541a2.451,2.451,0,0,0,2.2-1.189l.7.615a3.419,3.419,0,0,1-2.979,1.558c-1.735,0-3.306-1.271-3.306-3.826m5.219-.615c-.1-1.3-.724-2.186-1.927-2.186a2.143,2.143,0,0,0-2.077,2.186Z" transform="translate(-413.986 -51.371)" fill="#878a8f"/>
    <path id="Path_215672" data-name="Path 215672" d="M403,273.86l.273-.956a4.292,4.292,0,0,0,1.079.123,1.333,1.333,0,0,0,1.394-1.038l.273-.724-2.828-7.364h1.257l2.145,5.93h.027l2.145-5.93h1.2l-3.129,8.157c-.506,1.284-1.066,1.981-2.487,1.981A4.406,4.406,0,0,1,403,273.86" transform="translate(-457.586 -52.407)" fill="#878a8f"/>
    <path id="Path_215673" data-name="Path 215673" d="M457.1,264.507a1.085,1.085,0,0,1,1.107-1.107,1.068,1.068,0,0,1,1.079,1.093,1.085,1.085,0,0,1-1.107,1.107,1.068,1.068,0,0,1-1.079-1.093m1.954,0a.87.87,0,0,0-.874-.9.888.888,0,0,0,.014,1.776.844.844,0,0,0,.861-.874m-1.3-.628h.465c.287,0,.465.123.465.4a.325.325,0,0,1-.219.342l.232.451h-.3l-.219-.424h-.137v.424h-.287v-1.189Zm.437.56c.123,0,.2-.041.2-.15s-.068-.15-.2-.15h-.15v.3Z" transform="translate(-504.294 -51.975)" fill="#878a8f"/>
    <path id="Path_215674" data-name="Path 215674" d="M-106.078,224.222H-126.9V203.4h20.822v20.822Z" transform="translate(-0.086 -0.173)" fill="#fff"/>
    <path id="Path_215675" data-name="Path 215675" d="M-113.747,218.011l-.506-.628v.628h-1.489v-.9a2.368,2.368,0,0,1-.656.1h-.232V218h-2.186l-.369-.519-.355.519h-3.593v-3.552h3.593l.369.519.369-.519h12.638V203.2h-20.822v8.225l.7-1.626h1.421l.41.915V209.8h1.735l.26.779.26-.779h7.651v.355a1.669,1.669,0,0,1,1.093-.355h2.323l.41.915V209.8h1.366l.451.724V209.8h1.558v3.552H-108.8l-.437-.7v.7h-2.118l-.2-.533h-.492l-.2.533H-113.5a1.628,1.628,0,0,1-1.052-.328v.328h-2.09l-.506-.629v.629h-7.966l-.2-.533h-.492l-.2.533H-127v10.671h20.836v-6.23a1.494,1.494,0,0,1-.792.219Z" transform="translate(0 0)" fill="#0079c2"/>
    <path id="Path_215676" data-name="Path 215676" d="M-78.191,289.614V289.6h-1.257a.763.763,0,0,0-.847.765.686.686,0,0,0,.765.724h.56a.223.223,0,0,1,.246.219.216.216,0,0,1-.246.219h-1.257v.519h1.243a.775.775,0,0,0,.792-.492.893.893,0,0,0,.055-.287.7.7,0,0,0-.055-.3.707.707,0,0,0-.71-.41h-.574a.219.219,0,0,1-.232-.219.212.212,0,0,1,.232-.219h1.052Zm-3.771.738a.212.212,0,0,1,.232-.219h1.052l.232-.519h-1.271a.763.763,0,0,0-.847.765.686.686,0,0,0,.765.724h.56a.223.223,0,0,1,.246.219.216.216,0,0,1-.246.219h-1.257v.519h1.243a.766.766,0,0,0,.847-.779.677.677,0,0,0-.765-.71h-.574a.208.208,0,0,1-.219-.219m-2.815,1.708h1.967v-.519h-1.38v-.451h1.339v-.505h-1.339v-.437h1.38v-.519h-1.967Zm-.137,0-.82-.9a.778.778,0,0,0,.669-.779.766.766,0,0,0-.847-.779h-1.339v2.459h.588v-.874h.273l.724.874Zm-1.052-1.394h-.683v-.547h.683a.278.278,0,0,1,.314.273.278.278,0,0,1-.314.273m-1.6-.246a.782.782,0,0,0-.847-.82h-1.353v2.459h.588v-.806h.738a.807.807,0,0,0,.874-.833m-.6.014a.29.29,0,0,1-.314.3h-.71v-.6h.71a.277.277,0,0,1,.314.3m-1.708,1.626-.984-1.243.984-1.216H-90.6l-.6.779-.6-.779h-.738l.984,1.23-.984,1.23h.724l.6-.792.6.792Zm-4.727,0h1.967v-.519h-1.38v-.451h1.339v-.505h-1.339v-.437h1.38v-.519H-94.6Z" transform="translate(-27.973 -74.595)" fill="#0d79bf"/>
    <path id="Path_215677" data-name="Path 215677" d="M-107.826,258.159V255.7h-.574V257l.014.3h-.014l-.164-.273-.861-1.325h-.724v2.459h.574v-1.366l-.014-.287h.014l.164.273.9,1.38Zm-3.115,0h.669l-1.052-2.459h-.779l-1.052,2.459h.629l.2-.519h1.161Zm-.41-1h-.779l.232-.574.15-.383h.014l.15.383Zm-2.049-.929h.642V255.7h-.683a1.1,1.1,0,0,0-1.175,1.2v.041a1.082,1.082,0,0,0,1.134,1.2h.041l.246-.519h-.178a.608.608,0,0,1-.642-.683V256.9a.583.583,0,0,1,.615-.669m-2.159,1.927h.588V255.7h-.588v2.459Zm-.15,0-.82-.9a.778.778,0,0,0,.669-.779.766.766,0,0,0-.847-.779h-1.339v2.459h.588v-.874h.273l.724.874Zm-1.052-1.394h-.683v-.547h.683a.278.278,0,0,1,.314.273.286.286,0,0,1-.314.273m-3.648,1.394h1.967v-.519h-1.366v-.451h1.339v-.506h-1.339v-.437h1.366v-.519h-1.967Zm-1.025,0h.574V255.7h-.956l-.478,1.421-.082.273h-.014l-.082-.273-.478-1.421h-.956v2.459h.574v-1.612l-.014-.369h.014l.123.369.56,1.612h.533l.56-1.612.123-.369h.014l-.014.369Zm-3.252,0h.669l-1.052-2.459h-.779l-1.052,2.459h.628l.2-.519h1.161Zm-.4-1h-.779l.232-.574.15-.383h.014l.15.383Z" transform="translate(-0.086 -45.327)" fill="#0d79bf"/>
  </g>
</svg>
