<?xml version="1.0" encoding="utf-8"?>
<!-- Generator: Adobe Illustrator 21.1.0, SVG Export Plug-In . SVG Version: 6.00 Build 0)  -->
<svg version="1.1" id="Layer_1" xmlns="http://www.w3.org/2000/svg" xmlns:xlink="http://www.w3.org/1999/xlink" x="0px" y="0px"
	 viewBox="0 0 24 24" style="enable-background:new 0 0 24 24;" xml:space="preserve">
<g>
	<path fill="currentColor" d="M4.5,3.4c0.3,0.1,0.7,0.2,1.1,0.4C5.8,3.8,6,3.9,6.2,4C7,4.3,7.9,3.8,8,2.9C8.1,2.5,8.2,2,8.3,1.6C8.4,0.7,9.2,0,10.1,0
		c1.3,0,2.6,0,4,0c0.9,0,1.7,0.7,1.8,1.6C16,2,16,2.4,16.1,2.8c0.2,1,1,1.5,1.9,1.1c0.4-0.2,0.9-0.3,1.3-0.5c0.8-0.2,1.6,0,2,0.7
		c0.8,1.2,1.5,2.5,2.2,3.8c0.4,0.7,0.1,1.6-0.5,2.1c-0.3,0.3-0.7,0.6-1,0.8c-0.7,0.6-0.7,1.6,0,2.2c0.3,0.3,0.6,0.5,1,0.8
		c0.7,0.6,0.9,1.5,0.4,2.3c-0.6,1.2-1.3,2.3-2,3.5c-0.5,0.8-1.3,1.1-2.2,0.8c-0.4-0.1-0.9-0.3-1.3-0.5c-0.9-0.3-1.7,0.2-1.9,1.1
		C16,21.6,16,22,15.9,22.4C15.7,23.3,15,24,14.1,24c-1.4,0-2.7,0-4.1,0c-0.9,0-1.6-0.7-1.8-1.6c-0.1-0.4-0.1-0.8-0.2-1.2
		c-0.2-1-1-1.5-2-1.1c-0.4,0.1-0.8,0.3-1.2,0.4c-0.9,0.3-1.8,0-2.3-0.9c-0.6-1.1-1.2-2.1-1.8-3.2c-0.3-0.5-0.5-1-0.3-1.6
		c0.1-0.3,0.3-0.7,0.6-0.9c0.3-0.3,0.7-0.5,1-0.8c0.7-0.6,0.7-1.6,0-2.2c-0.3-0.3-0.7-0.5-1-0.8C0.4,9.5,0.3,8.6,0.7,7.7
		c0.6-1.2,1.3-2.3,2-3.4C3,3.7,3.6,3.4,4.5,3.4z M2.3,8.7c0.3,0.3,0.7,0.5,1,0.8c1.6,1.4,1.6,3.7,0,5.1c-0.3,0.3-0.6,0.5-1,0.8
		c0.7,1.1,1.3,2.3,2,3.4c0.4-0.2,0.8-0.3,1.1-0.4c2-0.8,4.1,0.5,4.5,2.6c0.1,0.4,0.1,0.8,0.2,1.2c0.7,0,1.3,0,2,0c0.7,0,1.3,0,2,0
		c0.1-0.4,0.1-0.9,0.2-1.3c0.3-1.9,2.2-3.2,4.1-2.6c0.5,0.1,1,0.3,1.5,0.5c0.6-1.1,1.2-2.1,1.8-3.1c0-0.1,0.1-0.2,0.1-0.3
		c-0.3-0.3-0.6-0.5-1-0.8c-1.6-1.4-1.6-3.7,0-5.1c0.3-0.3,0.6-0.5,1-0.8c-0.7-1.1-1.3-2.3-2-3.4c-0.4,0.1-0.7,0.3-1.1,0.4
		c-2.1,0.8-4.2-0.4-4.5-2.6c-0.1-0.4-0.1-0.8-0.2-1.2c-1.3,0-2.6,0-3.9,0C10,2.4,10,2.8,9.9,3.2C9.6,5.1,7.7,6.3,5.8,5.8
		c-0.5-0.1-1-0.3-1.5-0.5C3.6,6.4,3,7.5,2.3,8.7z"/>
	<path fill="currentColor" d="M16.7,12c0,2.5-2.1,4.6-4.6,4.6c-2.5,0-4.6-2.1-4.6-4.7c0-2.5,2.1-4.6,4.6-4.6C14.6,7.4,16.7,9.5,16.7,12z M14.8,12
		c0-1.5-1.2-2.7-2.7-2.7c-1.5,0-2.7,1.2-2.7,2.7c0,1.5,1.2,2.8,2.8,2.8C13.6,14.8,14.8,13.5,14.8,12z"/>
</g>
</svg>
