<svg xmlns="http://www.w3.org/2000/svg" width="20" height="19.28" viewBox="0 0 20 19.28">
  <path id="Settings" d="M3528,7738a9.789,9.789,0,0,1,.32-2.5,3.089,3.089,0,0,0,1.58-.36,3.052,3.052,0,0,0,1.17-1.14,2.91,2.91,0,0,0,.4-1.58,2.947,2.947,0,0,0-.48-1.55,10.072,10.072,0,0,1,4.33-2.51,3.058,3.058,0,0,0,1.11,1.2,3.022,3.022,0,0,0,3.14,0,2.963,2.963,0,0,0,1.1-1.2,10.048,10.048,0,0,1,4.34,2.51,3.05,3.05,0,0,0-.49,1.55,3.053,3.053,0,0,0,1.57,2.72,3.051,3.051,0,0,0,1.59.36,9.924,9.924,0,0,1,0,5,2.977,2.977,0,0,0-2.75,1.5,2.91,2.91,0,0,0-.4,1.58,2.947,2.947,0,0,0,.48,1.55,10.048,10.048,0,0,1-4.34,2.51,2.963,2.963,0,0,0-1.1-1.2,3.022,3.022,0,0,0-3.14,0,3.058,3.058,0,0,0-1.11,1.2,10.072,10.072,0,0,1-4.33-2.51,2.947,2.947,0,0,0,.48-1.55,2.91,2.91,0,0,0-.4-1.58,3.052,3.052,0,0,0-1.17-1.14,2.994,2.994,0,0,0-1.58-.36A9.789,9.789,0,0,1,3528,7738Zm4.8,3a5.026,5.026,0,0,1,.57,3.52,8.321,8.321,0,0,0,1.29.75,5.027,5.027,0,0,1,6.68,0,8.321,8.321,0,0,0,1.29-.75,5.01,5.01,0,0,1,3.34-5.77,9.381,9.381,0,0,0,0-1.5,4.984,4.984,0,0,1-3.34-5.77,7.319,7.319,0,0,0-1.3-.75,5.014,5.014,0,0,1-6.67,0,7.606,7.606,0,0,0-1.29.75,5.01,5.01,0,0,1-3.34,5.77,9.381,9.381,0,0,0,0,1.5,4.945,4.945,0,0,1,2.77,2.25Zm5.2,0a3,3,0,1,1,2.12-.88A3,3,0,0,1,3538,7741Zm0-2a.99.99,0,1,0-.71-.29A1.032,1.032,0,0,0,3538,7739Z" transform="translate(-3528 -7728.36)" fill="#fff"/>
</svg>
