<svg xmlns="http://www.w3.org/2000/svg" width="23.378" height="24.006" viewBox="0 0 23.378 24.006">
  <g id="Group_89" data-name="Group 89" transform="translate(-36 -239.503)">
    <g id="Group_89-2" data-name="Group 89" transform="translate(36 239.503)">
      <path id="Path_42" data-name="Path 42" d="M51.371,258.946a.305.305,0,0,0-.387-.047,6.9,6.9,0,0,1-3.941,1.011,6.946,6.946,0,0,1-1.485-13.645.312.312,0,0,0,.235-.3v-3.882a.32.32,0,0,0-.37-.317,11.411,11.411,0,0,0-8.877,14.783,12.132,12.132,0,0,0,7.413,7.3A11.475,11.475,0,0,0,54.012,262.2a.313.313,0,0,0,.041-.469C53.448,261.1,51.888,259.5,51.371,258.946Zm5.86-12.783a.318.318,0,0,0-.485-.039l-2.095,2.094L53.539,249.3a.312.312,0,0,0-.054.374,6.909,6.909,0,0,1-.9,7.885.311.311,0,0,0,.009.43l3.131,3.131a.32.32,0,0,0,.458-.006,11.927,11.927,0,0,0,1.053-14.955Z" transform="translate(-36 -240.334)" fill="#fff"/>
      <path id="Path_43" data-name="Path 43" d="M62.852,243.129a12.587,12.587,0,0,0-8.525-3.626.322.322,0,0,0-.327.322v6.322a.315.315,0,0,0,.3.311,5.657,5.657,0,0,1,3.615,1.565.314.314,0,0,0,.439,0l1.82-1.772,2.673-2.673A.32.32,0,0,0,62.852,243.129Z" transform="translate(-42.627 -239.503)" fill="#fff"/>
    </g>
  </g>
</svg>
