<svg xmlns="http://www.w3.org/2000/svg" width="69.002" height="69.002" viewBox="0 0 69.002 69.002">
  <g id="Group_5400" data-name="Group 5400" transform="translate(1490.701 -473.268)">
    <path id="Path_216042" data-name="Path 216042" d="M-1424.369,494.461a1.882,1.882,0,0,0-.141-.329c-.024-.059-.047-.118-.082-.188-.071-.153-.14-.318-.212-.482-.118-.259-.234-.518-.365-.776a32.631,32.631,0,0,0-15.56-15.76,40.884,40.884,0,0,0-9.644-3.164,35.283,35.283,0,0,0-5.832-.494,34.5,34.5,0,0,0-34.5,34.507,34.493,34.493,0,0,0,34.5,34.5,34.5,34.5,0,0,0,34.506-34.5A34.312,34.312,0,0,0-1424.369,494.461Zm-31.871,45.715a32.206,32.206,0,0,1-32.062-32.131A32.165,32.165,0,0,1-1456.17,476a32.174,32.174,0,0,1,32.072,32.261A32.263,32.263,0,0,1-1456.24,540.177Z" transform="translate(0)" fill="#4aac32"/>
    <path id="Path_216043" data-name="Path 216043" d="M-1450.981,490.223l-9.847,10.073-1.2,1.231q-4.356,4.309-8.6,8.509-4.017-3.979-8.13-8.041l-1.224,1.231c3.149,3.178,6.13,6.179,9.16,9.236l.181.207.012-.012.011.012.181-.206c3.249-3.276,6.443-6.492,9.848-9.924l1.012-1.041,9.7-9.953Z" transform="translate(8.73 8.087)" fill="#4aac32"/>
  </g>
</svg>
