<svg xmlns="http://www.w3.org/2000/svg" width="21" height="21" viewBox="0 0 21 21">
  <path id="Path_6913" data-name="Path 6913" d="M3413,14633a8.138,8.138,0,0,1,2.34-5.7,8.115,8.115,0,0,1,11.32,0,8.138,8.138,0,0,1,2.34,5.7h-2a5.828,5.828,0,0,0-1.76-4.2,5.894,5.894,0,0,0-8.48,0,5.828,5.828,0,0,0-1.76,4.2Zm8-9a6,6,0,1,1,6-6A6,6,0,0,1,3421,14624Zm0-2a4,4,0,1,0-4-4A4.005,4.005,0,0,0,3421,14622Zm8.28,3.7a8.127,8.127,0,0,1,4.72,7.3h-2a6.082,6.082,0,0,0-.96-3.3,6.675,6.675,0,0,0-2.58-2.2l.82-1.8Zm-.68-11.3a5.424,5.424,0,0,1,2.47,2,5.56,5.56,0,0,1,.93,3.1,5.383,5.383,0,0,1-1.44,3.7,5.459,5.459,0,0,1-3.56,1.8v-2a3.655,3.655,0,0,0,1.96-1,3.419,3.419,0,0,0,1-2,3.3,3.3,0,0,0-.35-2.1,3.174,3.174,0,0,0-1.57-1.5Z" transform="translate(-3413 -14612)" fill="#fff"/>
</svg>
