<svg id="visa-logo" xmlns="http://www.w3.org/2000/svg" width="44" height="19.903" viewBox="0 0 44 19.903">
  <g id="Pay_service" data-name="Pay service">
    <g id="Base">
      <rect id="Shadow" width="44" height="19.903" rx="8" fill="none"/>
      <rect id="Fill" width="44" height="19.903" rx="4" fill="#fff"/>
    </g>
    <g id="visa_2_" data-name="visa (2)" transform="translate(5.562 4.566)">
      <g id="Group" transform="translate(0 0)">
        <path id="Shape" d="M15.869,10.114l.4-2.321c1.1.884,4.416,1.135,4.416-.267s-3.7-1.436-3.7-4.105C16.981.584,20.136,0,21.464,0a7.687,7.687,0,0,1,2.407.451L23.489,2.67c-1.145-.634-3.752-.785-3.752.384s3.735,1.419,3.735,4.106c0,2.587-2.756,3.538-4.582,3.538A7.471,7.471,0,0,1,15.869,10.114Zm-10.744.406L2.8,1.541A9.978,9.978,0,0,0,0,.36L.05.185H4.268a1.148,1.148,0,0,1,1.27.93l.9,4.647h0l.3,1.531L9.292.185h2.881L7.914,10.519Zm25.219,0-.314-1.535h-3.4l-.558,1.535H23.28L27.272.954a1.231,1.231,0,0,1,1.236-.77h2.152L32.8,10.519Zm-18.8,0L13.216.185h2.677L14.22,10.519Z" fill="#2566af"/>
      </g>
      <path id="Path" d="M6.438,5.578,5.538.93A1.148,1.148,0,0,0,4.268,0H.05L0,.175a10.346,10.346,0,0,1,3.972,2A8.06,8.06,0,0,1,6.438,5.578Z" transform="translate(0 0.184)" fill="#e6a540"/>
    </g>
  </g>
</svg>
