<svg xmlns="http://www.w3.org/2000/svg" width="44.906" height="14.533" viewBox="0 0 44.906 14.533">
  <g id="g4158" transform="translate(-81.166 -105.048)" opacity="0.7">
    <path id="polygon9" d="M437.145,124.8h-3.638l2.275-14.069h3.638Z" transform="translate(-336.52 -5.424)" fill="#00579f"/>
    <path id="path11" d="M576.091,105.647a8.965,8.965,0,0,0-3.263-.6c-3.592,0-6.122,1.916-6.138,4.654-.03,2.021,1.811,3.143,3.188,3.817,1.407.688,1.886,1.138,1.886,1.752-.014.942-1.137,1.377-2.185,1.377a7.24,7.24,0,0,1-3.413-.748l-.479-.225-.509,3.158a11.071,11.071,0,0,0,4.057.749c3.817,0,6.3-1.886,6.331-4.8.015-1.6-.958-2.829-3.053-3.831-1.272-.644-2.051-1.078-2.051-1.736.015-.6.659-1.212,2.1-1.212a6.18,6.18,0,0,1,2.71.539l.329.149.495-3.038Z" transform="translate(-462.279)" fill="#00579f"/>
    <path id="path13" d="M796.15,119.811c.3-.808,1.452-3.936,1.452-3.936-.015.03.3-.823.479-1.347l.254,1.212s.689,3.368.838,4.071Zm4.49-9.085h-2.814a1.8,1.8,0,0,0-1.9,1.167l-5.4,12.9h3.817l.763-2.11h4.671c.1.494.434,2.11.434,2.11h3.368l-2.935-14.068Z" transform="translate(-677.503 -5.424)" fill="#00579f"/>
    <path id="path15" d="M174.817,110.727l-3.563,9.593-.389-1.946a10.768,10.768,0,0,0-5.029-5.9l3.263,12.3h3.847l5.718-14.054Z" transform="translate(-80.868 -5.424)" fill="#00579f"/>
    <path id="path17" d="M87.078,110.727H81.226l-.06.284c4.565,1.167,7.589,3.982,8.831,7.364l-1.272-6.466a1.505,1.505,0,0,0-1.646-1.183Z" transform="translate(0 -5.424)" fill="#faa61a"/>
  </g>
</svg>
