<svg xmlns="http://www.w3.org/2000/svg" width="20" height="20" viewBox="0 0 20 20">
  <g id="Group_666" data-name="Group 666" transform="translate(6621 6303.5)">
    <path id="Path_7053" data-name="Path 7053" d="M4043.75,1432h-5.5v5.5h5.5Zm-3.67,3.67v-1.84h1.84v1.84Z" transform="translate(-10652 -7735.5)" fill="#fff"/>
    <path id="Path_7054" data-name="Path 7054" d="M4043.75,1448.5h-5.5v5.5h5.5Zm-3.67,3.67v-1.84h1.84v1.84Z" transform="translate(-10652 -7737.5)" fill="#fff"/>
    <path id="Path_7055" data-name="Path 7055" d="M4046.5,1440.25h5.5v5.5h-5.5Zm1.83,1.83v1.84h1.84v-1.84h-1.84Z" transform="translate(-10653 -7736.5)" fill="#fff"/>
    <path id="Path_7056" data-name="Path 7056" d="M4035.5,1440.25H4030v5.5h5.5Zm-3.67,3.67v-1.84h1.84v1.84h-1.84Z" transform="translate(-10651 -7736.5)" fill="#fff"/>
    <path id="Path_7057" data-name="Path 7057" d="M4040,1448.526a6.505,6.505,0,0,0,6.526-6.526v.819h1.594a8.157,8.157,0,0,1-7.3,7.3v-1.594Zm-8.12-5.707a8.158,8.158,0,0,0,7.3,7.3v-1.594H4040a6.535,6.535,0,1,1,6.526-6.526v-.819h1.594v.036a8.152,8.152,0,0,0-7.3-7.336v1.594h-1.638v-1.594a8.158,8.158,0,0,0-7.3,7.3h1.594v1.638Z" transform="translate(-10651 -7735.5)" fill="#fff"/>
  </g>
</svg>
