<svg xmlns="http://www.w3.org/2000/svg" width="53.964" height="53.853" viewBox="0 0 53.964 53.853">
  <path id="Path_220923" data-name="Path 220923" d="M145.193,206.06c.084,0,.167,0,.25,0a10.231,10.231,0,0,0,10.17-8.206,9.744,9.744,0,0,0-.95-6.877,10.316,10.316,0,0,0-7.09-5.367l-.442-.1v-8.639l11.5-11.487L145.464,152.21l-11.3,11.311-.327.089h-8.6l-.1-.448a10.344,10.344,0,0,0-20.266.033,9.959,9.959,0,0,0,.723,6.29,10.364,10.364,0,0,0,7.336,5.893l.437.1v9.937H104.7v20.626h20.61V185.41h-8.669V175.5l.428-.111a10.438,10.438,0,0,0,8.092-8.1l.109-.43H133.7l10.173,10.176v8.492l-.446.1a10.242,10.242,0,0,0-6.46,4.327,10.018,10.018,0,0,0-1.616,7.617A10.29,10.29,0,0,0,145.193,206.06Zm-23.11-17.407v14.18H107.916v-14.18Zm-7.118-16.31h-.084a7.137,7.137,0,0,1-6.986-7.129,7.1,7.1,0,0,1,2.158-5.063,7.213,7.213,0,0,1,5.057-2.008h.1a7.1,7.1,0,0,1-.248,14.2Zm21.986-6.93,8.6-8.579,8.548,8.545-8.6,8.592Zm3.528,25.326a7.089,7.089,0,0,1,5.061-2.1h.013a7.108,7.108,0,0,1-.049,14.215h-.022a7.132,7.132,0,0,1-7.071-7.022A7.152,7.152,0,0,1,140.479,190.739Z" transform="translate(-104.667 -152.21)" fill="#fff"/>
</svg>
