<svg xmlns="http://www.w3.org/2000/svg" width="20" height="21" viewBox="0 0 20 21">
  <path id="Path_221021" data-name="Path 221021" d="M-207.155,417.193l5.05,5.316-4.241,4.457v3.024a3.944,3.944,0,0,1,2.7,2.149,4.1,4.1,0,0,1,.363,2.764,3.965,3.965,0,0,1-3.971,3.289,4,4,0,0,1-3.755-3.407,4.189,4.189,0,0,1,.617-3.056,3.9,3.9,0,0,1,2.46-1.736v-2.964l-3.555-3.742h-2.8a4.105,4.105,0,0,1-3.073,3.238v3.381h3.133v8.281h-7.861V429.91h3.137v-3.39a3.977,3.977,0,0,1-2.79-2.36,4.189,4.189,0,0,1-.277-2.525,4.019,4.019,0,0,1,3.612-3.316,4,4,0,0,1,4.116,3.3h2.94Zm-8.656,14.381h-4.707v4.957h4.707Zm.007-9.119a2.434,2.434,0,0,0-2.286-2.482,2.423,2.423,0,0,0-2.435,2.474,2.44,2.44,0,0,0,2.321,2.491A2.42,2.42,0,0,0-215.8,422.455Zm8.662,14.084a2.437,2.437,0,0,0,2.366-2.525,2.44,2.44,0,0,0-2.351-2.447,2.432,2.432,0,0,0-2.37,2.518A2.434,2.434,0,0,0-207.142,436.539Zm.017-16.974-2.815,2.955,2.8,2.947,2.814-2.96Z" transform="translate(222.105 -417.193)" fill="#fff"/>
</svg>
