<svg xmlns="http://www.w3.org/2000/svg" width="124.934" height="159.551" viewBox="0 0 124.934 159.551">
  <g id="Group_5022" data-name="Group 5022" transform="translate(-8.987)">
    <g id="Group_5020" data-name="Group 5020" transform="translate(15.566 0)">
      <g id="Group_4984" data-name="Group 4984" transform="translate(0 8.399)">
        <path id="Path_215775" data-name="Path 215775" d="M1928.113,838.748V968.664a10.616,10.616,0,0,1-10.615,10.618h-97.124l-.192,0a10.609,10.609,0,0,1-10.423-10.616V838.748a10.617,10.617,0,0,1,10.615-10.618H1917.5A10.617,10.617,0,0,1,1928.113,838.748Z" transform="translate(-1809.759 -828.13)" fill="#fff"/>
        <path id="Path_215776" data-name="Path 215776" d="M2269.709,1231.718V1346.85a10.617,10.617,0,0,1-10.616,10.618h-84.8C2268.4,1353.142,2269.709,1231.718,2269.709,1231.718Z" transform="translate(-2151.355 -1206.316)" fill="#e8e8e8"/>
      </g>
      <g id="Group_4985" data-name="Group 4985" transform="translate(11.87 16.815)">
        <path id="Path_215777" data-name="Path 215777" d="M1998.36,961.854v125l7.2,7.2h87.411v-132.2Z" transform="translate(-1998.36 -961.854)" fill="#151d32" stroke="#161615" stroke-miterlimit="10" stroke-width="1"/>
        <path id="Path_215778" data-name="Path 215778" d="M2005.563,2955.12l-7.2-7.2h7.2Z" transform="translate(-1998.36 -2822.917)" fill="#87b1e0"/>
      </g>
      <g id="Group_5015" data-name="Group 5015" transform="translate(17.061 27.031)">
        <g id="Group_4992" data-name="Group 4992" transform="translate(0 86.402)">
          <g id="Group_4990" data-name="Group 4990" transform="translate(0 0)">
            <g id="Group_4989" data-name="Group 4989">
              <g id="Group_4988" data-name="Group 4988">
                <g id="Group_4987" data-name="Group 4987">
                  <g id="Group_4986" data-name="Group 4986">
                    <circle id="Ellipse_84" data-name="Ellipse 84" cx="9.992" cy="9.992" r="9.992" transform="translate(0 14.131) rotate(-45)" fill="#578cca"/>
                  </g>
                </g>
              </g>
            </g>
            <path id="Path_215779" data-name="Path 215779" d="M2219.849,2648.755l-4.159-4.506,1.922-1.774,2.1,2.28,5.225-6.477,2.036,1.643Z" transform="translate(-2207.202 -2629.384)" fill="#fff"/>
          </g>
          <g id="Group_4991" data-name="Group 4991" transform="translate(30.319 8.024)">
            <rect id="Rectangle_3427" data-name="Rectangle 3427" width="37.455" height="3.475" rx="1.738" fill="#fff"/>
            <rect id="Rectangle_3428" data-name="Rectangle 3428" width="43.719" height="3.475" rx="1.738" transform="translate(0 8.74)" fill="#578cca"/>
          </g>
        </g>
        <g id="Group_5000" data-name="Group 5000" transform="translate(2.012 58.905)">
          <g id="Group_4997" data-name="Group 4997" transform="translate(2.127 2.127)">
            <g id="Group_4996" data-name="Group 4996">
              <g id="Group_4995" data-name="Group 4995">
                <g id="Group_4994" data-name="Group 4994">
                  <g id="Group_4993" data-name="Group 4993">
                    <circle id="Ellipse_85" data-name="Ellipse 85" cx="9.992" cy="9.992" r="9.992" fill="#578cca"/>
                  </g>
                </g>
              </g>
            </g>
            <path id="Path_215780" data-name="Path 215780" d="M2219.849,2179.888l-4.159-4.506,1.922-1.774,2.1,2.279,5.225-6.476,2.036,1.643Z" transform="translate(-2211.341 -2164.657)" fill="#fff"/>
          </g>
          <g id="Group_4998" data-name="Group 4998" transform="translate(28.307 6.012)">
            <rect id="Rectangle_3429" data-name="Rectangle 3429" width="37.455" height="3.475" rx="1.738" transform="translate(37.455 12.215) rotate(180)" fill="#578cca"/>
            <path id="Path_215781" data-name="Path 215781" d="M2564.3,2155.607h40.243a1.738,1.738,0,0,1,1.738,1.737h0a1.738,1.738,0,0,1-1.738,1.738H2564.3a1.738,1.738,0,0,1-1.738-1.738h0A1.738,1.738,0,0,1,2564.3,2155.607Z" transform="translate(-2562.56 -2155.607)" fill="#fff"/>
          </g>
          <g id="Group_4999" data-name="Group 4999">
            <path id="Path_215782" data-name="Path 215782" d="M2124.925,2084.33a12.119,12.119,0,1,1,12.119-12.119A12.133,12.133,0,0,1,2124.925,2084.33Zm0-23.438a11.319,11.319,0,1,0,11.319,11.319A11.332,11.332,0,0,0,2124.925,2060.893Z" transform="translate(-2112.806 -2060.092)" fill="#14244d"/>
          </g>
        </g>
        <g id="Group_5007" data-name="Group 5007" transform="translate(0 27.383)">
          <g id="Group_5005" data-name="Group 5005" transform="translate(0 0)">
            <g id="Group_5004" data-name="Group 5004">
              <g id="Group_5003" data-name="Group 5003">
                <g id="Group_5002" data-name="Group 5002">
                  <g id="Group_5001" data-name="Group 5001">
                    <circle id="Ellipse_86" data-name="Ellipse 86" cx="9.992" cy="9.992" r="9.992" transform="translate(0 14.131) rotate(-45)" fill="#578cca"/>
                  </g>
                </g>
              </g>
            </g>
            <path id="Path_215783" data-name="Path 215783" d="M2219.849,1711.022l-4.159-4.506,1.922-1.774,2.1,2.28,5.225-6.476,2.036,1.643Z" transform="translate(-2207.202 -1691.652)" fill="#fff"/>
          </g>
          <g id="Group_5006" data-name="Group 5006" transform="translate(30.319 8.024)">
            <rect id="Rectangle_3430" data-name="Rectangle 3430" width="26.869" height="3.475" rx="1.738" fill="#578cca"/>
            <rect id="Rectangle_3431" data-name="Rectangle 3431" width="37.455" height="3.475" rx="1.738" transform="translate(0 8.74)" fill="#fff"/>
          </g>
        </g>
        <g id="Group_5014" data-name="Group 5014" transform="translate(0 0)">
          <g id="Group_5012" data-name="Group 5012" transform="translate(0)">
            <g id="Group_5011" data-name="Group 5011">
              <g id="Group_5010" data-name="Group 5010">
                <g id="Group_5009" data-name="Group 5009">
                  <g id="Group_5008" data-name="Group 5008">
                    <circle id="Ellipse_87" data-name="Ellipse 87" cx="9.992" cy="9.992" r="9.992" transform="translate(0 14.131) rotate(-45)" fill="#578cca"/>
                  </g>
                </g>
              </g>
            </g>
            <path id="Path_215784" data-name="Path 215784" d="M2219.849,1275.945l-4.159-4.506,1.922-1.774,2.1,2.28,5.225-6.476,2.036,1.643Z" transform="translate(-2207.202 -1256.575)" fill="#fff"/>
          </g>
          <g id="Group_5013" data-name="Group 5013" transform="translate(30.319 8.024)">
            <rect id="Rectangle_3432" data-name="Rectangle 3432" width="37.455" height="3.475" rx="1.738" fill="#fff"/>
            <rect id="Rectangle_3433" data-name="Rectangle 3433" width="43.719" height="3.475" rx="1.738" transform="translate(0 8.74)" fill="#578cca"/>
          </g>
        </g>
      </g>
      <g id="Group_5019" data-name="Group 5019" transform="translate(39.049)">
        <path id="Path_215785" data-name="Path 215785" d="M2468.426,699.444h-9.442a2,2,0,0,1-2-2h0a2.765,2.765,0,0,0-2.757-2.757H2446.4a2.765,2.765,0,0,0-2.757,2.757h0a2,2,0,0,1-2,2h-9.44a2.015,2.015,0,0,0-2.017,2.017v12.125a2.012,2.012,0,0,0,1.053,1.771,1.965,1.965,0,0,0,.964.247h36.224a2.018,2.018,0,0,0,2.016-2.018V701.461A2.016,2.016,0,0,0,2468.426,699.444Z" transform="translate(-2430.185 -694.686)" fill="#87b1e0"/>
        <g id="Group_5018" data-name="Group 5018" transform="translate(1.361 6.098)">
          <g id="Group_5017" data-name="Group 5017">
            <g id="Group_5016" data-name="Group 5016">
              <path id="Path_215786" data-name="Path 215786" d="M2488.3,804.854h-1.266a.315.315,0,0,1,0-.63h1.262a.315.315,0,0,1,0,.63Zm-3.16,0h-1.263a.315.315,0,0,1,0-.63h1.263a.315.315,0,0,1,0,.63Zm-3.157,0h-1.262a.315.315,0,0,1,0-.63h1.262a.315.315,0,1,1,0,.63Zm-3.156,0h-1.263a.315.315,0,0,1,0-.63h1.263a.315.315,0,0,1,0,.63Zm-3.157,0H2474.4a.315.315,0,1,1,0-.63h1.262a.315.315,0,1,1,0,.63Zm-3.156,0h-1.263a.315.315,0,0,1,0-.63h1.263a.315.315,0,0,1,0,.63Zm-3.157,0h-1.263a.315.315,0,0,1,0-.63h1.263a.315.315,0,0,1,0,.63Zm-3.157,0h-1.263a.315.315,0,0,1,0-.63h1.263a.315.315,0,0,1,0,.63Zm-3.156,0h-1.263a.315.315,0,0,1,0-.63h1.263a.315.315,0,0,1,0,.63Zm-3.157,0h-1.263a.315.315,0,0,1,0-.63h1.263a.315.315,0,0,1,0,.63Zm-3.157,0h-1.263a.315.315,0,0,1,0-.63h1.263a.315.315,0,1,1,0,.63Zm-3.156,0h-.709a1.046,1.046,0,0,1-.717-.284.315.315,0,1,1,.43-.459.42.42,0,0,0,.287.114h.709a.315.315,0,0,1,0,.63Zm35.46-1.477a.315.315,0,0,1-.314-.315V801.8a.315.315,0,1,1,.629,0v1.263A.315.315,0,0,1,2489.029,803.377Zm-36.906-.55a.315.315,0,0,1-.315-.315v-1.263a.315.315,0,0,1,.629,0v1.263A.315.315,0,0,1,2452.123,802.826Zm36.906-2.607a.314.314,0,0,1-.314-.315v-1.263a.315.315,0,1,1,.629,0v1.263A.315.315,0,0,1,2489.029,800.22Zm-36.906-.55a.315.315,0,0,1-.315-.315v-1.263a.315.315,0,0,1,.629,0v1.263A.315.315,0,0,1,2452.123,799.67Zm36.906-2.606a.314.314,0,0,1-.314-.315v-1.263a.315.315,0,1,1,.629,0v1.263A.315.315,0,0,1,2489.029,797.063Zm-36.906-.55a.315.315,0,0,1-.315-.315v-1.263a.315.315,0,0,1,.629,0V796.2A.315.315,0,0,1,2452.123,796.513Zm36.906-2.606a.314.314,0,0,1-.314-.315v-.974a.419.419,0,0,0-.032-.16.315.315,0,1,1,.581-.242,1.039,1.039,0,0,1,.08.4v.974A.315.315,0,0,1,2489.029,793.906Zm-36.906-.55a.314.314,0,0,1-.315-.315v-.423a1.056,1.056,0,0,1,.611-.954.315.315,0,1,1,.265.571.425.425,0,0,0-.247.383v.423A.315.315,0,0,1,2452.123,793.356Zm35.143-1.16H2486a.315.315,0,0,1,0-.629h1.262a.315.315,0,1,1,0,.629Zm-3.157,0h-1.263a.315.315,0,0,1,0-.629h1.263a.315.315,0,1,1,0,.629Zm-3.156,0h-1.262a.315.315,0,1,1,0-.629h1.262a.315.315,0,0,1,0,.629Zm-3.157,0h-1.263a.315.315,0,0,1,0-.629h1.263a.315.315,0,0,1,0,.629Zm-3.157,0h-1.263a.315.315,0,0,1,0-.629h1.263a.315.315,0,0,1,0,.629Zm-3.157,0h-1.262a.315.315,0,1,1,0-.629h1.262a.315.315,0,1,1,0,.629Zm-3.156,0h-1.263a.315.315,0,0,1,0-.629h1.263a.315.315,0,0,1,0,.629Zm-3.157,0h-1.263a.315.315,0,0,1,0-.629h1.263a.315.315,0,0,1,0,.629Zm-3.157,0h-1.263a.315.315,0,0,1,0-.629h1.263a.315.315,0,1,1,0,.629Zm-3.156,0h-1.263a.315.315,0,1,1,0-.629h1.263a.315.315,0,0,1,0,.629Zm-3.157,0h-1.263a.315.315,0,0,1,0-.629h1.263a.315.315,0,0,1,0,.629Z" transform="translate(-2451.808 -791.567)" fill="#fff"/>
            </g>
          </g>
        </g>
      </g>
    </g>
    <g id="Group_5021" data-name="Group 5021" transform="translate(13.462 97.102) rotate(90)">
      <rect id="Rectangle_3434" data-name="Rectangle 3434" width="52.054" height="4.472" transform="translate(6.711 0.001)" fill="#87b1e0"/>
      <path id="Rectangle_3435" data-name="Rectangle 3435" d="M0,0H1.448A2.236,2.236,0,0,1,3.684,2.236v0A2.236,2.236,0,0,1,1.448,4.472H0a0,0,0,0,1,0,0V0A0,0,0,0,1,0,0Z" transform="translate(58.765 0.001)" fill="#578cca"/>
      <path id="Path_215787" data-name="Path 215787" d="M1569.142,3158.606v4.475l-3.929-1.31-2.782-.928,2.782-.928Z" transform="translate(-1562.431 -3158.606)" fill="#578cca"/>
      <path id="Path_215788" data-name="Path 215788" d="M1565.213,3179.417v1.855l-2.782-.928Z" transform="translate(-1562.431 -3178.107)" fill="#fff"/>
    </g>
  </g>
</svg>
